<svg fill="none" height="122" viewBox="0 0 178 122" width="178" xmlns="http://www.w3.org/2000/svg" xmlns:xlink="http://www.w3.org/1999/xlink"><clipPath id="a"><path d="m0 0h178v122h-178z"/></clipPath><g clip-path="url(#a)"><path d="m171.843 117.085-45.431.567-14.728-2.958-6.999-3.579-6.0322 2.636 5.1552 1.447-3.9864 4.67-66.0586.433-3.7082-.384-3.256-3.517 44.0809-.531.16-3.985 5.1622-3.88 27.1051-6.921 5.455-23.3849 7.298-8.9415 14.624-7.2007 4.251-2.37-3.702-1.1185-5.51-4.5791-2.637-6.3549s7.375-3.2857 8.147-3.2857c.773 0 10.652 3.2857 10.652 3.2857l6.554 10.9409 11.862 5.6278 8.981 8.1235 3.931 10.7173 3.033 14.3735-.062 5.1596-4.244 1.083-.097 13.933z" fill="#fff"/><path d="m31.4398 74.5033c-1.1618-.021-2.3307-.049-3.4925-.0699-7.2981-.1818-14.5893-.4614-21.88736-.2797-.7305.028-1.45405.021-2.1776 0-.55658.056-1.50971-.1328-1.98976.2237.1948.9159 1.20359 2.2092 1.40535 2.7685 1.06445 2.0064 2.14978 3.9988 3.1864 6.0192 1.85062 3.5654 3.54117 7.1588 5.28747 10.7452l-.0139-.021-.0557-.1048c2.7968 5.6207 5.6354 11.1225 8.6687 16.5895 1.0297 1.797 2.0315 3.957 4.0143 4.838.0905.035.16.084.2296.133.9114.063 1.8297-.042 2.7411 0 1.4332-.049 2.8525.091 4.2857.14 2.8246.153 5.6423-.063 8.4669-.042 4.5639-.049 9.1278.083 13.6848.3 1.6976.021 3.3882.035 5.0857.042 1.4262 0 2.9081.091 4.2926-.314.0974-.105.2087-.189.3479-.252.0765-.119.0974-.252.1113-.385.153-1.104-.5775-2.132-.981-3.153l-15.6189.189-15.5841-37.3667z" fill="#fbf4d8"/><path d="m31.4395 74.5029h12.3629l21.1708 37.9891-22.8684.343z" fill="#fff"/><path d="m175.516 117.183-3.673-.105c-.181.238-.453.406-.828.42-2.86.154-5.726.342-8.599.377-3.806.119-7.612.07-11.417.112-4.502.063-8.996.252-13.504.308-4.564-.126-9.128.14-13.678-.245-3.833-.294-7.618-.993-11.361-1.832-2.379-.58-4.87-1.23-7.006-2.474-.285-.168-.564-.343-.835-.525-.459-.209-.883-.475-1.294-.727-1.141.35-2.303.713-3.4576.979.9596 0 1.9206-.119 2.8736.042.285 0 .556.098.758.252.411.139.654.65.313 1.419-.383 1.174-.96 2.286-1.788 3.181-.229.251-.48.489-.758.706-.077.056-.167.105-.244.154-.375.244-.772.454-1.1824.629h-.007c-.2018.084-.4035.167-.6053.237-.2157.077-.4313.14-.654.203h1.8507c7.569-.119 69.829.112 75.221-.573 5.392-.692-.111-2.538-.111-2.538z" fill="#f3f9fb"/><path d="m99.8287 119.868h.007c.4103-.175.8073-.385 1.1823-.629.084-.056.167-.098.244-.154.271-.217.522-.455.758-.706.828-.895 1.406-2.007 1.788-3.181.341-.769.098-1.28-.313-1.419-.202-.154-.473-.252-.758-.252-.953-.168-1.913-.042-2.8735-.042-.0974 0-.2018 0-.2992 0-1.3914-.014-2.7759-.014-4.1673.042-3.3047-.056-6.6024.154-9.9001.252-3.59-.049-7.1799.195-10.742.657-1.4749.237-2.9776.182-4.4387.51-1.0366.175-2.0941.252-3.1446.308-.4522.063-.9531.035-1.3984.154.1948-.937-.007-1.888-.3618-2.783-.3478-1.021-.8001-2.006-1.2731-2.985-1.8228-3.572-3.4578-7.229-5.2806-10.8011-1.6279-3.0202-3.1237-6.1242-4.5987-9.3051-2.2332-4.2086-4.717-8.2703-7.0337-12.437-.5844-1.0696-1.2453-2.2301-2.1359-3.083-.0695-.2517-.2365-.4964-.5218-.6851-.5844-.3775-1.1827-.811-1.8923-.8949-.6609-.0769-1.3288-.0699-1.9898-.0978-12.1472-.3706-24.2945-.5873-36.44179-.4824-.64006.007-1.32187.014-1.96193.1468h-.03479c-1.433181-.1468-2.518504 1.4192-2.1984728 2.7614.4522178 1.8526 1.6558128 3.4116 2.4489328 5.1314 1.00184 1.9086 1.96193 3.894 2.91507 5.8305 2.75505 5.6697 5.39178 11.2625 8.26518 16.8973 1.3914 2.712 2.8524 5.502 4.3274 8.249 1.3496 2.398 2.7689 5.579 5.6283 6.369.3688.161.7584.259 1.1688.287.7723.056 1.5515.091 2.3237.133-.0347.139-.0487.286-.0139.454.8001 2.181 3.2699 3.174 5.4197 3.398 2.1498.3 4.3204.44 6.4841.44 5.0161.077 10.0323 0 15.0554.063 3.4925.007 6.9781-.287 10.4706-.398 3.089-.126 6.171-.028 9.26-.063 4.7379-.07 9.4688-.196 14.1997-.329 2.3167-.049 4.6335-.147 6.9432-.37 1.2036-.091 2.442-.224 3.6178-.546.2226-.056.4383-.126.654-.203.2017-.069.4035-.146.6052-.23zm-72.4662-4.509c-.9114-.042-1.8298.063-2.7411 0-.0696-.049-.1461-.098-.2296-.133-1.9828-.881-2.9847-3.041-4.0143-4.838-3.0334-5.467-5.8789-10.9759-8.6687-16.5897l.0556.1049.014.021c-1.7463-3.5934-3.4369-7.1868-5.28751-10.7452-1.04358-2.0204-2.12195-4.0128-3.1864-6.0193-.20872-.5592-1.21056-1.8596-1.40536-2.7684.48005-.3565 1.43319-.1678 1.98976-.2237.73051.014 1.45406.028 2.17761 0 7.2981-.1748 14.5962.0979 21.8874.2796 1.1618.021 2.3306.042 3.4925.0699 2.1428.042 4.2856.0839 6.4284.1259.7862.021 1.5793.0419 2.3655.0839.9601.0629 1.9202-.0629 2.762.3985.1252.0908.2504.1887.3548.3076 1.2523 1.3073 1.8576 2.8173 2.8455 4.3833 1.9063 3.3138 3.8752 6.5856 5.7536 9.9133 1.3636 2.6775 2.4072 5.5089 3.8821 8.1305 1.5306 2.9499 2.9638 5.9489 4.383 8.9559.7723 1.545 1.6211 3.069 2.3307 4.642.0278.077.0626.16.0974.237.4105 1.021 1.141 2.049.981 3.153-.0209.133-.0418.273-.1113.385-.1322.063-.2435.147-.3479.251-1.3845.413-2.8664.322-4.2926.315-1.6975 0-3.3881-.021-5.0857-.042-4.5639-.217-9.1209-.349-13.6848-.301-2.8246-.021-5.6423.196-8.4669.042-1.4263-.049-2.8525-.188-4.2857-.139zm65.9612 3.628c-6.2615.447-12.5577.412-18.8331.573-4.9953-.063-10.0254-.147-15.0206.189-4.6474.266-9.3088.07-13.9631.168-3.3464-.021-6.6998 0-10.0393-.21-2.1497-.252-4.6822-.182-6.1641-1.909 4.4666.462 8.954.042 13.4344.091 3.4229-.119 6.9572.119 10.3941.259 2.1984.028 4.3969.028 6.6023.042 1.0019-.014 2.0663 0 3.0751-.182 1.1549-.049 2.275-.342 3.4091-.51.3061-.049.6122-.091.9183-.133 4.8631-.594 9.747-1.14 14.6449-1.447 3.7221-.077 7.4442-.203 11.1594-.406 2.9846-.028 5.9762.007 8.9539-.118-.348.776-.786 1.496-1.475 2.048-2.0593 1.433-4.7169 1.286-7.1102 1.552z" fill="#283441"/><path d="m85.2254 111.828c.8488.098 1.7949.315 2.595.461 1.2523.154 2.5185.217 3.7847.308 1.4193.049 2.8386.203 4.2509.231-.654-1.762 2.2402-3.964 3.5482-4.845 3.7428-2.412 8.3908-1.615 12.5648-1.133 1.134.217 2.282.378 3.409.546-2.574-1.301-5.135-2.608-7.716-3.908-11.8617 1.929-27.411 7.557-27.411 7.557 1.6697.182 3.3325.406 4.9744.776z" fill="#f3f9fb"/><path d="m110.118 113.366c1.913.539 3.854.965 5.796 1.398 5.183 1.112 10.477 1.378 15.765 1.364 2.748-.07 5.496.014 8.251-.028 3.221-.042 6.435-.238 9.656-.245 4.571-.112 9.142-.056 13.713-.196 2.331-.035 4.675-.258 6.999-.356.118-.566.23-1.133.334-1.699.313-1.531.55-3.076.772-4.621-20.197 6.711-50.627 5.187-61.286 4.39z" fill="#f3f9fb"/><path d="m173.499 89.7363c-.431-3.3067-1.19-6.3618-2.143-9.5287-.869-2.6077-2.087-5.0965-3.374-7.5224-2.47-3.9639-6.115-6.956-10.025-9.3959-3.082-1.9015-6.234-3.6982-9.511-5.2292-4.626 2.6635-5.976 6.0891-9.121 10.0251-.174.2237-.368.4474-.57.6641-.014.014-.035.035-.049.0489-.459.4824-.988.9438-1.565 1.3283-1.517.9997-3.34 1.4402-4.877.2447-1.336-.9787-2.136-2.7405-2.387-4.6001-2.052.8599-8.334 4.1107-12.272 12.8425-3.987 8.8366-7.117 19.6377-8.036 22.9374 2.512 1.3 5.058 2.552 7.507 3.845.821.343 1.6.713 2.442 1.063 1.719.685 3.451 1.335 5.211 1.922 1.419.063 2.832.063 4.237.021 1.266-.042 2.532-.126 3.792-.251.445-.049.897-.098 1.342-.154.467-.063.94-.126 1.406-.203 3.618-.363 7.117-1.587 10.283-3.377 1.954-1.076 3.763-2.377 5.607-3.628.348-.224.731-.51 1.169-.468h.021c.556-.112 1.245-.021 1.753-.007 1.217.049 2.435.098 3.652.077 5.33.139 10.659.188 15.988.363.348-1.1953.223-2.4747.251-3.7121-.098-2.3769-.369-5.0335-.724-7.3056z" fill="#e3f0e6"/><g fill="#283441"><path d="m175.523 87.1636c-.765-4.0478-1.878-8.2774-3.722-12.0036-.786-1.5939-1.426-3.2857-2.518-4.7049-2.359-3.5444-5.705-6.3898-9.288-8.6689-3.305-2.1042-6.7-4.0967-10.297-5.6766-.278-.2657-.612-.4475-.939-.6432.974-.3426 1.885-.8949 2.609-1.6219 2.282-2.5587 3.047-6.9002.765-9.7105-1.155-1.3703-2.783-2.4818-4.591-2.6776-1.538-.0489-3.11.2936-4.502 1.0067-.522.3566-1.002.804-1.398 1.3073-.39-.8109-.807-1.6079-1.315-2.3559-1.635-2.4399-4.425-3.8031-7.25-4.2785-1.864-.2377-3.77.2237-5.468.9857-2.275.9508-4 2.9642-5.03 5.1803-.327.8879-.904 2.9922-.522 4.2366 0 .0559.007.1188.021.1748.174.9018.473 1.7687.898 2.5796.09.8599.264 1.7058.556 2.5238.466 1.3213 1.315 2.4818 2.345 3.4116 1.614 1.4122 3.471 3.0131 5.67 3.4046.174.028.341.049.515.0559-.125.07-.244.1329-.348.1678-.445.1538-.877.3566-1.315.5174-2.192.4124-4.334 1.2094-6.435 1.9365-4.564 1.8037-9.741 5.5089-12.683 9.4728-2.728 3.6633-4.126 8.0816-5.344 12.437-1.287 4.8168-2.442 9.6476-3.687 14.4853-.097.2587-.132.5244-.125.776-.703.2238-1.412.4195-2.108.6433-1.162.405-2.3586.713-3.5622.993-2.4211.671-4.8701 1.3-7.312 1.915-3.0125.643-5.9971 1.468-8.9122 2.468-2.5324.923-5.3431 1.531-7.4025 3.391-.3617.349-.7444.671-1.0922 1.041-1.2593 1.426-3.8891 4.992-.8558 5.922 2.7064.153 5.0718-1.594 7.0755-3.23 1.8854.559 3.8543.594 5.7814.902 2.5046.496 5.0301.832 7.5834.971 1.4471.091 2.8872.238 4.3343.322.6749-.014 1.5097.147 2.1498-.203.327-.223.4661-.517.4731-.79.1252-.021.2504-.056.3687-.077.3687-.084.7375-.174 1.0992-.244 1.1895-.273 2.3935-.65 3.5695-1.007.41.252.834.517 1.294.727.271.189.549.364.834.524 2.136 1.245 4.627 1.888 7.006 2.475 3.743.839 7.535 1.538 11.362 1.832 4.55.384 9.12.119 13.677.245 4.502-.056 8.996-.252 13.504-.308 3.806-.042 7.611 0 11.417-.112 2.866-.035 5.733-.224 8.599-.377.376-.014.654-.182.828-.42.097-.056.181-.133.257-.224.425-.727.467-1.608.745-2.398.856-3.663 1.364-7.417 1.377-11.178.877.014 1.802-.231 1.969-1.21.348-1.167.543-2.3626.494-3.586.063-3.8241-.528-7.5433-1.162-11.3184zm-43.343-24.8041c.035-.1328.077-.2796.104-.4194.021-.007.049-.021.07-.028.877-.3635 1.878-.818 2.637-1.4262.744-.4963 3.242-4.0827 1.05-3.845-.181.0978-.348.1817-.515.2586-.236.056-.48.1049-.723.1399-.71.1048-1.44.1608-2.164.1398-.417-.042-.828-.1119-1.231-.2307-.585-.1748-1.148-.3915-1.712-.6292-1.899-1.3073-3.784-2.8803-4.404-5.2013-.146-.6502-.229-1.3004-.257-1.9435.71-1.0277 1.788-1.7548 3.11-1.9225 1.781-.3636 2.393.0559 3.548 1.3702.355.2866.682.2307.946.014.021-.1398.063-.2727.112-.3985.055-.1398.118-.2727.201-.3845.063-.0769.146-.1398.237-.1958.195-.1258.431-.1957.654-.1817.181.007.355.1048.494.2167.076.0559.132.1258.188.1957.02.021.041.049.055.0699.056.0769.105.1608.153.2517.042.0909.077.1818.112.2727.02.0489.041.0909.055.1398.014.0559.021.1188.035.1748.021.0908.042.1747.056.2656.028.2167.028.4335.028.6572v.0839.2027c.069.1398.146.2796.229.4195.084.1957.174.3845.292.5662.863 1.3213 2.394 2.0834 3.924 2.3001.251.0419.501.0559.759.0559.841 0 1.676-.1888 2.497-.3705.056-.014.118-.028.174-.042.084.0979.153.2028.237.3007 1.043 1.2863 2.191 2.6356 3.569 3.5933-.953.6152-1.879 1.2654-2.741 1.9995-2.999 2.6006-4.55 6.4526-7.424 9.2211-3.889 3.3207-5.155-2.8034-4.355-5.6837zm-36.3305 50.4755c-1.4123-.028-2.8316-.189-4.2508-.231-1.2593-.091-2.5255-.154-3.7848-.308-.8-.14-1.7532-.363-2.595-.461-1.6419-.371-3.3047-.594-4.9744-.776-1.0297-.126-2.1846-.797-3.1794-.224-.9045.622-1.6628 1.447-2.6159 1.993-.7862.461-1.8646.852-2.8247.985.654-1.517 1.8576-2.747 3.1099-3.789 2.108-1.356 4.5709-1.922 6.9085-2.747 4.8631-1.559 9.8305-2.398 14.7354-3.887 1.9619-.504 3.8747-1.154 5.7747-1.839.313-.147.758-.28 1.155-.468.014 0 .027.014.041.014 1.1.685 2.275 1.244 3.375 1.929.313.154.619.315.932.469 2.581 1.3 5.141 2.614 7.715 3.908-1.134-.168-2.275-.329-3.409-.546-4.174-.482-8.821-1.279-12.5643 1.133-1.308.881-4.2022 3.083-3.5482 4.845zm75.8195-5.845c-.09.664-.181 1.328-.271 1.993-.216 1.545-.459 3.09-.772 4.621-.105.566-.216 1.132-.334 1.698-2.324.098-4.669.322-6.999.357-4.571.133-9.142.077-13.713.196-3.221.014-6.442.209-9.657.244-2.748.049-5.496-.042-8.251.028-5.287.007-10.582-.258-15.765-1.363-1.941-.433-3.882-.86-5.795-1.398-1.419-.399-2.825-.86-4.195-1.433-.39-.301-.814-.553-1.225-.825-.424-.245-.904-.525-1.405-.378-1.684.699-3.5345 1.105-5.3503 1.357.1043-.154.2156-.308.327-.462.2087-.266.4452-.503.6887-.741l-.0209.028c1.3355-1.475 3.3115-2.167 5.2455-2.468 2.039-.126 4.098.063 6.123.322 3.979.587 7.924 1.447 11.952 1.685 1.6.125 3.207.195 4.814.202.077.021.154.049.23.07.251.056.445.014.598-.07 2.088-.021 4.175-.16 6.234-.454 2.943-.343 5.879-.755 8.662-1.818 2.637-1.034 5.134-2.412 7.43-4.082.835-.546 1.614-1.168 2.4-1.783.237.042.487.056.731.035 1.718.091 3.437.161 5.155.182 4.481.181 8.968.209 13.455.419-.139 1.272-.125 2.573-.264 3.838zm2.289-6.236c-5.329-.168-10.658-.217-15.988-.363-1.217.021-2.435-.028-3.652-.077-.508-.014-1.197-.105-1.753.007 0 0-.014 0-.021 0-.439-.035-.814.244-1.169.468-1.844 1.251-3.66 2.552-5.608 3.628-3.165 1.79-6.658 3.007-10.282 3.377-.466.077-.94.14-1.406.203-.445.056-.897.105-1.342.154-1.267.125-2.526.209-3.792.251-1.405.042-2.818.049-4.237-.021-1.753-.587-3.486-1.237-5.211-1.922-.835-.357-1.621-.727-2.442-1.063-2.449-1.293-5.002-2.538-7.507-3.845-1.607-.832-3.2-1.6848-4.731-2.6006 1.169-4.4742 2.234-8.9764 3.451-13.4437 1.211-4.4043 2.574-8.8786 5.364-12.5558 2.178-2.8733 5.218-4.8867 8.168-6.9001 2.546-1.5241 5.385-2.4329 8.161-3.4326-.223.9927-.251 2.0903-.105 3.1529.251 1.8596 1.051 3.6214 2.387 4.6001 1.537 1.1955 3.36.755 4.877-.2447.577-.3775 1.106-.8389 1.565-1.3283.014-.014.035-.0349.049-.0489.208-.2167.403-.4404.57-.6642 3.138-3.9289 4.495-7.3615 9.121-10.0251 3.277 1.5311 6.429 3.3278 9.511 5.2293 3.91 2.4399 7.555 5.432 10.025 9.3959 1.287 2.4189 2.504 4.9147 3.374 7.5223.953 3.16 1.712 6.222 2.143 9.5288.348 2.279.626 4.9286.724 7.3056-.035 1.2374.097 2.5167-.251 3.7121z"/><path d="m127.727 51.1881c.32-.9578 1.009-1.6079 1.899-2.0624.501-.2237.362-.9507-.201-.9228-.543.056-1.016.3915-1.468.6782-.738.4684-1.086 1.2653-1.454 2.0274-.209.3635-.014.7899.229 1.0975.174.3076.348.6222.55.9089.549.755 1.043 1.5799 1.683 2.2441.425.2866 1.044-.0839.974-.5942-.104-.5244-.563-.9019-.834-1.3423-.508-.6432-.954-1.3353-1.378-2.0344z"/><path d="m130.9 51.4256c-.738-.2797-1.092.9298-.306 1.0906.675.1048.89-.797.306-1.0906z"/><path d="m134.427 53.5092c-.258-.0839-.55.0209-.696.2516-.118.2377-.118.4894-.264.7271-.153.2237-.425.3705-.418.6711-.014.3216.237.6432.571.6642.765.0559 1.788-2.0134.8-2.314z"/></g><path d="m115.67 9.38189c.891.93681 1.427 1.60091 2.171 2.69151.703 1.0277 1.336 2.0973 1.927 3.1949.592 1.0976 1.106 2.1742 1.614 3.2858.028.0559.174.3845.091.1887.062.1399.125.2867.188.4335.125.2866.25.5732.375.8599.258.6012.515 1.2094.772 1.8106.355.839 1.225 1.5031 2.178 1.1675.814-.2866 1.545-1.2863 1.162-2.1881-2.115-4.9776-4.3-10.0042-8.063-13.97506-.634-.66414-1.865-.62919-2.463.05593-.647.74105-.62 1.76872.055 2.47482z" fill="#edcb47"/><path d="m135.317 20.3158 4.314-18.20459c.522-2.1951746-2.873-3.006131-3.388-.81096l-4.314 18.20455c-.521 2.1952 2.874 3.0062 3.388.811z" fill="#edcb47"/><path d="m143.123 19.4979 6.749-6.2989c.668-.6222.626-1.8806-.056-2.4748-.744-.6572-1.753-.6083-2.463.0559l-6.748 6.2989c-.668.6222-.626 1.8806.056 2.4748.744.6572 1.753.6082 2.462-.0559z" fill="#edcb47"/></g></svg>