<svg fill="none" height="144" viewBox="0 0 127 144" width="127" xmlns="http://www.w3.org/2000/svg" xmlns:xlink="http://www.w3.org/1999/xlink"><clipPath id="a"><path d="m0 0h127v144h-127z"/></clipPath><g clip-path="url(#a)"><path d="m34.5458 136.351s-5.1959 1.041-2.2024 4.514c2.9936 3.473 32.3135 4.578 38.6171.63 6.3036-3.945-2.4548-4.18-2.4548-4.18s-15.5238-5.482-33.9599-.968z" fill="#c2e7c9"/><path d="m45.1089 74.0878c-4.2894-6.7921-3.99-15.5841-3.99-15.5841-1.3172-5.9784 9.96-13.8883 12.6799-15.6998-.5432-1.1648-.8126-2.4324-1.159-3.6658-.1497-.424-.372-.8522-.7526-1.1049-1.0649.2998-2.0998.7537-3.0278 1.289-4.3621 2.3083-8.4504 5.3532-11.2345 9.4559-4.1354 6.3852-5.6664 14.6719-3.6008 22.0421.6928 2.1584 1.809 4.107 3.3699 5.7515.5046.7965.3336 1.8415.5046 2.7408.1412 1.3618.1796 2.5096.2139 3.8371.0769 2.3469.2266 4.6894.2694 7.0362.1411 5.653.1796 11.3662.5474 16.9972.0898 1.563.1967 3.122.3207 4.681 1.2231.21 2.4547.381 3.6907.484 1.3257.146 2.6557.244 3.99.33.2608-3.593 2.1938-32.2221-1.8218-38.5859z" fill="#fbe4dd"/><path d="m34.0156 70.79s.0043.0172.0086.0257v-.0085z" fill="#ebf7ed"/><g fill="#2e3946"><path d="m75.1559 52.397c-.402-1.3662-1.0435-2.6552-1.7919-3.8629-.7869-1.182-1.5053-2.4282-2.5103-3.4431-1.0093-.9936-1.9587-2.0599-3.0449-2.9678-.5303-.4283-1.1076-.8009-1.6379-1.2248-1.4882-1.2591-3.2159-2.2826-5.0677-2.895-.2865-.0685-.5901-.1799-.8895-.1499-.0385-.0214-.077-.0428-.1155-.0642-.0556-.03-.1197-.0643-.1881-.1028 1.6208-.9465 2.6942-3.3104 2.5616-5.1605-.0214-.6038-.1753-1.1691-.4319-1.6744-.03.0599-.0727.1156-.124.1713-.1668.1841-.4234.2269-.6586.2312-.1967 0-.402.0086-.603.0257.2309.3983.3806.8608.402 1.3619.1069 1.7772-.7056 3.9013-2.5659 4.4067-.2395.0942-.5816.0985-.8254.2227-.3592.1927-.3165.758.0599.9079.1924.0599.3891.0728.5859.0599.1111.0857.248.1542.3763.2013.2266.1071.4533.2184.68.3255-.03.6081-.0813 1.2205-.1925 1.8243-.2095 1.0107-1.0862 3.3447-2.4205 2.8907-.526-.2141-1.0606-.5396-1.2958-1.0792-.4063-.8351-.7013-1.7173-.9237-2.6209-.2609-1.0749-.6287-2.2611-1.5909-2.8992.3079-.3212.5731-.6724.7997-1.0493-.0513-.0042-.1069-.0085-.1582-.0171-.1582.0343-1.3642-.2227-1.4369-.0985-.2908.3983-.4704.651-.9751.8908-.0256.0128-.0513.03-.077.0428-.0171.0043-.0342.0086-.0513.0171-.2608.1114-.603.227-1.0691.3555-.0257.0085-.0556.0171-.0813.03-.1111.0428-.2181.0813-.3207.1199-.8596.3383-1.6935.7408-2.506 1.1948-.4747.2955-.6672.3854-1.005.591-.0513.03-.0984.0642-.1454.0942-.432.3169-.9622.6638-1.4498.9721-.5388.4154-1.0221.7109-1.2829.8651-1.3172.8779-2.536 1.9143-3.6565 3.032-3.9301 3.7687-6.4147 8.9163-7.5395 14.2052-1.1204 6.4366-.975 13.991 3.6864 19.0572.5217.484.3122 1.2934.4576 1.9357.201 1.7088.2138 3.4346.2908 5.1776.4447 9.3488.2865 18.7235 1.1931 28.0505.0129.043.0257.081.0428.124-.0128.223.0855.454.3464.643h-.0043c.9751.355 2.0057.535 3.0449.668 0 .959-.0684 1.923-.1411 2.878-.2438 3.614-.5731 7.237-1.0349 10.83-.3678 2.527-.7698 5.045-.9751 7.593-.0556.124-.0727.274-.0727.398-.0128.309-.0085.651.278.861 1.7063.947 3.7719 1.246 5.7006 1.311.851-.009 1.6935-.12 2.5403-.185.4575-.042 1.0648-.064 1.2829-.548.1625-.561.1027-1.216-.0898-1.764-.3464-.801-1.4155-.762-2.1083-1.105-.7313-.266-1.3428-.651-2.0399-1.075.0898-.445.248-.874.3421-1.315.3421-1.7.9793-3.323 1.377-5.01.3807-1.709.757-3.422 1.2274-5.109.4661-1.666.9152-3.336 1.3899-4.998.1668-.655.3421-1.311.4789-1.974.0043-.026.0086-.052.0129-.077 2.429.115 4.8667.179 7.2915.317.3079.012.6158.021.9194.029-.1924 3.85-.2352 7.73-.4918 11.585-.1882 3.066-.2694 6.141-.2822 9.211 0 .489-.0899 1.08.372 1.401.3336.235.7698.248 1.1632.274.7698.107 1.5481.013 2.3222.043.5346.051 1.0777.034 1.6165.021 1.2872-.043 2.5873.052 3.866-.111.5388-.129 1.2145-.12 1.6122-.553.2438-.342.2395-.792.2566-1.194.0342-.433-.0641-.917-.4747-1.135-.7697-.377-1.6977-.497-2.5317-.797-.6329-.27-1.2615-.719-1.501-1.392-.2908-1.057-.1925-2.18-.1412-3.263.2139-2.48.6373-5.015 1.0264-7.482.3208-2.329.5731-4.68 1.0734-6.98.4491-.06.8981-.124 1.3471-.201.4576-.125 1.0093-.112 1.3813-.437.1283-.12.201-.27.2353-.433.047-.073.0855-.15.1111-.231.0556-.167.0428-.364.0471-.54.0428-2.072.077-4.145.1112-6.218.124-6.8219.0727-13.6482.402-20.466.0385-2.3254.2352-4.6465.3207-6.972.0299-2.1369.2395-4.2654.479-6.3852.124-1.0321.2437-2.0642.3678-3.0963.0342-.364.0342-.728.3464-.9678 1.8004-2.077 3.7291-4.3297 4.6956-6.9677 1.0948-2.8607 1.0948-6.2396 0-9.1475zm-32.0611-11.2845s.0042.0128.0085.0171l-.0385-.0556s.0214.0257.03.0428zm-9.0748 29.6779v.0171l.0085.0086s-.0042-.0171-.0085-.0257zm6.9878 59.6386c.0257-.171.0513-.343.0813-.514.8382.128 1.655.266 2.5103.266h.1069c-.0428.205-.0898.411-.1326.616-.0213 0-.0427.004-.0641.009-.3507-.013-.7014-.06-1.0563-.052-.5046.018-.9451.056-1.4626-.042.0086-.095.0128-.189.0214-.283zm-.1625 1.066c.7612-.021 1.5139-.167 2.2794-.141.0727 0 .1839.008.3207.013-.0342.163-.0727.33-.1069.492-.047.266-.1881.634-.2694.99-.0684.008-.1411.012-.2095.017-.4876 0-.9794-.017-1.4583-.125-.2224-.034-.4576-.132-.6928-.227.0427-.342.0898-.685.1368-1.027zm6.5773 4.261c.0214.086.0214.172.0171.257-1.2573.073-2.4633 0-3.7334-.158-1.1375-.116-2.258-.338-3.2587-.917.0257-.359.0684-.715.1069-1.07 1.0007.402 2.1682.407 3.216.248 1.0862.81 2.3307 1.362 3.6521 1.64zm-.2053-20.003s.0129-.035.0171-.052v-.017c-.6115 1.996-1.1931 4.021-1.655 6.056-.4191 1.922-.7954 3.871-1.2573 5.79-.1753.646-.325 1.297-.4704 1.952-.2737-.021-.5517-.038-.8254-.077-.6029-.021-1.2145-.205-1.8218-.252.077-.476.154-.955.2353-1.431.2565-1.773.4319-3.55.6115-5.331.154-1.803.3421-3.606.4747-5.409.077-.908.1454-1.82.1454-2.732.0043-.09.0085-.185.0085-.283.1198.013.2438.026.3635.043 1.5482.184 3.1005.304 4.6572.394-.1582.441-.3208.878-.479 1.353zm11.2943 17.207c.6971.115 1.3899.017 2.087-.043.2523-.021.5602 0 .8296 0 .2352.009.4619-.06.6928-.077-.1496.163-.3036.317-.4661.462-.9494.823-2.1511 1.427-3.4127 1.525.0129-.629.0257-1.259.0471-1.889.0727.009.1496.013.2223.026zm-.1967-.827c.0129-.321.0214-.642.0342-.959.1497-.009.3037-.021.4405.017 1.0264.034 2.0613.026 3.0877 0 .0299.356.0812.685.1539.985h-.0085c-.5731.017-1.1461.052-1.7192.013-.5517-.051-1.1333-.017-1.6892 0-.0941-.009-.1967-.03-.2994-.047zm8.3264 3.349c-.0085.107-.0256.214-.0427.321-1.1205.287-2.2837.176-3.4598.193-1.2915.017-2.583.022-3.8702-.073 1.1247-.291 2.181-.835 3.0492-1.606.171-.167.3635-.346.5388-.548.727.775 1.9073 1.289 3.7804 1.713zm-3.0449-20.016c-.171 1.019-.3378 2.043-.449 3.07-.3892 3.349-.928 6.681-1.2274 10.043-.0513.676-.0769 1.28-.0727 1.833-.3207 0-.6414.008-.9622 0-.573-.03-1.1418.03-1.7149.017-.248 0-.5217-.077-.7826-.09.1583-3.713.3806-7.426.432-11.143-.0214-1.448.0983-2.904 0-4.351 1.6336.004 3.2672-.06 4.8923-.214-.0385.278-.0684.561-.1112.839zm5.5168-47.9903c-.2053.2441-.4191.4197-.5603.8137-.1625.6553-.1753 1.3447-.2779 2.0128-.2866 2.3254-.5645 4.6551-.6928 6.9934-.2267 5.3917-.4876 10.7834-.6415 16.1794-.0342 3.7986-.0171 7.593-.0727 11.391-.0171 2.176-.0684 4.347-.0941 6.523.0342.33-.0299.753-.0428 1.156-.1625.043-.325.086-.4832.099-1.33.197-2.6686.368-4.0114.436-3.1261.193-6.248.009-9.3741-.128-1.9758-.073-3.9558-.15-5.9273-.27-1.33-.081-2.66-.18-3.99-.33-1.2402-.098-2.4676-.274-3.6907-.484-.124-1.558-.2309-3.117-.3207-4.68-.3678-5.636-.4063-11.3491-.5474-16.9977-.0428-2.3469-.1924-4.6894-.2694-7.0362-.0342-1.3276-.0727-2.4753-.2138-3.8372-.1711-.8993 0-1.9442-.5047-2.7408-1.5566-1.6402-2.6771-3.593-3.3699-5.7514-2.0613-7.366-.5303-15.6569 3.6009-22.0422 2.784-4.1027 6.8723-7.1475 11.2344-9.4558.9237-.5396 1.9629-.9936 3.0278-1.2891.3806.2527.603.681.7526 1.1049.3464 1.2334.6116 2.5053 1.159 3.6659.0855.1798.1753.3554.2737.531.3549.6767.9964 1.1477 1.6678 1.4818 3.1647 1.5502 5.0421-2.5567 5.1575-5.1562 1.0991.4796 2.0485.9207 3.0877 1.6102 1.0092.8009 2.057 1.546 3.0662 2.3469 1.0179.9678 2.0057 1.9742 2.968 2.9977 2.1724 2.7237 3.9386 6.0384 4.2508 9.58.2994 4.7793-2.1725 7.9013-5.1575 11.2845z"/><path d="m52.8966 55.3476c-1.0349.4325-1.856 1.2848-2.6386 2.0984-.4362.4668-.8553.9508-1.2488 1.4518-.1839.1071-.3036.3041-.3549.5054-.0342.137-.0428.2655.0214.4539.0812.227.2993.3426.4447.5225.5303.6552.9622 1.4475 1.6935 1.8928.7399.3041 1.4754-.3468 2.0143-.7965.9109-.7837 1.1033-1.8158.7227-2.9293-.0299-.6852.4063-1.2976.5132-1.9656.2053-.8309-.2865-1.5161-1.1675-1.2377zm-1.5909 5.4688c-.4233-.4583-.7355-1.0064-1.1675-1.4561.8297-.8522 1.608-1.7387 2.5831-2.4753-1.4498 2.2955.8724 2.531-1.4156 3.9314z"/><path d="m67.4494 48.0156c-.5388-.1885-1.0905-.3341-1.6507-.4197-.4619-.0942-1.0306-.3126-1.3856.1285-.881 1.5459-1.4711 3.2118-2.1554 4.8606-1.022 2.5396-2.0612 5.2376-2.4419 7.9955-.2052.8394.6971 1.1991 1.3514 1.3704.9537.3126 1.9501.5053 2.9508.6081.5346.0214 1.2274.0685 1.5995-.3811.2565-.2527.3848-.5782.4918-.9122.0556-.1713.124-.3426.1625-.5182 1.7191.09 2.8567-3.3618 2.8866-4.7579-.0513-.4068-.372-.788-.7569-.9207.6586-1.7387 1.33-3.4988 1.5994-5.3446-.0684-.9593-1.886-1.379-2.6515-1.7087zm-1.0263 11.3786c-.9366-.4111-.6372-2.4453-.0727-3.0748.4747.0342.9408.1542 1.4198.1028-.2994.9464-.4704 2.4067-1.3471 2.9763zm.8082-4.3938s-.0042.0257-.0085.0385c-.2823-.0385-.5645-.0856-.8468-.0856-1.2316-.0043-1.7148 1.426-1.9372 2.4282-.1283.8907.0128 1.9228.5474 2.6123-.1668.3897-.2438.8051-.3336 1.2162-1.129-.0299-2.2409-.3597-3.2929-.7494.3934-2.5738 1.377-5.0063 2.2965-7.4259.5345-1.3233 1.052-2.728 1.7277-4.0085 1.1333.1928 2.2238.5953 3.2544 1.0964-.3335 1.6659-1.1333 3.1947-1.4112 4.8778z"/><path d="m58.9434 32.513c0 .1927.1753.2655.3335.3169.2823.1242.5731.2398.8425.394-.2224.5524-.4319 1.1091-.6244 1.6787-.0898.1756-.1026.4283.1112.5182.2908.1199.4319-.2056.479-.4325.1326-.4369.3036-.8565.479-1.2805.0769-.2398.2737-.4968.1411-.7495-.1754-.2012-.4405-.3169-.68-.4282-.2737-.1071-.5474-.2827-.8425-.2869-.1325.0257-.2394.1327-.2394.274z"/><path d="m59.4013 33.7207c-.2052-.2099-.5388.107-.3506.3254.201.2527.5773-.1027.3506-.3254z"/><path d="m57.9765 35.1338c-.4362.0471-.2481.7666-.0043.9507.2993.2484.6372-.197.3293-.4325-.1198-.1713-.0257-.5139-.325-.5182z"/><path d="m45.9168 39.0479s.0171-.0128.0257-.0171c.0427-.0257.0812-.0514.1197-.0728.3379-.2056.5346-.2955 1.005-.591.0513-.0342.1069-.0685.1668-.107.9451-.5225 1.5395-.7837 2.3392-1.0878.1027-.0386.2096-.0814.3208-.1199.0214-.0086.0385-.0171.0599-.0214h.0213c.4662-.1328.8083-.2484 1.0692-.3598.047-.0214.0855-.0385.1283-.0599.5046-.2398.6842-.4925.975-.8908.0727-.1242 1.2787.1328 1.4369.0985.0514.0086.1069.0129.1583.0171 1.779.2099 3.5238-.5952 3.8275-2.5138 0-.1585-.077-.3083-.201-.3854-.1326-.1927-.2481-.4411-.1326-.6681.1454-.2141.4747-.1071.6586 0 .1582.1199.3036.3041.526.2612.4447-.1413.6115-.6381 1.0263-.8779.3636-.2312.7784-.3255 1.2018-.364.201-.0171.4019-.0257.6029-.0257.2352-.0086.4918-.0514.6586-.2313.0556-.0556.0941-.1156.124-.1713.2652-.4967-.2138-1.092-.5345-1.486-.9836-1.1477-2.6557-1.5374-4.1012-1.2505-1.2958.3212-2.4034 1.1906-3.2245 2.2398-1.2872-1.0492-3.2801-.1414-4.0755 1.1648-1.0178-.8565-2.5146-1.0235-3.6736-.3597-1.5352.8908-1.7277 2.9035-1.4754 4.4966-1.3556.2142-1.5609 1.3319-1.501 2.5139-1.0478.5696-1.1119 1.9657-.4662 2.835 0 0 .077-.0428.201-.1156.2609-.1499.7441-.4497 1.283-.8651.4875-.3126 1.0178-.6552 1.4497-.9721z"/></g><path d="m43.0905 41.1078s-.0214-.0257-.03-.0429l.0385.0557s-.0042-.0128-.0085-.0171z" fill="#23a437"/><path d="m6.6287 42.1959s-.00855-.0214-.01283-.03c-.00855-.0214-.02138-.0428-.02993-.0599.0171.0299.02993.0599.04704.0899z" fill="#2e3946"/><path d="m6.63281 42.1958s.01283.0214.01711.0343z" fill="#2e3946"/><path d="m47.4223 135.756c.0214.086.0214.172.0171.257-1.2573.073-2.4633 0-3.7334-.158-1.1376-.116-2.258-.339-3.2587-.917.0256-.359.0684-.715.1069-1.07 1.0007.402 2.1682.407 3.2159.248 1.0863.809 2.3307 1.362 3.6522 1.64z" fill="#2e3946"/><path d="m66.6413 135.486c-.0086.108-.0257.215-.0428.322-1.1204.287-2.2836.175-3.4597.192-1.2915.017-2.583.022-3.8702-.072 1.1247-.292 2.181-.836 3.0491-1.606.1711-.167.3635-.347.5389-.549.727.776 1.9073 1.289 3.7804 1.713z" fill="#2e3946"/><path d="m90.1324 13.8623c.4191.1456.6757-.2698.8981-.5524.3891-.5182.7184-1.0792 1.0776-1.6188.556-1.0064 1.0692-2.05992 1.4113-3.16053.372-1.29332.5388-2.58236.5987-3.93564.2096-2.80506-1.9159-4.99343-4.7512-4.5394818-1.1761.1456058-2.2067.8650708-2.9337 1.7858118-.3379.43254-.3379 1.0064-.5175 1.49889-.2993 1.10489-.1967 2.31256.0086 3.4303.2566 1.2762.8809 2.304 1.5353 3.44745.5217.9893 1.1503 1.91 1.8474 2.7836.2737.287.4106.7195.8297.8608zm-2.8268-6.68929c-.0128-.04283-.0299-.08565-.0385-.12419h.0086c.0128.03854.0299.07708.047.11562-.0043 0-.0086.00857-.0171.01285zm.8125-2.95494c.0514-.28693.1155-.59528.2267-.86936.1882-.32975.4576-.60383.8553-.76229.1454-.08137.2865-.14989.4191-.20556.8639-.10278 1.6764.58671 2.0142 1.43037.2737.40684.2395 1.00211.2181 1.48175-.0556 1.06207-.4875 2.44961-1.702 2.60378-1.6208.08137-2.2708-2.39822-2.0314-3.67869z" fill="#23a437"/><path d="m91.0514 15.2973c-.1454-.5696-.9964-.5696-1.1375 0-.0599.3255-.0043.6724-.0128 1.0021 0 .2869.2052.5439.5089.5867.8681.0685.6842-1.0278.6414-1.5931z" fill="#23a437"/><path d="m91.1674 18.8905c-.0299-.2998-.0171-.6125-.0641-.8994-.0984-.4239-.7356-.5139-.9366-.1242-.077.1242-.077.2655-.0812.4069 0 .2312-.0513.4625-.0385.6937.0983.6852 1.1204.6124 1.1204-.077z" fill="#23a437"/><path d="m90.9359 24.3591c.7184-.0214.5431-.9036.5174-1.3961.0172-.2526-.1539-.4967-.4019-.561-.4277-.1242-.7827.3084-.6757.7195.0128.4582-.0984 1.2334.5602 1.2376z" fill="#23a437"/><path d="m91.6673 26.5219c.0641-.3126.0428-.6338.0085-.9507-.0342-.3769-.496-.5996-.8168-.3983-.4233.287-.3079.9122-.2395 1.349.1241.5225.9238.5225 1.0478 0z" fill="#23a437"/><path d="m105.014 32.1021c-.137-.2484-.406-.3298-.633-.4711-.393-.2141-.765-.454-1.133-.7066-2.532-1.5974-5.1107-3.1263-7.6851-4.6594-.3208-.1585-.6715-.4283-1.0435-.3041-.0471.0171-.0898.0471-.1283.0771-.0642.0343-.124.0771-.1754.1242-.2908.2826-.5987.5524-.898.8308-1.1846 1.0792-2.3222 2.1456-3.5153 3.2462-.2267.2184-.5346.4668-.5945.758-.248.6209.6201.9378.9879 1.2933 1.1162.8522 2.2751 1.5802 3.4255 2.4025 1.5823 1.1991 3.3742 2.1926 5.0805 3.2205.1796.1113.3635.2226.5731.2226.0385 0 .077 0 .1197-.0128.0086 0 .0214-.0043.03-.0086.0727-.0685.1454-.1413.2223-.2098.0471-.0428.0898-.0814.1369-.1242 0-.0086 0-.0129.0043-.0214.0727-.0643.1368-.1328.201-.197.3459-.2869.5819-.531.9199-.8565 1.235-1.0963 2.399-2.2055 3.553-3.4132.124-.1285.261-.2612.364-.4111.222-.1799.346-.4925.184-.7794zm-1.535.6038c-1.296 1.2034-2.613 2.3896-3.9176 3.5845-.0342.0342-.0855.0813-.124.1199-.124.137-.278.2484-.4191.3726-.2438-.1414-.4833-.2784-.7185-.4283-1.099-.6809-2.228-1.319-3.3014-2.0428-1.3856-.9464-2.7926-1.9956-4.2295-2.9078-.0856-.0385-.1754-.0985-.2695-.167.0129-.0129.0257-.03.0428-.0428.3379-.3512.68-.6681 1.0307-1.0193l-.03.03c.6201-.6038 1.2445-1.1991 1.8603-1.8158.3592-.3554.7441-.7152 1.0862-1.0963.0685-.0857.1497-.167.2267-.2527.0641.0386.124.0771.1796.1199.603.4026 1.2274.7752 1.8518 1.1435 2.2964 1.4089 4.6785 2.7279 6.8765 4.2782-.047.0471-.098.0899-.15.1285z" fill="#2e3946"/><path d="m112.041 65.0859c.419.1457.675-.2697.898-.5524.389-.5182.718-1.0792 1.077-1.6188.556-1.0064 1.069-2.0599 1.412-3.1605.372-1.2933.538-2.5824.598-3.9356.21-2.8051-1.916-4.9935-4.751-4.5395-1.176.1456-2.207.8651-2.934 1.7858-.337.4325-.337 1.0064-.517 1.4989-.299 1.1049-.197 2.3125.008 3.4303.257 1.2762.881 2.304 1.536 3.4474.521.9893 1.15 1.91 1.847 2.7837.274.2869.411.7194.83.8607zm-2.827-6.6893c-.013-.0428-.03-.0856-.039-.1241h.009c.013.0385.03.077.047.1156-.004 0-.009.0085-.017.0128zm.812-2.9549c.052-.2869.116-.5953.227-.8694.188-.3297.458-.6038.855-.7622.146-.0814.287-.1499.419-.2056.864-.1028 1.677.5867 2.015 1.4304.273.4068.239 1.0021.218 1.4817-.056 1.0621-.488 2.4496-1.702 2.6038-1.621.0814-2.271-2.3982-2.032-3.6787z" fill="#23a437"/><path d="m112.965 66.5165c-.146-.5695-.997-.5695-1.138 0-.06.3255-.004.6724-.013 1.0021 0 .287.205.5439.509.5868.868.0685.684-1.0279.642-1.5931z" fill="#23a437"/><path d="m113.076 70.1136c-.03-.2998-.017-.6124-.065-.8993-.098-.424-.735-.5139-.936-.1242-.077.1242-.077.2655-.081.4068 0 .2313-.052.4625-.039.6938.099.6852 1.121.6124 1.121-.0771z" fill="#23a437"/><path d="m112.844 75.5784c.719-.0214.543-.9036.518-1.3961.017-.2527-.154-.4968-.402-.561-.428-.1242-.783.3083-.676.7194.013.4583-.098 1.2334.56 1.2377z" fill="#23a437"/><path d="m113.575 77.7451c.065-.3127.043-.6338.009-.9507-.034-.3769-.496-.5996-.817-.3983-.423.2869-.308.9121-.239 1.349.124.5224.923.5224 1.047 0z" fill="#23a437"/><path d="m126.923 83.3252c-.137-.2484-.406-.3297-.633-.4711-.393-.2141-.765-.4539-1.133-.7066-2.532-1.5974-5.11-3.1262-7.685-4.6594-.321-.1584-.671-.4282-1.043-.304-.047.0171-.09.0471-.129.0771-.064.0342-.124.077-.175.1241-.291.2827-.599.5525-.898.8309-1.185 1.0792-2.322 2.1455-3.515 3.2461-.227.2184-.535.4668-.595.758-.248.621.62.9379.988 1.2933 1.116.8523 2.275 1.5803 3.425 2.4025 1.583 1.1991 3.375 2.1927 5.081 3.2205.18.1113.364.2227.573.2227.039 0 .077 0 .12-.0129.008 0 .021-.0042.03-.0085.072-.0685.145-.1413.222-.2099.047-.0428.09-.0813.137-.1242 0-.0085 0-.0128.004-.0214.073-.0642.137-.1327.201-.197.347-.2869.582-.531.92-.8565 1.236-1.0963 2.399-2.2055 3.553-3.4131.125-.1285.261-.2613.364-.4112.222-.1798.346-.4925.184-.7794zm-1.535.6038c-1.296 1.2034-2.613 2.3897-3.917 3.5845-.035.0343-.086.0814-.124.1199-.124.1371-.278.2484-.42.3726-.243-.1413-.483-.2784-.718-.4282-1.099-.681-2.228-1.3191-3.301-2.0428-1.386-.9464-2.793-1.9957-4.23-2.9078-.085-.0386-.175-.0985-.269-.1671.012-.0128.025-.0299.042-.0428.338-.3512.68-.6681 1.031-1.0192l-.03.0299c.62-.6038 1.245-1.1991 1.86-1.8157.36-.3555.745-.7152 1.087-1.0964.068-.0856.149-.167.226-.2526.064.0385.124.077.18.1199.603.4025 1.227.7751 1.852 1.1434 2.296 1.409 4.678 2.728 6.876 4.2783-.047.0471-.098.0899-.149.1284z" fill="#2e3946"/><path d="m5.68804 93.1406c.4191.1456.67569-.2698.89807-.5524.38917-.5182.71846-1.0792 1.07769-1.6188.55595-1.0064 1.06913-2.0599 1.41125-3.1605.37206-1.2933.53884-2.5824.59872-3.9356.20955-2.8051-1.91589-4.9935-4.75123-4.5395-1.17604.1456-2.20668.865-2.93369 1.7858-.33785.4325-.33785 1.0064-.51746 1.4989-.29936 1.1049-.19672 2.3125.00855 3.4303.25659 1.2762.88097 2.304 1.53527 3.4474.52174.9893 1.15039 1.91 1.84746 2.7836.2737.287.41055.7195.82965.8608zm-2.82678-6.6893c-.01283-.0428-.02994-.0856-.03849-.1242h.00855c.01283.0386.02994.0771.04705.1157-.00428 0-.00856.0085-.01711.0128zm.81254-2.9549c.05132-.2869.11547-.5953.22666-.8694.18816-.3297.45758-.6038.8553-.7623.1454-.0813.28653-.1498.4191-.2055.86386-.1028 1.6764.5867 2.01424 1.4303.2737.4069.23949 1.0022.21811 1.4818-.0556 1.0621-.48753 2.4496-1.70206 2.6038-1.6208.0813-2.27084-2.3982-2.03135-3.6787z" fill="#23a437"/><path d="m6.60711 94.5751c-.1454-.5695-.99643-.5695-1.13756 0-.05987.3255-.00427.6724-.01283 1.0021 0 .287.20528.5439.50891.5868.86814.0685.68425-1.0279.64148-1.5931z" fill="#23a437"/><path d="m6.72309 98.1683c-.02993-.2998-.0171-.6124-.06414-.8993-.09836-.424-.73557-.514-.93656-.1242-.07698.1242-.07698.2655-.08126.4068 0 .2313-.05131.4625-.03848.6938.09836.6852 1.12044.6124 1.12044-.0771z" fill="#23a437"/><path d="m6.49155 103.633c.71845-.021.54312-.904.51746-1.396.0171-.253-.15396-.497-.402-.561-.42765-.124-.7826.308-.67569.719.01283.459-.09836 1.234.56023 1.238z" fill="#23a437"/><path d="m7.21904 105.8c.06415-.313.04277-.634.00856-.951-.03421-.377-.49608-.6-.81682-.398-.42337.287-.30791.912-.23948 1.349.12402.522.92373.522 1.04774 0z" fill="#23a437"/><path d="m20.5706 111.38c-.1368-.248-.4062-.33-.6329-.471-.3934-.214-.7655-.454-1.1333-.707-2.5317-1.597-5.1104-3.126-7.6849-4.659-.3207-.159-.6714-.428-1.0435-.304-.047.017-.08978.047-.12827.077-.06415.034-.12402.077-.17534.124-.2908.283-.59871.552-.89807.831-1.1846 1.079-2.32215 2.145-3.5153 3.246-.22666.218-.53457.467-.59444.758-.24804.621.6201.938.98788 1.293 1.11617.853 2.27511 1.581 3.4255 2.403 1.58234 1.199 3.37414 2.192 5.08054 3.22.1796.112.3635.223.573.223.0385 0 .077 0 .1198-.013.0085 0 .0213-.004.0299-.008.0727-.069.1454-.142.2224-.21.047-.043.0898-.082.1368-.124 0-.009 0-.013.0043-.022.0727-.064.1369-.133.201-.197.3464-.287.5816-.531.9195-.856 1.2359-1.097 2.3991-2.206 3.5538-3.414.124-.128.2608-.261.3635-.411.2223-.18.3464-.492.1838-.779zm-1.5353.604c-1.2957 1.203-2.6129 2.389-3.9172 3.584-.0343.034-.0856.082-.1241.12-.124.137-.2779.249-.4191.373-.2437-.142-.4832-.279-.7184-.429-1.0991-.68-2.2281-1.319-3.3015-2.042-1.3856-.947-2.79257-1.996-4.22949-2.908-.08553-.039-.17533-.099-.26942-.167.01283-.013.02566-.03.04277-.043.33784-.351.67997-.668 1.03064-1.019l-.02994.03c.6201-.604 1.24447-1.199 1.86029-1.816.35923-.356.74412-.715 1.08625-1.096.0684-.086.1497-.167.2266-.253.0642.038.1241.077.1797.12.603.402 1.2273.775 1.8517 1.143 2.2965 1.409 4.6785 2.728 6.8766 4.279-.047.047-.0983.089-.1496.128z" fill="#2e3946"/><path d="m91.7916 107.958c.4191.146.6757-.27.898-.552.3892-.519.7185-1.08 1.0777-1.619.556-1.007 1.0691-2.06 1.4113-3.161.372-1.293.5388-2.582.5987-3.9354.2095-2.805-1.9159-4.9934-4.7512-4.5394-1.1761.1456-2.2067.865-2.9337 1.7858-.3379.4325-.3379 1.0064-.5175 1.4988-.2994 1.1049-.1967 2.3126.0086 3.4302.2565 1.276.8809 2.304 1.5352 3.448.5218.989 1.1504 1.91 1.8475 2.783.2737.287.4105.72.8296.861zm-2.8268-6.689c-.0129-.043-.03-.086-.0385-.124h.0085c.0129.038.03.077.0471.115-.0043 0-.0086.009-.0171.013zm.8125-2.9552c.0513-.287.1155-.5953.2267-.8694.1881-.3297.4576-.6038.8553-.7623.1454-.0813.2865-.1499.4191-.2055.8638-.1028 1.6764.5867 2.0142 1.4303.2737.4069.2395 1.0021.2181 1.4818-.0556 1.0623-.4875 2.4493-1.702 2.6033-1.6208.082-2.2709-2.3978-2.0314-3.6782z" fill="#bbe0c2"/><path d="m92.7106 109.389c-.1454-.57-.9964-.57-1.1375 0-.0599.325-.0043.672-.0129 1.002 0 .287.2053.544.5089.586.8682.069.6843-1.027.6415-1.593z" fill="#d5e6eb"/><path d="m92.8266 112.982c-.0299-.3-.0171-.613-.0641-.9-.0984-.424-.7356-.513-.9366-.124-.077.124-.077.266-.0813.407 0 .231-.0513.463-.0384.694.0983.685 1.1204.612 1.1204-.077z" fill="#d5e6eb"/><path d="m92.5951 118.45c.7184-.021.5431-.903.5174-1.396.0171-.252-.1539-.496-.402-.561-.4276-.124-.7826.309-.6757.72.0129.458-.0983 1.233.5603 1.237z" fill="#d5e6eb"/><path d="m93.3226 120.613c.0641-.312.0427-.634.0085-.95-.0342-.377-.4961-.6-.8168-.399-.4234.287-.3079.912-.2395 1.349.124.523.9237.523 1.0478 0z" fill="#d5e6eb"/><path d="m106.674 126.198c-.137-.249-.406-.33-.633-.471-.393-.214-.765-.454-1.133-.707-2.532-1.597-5.1105-3.126-7.685-4.659-.3207-.159-.6714-.429-1.0435-.304-.047.017-.0898.047-.1282.077-.0642.034-.1241.077-.1754.124-.2908.283-.5987.552-.8981.831-1.1846 1.079-2.3221 2.145-3.5153 3.246-.2266.218-.5345.467-.5944.758-.248.621.6201.938.9879 1.293 1.1161.852 2.2751 1.58 3.4255 2.403 1.5823 1.199 3.3741 2.192 5.0805 3.22.18.112.363.223.573.223.039 0 .077 0 .12-.013.008 0 .021-.004.03-.009.072-.068.145-.141.222-.209.047-.043.09-.082.137-.125 0-.008 0-.012.004-.021.073-.064.137-.133.201-.197.347-.287.582-.531.92-.857 1.236-1.096 2.399-2.205 3.553-3.413.124-.128.261-.261.364-.411.222-.18.346-.492.184-.779zm-1.535.604c-1.296 1.203-2.613 2.389-3.917 3.584-.035.034-.086.081-.124.12-.124.137-.278.248-.42.373-.243-.142-.483-.279-.718-.429-1.0991-.681-2.2281-1.319-3.3015-2.042-1.3856-.947-2.7926-1.996-4.2295-2.908-.0855-.039-.1753-.099-.2694-.167.0128-.013.0257-.03.0428-.043.3378-.351.6799-.668 1.0306-1.019l-.0299.03c.6201-.604 1.2444-1.199 1.8603-1.816.3592-.356.7441-.715 1.0862-1.097.0684-.085.1497-.167.2267-.252.0641.038.124.077.1796.12.603.402 1.2273.775 1.8517 1.143 2.2964 1.409 4.6784 2.728 6.8764 4.278-.047.048-.098.09-.149.129z" fill="#2e3946"/><path d="m4.40484 17.7681c.4191.1456.67569-.2698.89807-.5525.38916-.5182.71846-1.0792 1.07768-1.6188.55595-1.0064 1.06914-2.0599 1.41126-3.1605.37206-1.2933.53884-2.58233.59871-3.93561.20955-2.80506-1.91588-4.99343-4.75122-4.53948-1.17604.14561-2.20669.86507-2.933695 1.78581-.337846.43254-.337846 1.0064-.51746 1.49889-.299356 1.10489-.19671979 2.31256.008553 3.43029.256592 1.2762.880962 2.304 1.535272 3.4474.52174.9893 1.15039 1.9101 1.84746 2.7837.2737.2869.41055.7195.82965.8608zm-2.82678-6.6893c-.01283-.0429-.02994-.0857-.03849-.1242h.00855c.01283.0385.02994.0771.04704.1156-.00427 0-.00855.0086-.0171.0129zm.81254-2.95497c.05131-.28693.11546-.59527.22665-.86936.18817-.32975.45759-.60383.85531-.76229.1454-.08136.28652-.14988.4191-.20556.86386-.10278 1.6764.58671 2.01424 1.43037.2737.40684.23949 1.00211.2181 1.48175-.05559 1.06206-.48752 2.44956-1.70205 2.60376-1.62081.0814-2.27084-2.3982-2.03135-3.67867z" fill="#bbe0c2"/><path d="m5.32879 19.2031c-.1454-.5696-.99643-.5696-1.13756 0-.05987.3254-.00427.6723-.01283 1.0021 0 .2869.20528.5439.50891.5867.86814.0685.68425-1.0278.64148-1.5931z" fill="#d5e6eb"/><path d="m5.4438 22.7957c-.02994-.2998-.01711-.6124-.06415-.8993-.09836-.424-.73556-.5139-.93656-.1242-.07698.1242-.07698.2655-.08125.4068 0 .2313-.05132.4626-.03849.6938.09836.6852 1.12045.6124 1.12045-.0771z" fill="#d5e6eb"/><path d="m5.20835 28.2649c.71845-.0214.54311-.9036.51745-1.3961.01711-.2527-.15395-.4968-.40199-.561-.42765-.1242-.7826.3083-.67569.7195.01283.4582-.09836 1.2333.56023 1.2376z" fill="#d5e6eb"/><path d="m5.93975 30.4272c.06415-.3126.04276-.6338.00855-.9507-.03421-.3769-.49608-.5996-.81681-.3983-.42338.2869-.30791.9122-.23949 1.349.12402.5225.92373.5225 1.04775 0z" fill="#d5e6eb"/><path d="m19.2913 36.0073c-.1368-.2483-.4062-.3297-.6329-.471-.3934-.2142-.7655-.454-1.1333-.7067-2.5317-1.5973-5.1104-3.1262-7.6849-4.6593-.32074-.1585-.67141-.4283-1.04347-.3041-.04704.0171-.08981.0471-.1283.0771-.06414.0342-.12402.0771-.17533.1242-.29081.2826-.59872.5524-.89807.8308-1.1846 1.0792-2.32216 2.1455-3.51531 3.2461-.22665.2184-.53456.4668-.59444.758-.24803.621.6201.9379.98788 1.2934 1.11618.8522 2.27511 1.5802 3.4255 2.4025 1.58231 1.1991 3.37414 2.1926 5.08054 3.2204.1796.1114.3635.2227.573.2227.0385 0 .077 0 .1198-.0128.0085 0 .0214-.0043.0299-.0086.0727-.0685.1454-.1413.2224-.2098.047-.0429.0898-.0814.1368-.1242 0-.0086 0-.0129.0043-.0214.0727-.0643.1369-.1328.201-.197.3464-.287.5816-.5311.9195-.8565 1.2359-1.0964 2.3991-2.2055 3.5538-3.4132.124-.1285.2608-.2613.3635-.4111.2223-.1799.3464-.4925.1838-.7795zm-1.5352.6039c-1.2958 1.2034-2.613 2.3896-3.9173 3.5845-.0343.0342-.0856.0813-.1241.1199-.124.137-.2779.2483-.4191.3725-.2437-.1413-.4832-.2783-.7184-.4282-1.0991-.6809-2.2281-1.319-3.3015-2.0428-1.38559-.9464-2.79257-1.9956-4.22948-2.9078-.08553-.0386-.17534-.0985-.26942-.167.01282-.0129.02565-.03.04276-.0429.33785-.3511.67997-.668 1.03064-1.0192l-.02993.03c.62009-.6039 1.24447-1.1991 1.86029-1.8158.35922-.3555.74411-.7152 1.08623-1.0963.06843-.0857.14968-.1671.22666-.2527.06415.0385.12402.0771.17961.1199.60299.4026 1.22734.7751 1.85174 1.1434 2.2965 1.409 4.6785 2.728 6.8767 4.2783-.0471.0471-.0984.0899-.1497.1285z" fill="#2e3946"/></g></svg>