<svg width="307" height="194" viewBox="0 0 307 194" fill="none" xmlns="http://www.w3.org/2000/svg">
<g clip-path="url(#clip0_228_432)">
<path d="M209.906 194C263.528 194 306.997 150.572 306.997 97C306.997 43.4284 263.528 0 209.906 0C156.284 0 112.815 43.4284 112.815 97C112.815 150.572 156.284 194 209.906 194Z" fill="#FBF4D8"/>
<path d="M238.444 145.878L69.4346 147.526L135.725 67.3179H238.444V145.878Z" fill="white"/>
<path d="M282.469 157.194C276.425 156.578 259.435 157.33 259.435 157.33C259.435 157.33 259.404 157.349 259.35 157.388C257.153 159.792 254.137 161.258 250.162 160.975C249.84 161.022 249.514 161.045 249.184 161.01C247.787 161.138 246.389 161.084 245.023 160.801C244.538 160.808 244.049 160.781 243.594 160.638C243.548 160.622 243.505 160.603 243.462 160.58C243.443 160.58 243.424 160.584 243.404 160.584C243.358 160.584 243.315 160.584 243.268 160.576C242.395 160.479 241.526 160.393 240.668 160.192C240.256 160.091 239.837 160.041 239.426 159.94C239.185 159.882 238.944 159.812 238.711 159.73C238.455 159.645 238.215 159.521 237.974 159.405C237.888 159.37 237.799 159.343 237.749 159.331C237.151 159.156 236.569 158.951 236.006 158.699C235.556 158.493 235.133 158.214 234.744 157.912C234.368 157.621 234.015 157.307 233.669 156.977L171.237 156.779C169.258 159.416 166.416 161.89 163.008 161.96C161.72 162.205 160.381 162.142 159.069 162.15C157.023 162.1 155.028 161.848 152.994 161.782C151.88 161.712 150.735 161.759 149.644 161.514C149.601 161.495 149.566 161.456 149.528 161.433C149.318 161.402 149.105 161.34 148.891 161.262C148.891 161.262 148.883 161.262 148.879 161.258C147.082 160.603 145.281 158.462 144.113 156.795L106.36 156.298C104.92 157.144 103.313 157.718 101.671 157.978C101.396 158.055 101.147 158.113 100.977 158.148C98.2439 158.811 95.4142 158.866 92.6155 158.769C89.8014 158.78 86.9639 158.272 84.371 157.171C84.3167 157.144 84.2662 157.113 84.2157 157.086L73.2696 156.83C73.2696 156.83 53.2522 161.65 73.2929 165.722C93.3336 169.794 276.46 168.96 283.765 165.443C291.066 161.929 288.512 157.807 282.469 157.186V157.194Z" fill="#C3E3C8"/>
<path d="M131.237 88.5149C136.124 88.4839 141.034 88.5227 145.906 88.8911C147.684 89.0191 149.458 89.1121 151.235 89.1819L174.137 67.9189C172.34 67.981 170.542 68.0392 168.745 68.0741C164.716 68.0779 160.683 68.0741 156.654 68.1361L137.289 83.7217L131.241 88.5149H131.237Z" fill="#E0F1E5"/>
<path d="M125.705 90.6322C125.736 90.6477 125.76 90.6749 125.791 90.6865C130.006 91.3303 134.338 91.0704 138.608 91.1829C143.429 91.1984 148.234 91.6715 153.051 91.7801C156.948 91.8693 160.795 91.7336 164.696 91.6638C165.278 91.6444 165.647 91.3225 165.806 90.9231C165.845 90.8998 165.888 90.8843 165.923 90.8571C167.603 88.9375 168.888 86.6806 170.445 84.6563C172.141 82.3799 173.814 80.088 175.398 77.7302C177.719 74.4378 179.819 70.9902 182.342 67.8452C182.749 67.3527 182.707 66.6314 182.357 66.1234C182.249 65.7433 181.965 65.4137 181.511 65.2974C168.562 65.5262 155.582 65.4292 142.629 65.8093C142.552 65.8093 142.482 65.8209 142.412 65.8325C142.381 65.8325 142.35 65.8248 142.319 65.8248C141.5 65.8131 141.177 66.6469 140.735 67.1898C137.191 71.8318 133.639 76.466 130.22 81.201C128.589 83.4424 126.916 85.649 125.313 87.9099C124.84 88.5032 124.39 89.2633 124.844 90.004C125.092 90.3763 125.395 90.5663 125.709 90.64L125.705 90.6322ZM129.878 86.1881C132.51 82.4613 135.169 78.7578 137.936 75.1319C139.361 73.2434 140.77 71.347 142.16 69.4352C142.412 69.0396 142.73 68.6596 143.002 68.2601C143.192 68.2601 143.382 68.2601 143.557 68.2718C144.9 68.2873 146.247 68.2989 147.594 68.3144C149.76 68.4036 151.914 68.2718 154.076 68.1826C154.934 68.1632 155.792 68.1477 156.65 68.136C160.679 68.0701 164.712 68.0779 168.741 68.074C170.538 68.043 172.335 67.9809 174.132 67.9189C175.669 67.8646 177.21 67.8103 178.751 67.7715C176.578 70.6722 174.548 73.6738 172.397 76.59C170.022 79.9561 167.491 83.2059 165.166 86.603C164.657 87.4445 163.97 88.1813 163.524 89.0461C163.501 89.1082 163.485 89.1741 163.47 89.2362C159.39 89.3641 155.31 89.3409 151.235 89.178C149.457 89.1082 147.683 89.0151 145.905 88.8871C141.034 88.5187 136.124 88.4799 131.237 88.511C130.224 88.5071 129.211 88.5304 128.201 88.5536C128.756 87.7586 129.319 86.9714 129.878 86.1842V86.1881Z" fill="#2C3A48"/>
<path d="M183.06 63.5718C183.006 63.5718 182.952 63.5718 182.894 63.5795C182.948 63.5795 183.002 63.5757 183.057 63.5718H183.06Z" fill="#2C3A48"/>
<path d="M214.986 90.0234C218.398 90.0545 221.81 90.0777 225.222 90.039C227.959 89.9963 230.683 89.752 233.428 89.7597C234.643 89.7597 235.865 89.6667 237.084 89.6705C236.673 87.8285 236.25 85.9903 235.629 84.2065C234.375 81.042 232.651 77.9319 229.923 75.8145C227.039 73.6506 223.867 71.7737 220.409 70.7072C218.002 70.0945 215.561 69.7416 213.119 69.4585C214.431 76.0705 214.819 82.7057 214.951 89.3719C214.951 89.5775 214.971 89.7985 214.982 90.0234H214.986Z" fill="#E0F1E5"/>
<path d="M180.464 86.9752C180.487 87.0916 180.507 87.2079 180.522 87.3281C183.243 87.4134 185.972 87.4522 188.697 87.4096C191.736 87.2389 193.335 87.8012 193.813 90.066C193.991 90.0543 194.166 90.0505 194.333 90.0427C195.699 89.969 197.069 89.969 198.436 89.969C200.982 89.9341 203.532 89.938 206.079 89.9496C206.082 89.7635 206.094 89.5812 206.094 89.4028C206.094 88.2976 206.075 87.2001 206.059 86.0949C206.013 82.6396 205.865 79.1844 205.772 75.7252C205.694 73.8521 205.597 71.9791 205.496 70.1099C205.496 69.6833 205.392 69.2141 205.341 68.7526C201.351 68.5005 197.357 68.3182 193.37 68.0352L180.312 85.4822C180.336 85.9825 180.375 86.4827 180.46 86.9752H180.464Z" fill="#E0F1E5"/>
<path d="M271.301 123.882C271.503 121.346 271.262 118.596 272.364 116.246C272.799 115.571 273.502 115.137 274.282 114.924C275.047 114.606 275.823 114.346 276.646 114.218C277.042 114.137 277.519 114.043 277.977 114.036C277.938 111.213 277.775 108.393 277.473 105.636C276.708 101.231 274.674 96.8989 271.025 94.1766C269.298 93.0985 267.326 92.4935 265.393 91.8925C264.861 91.6869 264.337 91.4581 263.817 91.2138C252.584 89.5812 237.88 91.5512 237.88 91.5512L195.287 91.7218L192.656 91.5047V93.8547C191.371 94.7854 185.956 95.3167 184.046 95.0957C182.137 94.8746 180.631 92.4354 180.631 92.4354L171.392 92.2958L168.885 119.31C170.81 119.597 172.689 120.171 174.393 121.074C177.549 122.746 179.567 125.988 181.139 129.078C182.668 132.305 183.767 135.706 184.532 139.192C184.559 139.336 184.598 139.479 184.636 139.623C184.931 139.634 185.226 139.65 185.494 139.627C187.198 139.646 188.906 139.712 190.606 139.824C197.042 140.379 203.551 140.026 209.979 140.224C213.205 140.29 216.423 140.026 219.641 139.863C223.538 139.654 227.454 139.7 231.336 139.301C231.608 138.444 232.104 137.56 232.279 137.009C232.823 135.52 233.432 134.011 234.177 132.681C237.496 125.848 244.615 119.771 252.316 118.895C256.427 118.336 258.593 118.623 261.993 121.117C261.954 121.086 261.911 121.059 261.873 121.028C263.379 121.958 264.609 123.227 265.548 124.723C265.867 125.169 266.298 125.654 266.263 126.236L271.243 125.879C271.258 125.212 271.274 124.545 271.297 123.882H271.301Z" fill="#E97B65"/>
<path d="M280.609 132.879C280.621 132.6 280.621 132.321 280.613 132.057C280.659 130.451 280.729 128.842 280.745 127.229C280.671 124.382 281.059 121.579 281.207 118.74C281.222 117.045 281.215 115.354 281.234 113.66C281.094 110.639 281.083 107.587 280.562 104.601C279.615 99.7377 277.306 94.8282 273.242 91.8305C270.575 89.4533 266.942 88.2511 263.639 86.9597C260.949 85.8506 258.263 84.6834 255.697 83.295C249.634 78.9556 244.417 73.476 238.311 69.1792C232.714 65.1849 225.75 63.7229 219.093 62.5207C215.262 61.8459 211.361 61.8459 207.495 61.5008C204.242 61.1595 200.896 61.0897 197.613 61.0199C193.401 60.8997 189.201 60.2249 184.974 60.4537C184.209 60.4692 183.406 60.5158 182.595 60.5856C181.543 60.2172 180.13 60.7368 179.031 60.6282C174.765 60.8183 170.546 61.1169 166.206 61.3146C162.274 61.4969 158.424 61.4465 154.484 61.8769C154.243 61.8769 154.007 61.8769 153.766 61.8769C152.982 61.8769 152.198 61.8769 151.414 61.8614C150.664 61.8459 149.915 61.842 149.166 61.8498C148.378 61.8576 147.594 61.8925 146.806 61.9157C145.999 61.9429 145.188 61.9661 144.38 62.001C143.522 62.0359 142.668 62.0825 141.811 62.1678C141.411 62.2105 141.015 62.2609 140.615 62.3035C140.196 62.3539 139.691 62.3733 139.319 62.5983C138.371 62.6254 137.7 63.8702 137.137 64.6264C135.355 66.9532 133.694 69.377 131.986 71.758C131.668 72.1769 131.353 72.5996 131.027 73.0145C130.418 73.7862 129.813 74.558 129.215 75.3413C128.07 76.8421 126.925 78.3429 125.787 79.8475C124.708 81.2746 123.621 82.6978 122.581 84.1521C121.859 85.1642 121.157 86.1919 120.407 87.1885C120.318 87.3049 120.26 87.4329 120.209 87.5647C120.108 87.7392 120.031 87.9137 119.973 88.0844C117.236 89.0771 114.643 90.4577 111.98 91.625C108.949 93.1374 106.007 94.8243 102.905 96.1932C100.01 97.407 97.2575 98.9001 94.5559 100.486C93.4302 101.149 92.3084 101.824 91.1944 102.503C90.1658 103.131 89.1372 103.763 88.1047 104.387C87.895 104.515 87.6893 104.643 87.4797 104.767C86.6801 105.26 85.8689 105.741 85.0615 106.222C82.6743 107.653 80.3104 109.122 78.2958 111.077C77.2556 112.027 76.2153 113.02 75.4429 114.199C74.2434 115.692 73.4283 117.704 72.7607 119.248C70.9635 123.622 70.0979 128.318 69.4962 132.988C69.2478 134.663 69.2168 136.357 68.9567 138.029C68.9567 138.033 68.9528 138.037 68.9489 138.041C68.8053 138.064 68.6656 138.106 68.5297 138.18C67.9552 138.393 67.3575 138.591 66.8529 138.944C65.3002 140.045 66.0649 142.876 65.9523 144.54C66.1697 145.866 65.7427 147.239 66.3327 148.503C66.4026 148.635 66.4725 148.771 66.554 148.907C66.5695 149.147 66.6549 149.403 66.849 149.663H66.8412C67.2216 150.186 67.8854 150.183 68.4676 150.194C68.8946 150.206 69.3255 150.202 69.7563 150.206C70.3463 150.241 70.9441 150.245 71.5147 150.287C72.1474 150.276 73.2187 150.376 74.061 150.206C75.0081 150.214 75.9552 150.229 76.8985 150.229C77.407 150.256 77.9154 150.264 78.4239 150.287C78.7577 151.23 79.3982 152.242 79.6816 152.703C80.8422 154.448 82.3211 156.112 84.2114 157.07C84.2657 157.097 84.3162 157.128 84.3667 157.155C86.9596 158.26 89.797 158.764 92.6112 158.753C95.4098 158.846 98.2395 158.792 100.972 158.132C101.143 158.097 101.388 158.039 101.667 157.962C103.313 157.702 104.916 157.128 106.356 156.283C107.742 155.468 108.972 154.41 109.931 153.13C110.432 152.478 111.27 151.338 111.522 150.318C113.079 150.326 114.635 150.345 116.192 150.38C122.853 150.702 129.58 150.78 136.271 150.78C137.867 150.76 139.462 150.753 141.061 150.745C141.077 150.799 141.089 150.853 141.116 150.904C141.682 152.707 142.564 154.394 143.588 156.007C143.744 156.248 143.918 156.507 144.108 156.779C145.277 158.446 147.078 160.587 148.875 161.243C148.875 161.243 148.883 161.243 148.887 161.246C149.1 161.324 149.31 161.386 149.523 161.417C149.562 161.44 149.597 161.475 149.64 161.495C150.73 161.739 151.876 161.696 152.99 161.766C155.024 161.832 157.023 162.084 159.064 162.134C160.376 162.131 161.715 162.189 163.004 161.944C166.412 161.875 169.253 159.397 171.233 156.763C171.253 156.736 171.276 156.709 171.299 156.678C173.283 154.39 174.175 151.23 174.804 148.298C174.831 148.17 174.855 148.038 174.878 147.91C175.107 148.275 175.487 148.496 176.093 148.383C176.229 148.375 176.368 148.364 176.508 148.348C176.718 148.36 176.935 148.379 177.149 148.379C177.37 148.437 177.611 148.457 177.871 148.418C186.274 148.166 194.682 148.29 203.089 148.344C212.052 148.298 221.007 148.422 229.97 148.573C229.993 148.658 230.02 148.748 230.047 148.833C230.086 149.054 230.14 149.271 230.195 149.484C230.373 150.167 230.591 150.834 230.808 151.509C231.025 152.187 231.301 152.843 231.584 153.498C231.709 153.785 231.825 154.08 231.949 154.367C232.066 154.631 232.201 154.887 232.333 155.146C232.481 155.445 232.632 155.751 232.834 156.019C233.075 156.341 233.331 156.639 233.618 156.919C233.634 156.934 233.649 156.946 233.665 156.957C234.006 157.287 234.364 157.601 234.74 157.892C235.132 158.191 235.551 158.474 236.002 158.679C236.568 158.935 237.151 159.137 237.744 159.311C237.795 159.327 237.884 159.354 237.97 159.385C238.21 159.501 238.451 159.622 238.707 159.711C238.94 159.792 239.181 159.862 239.421 159.92C239.833 160.025 240.252 160.075 240.663 160.172C241.521 160.378 242.391 160.459 243.264 160.556C243.311 160.56 243.353 160.564 243.4 160.564C243.419 160.564 243.439 160.56 243.458 160.56C243.501 160.579 243.544 160.603 243.59 160.618C244.044 160.762 244.533 160.793 245.019 160.781C246.385 161.064 247.782 161.122 249.18 160.99C249.51 161.029 249.836 161.002 250.158 160.956C254.133 161.239 257.149 159.773 259.346 157.368C261.17 155.371 262.431 152.73 263.192 149.892C263.32 149.919 263.445 149.946 263.588 149.954C264.112 149.965 264.663 149.923 265.129 149.709C265.758 149.663 266.398 149.543 267.016 149.547C269.628 149.399 272.236 149.174 274.849 149.023C276.46 148.911 278.063 148.74 279.662 148.546C281.067 148.449 281.657 147.817 282.072 146.526C283.237 143.536 283.446 140.263 283.652 137.09C283.707 134.411 283.516 132.925 280.609 132.856V132.879ZM277.356 133.278C276.308 133.43 275.245 133.476 274.181 133.499C274.177 133.317 274.169 133.135 274.173 132.957C274.197 131.646 274.173 130.339 274.193 129.028C274.22 127.69 274.197 126.337 274.193 124.987C275.113 124.979 276.029 124.945 276.949 124.937C277.147 124.925 277.36 124.917 277.574 124.906C277.515 126.678 277.5 128.47 277.461 130.184C277.535 131.033 277.271 132.27 277.36 133.278H277.356ZM275.516 122.385C275.074 122.335 274.655 122.164 274.22 122.098C274.266 120.64 274.383 119.186 274.643 117.755C275.66 117.15 276.821 116.859 277.977 116.65C277.958 118.108 277.907 119.562 277.814 121.001C277.76 121.493 277.729 122.005 277.694 122.513C276.968 122.494 276.234 122.478 275.512 122.389L275.516 122.385ZM74.1581 129.765C74.2939 128.512 74.4763 127.256 74.7054 126.007C75.8466 125.914 77.1391 126.418 78.2493 126.484C81.6961 127.004 83.3497 130.637 84.6229 133.488C84.7781 133.802 84.9101 134.124 85.0304 134.45C82.0688 134.5 79.1032 134.55 76.1416 134.62C75.276 134.651 74.4104 134.659 73.5448 134.682C73.7777 133.046 73.9446 131.398 74.1581 129.761V129.765ZM134.113 128.706C134.137 128.706 134.16 128.706 134.179 128.706C134.001 130.133 133.807 131.56 133.768 132.995C133.776 133.143 133.768 133.298 133.756 133.453C133.679 133.461 133.601 133.472 133.527 133.484C131.024 133.592 128.516 133.682 126.012 133.759C127.095 132.162 127.841 130.153 128.237 128.73C130.189 128.698 132.157 128.66 134.109 128.702L134.113 128.706ZM128.718 127.077C129.079 125.844 129.514 124.661 130.496 123.863C130.643 123.785 130.791 123.708 130.942 123.638C131.978 123.176 133.127 123.285 134.238 123.324C134.393 123.471 134.443 123.742 134.478 124.27C134.505 125.166 134.455 126.058 134.373 126.95C133.974 126.946 133.578 126.934 133.178 126.95C131.695 127.085 130.201 126.981 128.718 127.081V127.077ZM125.419 129.129C124.817 130.874 123.909 132.766 122.364 133.856C119.107 133.938 115.85 134.011 112.59 134.073C112.799 133.558 113.063 133.061 113.358 132.592C114.488 130.851 115.827 129.276 117.45 127.958C119.332 126.22 121.871 125.17 124.339 124.429C125.403 124.064 126.494 123.777 127.6 123.564C126.688 124.801 126.144 126.6 125.419 129.133V129.129ZM113.195 128.377C112.454 129.257 110.16 132.076 109.624 134.128C107.633 134.163 105.642 134.201 103.65 134.24C98.6355 134.217 93.6165 134.093 88.6054 134.387C88.4501 134.387 88.2949 134.391 88.1396 134.395C88.0581 133.969 87.8912 133.538 87.6854 133.178C86.7849 131.037 85.636 129.024 84.2192 127.182C84.1221 127.058 84.0173 126.942 83.9125 126.822C86.6413 126.635 89.3933 126.399 92.1221 126.321C96.1551 126.069 100.134 125.712 104.19 125.615C108.495 125.456 112.819 125.402 117.1 124.883C115.672 125.871 114.368 127.05 113.199 128.373L113.195 128.377ZM106.736 143.706C102.812 143.889 98.8761 143.97 94.9518 144.094C93.143 144.125 91.338 144.094 89.5292 144.071C87.5108 144.009 85.4885 143.92 83.4584 143.772C83.2643 143.761 83.0586 143.737 82.8528 143.726C82.8451 143.458 82.8257 143.198 82.8063 142.973C82.7053 141.492 82.651 140.018 82.5074 138.549C84.7083 138.405 86.913 138.397 89.1178 138.277C94.9363 138.316 100.813 138.285 106.597 137.672C106.597 138.882 106.643 140.092 106.682 141.298C106.729 142.101 106.717 142.907 106.744 143.71L106.736 143.706ZM73.1682 136.897C75.6292 137.032 78.0979 137.129 80.5666 137.172C80.5549 137.393 80.5743 137.618 80.5821 137.839C80.5821 138.06 80.5821 138.289 80.586 138.518C80.4463 138.432 80.2832 138.374 80.0891 138.347C77.7408 138.11 75.3613 138.072 72.9974 137.897C73.0673 137.567 73.11 137.23 73.1644 136.897H73.1682ZM98.2085 155.348C95.2973 154.724 92.4831 153.095 90.9421 150.512C92.6345 150.504 94.3269 150.489 96.0192 150.469C96.4773 151.218 97.5525 151.947 98.1464 152.052C99.2914 152.428 100.561 152.405 101.632 151.819C102.304 151.454 103.158 151.04 103.588 150.376C105.261 150.357 106.93 150.345 108.6 150.341C106.581 153.886 102.249 156.007 98.2085 155.348ZM150.195 142.803C150.086 144.094 149.985 145.393 149.896 146.685C149.888 147.003 149.888 147.324 149.946 147.631C147.524 148.085 145.005 147.856 142.548 147.918C134.796 147.894 127.064 147.926 119.313 147.712C114.678 147.503 109.993 147.576 105.343 147.6C99.8698 147.561 94.3929 147.526 88.9198 147.623C84.1454 147.708 79.371 147.464 74.5967 147.557C72.881 147.522 71.1653 147.518 69.4458 147.53C69.438 147.53 69.4341 147.53 69.4264 147.53C69.1469 145.533 68.8635 143.54 68.6695 141.535C68.914 141.209 69.275 140.957 69.6088 140.689C72.7219 140.577 75.8427 140.72 78.9557 140.685C79.3051 140.709 79.6544 140.728 80.0037 140.767C80.1745 140.79 80.3958 140.821 80.6248 140.837C80.6248 140.856 80.6248 140.871 80.6248 140.891C80.6675 142.093 80.6947 143.299 80.8072 144.494C80.8072 144.753 80.9159 145.002 81.0945 145.18C81.1372 145.281 81.1954 145.378 81.2924 145.459C81.4593 145.603 81.6651 145.68 81.8824 145.731C81.9329 145.758 81.9756 145.793 82.0338 145.816C82.3017 145.835 82.5734 145.851 82.8451 145.866C83.8853 145.983 84.9256 146.06 85.9737 146.111C90.453 146.37 94.9402 146.169 99.4157 146.273C102.315 146.242 105.285 146.378 108.145 145.921C108.188 145.901 108.215 145.87 108.254 145.847C108.561 145.777 108.84 145.595 108.984 145.288C109.201 144.773 109.1 144.203 109.124 143.66C109.092 142.651 109.108 141.531 109.104 140.433C110.21 140.437 111.321 140.491 112.427 140.538C117.717 140.771 122.915 140.879 128.225 141.015C132.339 141.011 136.446 140.658 140.565 140.678C143.895 140.697 147.144 140.464 150.478 140.631C150.366 141.352 150.269 142.078 150.195 142.807V142.803ZM171.784 149.523C170.958 153.176 168.656 156.411 165.508 158.454C159.546 161.204 154.496 155.41 153.983 149.733C153.607 147.662 153.385 145.579 153.514 143.443C153.525 142.671 153.537 141.884 153.56 141.093C154.057 138.037 154.965 135.043 156.992 132.615C158.653 130.971 160.749 129.575 163.07 129.125C163.369 129.094 163.668 129.071 163.967 129.075C165.143 129.148 166.362 129.272 167.437 129.773C168.268 130.393 169.242 131.052 169.89 131.913C170.371 132.561 170.616 133.344 170.946 134.073C170.946 134.066 170.938 134.058 170.938 134.05C170.926 134.019 170.911 133.984 170.899 133.953C173.096 138.789 173.333 144.42 171.78 149.527L171.784 149.523ZM257.785 155.1C256.543 157.206 254.152 158.156 251.792 158.315C247.58 158.788 243.842 155.585 242.445 151.784C241.475 148.755 241.416 145.533 241.614 142.388C241.63 141.922 241.661 141.453 241.684 140.984C242.061 139.297 242.511 137.618 243.054 136.001C243.703 133.806 244.743 131.708 246.35 130.056C248.279 128.287 251.148 127.101 253.76 127.776C254.303 127.942 254.843 128.148 255.367 128.388C256.737 129.373 257.917 130.595 258.822 132.065C259.039 132.429 259.326 132.766 259.462 133.17C259.621 133.55 259.718 134.004 259.998 134.318C260.079 134.698 260.242 135.089 260.339 135.404C260.429 135.636 260.494 135.877 260.553 136.121C260.642 136.567 260.724 137.013 260.793 137.459C260.809 137.533 260.824 137.606 260.84 137.68C261.042 139.262 261.084 140.871 261.224 142.461C261.193 146.82 260.425 151.517 257.789 155.096L257.785 155.1ZM265.211 134.217C265.211 134.217 265.203 134.248 265.195 134.263C264.652 133.294 263.984 132.39 263.161 131.584C260.914 127.807 256.78 124.774 252.285 124.634C248.807 124.871 245.248 126.441 243.175 129.315C240.462 132.871 239.573 137.47 238.847 141.791C238.618 143.144 238.626 144.528 238.435 145.882C231.13 145.49 223.809 145.37 216.493 145.374C210.391 145.261 204.293 145.219 198.191 145.11C193.739 145.098 189.29 144.967 184.838 145.056C182.808 145.056 180.778 145.056 178.744 145.102C178.713 145.102 178.678 145.102 178.647 145.106C178.604 143.113 178.422 141.112 178.045 139.157C177.653 137.327 177.269 135.458 176.361 133.802C175.111 131.463 173.364 129.35 171.307 127.679C170.6 127.194 169.758 126.837 168.854 126.593C163.722 124.894 157.946 126.853 154.402 130.839C152.722 132.906 151.705 135.26 151.06 137.746C150.959 137.75 150.859 137.757 150.762 137.761C149.283 137.8 147.804 137.843 146.325 137.831C142.932 137.901 139.54 137.92 136.147 137.951C131.338 138.11 126.762 138.293 121.91 137.951C118.331 137.889 114.752 137.777 111.173 137.75C110.587 137.819 109.78 137.75 109.03 137.8C109.023 137.47 109.007 137.118 108.964 136.784C109.721 136.765 110.478 136.745 111.235 136.73C118.35 136.52 125.469 136.606 132.576 136.202C132.801 136.268 133.046 136.241 133.283 136.241C134.777 136.268 136.264 136.071 137.754 136.032C140.235 135.997 142.723 135.904 145.195 135.718C145.222 135.718 145.254 135.718 145.281 135.714C145.366 135.706 145.455 135.706 145.541 135.698C145.541 135.698 145.549 135.69 145.556 135.687C145.863 135.648 146.166 135.574 146.457 135.512C147.066 135.283 147.388 134.674 147.73 134.159C148.906 131.94 150.109 129.804 151.984 128.07C153.646 126.158 155.625 124.452 157.919 123.324C162.744 121.001 168.225 120.52 173.085 123.029C175.619 124.297 177.168 126.891 178.569 129.253C179.707 131.421 180.681 133.701 181.22 136.098C181.562 137.374 181.892 138.649 182.214 139.929C182.358 140.495 182.455 141.124 182.994 141.453C183.041 141.484 183.091 141.504 183.142 141.527C183.142 141.527 183.146 141.531 183.15 141.535C183.526 141.806 184.015 141.756 184.458 141.814C193.281 142.403 202.069 141.732 210.907 142.116C213.337 142.147 215.771 142.07 218.197 141.984C222.699 141.899 227.206 141.919 231.701 141.593C232.035 141.62 232.302 141.535 232.508 141.391C232.962 141.147 233.184 140.449 233.362 139.894C233.785 138.89 234.259 137.909 234.627 136.877L234.62 136.897C234.62 136.897 234.608 136.924 234.604 136.939C237.158 130.556 241.742 124.607 248.376 122.187C251.043 121.074 254.117 120.698 256.982 121.09C258.876 121.699 260.56 122.847 262.156 124.15C263.138 124.987 263.503 126.337 264.427 127.194C265.176 127.698 266.259 127.124 266.274 126.224C266.309 125.639 265.878 125.158 265.56 124.712C264.621 123.215 263.386 121.947 261.884 121.016C261.923 121.047 261.966 121.074 262.004 121.105C258.604 118.612 256.438 118.321 252.328 118.883C244.627 119.76 237.508 125.837 234.189 132.67C233.444 134.004 232.838 135.508 232.291 136.997C232.116 137.548 231.619 138.432 231.348 139.289C227.466 139.685 223.549 139.642 219.652 139.852C216.434 140.018 213.217 140.278 209.991 140.212C203.563 140.014 197.054 140.367 190.618 139.813C188.914 139.7 187.21 139.634 185.506 139.615C185.238 139.638 184.943 139.619 184.648 139.611C184.609 139.468 184.57 139.32 184.543 139.181C183.778 135.694 182.68 132.293 181.151 129.067C179.579 125.972 177.56 122.734 174.404 121.063C172.696 120.159 170.822 119.585 168.896 119.298C166.362 118.922 163.745 119.066 161.308 119.76C157.488 120.799 153.793 122.622 151.103 125.577C151.134 125.538 151.169 125.503 151.204 125.464C150.463 126.306 149.636 127.077 148.929 127.946C147.493 129.602 146.604 131.607 145.754 133.604C145.723 133.592 145.704 133.569 145.669 133.558C143.332 133.36 140.937 133.759 138.6 133.992C137.747 134.085 136.893 134.135 136.035 134.186C136.085 133.872 136.116 133.55 136.171 133.255C136.295 132.235 136.403 131.308 136.601 130.281C136.966 127.458 138.379 121.047 134.187 120.69C129.855 120.357 125.523 121.191 121.444 122.626C121.397 122.641 121.351 122.664 121.304 122.684C121.106 122.699 120.912 122.715 120.714 122.73C116.666 123.044 112.625 123.436 108.565 123.529C106.791 123.661 105.021 123.758 103.239 123.723C100.316 123.82 97.2148 124.037 94.2648 124.165C90.2434 124.406 86.1833 124.588 82.1231 124.735C81.8824 124.712 81.6651 124.735 81.4749 124.782C80.5549 124.27 79.5418 123.932 78.4627 123.87C77.3992 123.82 76.2891 123.587 75.2177 123.669C75.6059 122.106 76.0872 120.566 76.7083 119.081C77.1352 118.069 77.504 117.022 78.0785 116.076C78.7267 115.075 79.6195 114.265 80.4734 113.442C82.9693 110.98 86.4472 109.095 89.4438 107.18C94.2337 104.236 98.9499 101.118 104.171 98.9737C108.615 96.9805 112.796 94.4714 117.236 92.4393C118.358 91.8731 119.55 91.2915 120.671 90.6787C121.044 90.4887 121.393 90.2715 121.669 89.9574C122.034 89.8721 122.371 89.6549 122.585 89.3176C122.608 89.2865 122.628 89.2555 122.651 89.2245C122.725 89.1586 122.798 89.0888 122.861 89.0073C123.396 88.2938 123.905 87.5531 124.429 86.8279C125.24 85.7072 126.036 84.5709 126.866 83.4618C128.015 81.9339 129.16 80.3982 130.325 78.878C130.88 78.1528 131.443 77.4315 132.006 76.7102C132.623 75.9191 133.267 75.1435 133.877 74.3485C135.057 72.8129 136.206 71.2539 137.331 69.6794C137.913 68.8651 138.472 68.0352 139.035 67.2092C139.33 66.7787 139.617 66.3444 139.901 65.9062C140.025 65.7123 140.145 65.5184 140.262 65.3206C140.324 65.212 140.382 65.0957 140.429 64.9793C140.522 64.925 140.611 64.8746 140.708 64.8203C140.929 64.8126 141.155 64.7971 141.368 64.7854C141.919 64.7544 142.467 64.7311 143.018 64.7118C144.046 64.6768 145.079 64.6846 146.111 64.6652C147.652 64.6303 149.197 64.5256 150.738 64.5295C151.538 64.5295 152.337 64.5295 153.137 64.514C153.941 64.4946 154.74 64.5062 155.54 64.4907C157.026 64.4636 158.509 64.3938 159.996 64.324C160.423 64.3046 160.85 64.2852 161.277 64.2658C164.759 64.1727 168.237 64.068 171.714 63.9323C174.909 63.8431 178.119 63.7423 181.306 63.5096C181.9 63.5561 182.498 63.5755 183.095 63.5484H183.072C188.095 63.2381 193.11 63.9555 198.129 64.0758C201.766 64.0486 205.151 64.258 208.811 64.6226C214.804 64.9483 220.809 65.5572 226.569 67.3178C229.112 68.0429 231.619 68.9232 233.964 70.1603C238.672 72.9602 242.651 76.7917 246.8 80.3206C249.968 83.1554 253.372 85.711 256.935 88.0301C258.876 89.178 260.949 90.0738 263.076 90.8338C263.324 90.9579 263.576 91.0743 263.829 91.1906C264.349 91.4349 264.869 91.6637 265.405 91.8693C267.338 92.4665 269.31 93.0714 271.037 94.1534C274.69 96.8757 276.723 101.207 277.484 105.613C277.787 108.37 277.946 111.193 277.989 114.013C277.531 114.02 277.053 114.113 276.658 114.195C275.835 114.323 275.062 114.583 274.294 114.901C273.513 115.114 272.811 115.548 272.376 116.223C271.27 118.573 271.514 121.323 271.313 123.859C271.289 124.526 271.274 125.193 271.258 125.856C271.219 127.395 271.192 128.935 271.177 130.475C271.165 131.475 271.177 132.468 271.188 133.468C269.942 133.437 268.65 133.426 267.431 133.496C266.682 133.592 265.649 133.426 265.218 134.194L265.211 134.217ZM279.27 145.393C275.664 145.878 272.019 145.948 268.401 146.297C268.005 146.332 267.609 146.37 267.217 146.409C267.241 145.696 267.26 144.978 267.272 144.265C267.318 141.469 267.016 138.529 265.979 135.912C266.068 135.927 266.158 135.939 266.263 135.939C267.571 135.974 268.883 135.877 270.191 135.904C273.688 135.954 277.178 136.241 280.675 136.284C280.605 139.336 280.454 142.543 279.274 145.393H279.27Z" fill="#2C3A48"/>
<path d="M71.6229 150.31C71.588 150.31 71.5492 150.307 71.5143 150.303C71.4948 150.303 71.4716 150.303 71.4521 150.303L71.6229 150.31Z" fill="#2C3A48"/>
<path d="M166.354 133.1C163.73 130.804 160.652 132.747 158.89 135.109C155.936 139.146 155.695 151.268 160.679 153.847C163.365 155.286 165.733 153.099 167.061 150.892C168.625 148.119 169.052 144.808 168.92 141.662C168.641 138.68 168.466 135.446 166.354 133.1ZM162.636 151.656C160.427 151.338 160.082 147.728 159.74 145.94C159.472 144.051 159.639 142.147 159.845 140.259C160.144 137.998 161.39 134.449 164.2 134.764C164.666 135.012 164.91 135.473 165.112 135.942C165.854 137.463 165.985 139.165 166.203 140.817C166.475 144.032 165.943 150.151 162.636 151.656V151.656Z" fill="#2C3A48"/>
<path d="M254.625 132.386C253.729 131.681 252.51 131.727 251.423 131.681C248.143 131.987 246.361 135.361 245.674 138.242C244.817 141.333 244.945 144.602 245.558 147.728C246.059 150.427 247.305 153.781 250.425 154.169C256.337 154.619 257.711 145.51 257.591 141.089C257.533 138.203 256.954 134.325 254.625 132.386V132.386ZM251.349 151.683C248.182 151.641 247.871 145.226 247.739 142.869C247.708 140.185 248.415 134.756 251.675 134.283C252.595 134.411 253.624 134.705 253.911 135.687C254.365 136.575 254.757 137.626 254.924 138.63C255.371 141.663 255.013 150.822 251.353 151.683H251.349Z" fill="#2C3A48"/>
<path d="M172.572 85.7113C171.633 86.9833 170.693 88.5267 169.878 89.9306C169.436 90.5394 169.137 91.4895 169.921 91.9665C170.057 92.0363 170.185 92.0751 170.301 92.1022C170.619 92.2806 171.043 92.2767 171.396 92.2884C174.02 92.2884 176.648 92.3388 179.268 92.5327C179.306 92.5366 179.341 92.5404 179.38 92.5443C180.622 94.4756 181.038 96.0151 184.182 96.4223C186.802 96.6162 189.55 96.6976 192.077 95.8833C193.505 95.4761 193.851 94.049 193.936 92.7227C194.181 92.7305 194.421 92.7343 194.654 92.7576C202.814 93.064 210.984 93.0795 219.147 93.1144C224.31 93.1338 229.441 93.126 234.6 92.7499C234.876 92.7266 235.151 92.7111 235.427 92.6956C236.665 92.7537 237.903 92.8119 239.141 92.8933C239.429 92.9205 239.584 92.7731 239.623 92.5986C239.817 92.4784 239.988 92.3155 240.1 92.0867C240.496 91.0629 239.945 90.0663 239.72 88.9456C239.475 87.9567 239.281 86.9562 239.052 85.9634C236.739 77.0828 232.104 72.4447 223.794 68.8227C220.153 67.1397 215.96 66.969 212.013 66.3912C205.069 65.476 198.035 65.3946 191.041 65.1309C189.414 65.1852 187.718 65.1696 186.111 65.4799H186.115C185.738 65.5885 185.49 65.9026 185.397 66.2555C185.335 66.333 185.273 66.4106 185.214 66.4882C182.932 69.734 180.902 73.1544 178.705 76.4585C176.651 79.5531 174.73 82.6904 172.556 85.7152L172.572 85.7113ZM191.095 93.3509C189.496 93.859 187.799 93.8047 186.138 93.8318C181.329 94.2274 182.711 92.3776 179.78 89.663C182.489 89.8685 185.207 89.9461 187.92 90.0973C188.58 90.2137 190.99 89.8763 191.126 90.6015C191.227 91.5128 191.27 92.4396 191.091 93.3509H191.095ZM220.417 70.7035C223.879 71.77 227.05 73.643 229.93 75.8108C232.663 77.9282 234.383 81.0422 235.636 84.2028C236.254 85.9828 236.677 87.8248 237.092 89.6669C235.873 89.6669 234.65 89.7561 233.435 89.7561C230.691 89.7483 227.962 89.9926 225.23 90.0353C221.818 90.074 218.406 90.0508 214.994 90.0198C214.982 89.7948 214.967 89.5738 214.963 89.3683C214.831 82.702 214.443 76.0629 213.131 69.4548C215.568 69.7379 218.01 70.0908 220.42 70.7035H220.417ZM208.799 68.9856C209.35 69.0476 209.901 69.1058 210.456 69.164C210.813 73.232 211.435 77.3271 211.691 81.4184C211.877 84.2648 212.021 87.1384 212.017 89.9965C211.004 89.9849 209.991 89.981 208.974 89.9732C208.993 88.519 208.849 87.0415 208.869 85.5833C208.745 80.2007 208.589 74.8568 207.895 69.4936C207.883 69.323 207.852 69.1291 207.813 68.9197C208.143 68.9429 208.473 68.9623 208.803 68.9856H208.799ZM182.621 75.5394C183.895 73.4026 185.35 71.386 186.697 69.2919C186.98 68.78 187.477 68.3186 187.741 67.7834C187.994 67.7834 188.238 67.7795 188.479 67.795C189.756 67.8028 191.052 67.8493 192.329 67.9618C192.679 67.9889 193.032 68.0083 193.385 68.0355C197.371 68.3186 201.366 68.5008 205.356 68.7529C205.406 69.2144 205.507 69.6836 205.511 70.1102C205.608 71.9833 205.705 73.8563 205.787 75.7255C205.88 79.1847 206.027 82.6361 206.074 86.0952C206.09 87.1966 206.109 88.2979 206.109 89.4032C206.109 89.5815 206.097 89.7638 206.093 89.95C203.547 89.9344 200.997 89.9344 198.451 89.9693C197.084 89.9693 195.714 89.9693 194.348 90.043C194.181 90.0508 194.006 90.0585 193.828 90.0663C193.35 87.8016 191.751 87.2392 188.712 87.4099C185.987 87.4525 183.262 87.4176 180.537 87.3284C180.521 87.2082 180.498 87.088 180.479 86.9755C180.393 86.483 180.355 85.9828 180.331 85.4825C180.308 84.9047 180.308 84.323 180.308 83.7452C180.393 82.481 180.137 81.2439 180.168 79.9758C181.014 78.5099 181.833 77.0285 182.633 75.5394H182.621Z" fill="#2C3A48"/>
<path d="M211.644 97.5663C211.462 96.3099 210.181 96.3681 209.191 96.403C207.809 96.3874 206.424 96.4379 205.042 96.465C204.091 96.4728 203.136 96.4805 202.185 96.434C201.816 96.3797 201.424 96.4728 201.133 96.7054C200.454 97.2096 200.434 98.3381 201.133 98.8306C201.898 99.3696 202.899 98.9624 203.772 99.1098C205.546 99.1874 207.332 99.1447 209.106 99.1253C210.286 99.1331 211.738 99.1563 211.644 97.5663V97.5663Z" fill="#2C3A48"/>
<path d="M263.53 110.185C268.448 111.007 270.475 103.996 269.333 100.246C269.205 98.7217 268.246 97.1977 266.892 96.4725C265.937 96.1739 264.963 95.8753 263.946 96.1002C262.665 96.678 261.5 97.7057 260.86 98.9622C258.9 102.526 258.814 108.898 263.53 110.185ZM264.873 98.1788C266.22 98.6481 267.299 100.893 267.381 102.262C267.33 104.225 266.962 107.816 264.528 108.11C260.697 107.66 261.43 98.8458 264.873 98.1788V98.1788Z" fill="#2C3A48"/>
<path d="M216.116 95.4991C215.895 94.8165 214.967 94.5994 214.509 95.1617C214.07 95.755 214.311 96.5267 214.295 97.2093C214.156 102.196 213.977 107.195 213.604 112.171C213.131 117.464 212.518 122.858 211.501 128.097C211.206 129.614 210.818 131.107 210.503 132.619C210.309 133.775 209.463 135.59 211.004 136.144C213.174 136.594 212.848 133.682 213.244 132.317C213.725 130.017 214.136 127.706 214.493 125.387C215.739 117.414 216.683 109.351 216.543 101.27C216.473 99.3499 216.64 97.3644 216.12 95.4991H216.116Z" fill="#2C3A48"/>
<path d="M123.093 118.821C122.763 118.17 123.159 117.546 123.617 117.08C124.056 116.495 124.487 115.909 124.953 115.343C126.676 113.163 128.834 111.387 130.996 109.662C131.792 109.014 132.607 108.386 133.43 107.777C134.734 106.687 136.058 105.76 137.354 105.086C141.562 102.394 146.026 100.11 150.606 98.1053C153.506 96.8255 156.363 95.1696 159.278 94.0179C159.674 93.8589 159.891 93.7736 160.217 93.6378C160.908 93.4052 161.548 92.932 162.286 92.901C162.465 92.9127 162.62 92.9747 162.756 93.0639C164.63 91.7842 165.803 90.9194 165.803 90.9194L121.657 89.9731C121.386 90.2873 121.032 90.5044 120.66 90.6944C119.538 91.3072 118.346 91.8889 117.224 92.4551C112.78 94.4832 108.603 96.9923 104.159 98.9895C98.9382 101.134 94.222 104.248 89.4321 107.195C86.4355 109.111 82.9576 110.996 80.4617 113.458C79.6117 114.28 78.715 115.091 78.0668 116.091C77.4923 117.034 77.1236 118.085 76.6966 119.097C76.0755 120.582 75.5942 122.122 75.2061 123.684C76.2774 123.603 77.3836 123.836 78.4511 123.886C79.5263 123.948 80.5394 124.286 81.4632 124.797C81.6534 124.747 81.8669 124.728 82.1114 124.751C86.1716 124.604 90.2318 124.421 94.2531 124.181C97.2031 124.057 100.301 123.836 103.227 123.739C105.009 123.77 106.779 123.677 108.553 123.545C112.613 123.452 116.658 123.06 120.702 122.746C121.257 121.916 122.146 120.621 123.268 119.097C123.198 119.015 123.136 118.93 123.093 118.825V118.821Z" fill="#E97B65"/>
<path d="M162.755 93.0638C162.619 92.9746 162.464 92.9125 162.286 92.9009C161.552 92.9319 160.908 93.405 160.217 93.6377C159.887 93.7734 159.673 93.8587 159.277 94.0177C156.362 95.1695 153.505 96.8254 150.606 98.1051C146.026 100.11 141.558 102.394 137.354 105.086C136.019 105.939 134.707 106.831 133.43 107.777C132.607 108.386 131.792 109.01 130.996 109.662C128.834 111.387 126.676 113.163 124.952 115.343C124.487 115.909 124.056 116.498 123.617 117.08C123.155 117.545 122.763 118.17 123.093 118.821C123.14 118.922 123.198 119.011 123.268 119.093C123.703 119.589 124.553 119.647 125.049 119.182C125.562 118.678 125.969 118.085 126.427 117.53C127.114 116.677 127.84 115.855 128.609 115.075C130.837 112.938 133.271 111.03 135.724 109.161C139.423 106.357 143.522 104.081 147.652 101.971C151.895 99.8851 156.102 97.7135 160.481 95.9335C161.393 95.4565 162.717 95.2277 163.159 94.2C163.299 93.7618 163.112 93.3003 162.755 93.0638V93.0638Z" fill="#2C3A48"/>
<path d="M125.419 129.125C124.817 130.871 123.909 132.763 122.364 133.853C119.107 133.934 115.85 134.008 112.59 134.07C112.799 133.554 113.063 133.058 113.358 132.588C114.488 130.847 115.827 129.273 117.45 127.954C119.332 126.217 121.871 125.166 124.339 124.425C125.403 124.061 126.494 123.774 127.6 123.561C126.688 124.798 126.144 126.597 125.419 129.129V129.125Z" fill="#F0EFF8"/>
<path d="M74.1582 129.761C74.2941 128.509 74.4765 127.252 74.7055 126.004C75.8467 125.911 77.1393 126.415 78.2494 126.481C81.6963 127 83.3499 130.634 84.623 133.484C84.7783 133.798 84.9103 134.12 85.0306 134.446C82.0689 134.496 79.1034 134.547 76.1417 134.617C75.2761 134.648 74.4105 134.655 73.5449 134.679C73.7778 133.042 73.9447 131.394 74.1582 129.757V129.761Z" fill="#F0EFF8"/>
<path d="M4.04873 159.603C4.04873 159.603 -2.65092 160.944 1.21127 165.412C5.07347 169.879 42.8803 171.302 51.0084 166.222C59.1403 161.146 47.841 160.843 47.841 160.843C47.841 160.843 27.8197 153.789 4.04873 159.599V159.603Z" fill="#ECF6ED"/>
<path d="M17.6695 79.5027C12.1382 70.7656 12.5225 59.4535 12.5225 59.4535C10.8223 51.7635 25.3628 41.5838 28.8718 39.257C28.1692 37.7601 27.8277 36.1236 27.3813 34.5375C27.1872 33.9946 26.8999 33.4439 26.4109 33.1182C25.0407 33.5021 23.7015 34.0838 22.5099 34.7779C16.8854 37.7485 11.6142 41.6614 8.0237 46.9432C2.69426 55.1567 0.718523 65.8212 3.37742 75.299C4.27019 78.0756 5.71027 80.5847 7.72094 82.6943C8.37305 83.7181 8.1518 85.0637 8.37305 86.2233C8.5516 87.9761 8.60594 89.4536 8.64864 91.1599C8.74956 94.177 8.94364 97.1902 8.99799 100.211C9.18042 107.482 9.23088 114.831 9.70444 122.079C9.82089 124.088 9.96062 126.097 10.1198 128.102C11.6957 128.373 13.2833 128.594 14.8786 128.722C16.5904 128.912 18.3061 129.04 20.0217 129.145C20.3594 124.522 22.8514 87.6891 17.6695 79.5027V79.5027Z" fill="#C3E3C8"/>
<path d="M3.36523 75.2563C3.36523 75.2563 3.373 75.2796 3.37688 75.2912V75.2796C3.37688 75.2796 3.36912 75.2641 3.36523 75.2563Z" fill="#EAF5EC"/>
<path d="M56.4112 51.5928C55.895 49.8361 55.0643 48.1763 54.1017 46.6213C53.0886 45.0972 52.1609 43.4956 50.8644 42.1887C49.5641 40.909 48.3375 39.5401 46.9362 38.3689C46.2492 37.8182 45.5117 37.3374 44.8207 36.7945C42.8993 35.1735 40.6752 33.8549 38.2841 33.0677C37.9115 32.9824 37.5233 32.835 37.139 32.8777C37.0886 32.8505 37.0381 32.8234 36.9877 32.7924C36.9139 32.7536 36.8324 32.7109 36.747 32.6605C38.8392 31.4467 40.221 28.4025 40.0503 26.0253C40.0231 25.2497 39.8212 24.5245 39.4952 23.8691C39.4564 23.9467 39.402 24.0204 39.3322 24.0902C39.1187 24.3267 38.7848 24.381 38.486 24.3888C38.2298 24.3888 37.9697 24.3965 37.7096 24.4198C38.0085 24.9317 38.2026 25.525 38.2298 26.1727C38.3656 28.4607 37.3176 31.1908 34.9188 31.8423C34.6082 31.9625 34.1696 31.9664 33.8552 32.1292C33.3933 32.3774 33.4476 33.1065 33.929 33.2965C34.1774 33.3702 34.4336 33.3896 34.6859 33.3741C34.8295 33.4865 35.0042 33.5719 35.1711 33.6339C35.4622 33.7735 35.7533 33.9131 36.0444 34.0527C36.0095 34.8361 35.9396 35.6233 35.7999 36.3989C35.5321 37.7019 34.4025 40.7035 32.6791 40.1179C31.9998 39.8426 31.3089 39.4237 31.0061 38.7296C30.4782 37.6554 30.1017 36.5191 29.8145 35.3596C29.4768 33.979 29.0071 32.4511 27.765 31.629C28.1609 31.214 28.5025 30.7603 28.7975 30.2794C28.7315 30.2717 28.6616 30.2678 28.5956 30.2562C28.3938 30.2988 26.8334 29.9692 26.7441 30.1282C26.3676 30.644 26.1347 30.9659 25.4865 31.2761C25.4515 31.2955 25.4205 31.3149 25.3855 31.3304C25.3623 31.3381 25.3429 31.342 25.3196 31.3498C24.9819 31.4933 24.5394 31.6406 23.9377 31.8074C23.9028 31.819 23.8678 31.8306 23.8329 31.8462C23.6893 31.9004 23.5534 31.9509 23.4176 32.0013C22.3074 32.4356 21.2322 32.9553 20.1881 33.537C19.5787 33.917 19.3264 34.0333 18.8916 34.297C18.8295 34.3358 18.7635 34.3785 18.7014 34.4173C18.1425 34.8283 17.4632 35.2704 16.8305 35.6698C16.1357 36.2011 15.5107 36.5889 15.1769 36.7828C13.4807 37.9113 11.9047 39.2453 10.4608 40.6841C5.3914 45.5316 2.18908 52.1513 0.737355 58.961C-0.706602 67.2444 -0.520285 76.9587 5.49232 83.4776C6.16384 84.102 5.89601 85.1374 6.08233 85.9673C6.33851 88.1661 6.35404 90.3882 6.45884 92.6297C7.02944 104.659 6.82759 116.72 7.99596 128.714C8.01148 128.772 8.03089 128.823 8.0503 128.873C8.03477 129.156 8.16287 129.459 8.49668 129.699H8.48892C9.74656 130.157 11.0741 130.386 12.4132 130.556C12.4093 131.793 12.3278 133.027 12.2308 134.26C11.9164 138.91 11.4894 143.567 10.8955 148.19C10.422 151.439 9.90182 154.681 9.63788 157.954C9.56801 158.113 9.54472 158.307 9.5486 158.466C9.52919 158.862 9.53695 159.304 9.90571 159.571C12.1066 160.789 14.7694 161.177 17.2575 161.258C18.3521 161.251 19.4428 161.103 20.5335 161.022C21.1235 160.964 21.9037 160.936 22.1871 160.316C22.3967 159.595 22.3191 158.753 22.0707 158.047C21.6243 157.02 20.2463 157.066 19.3497 156.628C18.4064 156.287 17.6146 155.79 16.7179 155.247C16.8344 154.674 17.0362 154.123 17.1565 153.553C17.599 151.362 18.4219 149.275 18.9343 147.104C19.4273 144.905 19.9086 142.702 20.518 140.534C21.1197 138.39 21.698 136.241 22.3074 134.101C22.5248 133.259 22.7499 132.414 22.9246 131.561C22.9324 131.53 22.9363 131.495 22.944 131.464C26.0765 131.611 29.2167 131.696 32.3491 131.871C32.7451 131.886 33.141 131.898 33.5369 131.906C33.2924 136.858 33.2342 141.853 32.9042 146.809C32.6597 150.757 32.5549 154.708 32.5393 158.66C32.5393 159.288 32.4268 160.048 33.0207 160.459C33.4515 160.766 34.0105 160.777 34.519 160.812C35.5127 160.948 36.518 160.828 37.5156 160.867C38.2065 160.933 38.9052 160.909 39.5961 160.894C41.2574 160.836 42.9304 160.96 44.584 160.754C45.2788 160.587 46.1521 160.599 46.6606 160.045C46.975 159.606 46.9673 159.025 46.9944 158.509C47.041 157.954 46.909 157.33 46.3811 157.047C45.3875 156.562 44.188 156.407 43.1167 156.023C42.2977 155.674 41.4903 155.096 41.1798 154.231C40.8033 152.87 40.9353 151.428 40.9974 150.032C41.273 146.84 41.8164 143.582 42.321 140.406C42.7363 137.409 43.0624 134.388 43.7067 131.429C44.289 131.351 44.8673 131.266 45.4457 131.169C46.0357 131.006 46.7499 131.026 47.2273 130.611C47.3942 130.459 47.4874 130.262 47.5301 130.056C47.5922 129.963 47.6427 129.866 47.6737 129.757C47.7475 129.544 47.7281 129.292 47.7358 129.063C47.7902 126.399 47.8367 123.731 47.8794 121.067C48.0425 112.291 47.9765 103.511 48.3996 94.7393C48.45 91.7455 48.6985 88.7633 48.811 85.7734C48.8537 83.0239 49.1177 80.286 49.4282 77.5559C49.5874 76.2297 49.7426 74.8995 49.9018 73.5733C49.9483 73.1079 49.9445 72.6348 50.3481 72.3284C52.6693 69.6565 55.1575 66.7596 56.4034 63.3625C57.8164 59.6823 57.8125 55.3312 56.4073 51.5928H56.4112ZM15.0682 37.0737C15.0682 37.0737 15.076 37.0892 15.0799 37.0931L15.0294 37.0194C15.0411 37.0388 15.0527 37.0504 15.0682 37.0737ZM3.3652 75.2563C3.3652 75.2563 3.36908 75.2718 3.37297 75.2796V75.2912C3.37297 75.2912 3.36908 75.2679 3.3652 75.2563ZM12.3783 151.982C12.4132 151.761 12.4443 151.54 12.4831 151.319C13.5661 151.482 14.618 151.66 15.7204 151.66C15.7669 151.66 15.8135 151.66 15.8562 151.66C15.798 151.924 15.7436 152.192 15.6854 152.455C15.6582 152.455 15.6272 152.463 15.6 152.467C15.1459 152.448 14.6917 152.393 14.2376 152.401C13.5855 152.42 13.0188 152.475 12.3511 152.347C12.3589 152.227 12.3705 152.106 12.3783 151.982V151.982ZM12.1687 153.355C13.1507 153.328 14.1211 153.138 15.1071 153.177C15.1963 153.177 15.3438 153.188 15.5185 153.192C15.4719 153.405 15.4253 153.615 15.3788 153.828C15.3205 154.173 15.1381 154.642 15.0294 155.104C14.9401 155.116 14.847 155.123 14.7577 155.127C14.1289 155.127 13.4923 155.108 12.879 154.968C12.5918 154.926 12.289 154.798 11.9901 154.677C12.0484 154.235 12.1027 153.797 12.1687 153.355V153.355ZM20.6539 158.835C20.6849 158.943 20.681 159.052 20.6772 159.164C19.0585 159.257 17.4981 159.164 15.8601 158.963C14.3967 158.815 12.9489 158.524 11.6602 157.784C11.6951 157.322 11.7495 156.865 11.796 156.407C13.0847 156.923 14.5947 156.931 15.9416 156.729C17.339 157.772 18.946 158.482 20.6539 158.838V158.835ZM20.3899 133.1C20.3977 133.077 20.4054 133.058 20.4132 133.034L20.421 133.011C19.6214 135.578 18.8761 138.184 18.2783 140.802C17.7388 143.272 17.2497 145.781 16.6558 148.248C16.4268 149.078 16.2327 149.919 16.0503 150.761C15.6971 150.73 15.34 150.71 14.9867 150.66C14.2065 150.629 13.4186 150.396 12.6384 150.334C12.7393 149.721 12.8402 149.109 12.9372 148.496C13.2711 146.22 13.4923 143.928 13.7252 141.636C13.927 139.317 14.1677 136.998 14.3385 134.679C14.4394 133.507 14.5287 132.336 14.5248 131.161C14.5326 131.049 14.5326 130.925 14.5326 130.801C14.6878 130.82 14.847 130.836 15.0023 130.855C16.9974 131.092 19.0003 131.247 21.0071 131.363C20.8053 131.929 20.5956 132.491 20.3899 133.1ZM34.9498 155.236C35.8465 155.383 36.7431 155.259 37.6398 155.178C37.9658 155.151 38.3618 155.178 38.7072 155.178C39.01 155.189 39.3011 155.1 39.6 155.077C39.4098 155.282 39.2079 155.484 39.0022 155.674C37.7795 156.729 36.2308 157.508 34.6005 157.636C34.616 156.826 34.6354 156.015 34.6587 155.205C34.7557 155.216 34.8489 155.224 34.9459 155.236H34.9498ZM34.6975 154.173C34.713 153.762 34.7286 153.351 34.7441 152.936C34.9382 152.925 35.1361 152.909 35.3108 152.956C36.6344 152.998 37.9697 152.987 39.2933 152.956C39.3283 153.413 39.3943 153.836 39.4913 154.224C39.4874 154.224 39.4835 154.224 39.4797 154.224C38.7421 154.243 38.0008 154.286 37.2633 154.239C36.549 154.173 35.8038 154.216 35.0857 154.235C34.9653 154.228 34.8334 154.2 34.6975 154.173V154.173ZM45.434 158.486C45.4224 158.625 45.403 158.761 45.3797 158.897C43.9319 159.265 42.4336 159.122 40.9197 159.145C39.2545 159.168 37.5854 159.172 35.928 159.052C37.3758 158.676 38.7422 157.978 39.8601 156.985C40.0813 156.772 40.3297 156.535 40.5549 156.279C41.4903 157.276 43.0158 157.939 45.434 158.486ZM41.5097 132.736C41.2885 134.05 41.075 135.361 40.9275 136.687C40.4229 140.996 39.732 145.285 39.3438 149.605C39.2778 150.478 39.2468 151.253 39.2506 151.963C38.8353 151.967 38.4239 151.971 38.0085 151.963C37.271 151.924 36.5335 152.002 35.796 151.986C35.4777 151.982 35.1245 151.889 34.7829 151.874C34.9886 147.096 35.272 142.322 35.3419 137.541C35.3147 135.675 35.4661 133.802 35.3419 131.941C37.4496 131.949 39.5534 131.863 41.6495 131.662C41.6029 132.022 41.5602 132.379 41.5059 132.74L41.5097 132.736ZM48.6208 70.9983C48.3569 71.3124 48.0774 71.5373 47.8989 72.0453C47.6931 72.8868 47.6698 73.7749 47.5379 74.6358C47.1652 77.6257 46.8081 80.6234 46.6451 83.6327C46.354 90.5705 46.0124 97.5043 45.8183 104.446C45.7717 109.332 45.7989 114.215 45.7213 119.097C45.698 121.893 45.632 124.689 45.5971 127.485C45.6398 127.912 45.5582 128.454 45.5427 128.97C45.3331 129.028 45.1235 129.083 44.9178 129.094C43.2021 129.346 41.4787 129.571 39.7475 129.657C35.7145 129.909 31.6893 129.664 27.6602 129.49C25.11 129.393 22.5597 129.296 20.0173 129.141C18.3016 129.036 16.5859 128.908 14.8742 128.718C13.2788 128.59 11.6912 128.369 10.1153 128.098C9.95617 126.093 9.82031 124.084 9.69998 122.075C9.22643 114.827 9.17596 107.478 8.99353 100.207C8.93919 97.1863 8.74511 94.177 8.64418 91.156C8.60149 89.4497 8.54714 87.9722 8.36859 86.2194C8.14734 85.0598 8.36859 83.7142 7.71648 82.6904C5.70581 80.5808 4.26573 78.0678 3.37297 75.2951C0.714066 65.8173 2.6898 55.1528 8.01925 46.9393C11.6097 41.6613 16.881 37.7446 22.5054 34.774C23.697 34.0799 25.0362 33.4982 26.4064 33.1143C26.8994 33.44 27.1827 33.9907 27.3768 34.5336C27.8232 36.1197 28.1687 37.7562 28.8673 39.2531C28.976 39.4858 29.0925 39.7146 29.2206 39.9356C29.6825 40.8082 30.5054 41.4131 31.371 41.8436C35.4505 43.8369 37.8766 38.5512 38.0202 35.2084C39.4408 35.825 40.6635 36.3911 41.9988 37.2792C43.2992 38.3069 44.65 39.2686 45.9542 40.2963C47.2662 41.5411 48.5393 42.8364 49.7776 44.1549C52.5801 47.6606 54.8586 51.9263 55.2623 56.4791C55.6465 62.6257 52.4597 66.6433 48.6131 70.9983H48.6208Z" fill="#2C3A48"/>
<path d="M27.7064 55.3933C26.3712 55.9478 25.3154 57.0453 24.3023 58.0924C23.7394 58.6935 23.1999 59.3139 22.6953 59.9616C22.4546 60.1012 22.3032 60.3532 22.2372 60.6131C22.1907 60.7876 22.179 60.9543 22.2644 61.1948C22.3692 61.4895 22.6487 61.6368 22.8389 61.8695C23.5221 62.711 24.081 63.7271 25.0242 64.301C25.9752 64.6927 26.9301 63.8512 27.621 63.2772C28.7972 62.269 29.0417 60.9388 28.5526 59.5117C28.5177 58.6275 29.0766 57.8442 29.2125 56.9833C29.4764 55.9168 28.8437 55.0288 27.7064 55.3933V55.3933ZM25.6569 62.4279C25.1135 61.8385 24.7059 61.1327 24.1548 60.5549C25.2261 59.4613 26.2275 58.3134 27.4852 57.3711C25.6181 60.3261 28.6108 60.6286 25.6569 62.4279V62.4279Z" fill="#2C3A48"/>
<path d="M32.9785 45.958C32.2837 45.7176 31.5734 45.5314 30.8475 45.419C30.2536 45.2988 29.52 45.0195 29.062 45.5818C27.9247 47.5674 27.1639 49.7158 26.2828 51.837C24.9669 55.1023 23.6239 58.5731 23.1348 62.1253C22.8708 63.2034 24.0353 63.6649 24.8776 63.8898C26.1081 64.2931 27.3929 64.5374 28.6816 64.6732C29.3686 64.7042 30.2614 64.7624 30.7427 64.1845C31.0727 63.8627 31.2396 63.4438 31.3793 63.0095C31.4492 62.7885 31.5384 62.5674 31.585 62.3386C33.8014 62.455 35.2687 58.0147 35.3075 56.2153C35.2415 55.6918 34.83 55.1992 34.3332 55.0325C35.1833 52.7949 36.0489 50.5302 36.3943 48.1568C36.3051 46.9236 33.9606 46.3807 32.9746 45.9619L32.9785 45.958ZM31.6549 60.5935C30.4477 60.0661 30.8359 57.4485 31.5617 56.638C32.1711 56.6845 32.7767 56.8358 33.3939 56.766C33.0057 57.9836 32.7844 59.8606 31.6549 60.5935V60.5935ZM32.6952 54.9394C32.6952 54.9394 32.6874 54.9743 32.6835 54.9898C32.3186 54.9394 31.9577 54.8813 31.5928 54.8813C30.0013 54.8774 29.3842 56.7155 29.093 58.0069C28.9261 59.1509 29.1124 60.4811 29.7995 61.3691C29.586 61.8694 29.4851 62.4045 29.3725 62.9358C27.9169 62.897 26.4846 62.4705 25.126 61.9702C25.6306 58.6623 26.8999 55.5289 28.0877 52.4187C28.7786 50.7124 29.4463 48.9092 30.3196 47.261C31.783 47.5092 33.1881 48.025 34.5156 48.6726C34.0848 50.8132 33.0562 52.7833 32.699 54.9472L32.6952 54.9394Z" fill="#2C3A48"/>
<path d="M35.5088 26.0135C35.505 26.2617 35.734 26.3587 35.9397 26.4207C36.3046 26.5797 36.6772 26.7271 37.0227 26.9248C36.7354 27.6384 36.4637 28.3558 36.2192 29.081C36.1027 29.3059 36.0872 29.6317 36.3628 29.7441C36.7354 29.8992 36.9179 29.4804 36.98 29.1857C37.1508 28.6234 37.372 28.0805 37.5971 27.5414C37.6942 27.2351 37.9504 26.9054 37.7796 26.5797C37.5544 26.3199 37.209 26.1725 36.9023 26.0251C36.553 25.8855 36.1959 25.6606 35.8155 25.6567C35.6408 25.6916 35.5088 25.8274 35.5088 26.0096V26.0135Z" fill="#2C3A48"/>
<path d="M36.099 27.5648C35.835 27.2973 35.4041 27.7006 35.6487 27.9837C35.9088 28.3094 36.3901 27.8518 36.099 27.5648Z" fill="#2C3A48"/>
<path d="M34.2626 29.3872C33.6959 29.4493 33.9444 30.3722 34.2549 30.6127C34.6392 30.9306 35.0778 30.3567 34.6819 30.0542C34.5266 29.8332 34.6508 29.3911 34.2626 29.3872Z" fill="#2C3A48"/>
<path d="M18.7092 34.4208C18.7092 34.4208 18.7325 34.4053 18.7441 34.3976C18.7985 34.3627 18.8489 34.3317 18.8994 34.3006C19.338 34.0369 19.5864 33.9206 20.1958 33.5405C20.2657 33.4979 20.3317 33.4552 20.4132 33.4048C21.6282 32.7339 22.4006 32.3965 23.4253 32.0049C23.5573 31.9544 23.697 31.904 23.8407 31.8497C23.8678 31.8381 23.8911 31.8304 23.9183 31.8187C23.9261 31.8187 23.9338 31.8148 23.9455 31.811C24.5471 31.6442 24.9896 31.5007 25.3273 31.3534C25.3855 31.3301 25.4399 31.3029 25.4904 31.2797C26.1425 30.9694 26.3754 30.6476 26.748 30.1318C26.8412 29.9689 28.3977 30.3024 28.5995 30.2598C28.6655 30.2714 28.7354 30.2753 28.8014 30.283C31.0954 30.5545 33.3467 29.5191 33.7349 27.0488C33.7349 26.8433 33.634 26.6532 33.4748 26.5524C33.304 26.3042 33.1565 25.9862 33.304 25.6915C33.4903 25.4162 33.9173 25.5558 34.1541 25.6876C34.3559 25.8427 34.5423 26.0793 34.8334 26.0211C35.404 25.8389 35.6252 25.199 36.1609 24.8888C36.6267 24.5902 37.1662 24.4661 37.7096 24.4195C37.9697 24.3963 38.2298 24.3885 38.486 24.3885C38.7887 24.3807 39.1187 24.3265 39.3322 24.0899C39.402 24.0201 39.4525 23.9425 39.4952 23.8689C39.8368 23.229 39.2196 22.465 38.8081 21.957C37.5389 20.4834 35.3846 19.9831 33.5175 20.3476C31.8484 20.7587 30.42 21.8794 29.3603 23.2329C27.699 21.8833 25.1332 23.0506 24.1046 24.7298C22.7926 23.6245 20.8635 23.4113 19.3652 24.2683C17.3856 25.4162 17.1371 28.0028 17.4632 30.0542C15.7126 30.3257 15.4525 31.7644 15.5263 33.2846C14.1755 34.0175 14.0901 35.813 14.9207 36.9299C14.9207 36.9299 15.0217 36.8756 15.1769 36.7825C15.5107 36.5886 16.1357 36.2008 16.8305 35.6696C17.4593 35.2701 18.1425 34.828 18.7014 34.417L18.7092 34.4208Z" fill="#2C3A48"/>
<path d="M15.0681 37.0733C15.0565 37.0539 15.0448 37.0423 15.0293 37.019L15.0798 37.0927C15.0798 37.0927 15.072 37.0772 15.0681 37.0733Z" fill="#22A54A"/>
<path d="M20.6538 158.838C20.6849 158.947 20.681 159.055 20.6771 159.168C19.0585 159.261 17.4981 159.168 15.8601 158.966C14.3967 158.819 12.9488 158.528 11.6602 157.787C11.6951 157.326 11.7494 156.868 11.796 156.411C13.0847 156.926 14.5946 156.934 15.9416 156.733C17.3389 157.776 18.9459 158.485 20.6538 158.842V158.838Z" fill="#2C3A48"/>
<path d="M31.9338 158.489C31.9221 158.629 31.9027 158.765 31.8794 158.9C30.4316 159.269 28.9333 159.125 27.4195 159.149C25.7543 159.172 24.0852 159.176 22.4277 159.055C23.8756 158.679 25.2419 157.981 26.3598 156.989C26.5811 156.775 26.8295 156.539 27.0546 156.283C27.9901 157.279 29.5155 157.942 31.9338 158.489V158.489Z" fill="#2C3A48"/>
<path d="M153.056 27.3516C152.109 27.0956 151.185 26.7699 150.222 26.5721C149.819 24.7805 149.24 22.9152 148.503 21.205C148.239 20.2084 147.3 18.9015 146.228 19.8826C145.665 20.5884 145.514 21.5346 145.293 22.3917C145.013 23.5783 144.637 24.6874 144.33 25.8935C143.589 26.3511 142.789 26.704 142.009 27.0879C141.372 27.4292 140.487 27.6075 140.285 28.4103C140.01 29.5 141.244 29.9925 141.986 30.4617C142.75 30.9581 143.422 31.5825 144.21 32.0478C144.648 33.6145 144.854 35.2394 145.281 36.8139C145.429 37.7291 145.7 38.9739 146.865 38.939C147.909 38.9041 148.289 37.7446 148.681 36.9574C149.291 35.5846 149.792 34.1575 150.327 32.7497C151.728 31.6329 153.238 30.644 154.632 29.5233C155.404 28.3521 154.05 27.5959 153.064 27.3477L153.056 27.3516ZM148.41 31.5786C147.979 32.6101 147.645 33.6805 147.183 34.7081C146.842 33.4555 146.651 32.137 146.065 30.9659C145.867 30.6091 145.58 30.485 145.242 30.2795C144.586 29.8762 144.016 29.3565 143.383 28.9222C146.795 27.3206 146.589 27.3865 147.195 23.7528C147.61 24.827 147.847 26.0292 148.165 27.1616C148.293 27.6037 148.468 28.0962 148.868 28.3676C149.726 28.864 150.739 28.9493 151.697 29.2402C150.638 30.0507 149.403 30.7022 148.406 31.5825L148.41 31.5786Z" fill="#FAD209"/>
<path d="M156.576 9.02421C156.503 8.79929 156.444 8.57437 156.39 8.34556C156.398 8.37271 156.405 8.40373 156.409 8.43476C156.114 7.51955 156.118 5.72405 155.066 5.37503C154.647 5.26645 154.162 5.503 153.987 5.89856C153.731 6.03816 153.638 6.34452 153.599 6.61598C153.483 7.26748 153.347 7.91511 153.234 8.56273C152.427 9.29567 149.83 10.0441 150.797 11.4518C151.344 11.9482 152.159 11.9715 152.78 12.3748C152.962 13.2745 152.974 14.1858 153.129 15.0971C153.172 15.5509 153.421 15.9736 153.855 16.1481C155.536 16.7065 155.916 13.6119 156.409 12.5299C156.984 12.2778 157.574 12.0607 158.148 11.8125C158.404 11.8008 158.641 11.7155 158.835 11.51C159.926 10.0092 157.57 9.4663 156.572 9.02421H156.576Z" fill="#FAD209"/>
<path d="M167.558 29.4027C167.259 28.7201 166.397 28.7628 165.772 28.8404C165.624 28.185 165.403 27.5529 165.256 26.8936C165.256 26.5795 165.248 26.2538 165.031 26.0017C164.736 25.6372 164.153 25.6061 163.835 25.9513C163.389 26.5679 163.377 27.421 163.191 28.1462C162.632 28.3362 162.05 28.5069 161.541 28.8055C160.835 29.2165 160.873 30.2675 161.669 30.5467C162.123 30.6979 162.605 30.76 163.051 30.95C163.195 31.9234 162.601 33.7344 163.816 34.0989C165.403 34.3549 165.023 32.1056 165.19 31.1206C165.888 30.7987 166.773 30.9267 167.383 30.4303C167.647 30.155 167.701 29.7556 167.558 29.4066V29.4027Z" fill="#FAD209"/>
</g>
<defs>
<clipPath id="clip0_228_432">
<rect width="307" height="194" fill="white"/>
</clipPath>
</defs>
</svg>
