<svg width="299" height="208" viewBox="0 0 299 208" fill="none" xmlns="http://www.w3.org/2000/svg">
<path d="M55.3313 5.40033C55.8916 5.88715 56.2285 6.23095 56.6987 6.79204C57.1423 7.32287 57.5425 7.8757 57.9127 8.44504C58.2829 9.01437 58.6097 9.57271 58.9299 10.1475C58.9466 10.175 59.04 10.3456 58.9866 10.2466C59.0266 10.3208 59.0666 10.3951 59.1067 10.4693C59.1867 10.6179 59.2667 10.7664 59.3434 10.9149C59.5069 11.2257 59.6703 11.5393 59.8304 11.8528C60.0538 12.2874 60.6008 12.6312 61.2011 12.4579C61.7114 12.3094 62.1749 11.7923 61.9348 11.3275C60.6008 8.75033 59.2234 6.14844 56.8488 4.09388C56.4519 3.75007 55.6715 3.76658 55.2946 4.12413C54.8878 4.50919 54.9044 5.04002 55.3313 5.40583V5.40033Z" fill="#F4CA17"/>
<path d="M66.7631 10.8496L68.9725 1.12578C69.2378 -0.0464161 67.5023 -0.480668 67.2369 0.691529L65.0275 10.4182C64.7622 11.5904 66.4977 12.0247 66.7631 10.8525V10.8496Z" fill="#F4CA17"/>
<path d="M71.3477 10.3215L76.6251 7.2217C77.1504 6.91303 77.1131 6.2957 76.5796 6.00272C75.9964 5.67836 75.2106 5.7019 74.6523 6.0315L69.3749 9.13126C68.8496 9.43993 68.8869 10.0573 69.4204 10.3502C70.0036 10.6746 70.7894 10.6511 71.3477 10.3215Z" fill="#F4CA17"/>
<path d="M85.7098 49.0638C84.8611 49.7282 84.0095 50.3829 83.0853 50.917C83.0621 52.8517 83.0446 54.7831 83.0214 56.7178C82.9952 57.6916 82.9981 58.6654 83.0039 59.6425C83.1086 59.5611 83.2103 59.4829 83.2975 59.4113C84.0299 58.8283 84.6838 58.1411 85.3726 57.4962C86.2852 56.6689 87.1542 55.7797 88 54.8645C86.8578 54.021 84.7739 52.0114 85.7127 49.0605L85.7098 49.0638Z" fill="#F3F9FB"/>
<path d="M83.96 36.5547C83.7291 36.7531 83.496 36.9515 83.2606 37.1409C83.2309 37.165 83.1989 37.189 83.1669 37.2131C83.144 38.4005 83.1143 39.585 83.0754 40.7725C83.0434 41.9329 83.0206 43.0933 83 44.2507C83.5714 43.4841 84.1131 42.6814 84.6686 41.8968C84.776 41.7435 84.888 41.5932 85 41.4459C84.4354 40.5891 83.5211 38.7823 83.9623 36.5547H83.96Z" fill="#EAF5EC"/>
<path d="M56.003 32.2677L56.0763 46.1565C56.0763 46.5608 56.3962 46.8927 56.7895 46.8987L71.2634 47.1371C71.6684 47.1431 72 46.8082 72 46.3918V31.5285C72 31.1151 71.6713 30.7802 71.2693 30.7832L57.3559 30.8587C56.6017 30.8617 55.9942 31.4953 56 32.2677H56.003Z" fill="#C3E3C8"/>
<path d="M161 161.614C160.668 161.294 160.332 160.973 160 160.652C160.228 161.196 160.592 161.575 161 161.614Z" fill="#C3E3C8"/>
<path d="M223.538 71.1124C224.641 71.4729 225.31 70.4406 225.891 69.738C226.913 68.4499 227.769 67.0508 228.707 65.7072C230.158 63.2019 231.499 60.5763 232.401 57.8306C233.371 54.6072 233.813 51.39 233.962 48.0187C234.515 41.0296 228.952 35.5751 221.518 36.703C218.438 37.0666 215.742 38.857 213.842 41.1498C212.953 42.2252 212.963 43.6582 212.491 44.8908C211.705 47.6489 211.977 50.6566 212.51 53.4362C213.186 56.6195 214.811 59.1803 216.531 62.0308C217.901 64.4931 219.537 66.795 221.366 68.9676C222.081 69.6856 222.439 70.758 223.535 71.1093L223.538 71.1124ZM216.137 54.4377C216.104 54.3329 216.062 54.2282 216.033 54.1234C216.04 54.1234 216.046 54.1234 216.056 54.1234C216.091 54.2189 216.14 54.3114 216.179 54.41C216.166 54.4192 216.153 54.4285 216.14 54.4377H216.137ZM218.267 47.0696C218.406 46.3515 218.567 45.5904 218.865 44.9001C219.362 44.0773 220.057 43.3963 221.105 43.0018C221.486 42.7953 221.851 42.6289 222.203 42.4841C224.469 42.2252 226.593 43.9479 227.472 46.0434C228.189 47.0572 228.096 48.5364 228.044 49.7413C227.905 52.3884 226.771 55.8491 223.587 56.2312C219.346 56.4315 217.646 50.256 218.27 47.0665L218.267 47.0696Z" fill="#22A54A"/>
<path d="M226.847 74.1275C226.37 72.7711 223.565 72.7741 223.092 74.1275C222.897 74.9073 223.076 75.7223 223.052 76.5167H223.06C223.072 77.1964 223.74 77.8173 224.733 77.9144C227.6 78.0733 226.993 75.4722 226.843 74.1275H226.847Z" fill="#22A54A"/>
<path d="M227 82.236C226.899 81.4521 226.938 80.6291 226.771 79.8647C226.419 78.7523 224.154 78.5083 223.432 79.5427C223.164 79.8647 223.155 80.242 223.142 80.6129C223.129 81.2211 222.957 81.8294 223.01 82.4377C223.362 84.2365 227 84.0478 227 82.236V82.236Z" fill="#22A54A"/>
<path d="M83 16.3535H47V80.8074H83V16.3535Z" fill="white"/>
<path d="M85.9794 64.2146C85.6493 63.9347 85.2707 63.702 84.8769 63.5311C84.0985 63.1775 83.3625 62.7385 82.5235 62.5293C82.5477 63.8051 82.5204 65.0868 82.3932 66.3537C82.3326 66.887 82.266 67.4115 82.0085 67.8947C81.4815 68.7933 80.9939 69.6684 80.5486 70.5553C80.2639 71.1239 79.9883 71.7427 80.0004 72.385C80.1003 73.1039 80.6122 73.9878 81.4149 74.0733C81.7995 74.0085 82.163 73.8641 82.5113 73.6814C82.481 73.5901 82.4477 73.4987 82.4084 73.4221C82.1418 72.9507 81.7844 72.5323 81.4361 72.1169C81.2543 71.9401 81.0968 71.728 81.1302 71.4657C81.1453 71.2772 81.2998 71.1387 81.427 71.009C81.7299 70.6967 82.0055 70.3579 82.2842 70.022C82.6083 69.6979 82.7839 69.1145 83.3291 69.1587C83.5078 69.1823 83.6956 69.2176 83.8804 69.2648C84.7194 68.1451 86.1763 65.9206 85.9824 64.2146H85.9794Z" fill="#F3F9FB"/>
<path d="M82.1743 79.7116C82.2088 80.1515 82.19 80.6712 82.1429 81.1413C82.1053 81.353 82.1461 81.6912 82.4473 81.7599C83.1189 81.8039 83.8595 81.7022 84.4715 81.452C85.0301 81.0918 84.9266 80.3522 84.9987 79.7996C85.027 78.895 84.5845 77.5973 83.2633 77.996C82.9495 78.0674 82.645 78.1829 82.3563 78.3149C82.2339 78.3809 82.1617 78.4964 82.1617 78.6173C82.0205 78.6916 81.9609 78.851 82.0268 78.9858C82.1586 79.203 82.1398 79.4697 82.1743 79.7116V79.7116ZM83.825 78.5953C84.4464 79.0545 84.3052 79.8848 84.2989 80.5254C84.2738 80.6574 84.2989 80.9048 84.1828 81.0368C83.7717 81.2018 83.326 81.2183 82.849 81.2485C82.9149 80.6546 82.893 80.0525 82.8082 79.4614C82.78 79.2827 82.7455 79.1067 82.6921 78.9335C83.0593 78.7988 83.4202 78.6063 83.8282 78.5953H83.825Z" fill="#283441"/>
<path d="M69.389 80.6126C69.7165 80.7057 70.0703 80.7239 70.4066 80.7746C70.5912 80.7806 70.8022 80.813 71 80.8069C70.778 80.4911 70.5582 80.1753 70.3429 79.8554C70.2923 79.8514 70.2418 79.8473 70.1934 79.8493C69.767 79.8392 69.389 79.8534 69 79.8534C69.0527 79.9546 69.1033 80.0559 69.1407 80.1632C69.1978 80.3251 69.2198 80.5114 69.3868 80.6126H69.389Z" fill="#EAF5EC"/>
<path d="M179.5 207.791C222.855 207.791 258 174.197 258 132.755C258 91.3125 222.855 57.7188 179.5 57.7188C136.145 57.7188 101 91.3125 101 132.755C101 174.197 136.145 207.791 179.5 207.791V207.791Z" fill="#FBF4D8"/>
<path d="M66 154.881C102.451 154.881 132 126.024 132 90.4286C132 54.8336 102.454 25.9731 66 25.9731C29.546 25.9731 0 54.8306 0 90.4255C0 126.021 29.5491 154.878 66 154.878V154.881Z" fill="#FBF4D8"/>
<path fill-rule="evenodd" clip-rule="evenodd" d="M92.6173 22.4069C93.2945 22.5996 94.2765 22.8975 95.5019 23.3196L95.182 24.1732C93.9747 23.7573 93.0097 23.4647 92.3482 23.2765C92.0175 23.1824 91.7626 23.1143 91.5913 23.0701C91.5057 23.0479 91.4409 23.0317 91.398 23.0211C91.3765 23.0158 91.3605 23.012 91.3501 23.0095L91.3387 23.0067L91.3357 23.006C91.3357 23.006 91.3357 23.006 91.4481 22.5655C91.5606 22.125 91.5606 22.125 91.5607 22.125L91.5623 22.1254L91.5661 22.1263L91.5802 22.1297C91.5923 22.1326 91.6101 22.1369 91.6334 22.1426C91.6798 22.1541 91.7482 22.1712 91.8376 22.1943C92.0162 22.2405 92.2787 22.3105 92.6173 22.4069ZM103.107 26.4281C105.34 27.4817 107.782 28.7608 110.326 30.299L109.822 31.0663C107.308 29.5466 104.895 28.2828 102.69 27.2419L103.107 26.4281ZM117.07 34.879C119.142 36.4558 121.221 38.2099 123.253 40.1578L122.585 40.7994C120.579 38.8776 118.528 37.1462 116.482 35.5895L117.07 34.879ZM128.741 46.0788C130.392 48.0905 131.972 50.259 133.448 52.5947L132.639 53.0647C131.184 50.7617 129.626 48.6235 127.998 46.6396L128.741 46.0788ZM137.294 59.6119C138.39 61.9422 139.381 64.4082 140.244 67.0168L139.343 67.2912C138.491 64.7163 137.513 62.2832 136.432 59.9847L137.294 59.6119ZM142.31 74.7002C142.834 77.1947 143.247 79.8007 143.533 82.5226L142.592 82.6136C142.309 79.9208 141.901 77.3442 141.383 74.8794L142.31 74.7002ZM143.992 90.4227C144.009 91.7271 143.999 93.0552 143.96 94.4072C143.922 95.697 143.851 96.9669 143.748 98.2171L142.805 98.1455C142.907 96.9109 142.977 95.6565 143.014 94.382C143.053 93.042 143.063 91.7262 143.046 90.4341L143.992 90.4227ZM142.698 105.765C142.193 108.319 141.547 110.78 140.777 113.149L139.874 112.879C140.633 110.543 141.27 108.116 141.769 105.596L142.698 105.765ZM137.971 120.268C136.872 122.625 135.645 124.876 134.308 127.022L133.496 126.557C134.814 124.441 136.024 122.222 137.108 119.898L137.971 120.268ZM129.852 133.321C128.224 135.362 126.497 137.288 124.691 139.102L124.007 138.476C125.79 136.685 127.495 134.783 129.101 132.77L129.852 133.321ZM118.923 144.325C116.882 145.993 114.781 147.54 112.644 148.969L112.103 148.225C114.216 146.812 116.293 145.283 118.309 143.635L118.923 144.325ZM105.933 153.022C103.574 154.305 101.206 155.453 98.8589 156.469L98.4696 155.642C100.791 154.637 103.133 153.502 105.466 152.233L105.933 153.022ZM91.4904 159.268C88.8526 160.131 86.2898 160.821 83.8532 161.343L83.647 160.458C86.0485 159.943 88.5781 159.262 91.1849 158.409L91.4904 159.268ZM75.99 162.486C74.5707 162.582 73.2351 162.602 72 162.547L72.0438 161.641C73.2375 161.694 74.536 161.675 75.9238 161.581L75.99 162.486Z" fill="#22A54A"/>
<path d="M288.989 131.802C286.954 133.336 284.917 134.846 282.858 136.392C277.772 140.326 272.75 144.114 267.852 148.171C266.076 149.612 264.383 151.143 262.698 152.68C261.866 153.31 260.933 154.796 259.857 154.537C259.609 154.642 259.354 154.73 259.11 154.829C257.075 155.577 254.997 156.204 252.919 156.83C249.94 157.804 246.933 158.687 243.906 159.516C240.356 160.556 236.777 161.514 233.296 162.762C232.103 163.142 230.916 163.54 229.726 163.929C229.215 164.064 228.716 164.326 228.201 164.48C224.779 167.603 221.075 170.37 217.575 173.341C213.795 176.587 209.676 179.635 205.802 182.727C203.979 184.168 202.126 185.611 200.368 187.049C199.797 187.51 199.251 187.974 198.733 188.387C198.454 188.589 198.278 188.785 198.017 188.93C197.44 189.551 196.25 189.735 195.493 189.322L195.556 189.343C192.991 188.327 190.499 186.98 188.072 185.741C184.164 183.761 180.394 181.552 176.592 179.394C171.795 176.949 167.181 174.357 162.475 171.783C159.314 170.029 156.231 168.142 153.048 166.427C151.852 165.833 150.687 165.234 149.526 164.574C147.331 163.389 145.2 162.093 142.977 160.954C141.269 160.049 139.53 159.181 137.863 158.211C136.664 157.43 135.452 156.662 134.206 155.947L129.482 159.266C128.791 159.751 128.854 160.758 129.601 161.162L198.133 198.171L231.208 170.556L265.721 159.51L297 135.347L288.992 131.793L288.989 131.802Z" fill="#B6B5DB"/>
<path d="M140 150.557L170.169 124.575L203.519 114.354L235.481 88.5029L299 121.952L265.731 149.108L233.108 159.86L202.524 184.79L201.562 185.665L140 150.557Z" fill="white"/>
<path d="M227.678 126.678C228.562 125.957 227.474 124.784 226.249 125.116C225.821 125.232 225.513 125.505 225.201 125.738C223.177 127.095 221.125 128.464 219 129.735C219.816 130.1 220.628 130.466 221.444 130.831C221.72 130.643 221.999 130.458 222.285 130.282C224.127 129.12 225.955 127.933 227.681 126.678H227.678Z" fill="#EAF5EC"/>
<path d="M280.023 126.954C276.56 125.054 273.014 123.254 269.478 121.448C271.043 120.126 272.609 118.807 274.196 117.515C273.61 117.228 273.024 116.94 272.438 116.65C272.276 116.573 272.111 116.48 271.95 116.396C271.75 116.59 271.55 116.776 271.348 116.916C270.001 118.059 268.645 119.186 267.301 120.332C266.807 120.078 266.313 119.827 265.822 119.572C260.147 116.519 254.564 113.345 248.893 110.28C247.017 109.275 245.081 108.255 243.177 107.28C240.645 105.901 238.215 104.361 235.702 102.949C234.431 102.259 233.351 101.642 231.973 101.029C231.805 100.97 231.634 100.898 231.463 100.829C231.675 100.661 231.89 100.497 232.103 100.33C233.5 99.2947 234.815 98.1612 236.022 96.932C235.433 96.6897 234.843 96.4475 234.257 96.1992C233.408 96.8392 232.549 97.4733 231.71 98.1283C223.633 103.975 216.365 110.794 207.981 116.264C206.39 117.461 204.863 118.735 203.32 119.985C203.222 120.072 203.111 120.155 203 120.239C203.646 120.598 204.29 120.963 204.936 121.325C204.977 121.292 205.015 121.253 205.056 121.226C206.099 120.326 207.23 119.378 208.326 118.487C209.014 117.894 209.603 117.515 210.433 117.021C212.921 115.283 215.319 113.426 217.695 111.557C221.729 108.333 225.845 105.207 229.92 102.031C234.755 104.621 239.403 107.564 244.305 110.056C251.297 113.77 258.154 117.778 265.115 121.555C265.274 121.636 265.432 121.717 265.587 121.797C263.506 123.64 261.319 125.368 259.247 127.223C258.845 127.591 258.442 127.955 258.043 128.326C257.634 128.072 257.178 127.827 256.738 127.955C255.22 127.235 253.664 126.592 252.153 125.865C251.972 125.79 251.731 125.676 251.535 125.745C251.32 125.817 251.348 126.092 251.545 126.155H251.538C251.747 126.218 251.928 126.708 252.166 126.502C253.68 127.531 255.141 128.628 256.633 129.687C256.171 130.205 255.904 131.048 256.842 131.212C257.299 131.239 257.685 130.916 258.011 130.635C258.221 130.776 258.423 130.922 258.636 131.06C260.736 132.513 262.954 133.808 265.09 135.214C265.258 135.322 265.426 135.426 265.59 135.534C264.912 136.102 264.234 136.674 263.55 137.236C263.119 137.565 262.761 137.975 262.327 138.292C261.624 138.624 261.3 139.509 261.868 140.092C263.034 141.178 264.196 139.515 265.09 138.881C265.939 138.19 266.798 137.511 267.66 136.835C268.962 137.64 270.28 138.423 271.623 139.165C272.324 139.539 273.036 139.892 273.749 140.245C273.794 140.266 273.835 140.29 273.879 140.31C274.494 139.841 275.112 139.374 275.727 138.908C275.286 138.402 274.519 138.235 273.952 137.864C273.993 137.885 274.031 137.906 274.073 137.93C272.533 137.131 271.015 136.27 269.51 135.391C270.03 134.987 270.549 134.583 271.069 134.179C272.992 132.651 274.823 131.027 276.763 129.517C277.219 129.116 277.738 128.772 278.182 128.356C279.665 129.149 281.145 129.947 282.618 130.755C283.394 131.174 284.18 131.568 284.985 131.975C285.657 131.485 286.328 130.994 287 130.507C286.927 130.474 286.851 130.441 286.781 130.402C284.427 129.328 282.326 128.207 280.013 126.969L280.023 126.954ZM273.794 128.871C272.13 130.357 270.372 131.739 268.582 133.088C268.16 133.414 267.748 133.746 267.336 134.081C265.933 133.234 264.535 132.379 263.148 131.529C261.972 130.821 260.873 130.001 259.707 129.283C260.207 128.904 260.711 128.53 261.212 128.153C263.458 126.475 265.622 124.699 267.767 122.898C270.489 124.286 273.201 125.694 275.901 127.124C275.169 127.671 274.491 128.284 273.8 128.874L273.794 128.871Z" fill="#EAF5EC"/>
<path d="M204.684 136.523C204.894 136.615 205.137 136.633 205.35 136.549H205.353C207.225 136.159 209.062 135.601 210.859 135.009C213.287 134.231 215.713 133.451 218.116 132.616C218.75 132.399 219.394 132.18 220 131.902V131.897C219.197 131.446 218.394 130.992 217.588 130.541C215.334 131.371 212.944 132.162 210.697 132.966C209.256 133.469 208.016 133.994 206.522 134.5C206.394 134.567 206.006 134.7 205.509 134.873C203.897 133.821 202.125 132.969 200.466 131.972C197.844 130.264 194.734 128.698 191.938 127.109C191.466 126.837 190.994 126.562 190.516 126.297C193.475 125.493 196.447 124.736 199.366 123.809C200.381 123.502 201.394 123.182 202.391 122.823C202.647 122.722 202.938 122.647 203.206 122.543C202.891 122.367 202.578 122.196 202.259 122.014C201.762 121.777 201.294 121.5 200.828 121.211C197.656 122.257 194.394 123.257 191.141 124.037C188.613 124.725 186.134 125.548 183.587 126.178C180.841 126.779 178.159 127.594 175.428 128.262C173.919 128.576 172.206 129.033 170.697 129.475C170.509 129.533 170.256 129.602 170 129.686C170.716 130.027 171.422 130.385 172.119 130.761C174.766 130.351 177.35 129.735 179.975 129.076C182.509 128.415 185.066 127.822 187.591 127.135C187.747 127.21 187.903 127.285 188.047 127.372C189.781 128.201 191.431 129.18 193.091 130.137C194.609 131.09 196.231 131.885 197.812 132.743C199.541 133.807 201.272 134.864 203.075 135.818L204.678 136.526L204.684 136.523Z" fill="#EAF5EC"/>
<path d="M236.3 155.737C236.853 155.494 237.555 155.452 238.092 155.176C238.871 155.057 239.344 154.102 238.694 153.463C236.999 152.31 234.992 151.356 233.132 150.426C231.477 149.721 229.952 148.939 228.386 148.152C228.557 148.092 228.725 148.033 228.893 147.964C229.445 147.682 229.436 146.85 228.806 146.671C228.424 146.603 228.029 146.728 227.647 146.772C227.147 146.856 226.647 146.951 226.15 147.052C226.128 147.043 226.11 147.031 226.088 147.022C225.737 146.859 225.386 146.695 225.029 146.544C224.644 146.377 224.175 146.101 223.743 146.282C223.377 146.434 223.172 146.811 223.271 147.168C223.324 147.367 223.454 147.51 223.613 147.632C221.395 148.184 219.199 148.835 217.001 149.421C214.528 150.042 212.069 150.723 209.612 151.398C209.078 151.537 208.544 151.689 208 151.793C208.832 152.26 209.668 152.723 210.503 153.184C210.764 153.11 211.025 153.032 211.289 152.958C215.631 151.796 219.926 150.476 224.256 149.272C224.737 149.112 225.234 148.984 225.731 148.862C227.955 150.2 230.234 151.457 232.651 152.444C232.62 152.429 232.588 152.414 232.557 152.399C232.585 152.411 232.61 152.426 232.638 152.438C232.638 152.438 232.654 152.444 232.669 152.453C233.592 152.893 234.492 153.383 235.387 153.883C235.241 153.924 235.095 153.963 234.949 154.004C233.38 154.421 231.821 154.872 230.262 155.324C227.361 156.162 224.451 156.965 221.529 157.735C220.914 157.901 220.299 158.068 219.678 158.219C220.6 158.722 221.532 159.215 222.457 159.691C222.638 159.637 222.821 159.584 223.02 159.527C227.436 158.219 231.905 157.09 236.309 155.743L236.3 155.737Z" fill="#EAF5EC"/>
<path d="M194.56 183.475C196.735 181.475 198.842 179.406 200.995 177.389C202.739 175.71 204.639 174.2 206.475 172.624C210.135 169.496 213.56 166.108 217.029 162.778C217.512 162.291 218.017 161.825 218.532 161.371C218.717 161.25 218.877 161.09 219 160.912C218.31 160.546 217.62 160.161 216.933 159.771C216.354 160.31 215.787 160.866 215.22 161.417C212.393 164.1 209.546 166.892 206.638 169.509C203.844 171.925 201.023 174.309 198.309 176.808C197.111 176.033 195.817 175.389 194.609 174.624C192.85 173.526 191.092 172.428 189.326 171.336C190.066 170.661 190.777 169.95 191.517 169.279C193.614 167.279 195.82 165.392 197.85 163.325C200.656 160.491 203.296 157.502 206.189 154.744C206.38 154.568 206.583 154.402 206.749 154.208C206.053 153.818 205.357 153.425 204.664 153.028C204.263 153.443 203.866 153.857 203.456 154.266C200.967 156.716 198.562 159.314 196.113 161.807C193.393 164.523 190.318 167.185 187.642 169.983C187.58 170.044 187.512 170.114 187.444 170.18C185.855 169.206 184.262 168.238 182.654 167.288C179.192 165.28 175.757 163.223 172.329 161.154C174.269 159.411 176.226 157.684 178.049 155.82C178.628 155.203 179.358 154.671 179.78 153.936C180.125 153.258 179.275 152.499 178.622 152.889V152.883C178.616 152.883 178.613 152.889 178.607 152.892C177.294 152.215 175.976 151.507 174.679 150.79C171.509 148.89 168.454 147.109 165.315 145.018C163.322 143.805 161.47 142.374 159.425 141.24C160.155 140.562 160.888 139.891 161.612 139.234C164.27 136.757 167.203 134.503 169.541 131.72C168.916 131.43 168.287 131.146 167.674 130.831C165.9 132.522 164.073 134.283 162.225 135.931C160.01 137.973 157.74 139.96 155.488 141.96C151.897 145.312 148.369 148.727 144.793 152.094C143.706 153.128 142.621 154.217 141.519 155.324C141.02 155.845 140.502 156.356 140 156.876C140.447 157.127 140.89 157.378 141.34 157.623C141.574 157.744 141.802 157.874 142.036 157.998C143.022 156.958 144.051 155.957 145.064 154.94C146.774 153.316 148.514 151.652 150.252 149.982C150.578 150.239 150.917 150.484 151.256 150.729C153.409 152.245 155.759 153.455 157.968 154.886C161.56 157.121 165.173 159.317 168.796 161.504C166.84 163.341 164.97 165.258 163.134 167.234C162.604 167.805 162.025 168.371 161.455 168.922C162.083 169.267 162.715 169.605 163.343 169.944C163.75 169.53 164.166 169.127 164.566 168.707C165.968 167.321 167.366 165.845 168.789 164.417C169.409 163.812 170.043 163.229 170.678 162.642C173.124 164.115 175.572 165.585 178.021 167.052C178.003 167.07 177.981 167.086 177.963 167.104C175.619 169.146 173.157 171.066 170.998 173.308C170.835 173.532 170.607 173.722 170.376 173.913C170.989 174.261 171.608 174.606 172.224 174.954C172.563 174.615 172.905 174.273 173.247 173.964C175.385 171.983 177.649 170.138 179.682 168.054C181.481 169.133 183.28 170.213 185.076 171.299C185.442 171.52 185.802 171.75 186.169 171.977C186.166 172.161 186.212 172.346 186.317 172.5C186.56 172.866 187.075 172.978 187.466 172.782C190.497 174.678 193.503 176.62 196.599 178.411C196.294 178.704 195.98 178.989 195.678 179.285C194.132 180.728 192.623 182.201 191.095 183.662C190.787 183.992 190.395 184.286 190.118 184.649C190.768 184.999 191.421 185.338 192.083 185.665C192.247 185.514 192.407 185.362 192.573 185.235C193.251 184.673 193.913 184.092 194.539 183.472L194.56 183.475ZM170.45 160.019C165.493 157.021 160.546 154.009 155.553 151.068C154.296 150.372 153.067 149.616 151.795 148.957C151.706 148.911 151.604 148.857 151.496 148.803C152.072 148.246 152.651 147.692 153.224 147.136C154.734 145.678 156.308 144.177 157.894 142.686L157.916 142.698C159.668 143.76 161.412 144.849 163.146 145.944C167.653 148.799 172.295 151.422 176.897 154.133C175.027 155.645 173.422 157.475 171.577 159.021C171.192 159.348 170.826 159.686 170.45 160.022V160.019Z" fill="#EAF5EC"/>
<path d="M294.972 125.25C294.856 124.632 294.252 124.335 293.702 124.12C291.611 123.061 289.416 122.225 287.291 121.232C284.631 119.9 281.898 118.719 279.232 117.405C275.811 115.652 272.28 114.096 269.001 112.098C264.373 109.527 259.612 107.041 254.915 104.456C254.927 104.462 254.937 104.468 254.949 104.474C254.93 104.465 254.912 104.453 254.893 104.444C254.864 104.429 254.836 104.413 254.808 104.398C254.827 104.41 254.839 104.416 254.855 104.425C250.302 102.022 245.995 99.2119 241.467 96.7625C239.341 95.5211 237.153 94.3767 234.811 93.5532C234.921 93.5955 234.924 93.5955 234.924 93.5955L234.955 93.6076C233.644 93.1293 232.44 92.442 231.182 91.8546C230.616 91.5912 230 91.2642 229.359 91.4368C229.337 91.4368 229.321 91.4277 229.299 91.4247C228.837 91.3884 228.481 91.6972 228.132 91.9424C227.676 92.2664 227.217 92.5782 226.768 92.9083C225.639 93.7742 224.652 94.5432 223.479 95.4121C219.115 98.6699 214.829 102.118 210.783 105.743C206.535 109.397 202.098 112.842 197.813 116.457C197.464 116.881 196.998 117.005 196.47 117.13C196.231 117.202 196.039 117.354 195.901 117.541C194.593 117.774 193.31 118.183 192.002 118.404C189.625 118.913 187.239 119.394 184.896 120.039C180.563 121.187 176.319 122.598 172.005 123.824C169.587 124.544 167.182 125.313 164.824 126.197C164.088 126.5 163.261 126.706 162.635 127.2C162.531 127.299 162.456 127.415 162.396 127.536C162.346 127.566 162.296 127.596 162.245 127.633C159.447 129.782 157.029 132.335 154.363 134.626C151.722 136.958 148.867 138.95 146.181 141.248C143.088 143.84 140.097 146.54 137.003 149.135C135.623 150.346 134.274 151.593 132.951 152.862C132.482 153.225 132.058 153.707 132.058 154.203C132.032 154.273 132.004 154.346 132.001 154.424C131.976 154.918 132.416 155.224 132.809 155.454C132.988 155.554 133.158 155.663 133.334 155.766C134.579 156.486 135.793 157.255 136.997 158.039C137.422 158.288 137.852 158.53 138.286 158.766C138.315 158.781 138.34 158.796 138.368 158.811C139.61 159.49 140.871 160.131 142.122 160.795C144.348 161.939 146.483 163.241 148.681 164.431C149.841 165.091 151.011 165.696 152.209 166.293C154.718 167.649 157.161 169.109 159.632 170.528C159.893 170.68 160.158 170.825 160.418 170.974C160.83 171.207 161.239 171.443 161.651 171.673C166.364 174.259 170.986 176.862 175.791 179.318C179.598 181.483 183.374 183.705 187.289 185.694C189.719 186.938 192.216 188.292 194.785 189.312L194.722 189.291C195.48 189.706 196.671 189.518 197.25 188.897C197.508 188.752 197.684 188.555 197.967 188.352C198.486 187.938 199.036 187.471 199.605 187.008C201.366 185.564 203.221 184.114 205.048 182.666C208.927 179.56 213.053 176.499 216.838 173.238C220.344 170.253 224.054 167.474 227.481 164.337C227.997 164.182 228.497 163.919 229.01 163.783C230.201 163.392 231.39 162.993 232.585 162.611C236.071 161.358 239.656 160.392 243.212 159.35C246.243 158.518 249.255 157.631 252.239 156.653C254.321 156.023 256.402 155.393 258.439 154.642C258.685 154.542 258.939 154.452 259.188 154.349C260.266 154.609 261.2 153.116 262.033 152.484C263.722 150.94 265.413 149.398 267.196 147.954C272.104 143.879 277.135 140.07 282.225 136.122C284.288 134.569 286.329 133.052 288.366 131.511C289.573 130.597 290.781 129.676 291.991 128.729C292.724 128.15 293.428 127.539 294.158 126.957C294.453 126.718 294.78 126.476 294.894 126.101C294.928 126.01 294.938 125.916 294.941 125.822C294.997 125.643 295.022 125.45 294.975 125.25H294.972ZM224.218 164.573C220.133 167.589 216.225 170.716 212.333 173.977C207.025 178.113 201.589 182.267 196.379 186.617L196.429 186.578C196.454 186.56 196.476 186.539 196.502 186.521C196.363 186.633 196.225 186.742 196.086 186.854C195.958 186.926 195.848 187.029 195.753 187.141C194.955 186.781 194.106 186.502 193.31 186.121C192.744 185.882 192.191 185.624 191.641 185.358C190.968 185.031 190.298 184.692 189.635 184.341C188.459 183.717 187.292 183.069 186.113 182.451C183.51 181.156 180.925 179.802 178.35 178.431C177.215 177.777 176.077 177.135 174.904 176.547C174.621 176.411 174.341 176.263 174.058 176.124C173.162 175.633 172.269 175.137 171.376 174.64C170.747 174.292 170.115 173.947 169.49 173.599C167.814 172.663 166.144 171.724 164.478 170.78C163.751 170.401 163.031 170.011 162.308 169.626C161.667 169.284 161.022 168.945 160.381 168.603C158.783 167.746 157.183 166.889 155.576 166.048C155.287 165.887 154.998 165.721 154.709 165.563C152.288 164.273 149.863 162.99 147.467 161.651C145.182 160.289 142.899 158.899 140.556 157.673C140.321 157.549 140.085 157.419 139.846 157.298C139.387 157.052 138.931 156.801 138.478 156.55C137.783 156.162 137.088 155.772 136.406 155.366C135.78 155.045 135.192 154.612 134.573 154.258C135.001 153.819 135.444 153.389 135.9 152.98C137.953 151.067 140.123 149.277 142.267 147.458C144.77 145.326 147.263 143.192 149.832 141.136C152.539 139.065 155.24 136.937 157.733 134.62C159.642 132.746 161.676 130.99 163.588 129.125C163.635 129.119 163.679 129.116 163.726 129.107V129.116C163.821 129.077 163.918 129.04 164.012 129.004C164.861 129.473 165.72 129.934 166.565 130.412C166.616 130.439 166.669 130.46 166.719 130.485C167.345 130.796 167.987 131.084 168.625 131.375C169.411 131.732 170.194 132.098 170.93 132.549C173.087 133.866 175.19 135.265 177.375 136.54C180.611 138.408 183.868 140.246 186.971 142.317C189.116 143.652 191.332 144.872 193.489 146.186C195.533 147.412 197.501 148.757 199.567 149.952C201.199 150.87 202.831 151.79 204.466 152.702C205.173 153.098 205.884 153.492 206.594 153.882C208.66 155.018 210.742 156.126 212.858 157.176C214.235 157.888 215.606 158.681 216.986 159.45C217.687 159.841 218.388 160.225 219.096 160.592C219.19 160.64 219.281 160.692 219.376 160.74C221.366 161.718 223.297 162.744 225.255 163.801C224.906 164.058 224.564 164.331 224.218 164.585V164.573ZM237.021 158.581C234.166 159.435 231.387 160.501 228.538 161.376C227.875 161.591 227.224 161.842 226.557 162.051C226.447 162.075 226.343 162.118 226.246 162.166C225.337 161.715 224.432 161.273 223.491 160.776C222.781 160.431 222.061 160.068 221.338 159.696C220.401 159.211 219.457 158.708 218.524 158.197C217.565 157.673 216.615 157.143 215.694 156.613C213.531 155.451 211.383 154.267 209.239 153.071C208.393 152.599 207.547 152.126 206.704 151.654C204.733 150.546 202.762 149.432 200.793 148.318C197.118 146.119 193.48 143.873 189.716 141.814C186.493 139.931 183.343 137.93 180.076 136.113C177.891 134.841 175.687 133.603 173.536 132.28C172.848 131.814 172.137 131.393 171.417 130.987C170.719 130.594 170.008 130.218 169.285 129.861C168.59 129.516 167.889 129.177 167.182 128.847C166.798 128.659 166.405 128.45 166.009 128.241C169.405 127.009 172.898 126.031 176.363 124.992C179.02 124.211 181.636 123.312 184.337 122.673C187.836 121.644 191.436 120.966 194.964 120.033C195.684 119.824 196.454 119.646 197.108 119.282C197.181 119.276 197.25 119.27 197.322 119.261C197.335 119.264 197.344 119.273 197.36 119.279C198.419 119.709 199.347 120.369 200.303 120.984C200.771 121.284 201.243 121.577 201.743 121.825C202.064 122.016 202.378 122.198 202.696 122.38C204.217 123.261 205.711 124.081 207.28 124.989C209.063 125.998 210.751 127.145 212.546 128.132C214.097 128.98 215.631 129.87 217.162 130.763C217.97 131.235 218.778 131.711 219.59 132.183C220.316 132.607 221.042 133.028 221.772 133.443C223.969 134.666 226.214 135.81 228.365 137.121C230.362 138.363 232.27 139.334 234.402 140.455C236.518 141.566 238.621 142.834 240.741 143.967C246.278 146.958 252.098 149.78 257.785 152.593C250.925 154.573 243.935 156.625 237.03 158.587L237.021 158.581ZM289.812 127.387C288.498 128.338 287.193 129.292 285.888 130.254C285.222 130.745 284.555 131.245 283.889 131.741C282.857 132.507 281.829 133.273 280.801 134.051C278.77 135.616 276.729 137.185 274.698 138.759C274.088 139.232 273.475 139.704 272.865 140.179C270.136 142.311 267.435 144.472 264.797 146.698C263.175 148.036 261.631 149.462 260.081 150.876C259.999 150.964 259.902 151.055 259.801 151.145C258.056 150.334 256.323 149.492 254.61 148.614C247.985 145.511 241.586 142.032 235.207 138.478C231.063 136.31 227.117 133.821 222.926 131.735C222.41 131.435 221.894 131.133 221.375 130.83C220.668 130.418 219.964 130.006 219.256 129.591C214.329 126.709 209.402 123.815 204.447 120.975C203.806 120.608 203.167 120.239 202.526 119.876C202.171 119.673 201.818 119.47 201.463 119.267C200.976 119.013 200.287 118.534 199.573 118.138C201.146 116.821 202.733 115.522 204.34 114.241C209.129 110.432 213.707 106.393 218.426 102.506C222.045 99.4177 226.032 96.7322 229.544 93.535C230.468 93.974 231.355 94.4887 232.264 94.955C232.685 95.1608 233.11 95.3516 233.54 95.5393C234.122 95.7936 234.707 96.0358 235.292 96.2811C236.361 96.7322 237.423 97.1985 238.427 97.7798C243.479 100.459 248.233 103.62 253.27 106.321C257.251 108.461 261.247 110.723 265.3 112.803C267.089 113.757 269.051 115.004 270.944 115.988C271.104 116.073 271.268 116.167 271.428 116.245C272.01 116.539 272.592 116.827 273.173 117.12C277.198 119.137 281.241 121.108 285.338 122.988C287.486 124.045 289.715 124.935 291.881 125.952C291.193 126.431 290.498 126.906 289.812 127.393V127.387Z" fill="#283441"/>
<path d="M189.538 108.631C190.641 108.991 191.31 107.959 191.891 107.257C192.913 105.968 193.769 104.569 194.707 103.226C196.158 100.72 197.499 98.0949 198.401 95.3491C199.371 92.1258 199.813 88.9085 199.962 85.5373C200.515 78.5481 194.952 73.0937 187.518 74.2215C184.438 74.5852 181.742 76.3756 179.842 78.6683C178.953 79.7438 178.963 81.1768 178.491 82.4094C177.705 85.1675 177.977 88.1751 178.51 90.9547C179.186 94.1381 180.811 96.6989 182.531 99.5494C183.901 102.012 185.537 104.314 187.366 106.486C188.081 107.204 188.439 108.277 189.535 108.628L189.538 108.631ZM182.137 91.9563C182.104 91.8515 182.062 91.7467 182.033 91.6419C182.04 91.6419 182.046 91.6419 182.056 91.6419C182.091 91.7375 182.14 91.8299 182.179 91.9285C182.166 91.9378 182.153 91.947 182.14 91.9563H182.137ZM184.267 84.5881C184.406 83.8701 184.567 83.1089 184.865 82.4186C185.362 81.5959 186.057 80.9148 187.104 80.5204C187.486 80.3139 187.851 80.1475 188.203 80.0027C190.469 79.7438 192.593 81.4664 193.472 83.5619C194.189 84.5758 194.096 86.055 194.044 87.2599C193.905 89.907 192.771 93.3677 189.587 93.7498C185.346 93.9501 183.646 87.7745 184.27 84.585L184.267 84.5881Z" fill="#22A54A"/>
<path d="M191.885 111.645C191.528 110.289 189.424 110.292 189.069 111.645C188.923 112.425 189.057 113.24 189.039 114.034H189.045C189.054 114.714 189.555 115.335 190.3 115.432C192.45 115.591 191.995 112.99 191.882 111.645H191.885Z" fill="#22A54A"/>
<path d="M192 120.044C191.924 119.417 191.954 118.758 191.828 118.147C191.564 117.257 189.865 117.062 189.324 117.889C189.123 118.147 189.116 118.449 189.107 118.745C189.097 119.232 188.968 119.719 189.008 120.205C189.271 121.644 192 121.493 192 120.044V120.044Z" fill="#22A54A"/>
<path d="M190.53 128.907C192.435 128.853 191.967 126.708 191.905 125.514C191.947 124.895 191.496 124.308 190.844 124.149C189.715 123.848 188.766 124.901 189.051 125.893C189.08 127.012 188.793 128.889 190.533 128.907H190.53Z" fill="#22A54A"/>
<path d="M191.893 133.642C192.06 132.819 192.002 131.96 191.919 131.124H191.912C191.826 130.13 190.621 129.537 189.797 130.068C188.701 130.825 188.999 132.488 189.169 133.642C189.493 135.025 191.569 135.025 191.893 133.642V133.642Z" fill="#22A54A"/>
<path d="M225.04 101.009C227.58 100.955 226.956 98.8108 226.873 97.6168C226.93 96.9973 226.327 96.4109 225.459 96.2515C223.954 95.9507 222.688 97.0033 223.068 97.9958C223.107 99.1145 222.723 100.991 225.045 101.009H225.04Z" fill="#22A54A"/>
<path d="M226.857 105.743C227.08 104.92 227.003 104.061 226.892 103.225H226.883C226.768 102.232 225.161 101.639 224.063 102.17C222.602 102.927 222.999 104.589 223.226 105.743C223.657 107.127 226.426 107.127 226.857 105.743V105.743Z" fill="#22A54A"/>
<path d="M194.976 135.393C200.472 137.71 205.798 140.273 211.213 142.702C213.343 143.742 215.53 144.709 217.654 145.761C217.762 145.822 217.872 145.88 217.986 145.934C218.169 146.022 218.394 146.04 218.59 145.977C218.748 145.925 218.918 145.892 219.095 145.877C219.99 145.704 220.884 145.543 221.773 145.358C224.832 144.736 227.847 143.969 230.945 143.457C233.255 143.056 235.278 142.659 237.491 142.341H237.497C237.769 142.31 237.996 142.15 238.053 141.937C238.088 141.801 238.158 141.671 238.268 141.546C238.515 141.288 238.923 141.034 239.179 140.812C243.022 137.953 247.049 135.251 250.807 132.324C252.141 131.351 253.452 130.323 254.837 129.377C255.185 129.14 255.14 128.707 254.751 128.513C251.635 126.975 248.569 125.371 245.437 123.852C243.531 122.981 241.691 122.029 239.833 121.104C239.814 121.095 239.792 121.086 239.77 121.077C239.413 120.94 239.04 120.755 238.926 120.437C238.787 120.116 238.888 119.74 239.226 119.497C240.433 118.69 242.785 120.437 243.961 120.904C243.977 120.91 243.989 120.916 244.005 120.922C246.489 122.135 248.961 123.357 251.439 124.582C253.238 125.532 255.115 126.359 256.986 127.209C257.008 127.218 257.027 127.227 257.046 127.239C257.533 127.53 258.244 127.706 258.646 128.076C258.981 128.349 259.129 128.764 258.864 129.146C258.443 129.726 257.666 130.244 257.122 130.705C253.035 133.835 248.781 136.819 244.612 139.878C243.556 140.639 242.51 141.416 241.48 142.198C240.961 142.592 240.614 143.029 240.089 143.229C240.073 143.257 240.064 143.284 240.045 143.311C239.473 143.93 238.347 143.978 237.494 144.245C237.481 144.248 237.466 144.254 237.453 144.257C234.981 144.833 232.516 145.413 229.994 145.837C226.899 146.462 223.852 147.226 220.752 147.839C219.908 148.027 218.931 148.327 218.255 148.005C218.046 148.011 217.834 147.987 217.629 147.902C213.868 146.362 210.34 144.485 206.68 142.817C202.369 140.864 198.105 138.784 193.667 137.034C193.667 137.034 192.384 136.54 193.377 135.569C194.037 134.923 194.982 135.39 194.982 135.39L194.976 135.393Z" fill="#FAD209"/>
<path d="M244.881 115.064C244.679 114.695 244.266 114.572 243.931 114.359C243.34 114.037 242.776 113.683 242.224 113.302C238.408 110.905 234.524 108.617 230.645 106.323C230.162 106.083 229.634 105.68 229.07 105.867C228.998 105.894 228.938 105.939 228.88 105.984C228.784 106.035 228.693 106.098 228.615 106.17C228.175 106.596 227.713 106.999 227.261 107.41C225.478 109.029 223.762 110.623 221.964 112.272C221.62 112.599 221.159 112.971 221.065 113.407C220.694 114.338 222 114.809 222.555 115.344C224.235 116.623 225.982 117.71 227.719 118.941C230.102 120.734 232.807 122.223 235.374 123.764C235.643 123.932 235.926 124.097 236.237 124.097C236.294 124.097 236.354 124.091 236.418 124.079C236.433 124.076 236.448 124.073 236.463 124.067C236.572 123.962 236.683 123.857 236.798 123.754C236.867 123.691 236.937 123.631 237.006 123.568C237.009 123.559 237.012 123.547 237.015 123.535C237.124 123.442 237.223 123.34 237.32 123.238C237.838 122.806 238.2 122.442 238.707 121.953C240.568 120.313 242.327 118.647 244.064 116.842C244.251 116.653 244.456 116.452 244.613 116.226C244.951 115.956 245.132 115.488 244.887 115.058L244.881 115.064ZM242.565 115.971C240.613 117.776 238.629 119.551 236.665 121.34C236.611 121.391 236.538 121.46 236.481 121.517C236.297 121.722 236.062 121.89 235.851 122.073C235.486 121.863 235.121 121.659 234.765 121.43C233.106 120.409 231.405 119.454 229.788 118.367C227.701 116.95 225.578 115.38 223.415 114.013C223.288 113.956 223.153 113.866 223.011 113.764C223.032 113.743 223.053 113.719 223.071 113.698C223.581 113.172 224.094 112.695 224.627 112.173L224.582 112.215C225.517 111.311 226.461 110.419 227.387 109.494C227.927 108.962 228.512 108.422 229.022 107.854C229.128 107.728 229.245 107.602 229.363 107.473C229.456 107.53 229.55 107.587 229.637 107.653C230.545 108.257 231.486 108.818 232.43 109.365C235.89 111.479 239.482 113.452 242.794 115.776C242.722 115.845 242.646 115.911 242.565 115.968V115.971Z" fill="#2C3A48"/>
<path d="M53.1204 141.486L47.5012 148.147L34.7656 147.735L27 145.809L27.7704 106.557L28.9321 88.5029L71 95.5154L60.2741 104.662L51.9432 114.382L53.1204 141.486Z" fill="white"/>
<path d="M53.1727 141.413V113.034L59 104.857L70.5051 96.2613L87.8374 79.4889V73.5917L81.6358 69.7437L96 56.5326L93.4466 52.2877L80.5 59.6427L84.0844 51.7323L89.5 47.1367L87.5 43.2887L81.6358 45.6937L81 26.4544C81 26.4544 49.459 26.322 48.5 26.4541C47.541 26.5862 45.7255 56.6046 45.7255 56.6046L36.2676 66.7847L29.0454 94.6889L28 103.728" fill="white"/>
<path d="M43.6796 148.147C46.2798 147.49 48.6622 146.261 50.8404 144.824C51.6709 144.176 52.4366 143.44 52.9301 142.547C53.0458 142.382 53.1275 142.193 53.2092 142.006C53.1411 141.352 53.0833 140.701 53.039 140.05C53.039 140.044 53.0356 140.038 53.0356 140.032C52.8246 138.604 52.6204 137.174 52.4604 135.738C52.3005 134.319 52.1609 132.901 51.9976 131.483C51.8921 130.569 51.7866 129.658 51.6777 128.744C51.6198 128.265 51.5653 127.788 51.5279 127.308C51.4871 126.81 51.4598 126.308 51.436 125.96C51.4258 125.856 51.419 125.749 51.4122 125.642C51.4122 125.621 51.4122 125.599 51.4088 125.578C51.3509 124.835 51.2897 124.092 51.2522 123.35C51.2148 122.622 51.2046 121.892 51.2012 121.161C51.1978 120.464 51.2216 119.768 51.2556 119.074C51.2965 118.328 51.3577 117.582 51.4769 116.843C51.5926 116.115 51.7457 115.391 51.9295 114.673C52.0997 114 52.2699 113.318 52.5047 112.661C52.7668 111.919 53.1139 111.206 53.444 110.488C53.7469 109.828 54.0873 109.183 54.5025 108.575C54.9279 107.948 55.4282 107.383 55.9558 106.824C55.9694 106.808 55.9864 106.796 56 106.781C53.4781 107.517 50.7996 107.826 48.1415 107.808C46.4058 107.737 44.6564 107.646 42.9207 107.475C38.6528 115.455 42.6858 142.028 43.6864 148.138L43.6796 148.147Z" fill="#F0EFF8"/>
<path d="M55.6133 102.123C54.4998 105.146 49.7336 106.31 47 106.733C47.1326 106.736 47.2681 106.745 47.4006 106.748C53.3009 107.117 58.8653 104.396 63.4636 100.842C65.1338 99.4657 66.7068 97.9841 68 96.2746C65.7996 96.2596 63.5962 96.2386 61.3957 96.1996C60.4354 96.1966 59.4751 96.2116 58.5177 96.2266C57.3778 96.2446 56.2348 96.2626 55.0948 96.2506C55.8254 97.4233 56.5942 99.4627 55.6162 102.123H55.6133Z" fill="#F0EFF8"/>
<path d="M94.1017 51.9384C92.6463 51.8661 91.4211 52.6674 90.202 53.3211C89.126 53.9055 88.0376 54.4688 86.9989 55.1195C85.7114 55.9418 84.4613 56.8154 83.2609 57.7553C82.9592 57.9812 82.6234 58.1861 82.2968 58.403C82.3062 57.7884 82.3186 57.1739 82.3279 56.5594C82.6731 56.2672 82.9686 55.8304 83.2329 55.5412C83.8486 54.8815 84.511 54.267 85.1081 53.5922C86.5511 51.9896 88.3175 50.6551 89.4805 48.8326C90.6125 47.1065 90.824 44.796 88.9487 43.4796C87.8541 42.6211 86.3241 42.8591 85.105 43.326C84.9557 43.3983 84.8127 43.4796 84.6665 43.561C84.4862 43.6604 84.312 43.7658 84.141 43.8773C83.6185 44.2147 83.124 44.5972 82.6514 44.9979C82.7042 41.5818 82.67 38.1628 82.5767 34.7437C82.5612 34.0961 82.5363 33.4514 82.5145 32.8038C82.5145 32.3128 82.5145 31.8248 82.5176 31.3337C82.5518 29.8426 82.7695 28.3545 82.7136 26.8604C82.7602 25.8181 82.076 25.5771 81.2457 25.556C81.1058 25.5199 80.9658 25.4897 80.8259 25.4686C79.7095 25.303 78.5713 25.2969 77.4455 25.2337C74.3823 25.0529 71.3161 24.9716 68.2467 25.0288C63.7436 25.1885 59.2437 25.1011 54.7407 25.0198C52.7629 25.0077 50.7912 25.1674 48.8165 25.1764C48.151 25.2186 47.3829 25.2307 46.8853 25.7187C46.6645 25.9476 46.5525 26.2278 46.5028 26.523C46.4033 26.8031 46.4624 27.1646 46.4157 27.4508C46.3193 29.5534 46.31 31.653 46.31 33.7557C46.3815 37.3705 46.3566 40.9824 46.3286 44.6002C46.3535 48.4922 46.1327 52.3782 45.9834 56.2672C45.5387 56.0834 45.0536 56.0714 44.6213 56.3967C43.082 57.7914 41.8909 59.5205 40.4262 60.9936C39.288 62.2317 38.1498 63.4638 36.9556 64.6717C36.4176 65.1567 35.9076 65.6748 35.5127 66.2803C34.5735 67.8498 34.4305 69.7144 34.0355 71.4556C33.5099 74.7602 32.5304 77.9744 31.4264 81.1344C30.6116 83.6346 29.6942 86.1138 29.2713 88.7135C29.0536 89.816 28.923 90.9366 28.8856 92.0542C28.4005 94.5274 28.0522 97.0337 27.8065 99.5159C26.8549 108.622 26.1303 117.897 26.0588 127.085C25.9282 133.122 25.9251 139.213 27.0291 145.171C27.0819 145.373 27.197 145.533 27.3401 145.653C27.8252 146.563 29.3988 147.509 30.0954 147.937C32.7294 149.298 35.6744 149.973 38.6536 150.018C42.6466 150.296 46.7018 149.479 50.0884 147.349C50.8161 146.849 51.5905 146.419 52.3181 145.919C53.531 144.997 54.5292 143.804 55.1232 142.421C55.201 142.228 55.3098 142.024 55.4 141.816C55.7141 141.478 55.8136 140.933 55.6892 140.448C55.7016 140.132 55.6394 139.809 55.5057 139.538C55.543 139.406 55.5524 139.267 55.5337 139.126C55.3471 137.755 55.1605 136.384 55.0175 135.008C54.8713 133.592 54.7438 132.173 54.5883 130.757C54.5106 130.061 54.4328 129.369 54.3644 128.673C54.2929 127.977 54.2089 127.287 54.1529 126.591C54.125 126.145 54.1001 125.702 54.069 125.26C54.069 125.236 54.0596 125.109 54.0503 124.983C54.0503 124.979 54.041 124.826 54.0286 124.675C53.9975 124.22 53.957 123.621 53.9228 123.018C53.8886 122.461 53.8824 121.901 53.8762 121.344C53.8637 120.259 53.8886 119.172 53.9601 118.09C54.0348 117.165 54.1872 116.25 54.3737 115.337C54.5666 114.445 54.778 113.554 55.0735 112.689C55.2414 112.24 55.428 111.797 55.6146 111.358C55.7949 110.933 55.9598 110.511 56.165 110.098C56.3889 109.677 56.6284 109.264 56.8958 108.866C57.2597 108.357 57.6359 107.854 58.0558 107.381C58.883 106.477 59.7382 105.598 60.6525 104.775C60.696 104.739 60.7395 104.7 60.7831 104.664C60.9572 104.519 61.1376 104.384 61.318 104.248C65.0591 102.266 68.5265 99.6966 70.918 96.2384C70.9615 96.1601 70.9926 96.0848 71.0144 96.0095C73.9594 96.0245 76.9044 96.0336 79.8525 96.0456C80.0267 96.0456 80.2039 96.0456 80.3812 96.0456C80.5118 96.0456 80.6424 96.0456 80.7761 96.0456C81.1618 96.0456 81.5474 96.0366 81.9268 95.9974C82.7291 95.9191 83.2889 95.0425 82.9841 94.4521C82.9841 94.1629 82.9872 93.8707 82.9686 93.5815C83.18 93.6026 83.3915 93.6237 83.5967 93.6417C85.3476 93.946 87.8448 91.994 87.7297 90.2378C87.5929 88.8852 87.173 87.5206 86.3645 86.394C85.5248 85.3788 84.2125 85.3306 82.981 85.6168C82.9748 85.4059 82.9623 85.183 82.925 84.9781C84.0352 84.5655 85.1734 83.8184 85.7798 83.1978C86.7314 81.7067 87.6364 80.1614 88.389 78.5618C89.4961 76.1398 89.8755 74.1788 87.7359 72.1454C86.3303 71.1031 84.6696 70.2898 82.9312 69.9102C83.2329 69.6662 83.5283 69.4042 83.8144 69.2626C86.2743 67.3828 88.5445 65.2772 90.7493 63.1233C92.0555 61.7618 93.4829 60.5176 94.7392 59.1079C95.5385 58.2855 96.2631 57.2763 96.686 56.1949C97.6376 54.3453 96.3252 51.9203 94.1111 51.9354L94.1017 51.9384ZM85.4626 44.9708C86.918 44.2478 88.6626 44.287 88.644 46.2601C88.4792 47.1608 87.9194 47.956 87.3316 48.6519C86.691 49.4984 85.8731 50.1912 85.1112 50.9292C84.9588 51.0769 84.8065 51.2275 84.6603 51.3811C83.9046 52.1703 83.1676 52.9716 82.3901 53.7398C82.4181 52.577 82.4523 51.4142 82.4928 50.2545C82.5487 49.0676 82.5892 47.8777 82.6172 46.6878C82.6607 46.6637 82.7042 46.6366 82.7447 46.6155C83.065 46.4257 83.3822 46.2269 83.6963 46.0281C84.2778 45.6636 84.8593 45.2961 85.4626 44.9678V44.9708ZM62.8542 27.1074C64.9347 27.1104 67.0183 27.1074 69.1019 27.1224C68.7909 27.7279 68.4986 28.3424 68.2156 28.963C65.566 28.969 62.9164 29.0142 60.2731 28.6618C60.186 28.3123 59.9808 27.6888 59.6978 27.1104C60.7302 27.1194 61.7658 27.1134 62.8511 27.1074H62.8542ZM45.4641 58.1017C45.6103 58.174 45.7595 58.3035 45.9057 58.4451C45.8995 58.65 45.8933 58.8518 45.887 59.0566C45.8777 59.5567 45.8746 60.0537 45.8715 60.5538C45.3304 61.4123 44.4752 62.0841 43.6106 62.6775C43.2126 62.3221 42.7586 62.0449 42.2828 61.8009C43.3401 60.5658 44.3166 59.2645 45.4641 58.1017V58.1017ZM55.9846 106.7C55.5026 107.252 55.0455 107.809 54.6567 108.426C54.2773 109.026 53.9632 109.662 53.6896 110.312C53.3879 111.02 53.0707 111.722 52.8313 112.454C52.6167 113.102 52.4612 113.773 52.3057 114.436C52.1409 115.144 52.0009 115.858 51.8921 116.575C51.7833 117.304 51.7242 118.039 51.69 118.774C51.6558 119.461 51.6371 120.145 51.6402 120.831C51.6402 121.548 51.6526 122.268 51.6869 122.988C51.7242 123.72 51.777 124.452 51.8299 125.184C51.8299 125.205 51.8299 125.227 51.833 125.248C51.8392 125.353 51.8455 125.455 51.8548 125.561C51.8766 125.907 51.9014 126.398 51.9388 126.889C51.9761 127.362 52.0258 127.832 52.0756 128.305C52.1782 129.203 52.2715 130.104 52.3679 131.004C52.5203 132.399 52.6447 133.8 52.7908 135.197C52.9401 136.61 53.1267 138.02 53.3164 139.43C53.3164 139.436 53.3195 139.442 53.3195 139.448C53.3631 140.09 53.4128 140.731 53.475 141.37C53.4004 141.56 53.3257 141.743 53.22 141.906C52.766 142.786 52.0694 143.512 51.3106 144.15C49.3203 145.566 47.1434 146.777 44.7675 147.425C44.2637 147.563 43.7537 147.684 43.2312 147.765C40.5413 148.121 37.7704 148.048 35.0991 147.578C32.9284 147.096 30.8293 146.28 29.0536 144.973C29.1033 144.452 28.8794 143.894 28.8328 143.379C28.1113 138.601 28.0367 133.724 28.1268 128.878C28.2015 120.943 28.8048 113.053 29.405 105.14C29.5916 103.004 29.7875 100.868 29.9896 98.7327C30.8635 100.977 32.3282 103.001 34.5611 104.149C35.634 104.884 36.7908 105.595 38.0099 106.098C39.969 106.767 42.006 107.128 44.0678 107.348C45.6538 107.517 47.2491 107.607 48.8383 107.676C51.267 107.691 53.7145 107.39 56.0188 106.664C56.0064 106.679 55.9909 106.691 55.9784 106.706L55.9846 106.7ZM63.8463 100.585C58.9918 104.155 53.1174 106.887 46.8884 106.517C46.7485 106.517 46.6085 106.508 46.4655 106.502C41.7416 106.357 36.4705 105.245 33.6281 101.269C28.7923 94.1538 31.7156 86.8669 34.2283 79.5559C34.8316 77.7002 35.3292 75.8175 35.7428 73.9137C35.9698 72.6575 36.1968 71.3411 36.4394 70.0759C36.682 69.1029 36.797 68.0606 37.3755 67.2081C38.7127 65.6477 40.2489 64.25 41.5333 62.6444C41.5799 62.5932 41.6266 62.5389 41.6732 62.4877C42.1459 62.7468 42.6217 63.0029 43.026 63.3643C43.3992 63.7108 43.8097 63.6836 44.186 63.3613C44.7613 62.9456 45.3428 62.4998 45.8528 61.9907C45.8466 64.1536 45.8528 66.3165 45.8311 68.4763C45.1998 69.0818 44.5996 69.7205 43.9776 70.335C42.8954 71.3682 42.4258 71.7749 42.7212 73.3233C42.7865 75.0132 42.8705 76.7242 42.4942 78.3871C42.4227 79.1402 41.9158 79.8511 42.1086 80.6132C43.0789 82.5502 44.9199 83.9419 46.1358 85.7312C46.9382 87.0446 47.8462 88.2948 48.5615 89.6594C48.9316 90.4637 49.2488 91.2951 49.5286 92.1446C49.4975 92.3615 49.566 92.5874 49.7246 92.7651C50.1755 94.2593 50.5051 95.8016 50.7353 97.35C50.7819 97.6542 51.0804 97.8741 51.3914 97.832C51.6869 97.7928 51.8797 97.5518 51.8952 97.2717C51.9201 96.8258 51.9387 96.383 51.9419 95.9402C52.2342 95.9673 52.5514 95.9552 52.853 95.9462C53.1391 95.9372 53.4128 95.9251 53.6429 95.9462C54.097 95.9613 54.5541 95.9703 55.0081 95.9733C56.2116 95.9854 57.4183 95.9673 58.6218 95.9492C59.6356 95.9342 60.6463 95.9191 61.6601 95.9221C63.9831 95.9583 66.3092 95.9793 68.6323 95.9974C67.2702 97.7175 65.6064 99.2056 63.8432 100.585H63.8463ZM45.6476 80.9958C45.6476 81.3482 45.6476 81.7037 45.6476 82.0561C45.0847 81.3934 44.5187 80.7337 43.9714 80.0589C44.6587 77.5797 44.6493 74.9951 44.4161 72.4557C44.6618 72.1755 45.234 71.5761 45.8124 70.8983C45.8 71.4405 45.7906 71.9858 45.7782 72.528C45.6631 75.3476 45.6227 78.1702 45.6476 80.9928V80.9958ZM63.0657 93.2411C63.1061 93.1387 63.1621 93.0423 63.2274 92.9549C63.2927 92.8706 63.3642 92.7923 63.4389 92.7169C63.5726 92.5844 63.7219 92.4579 63.896 92.3765C64.0546 92.3042 64.2226 92.2621 64.3936 92.2621C64.4402 92.2621 64.4838 92.2621 64.5304 92.2711C64.633 92.2862 64.7294 92.3103 64.829 92.3404C64.916 92.3675 65.028 92.4247 65.1026 92.479C65.2706 92.6085 65.4043 92.7651 65.4882 92.9579C65.5784 93.1598 65.6313 93.4038 65.6095 93.6207C65.5909 93.7924 65.5442 93.955 65.454 94.1026C65.3545 94.2593 65.2301 94.434 65.0622 94.5274C64.9098 94.6117 64.7574 94.6539 64.5833 94.669C64.574 94.669 64.5615 94.672 64.5522 94.675C64.4527 94.6991 64.3501 94.7142 64.2474 94.7142C64.0546 94.7142 63.8618 94.669 63.6846 94.5936C63.6068 94.5605 63.5291 94.5214 63.4575 94.4762C63.4575 94.4762 63.4544 94.4732 63.4513 94.4701C63.3829 94.425 63.3238 94.3707 63.2678 94.3105C63.2492 94.2924 63.2336 94.2683 63.2181 94.2472C63.1808 94.202 63.1497 94.1538 63.1217 94.0996C63.0657 93.9972 63.0253 93.8888 63.0066 93.7743C62.9786 93.5935 62.9942 93.4098 63.0626 93.2351L63.0657 93.2411ZM79.7281 87.4754C78.8698 88.59 78.4469 90.1233 78.9413 91.4246C78.8418 91.4307 78.7392 91.4397 78.6397 91.4487C78.4189 91.4698 78.2012 91.4879 78.0084 91.4819C73.9625 91.6084 69.9073 91.6325 65.8583 91.5873C62.282 91.5512 58.6964 91.3222 55.0952 91.274C53.8109 91.2318 52.5234 91.2228 51.2453 91.3343C50.7353 89.5961 49.9547 87.9333 48.8942 86.4361C48.5801 85.8849 48.235 85.3607 47.868 84.8456C47.8711 84.8034 47.8742 84.7613 47.8711 84.7161C47.8493 83.5382 47.8711 82.3604 47.8649 81.1825C47.8182 77.0466 48.011 72.9136 48.0981 68.7776C48.1665 64.6295 48.0981 60.4815 48.2909 56.3365C48.5833 50.7425 48.6486 45.1425 48.7854 39.5455C48.8227 36.7199 48.7761 33.8943 48.7761 31.0656C48.7481 29.8155 48.8165 28.5503 48.7014 27.3032C51.2701 27.2369 53.8948 27.1405 56.4791 27.0411C57.0326 27.0622 57.5738 27.0772 58.1118 27.0863C58.3139 27.4568 58.4756 27.8484 58.656 28.231C58.8519 28.6648 58.8799 29.204 59.2624 29.5353C59.4956 29.7432 59.7942 29.7794 60.0958 29.8125C61.9368 30.0294 63.7903 30.0836 65.6406 30.0384C66.4927 30.0896 67.3448 30.0384 68.1969 30.0384C68.8251 30.0926 69.1454 30.0716 69.4502 29.4661C69.8265 28.7973 70.153 28.1045 70.5293 27.4357C70.5821 27.3333 70.6474 27.2339 70.7096 27.1345C72.0127 27.1495 73.3157 27.1736 74.6156 27.2158C76.0274 27.2459 77.4362 27.3122 78.848 27.3423C79.3518 27.3634 79.8836 27.3062 80.3781 27.4327C80.375 27.6165 80.3781 27.8032 80.3656 27.9749C80.3439 28.96 80.3314 29.945 80.3501 30.9301C80.4496 34.8371 80.5025 38.7412 80.4745 42.6512C80.4931 46.5282 80.235 50.3991 80.1666 54.276C80.0982 60.5116 79.9645 66.7533 80.0453 72.9859C80.0484 73.013 80.0578 73.0371 80.064 73.0642C80.0422 74.4981 80.0298 75.932 80.0391 77.3629C79.0595 78.9835 77.8809 80.8482 78.3722 82.6044C78.7019 83.728 79.5633 84.7793 80.7233 85.1559C80.7357 85.6469 80.717 86.1439 80.8041 86.6259C80.6735 86.7283 80.546 86.8308 80.4154 86.9302C80.1822 87.0928 79.9147 87.2435 79.7343 87.4634L79.7281 87.4754ZM82.9561 87.2947C84.7381 86.9573 84.9931 87.1591 85.5995 88.7858C85.7425 89.3551 86.0286 89.9907 85.9011 90.5721C85.472 91.1595 84.8531 91.7289 84.1161 91.9006C83.1334 91.8554 81.1866 91.8915 80.6642 90.9607C80.1822 90.1142 80.4714 89.1503 80.8819 88.3249C81.3825 87.6863 82.1818 87.4543 82.9561 87.2916V87.2947ZM84.0352 82.1314C83.9046 82.2188 83.7709 82.3092 83.6372 82.4026C83.3635 81.7971 82.8597 81.3362 82.3963 80.8241C82.4119 80.8422 82.4275 80.8572 82.443 80.8723C82.415 80.8422 82.387 80.809 82.3559 80.7789C82.782 80.2969 83.1085 79.8089 83.4381 79.2366C84.651 79.4354 84.7723 80.1855 84.9029 80.7518C84.6106 81.2097 84.4302 81.7519 84.0321 82.1314H84.0352ZM85.0459 72.6515C85.4502 72.8262 85.8389 73.0642 86.1779 73.3504C87.0486 74.0824 87.5773 75.1337 87.0891 76.2814C86.691 77.4562 86.1468 78.5738 85.5404 79.6583C85.4347 79.4806 85.3289 79.3269 85.2512 79.2245C84.9557 78.851 84.4955 78.6341 84.0197 78.5106C83.83 78.4624 83.6403 78.4262 83.4537 78.4021C82.8939 78.36 82.7136 78.9534 82.3808 79.2848C82.0978 79.6282 81.8148 79.9746 81.5007 80.2939C81.3701 80.4264 81.2146 80.568 81.196 80.7608C81.1618 81.0289 81.3235 81.2458 81.5101 81.4266C81.8677 81.8513 82.2346 82.2791 82.5083 82.761C82.5518 82.8424 82.5829 82.9327 82.614 83.0261C82.2564 83.2129 81.8832 83.3605 81.4883 83.4268C80.6642 83.3394 80.1417 82.4327 80.036 81.7007C80.0236 81.044 80.3097 80.4084 80.5989 79.83C81.056 78.9233 81.5536 78.0286 82.0978 77.1098C82.3621 76.6158 82.4306 76.0826 82.4928 75.5343C82.6234 74.236 82.6514 72.9286 82.6265 71.6243C83.4879 71.8351 84.2436 72.284 85.0428 72.6485L85.0459 72.6515ZM94.8699 56.0171C93.9867 57.6197 92.5126 58.8337 91.2376 60.1381C89.9999 61.3219 88.7901 62.5359 87.5369 63.7047C86.6319 64.5482 85.7052 65.3706 84.7256 66.1387C83.9917 66.7352 83.2889 67.3708 82.5052 67.91C82.4119 67.9763 82.3031 68.0456 82.1911 68.1239C82.1849 67.2202 82.1818 66.3165 82.2098 65.4188C82.2346 63.6294 82.2533 61.8431 82.2782 60.0537C83.2671 59.5597 84.1783 58.9542 85.0864 58.3397C85.6897 57.93 86.2898 57.5173 86.9087 57.1257C87.8292 56.5262 88.787 55.9328 89.7946 55.4177C90.995 54.8514 92.1052 54.0651 93.374 53.6554C95.215 53.2006 95.753 54.6525 94.8699 56.0202V56.0171Z" fill="#283441"/>
<path d="M113.302 115.98C113.457 114.228 114.071 112.518 113.993 110.745C113.872 109.466 113.786 108.121 113.138 106.967C111.741 104.758 110.111 102.674 108.447 100.647C107.728 99.7208 106.467 99.6999 105.379 99.6222C105.05 99.5923 104.725 99.5564 104.4 99.4996C104.273 99.4787 104.133 99.4428 103.994 99.4189C103.96 99.3621 103.929 99.3053 103.895 99.2515C103.17 98.0438 102.488 96.7823 101.41 95.8257C100.396 94.8452 98.9554 94.5433 97.5765 94.4088C96.6283 94.3042 95.6336 94.0052 94.6823 94.1906C94.4158 93.9664 94.1462 93.7451 93.8643 93.5389C92.7549 92.663 91.4597 92.0293 90.0777 91.6646C88.8351 91.255 87.5801 90.8873 86.2818 90.6841C84.9927 90.4718 83.7471 89.9009 82.4301 89.9188C81.5563 89.1207 80.6763 88.3315 79.8117 87.5244C77.8069 85.6859 76.2545 83.692 74.3922 81.6384C73.1868 80.4247 72.1239 78.942 70.5281 78.1857C69.4777 77.5609 68.0213 78.1229 67.3148 79.0257C66.7446 79.7162 66.5556 80.6519 66.6176 81.5188C66.9212 84.1733 68.5852 86.4303 70.0199 88.6334V88.6274C70.0974 88.7649 70.1842 88.8994 70.2678 89.037C69.9146 88.9981 69.5799 88.9742 69.3413 88.9353C68.8083 88.8755 68.2599 88.7679 67.7238 88.8307C67.1196 88.9473 66.8748 89.5541 66.7384 90.0683C66.286 91.4165 66.5401 92.9201 67.3706 94.0859C68.4458 95.455 70.147 96.2084 71.8605 96.5312C73.1124 96.8032 74.3705 97.0483 75.6409 97.2187C76.0066 97.8106 76.3629 98.4115 76.7007 99.0243C77.5156 100.851 77.7387 102.818 78.1292 104.761C78.8047 107.634 78.9503 110.733 78.8295 113.717C78.5506 115.696 78.4359 117.711 77.841 119.636C77.0074 119.25 76.2297 118.754 75.5604 118.135C73.8282 116.321 72.9234 113.965 71.5383 111.923C70.1872 109.917 68.1483 108.348 65.8398 107.487C63.5902 106.77 59.7509 106.223 59.5712 109.43C59.5712 109.439 59.5712 109.445 59.5712 109.454C59.3822 110.751 60.0763 112.064 60.6991 113.191C61.356 114.434 62.5211 115.549 62.7938 116.975C62.9828 117.755 63.1099 118.548 63.3826 119.307C63.8845 120.589 64.5755 121.797 65.0806 123.079C65.4835 124.099 65.7283 125.169 65.908 126.242C66.2705 128.003 66.7136 129.752 67.2931 131.458C68.3404 134.747 70.0478 137.808 72.0031 140.669C73.6981 143.365 76.3474 145.813 76.3319 149.155C76.1522 150.725 75.6161 152.243 75.1172 153.741C74.0265 156.772 72.7499 159.752 71.2129 162.601C69.9332 164.987 68.6658 167.372 67.1134 169.605C63.4848 175.706 59.8841 181.948 57.9413 188.77C57.0613 191.852 56.33 194.973 56.0945 198.192C56.0356 198.862 55.8125 199.803 56.364 200.234C56.9652 201.513 59.472 203.098 60.3644 203.71C62.1772 204.655 64.1355 205.382 66.1156 205.926C68.2103 206.365 70.3515 206.625 72.4865 206.789C77.37 207.023 82.1791 206.242 86.4212 203.797C88.1937 202.524 90.2388 201.436 91.3264 199.621C91.5929 199.271 91.627 198.895 91.5155 198.587C91.5681 198.162 91.6208 197.735 91.6735 197.31C92.9501 188.085 94.6854 178.911 97.6446 170.03C98.4441 167.845 99.5131 165.755 100.387 163.594C101.078 161.86 102.073 160.105 102.841 158.365C103.885 155.833 104.849 153.146 105.856 150.581C106.488 148.925 107.216 147.311 107.678 145.598C107.712 145.484 107.753 145.374 107.787 145.26C107.87 145.072 107.938 144.866 107.997 144.665C108.462 143.473 108.992 142.307 109.513 141.138C110.139 139.577 110.696 137.984 111.223 136.391C112.016 133.049 112.63 129.671 112.977 126.254C113.098 124.583 113.389 122.939 113.392 121.262C113.374 119.504 113.197 117.746 113.302 115.989V115.98Z" fill="white"/>
<path d="M84.9968 147.243C85.0949 143.634 78.3133 136.414 74.0506 132.158C69.788 127.901 70.0791 120.497 68.8196 117.35C68.2215 115.86 66.2342 113.577 64.3038 111.591C64.3481 111.778 64.3386 111.969 64.212 112.162C63.981 112.595 63.4842 113.302 62.943 113.707C62.9525 113.719 62.962 113.734 62.9715 113.746C64.0221 115.089 63.943 116.821 64.5348 118.333C65.2943 120.101 66.2848 121.794 66.7373 123.672C67.1013 125.262 67.3734 126.87 67.8323 128.439C68.6266 131.417 69.8766 134.159 71.4335 136.807C72.1551 137.983 72.9494 139.111 73.7215 140.254C74.9051 141.941 76.2658 143.546 77.0728 145.442C77.4589 146.336 77.6361 147.292 77.6677 148.253C77.7437 148.419 77.769 148.634 77.7437 148.84C77.7437 149.481 77.674 150.043 77.5696 150.663C77.2468 152.262 77.0411 153.786 76.2532 155.222C76.0633 155.509 75.8797 156.005 75.5918 156.259C74.7532 158.432 73.7722 160.545 72.6962 162.622C71.5127 164.757 70.4525 166.961 69.1171 169.013C66.2215 173.5 63.5696 178.186 61.3829 183.011C59.307 187.512 57.9367 192.331 57.2342 197.202C57.1519 197.954 57.0918 198.71 57.0348 199.466C57.0443 199.596 57.0285 199.723 57 199.847C57.1203 199.968 57.2405 200.089 57.3639 200.186C58.8133 201.319 60.3323 202.432 62.1108 203.045C64.1804 203.904 66.3386 204.548 68.5918 204.741C69.0095 204.802 69.4272 204.856 69.8481 204.905C69.962 202.187 72.3386 193.175 78.1203 182.043C84.5158 169.733 84.9019 150.853 85 147.243H84.9968Z" fill="#F0EFF8"/>
<path d="M61 110.33C61.4613 111.46 62.2292 112.502 62.9137 113.515C63.2976 113.097 63.6935 112.692 64 112.213C63.494 111.104 62.7024 110.094 61.5774 109.667C61.372 109.817 61.1964 110.109 61.003 110.33H61Z" fill="#EAF5EC"/>
<path d="M70.8152 91.9741C70.3453 91.9521 69.8789 91.8644 69.416 91.7766C68.9531 91.6815 68.431 91.6705 68.0585 91.334C67.5504 90.8841 67.4529 90.1854 67.1988 89.5782C67.1849 89.5417 67.164 89.5014 67.1466 89.4648C66.1442 93.6859 70.4846 94.6516 74 95.2368C73.3178 94.1176 72.6217 93.0129 71.929 91.9083C71.567 92.0034 71.1772 92.0107 70.8117 91.9741H70.8152Z" fill="#F0EFF8"/>
<path d="M94.9683 104.766C94.6595 102.486 91.1518 95.1353 91.1518 95.1353L88.7094 92.3262C87.5212 91.9628 86.2984 91.7001 85.1009 91.4211C85.0662 91.4114 85.0347 91.3984 85 91.3887C85.977 92.43 86.913 93.5134 87.7608 94.678C89.9952 97.8861 91.9996 101.192 93.547 104.799C93.6258 104.997 93.6006 105.178 93.5218 105.328C94.1741 105.811 95.1826 106.34 94.9715 104.77L94.9683 104.766Z" fill="#F0EFF8"/>
<path d="M113.302 115.98C113.457 114.228 114.071 112.518 113.993 110.745C113.872 109.466 113.786 108.121 113.138 106.967C111.741 104.758 110.111 102.674 108.447 100.647C107.728 99.7208 106.467 99.6999 105.379 99.6222C105.05 99.5923 104.725 99.5564 104.4 99.4996C104.273 99.4787 104.133 99.4428 103.994 99.4189C103.96 99.3621 103.929 99.3053 103.895 99.2515C103.17 98.0438 102.488 96.7823 101.41 95.8257C100.396 94.8452 98.9554 94.5433 97.5765 94.4088C96.6283 94.3042 95.6336 94.0052 94.6823 94.1906C94.4158 93.9664 94.1462 93.7451 93.8643 93.5389C92.7549 92.663 91.4597 92.0293 90.0777 91.6646C88.8351 91.255 87.5801 90.8873 86.2818 90.6841C84.9927 90.4718 83.7471 89.9009 82.4301 89.9188C81.5563 89.1207 80.6763 88.3315 79.8117 87.5244C77.8069 85.6859 76.2545 83.692 74.3922 81.6384C73.1868 80.4247 72.1239 78.942 70.5281 78.1857C69.4777 77.5609 68.0213 78.1229 67.3148 79.0257C66.7446 79.7162 66.5556 80.6519 66.6176 81.5188C66.9212 84.1703 68.5821 86.4243 70.0168 88.6274C70.0974 88.7649 70.1842 88.8994 70.2678 89.037C69.9146 88.9981 69.5799 88.9742 69.3413 88.9353C68.8083 88.8755 68.2599 88.7679 67.7238 88.8307C67.1196 88.9473 66.8748 89.5541 66.7384 90.0683C66.286 91.4165 66.5401 92.9201 67.3706 94.0859C68.4458 95.455 70.147 96.2084 71.8605 96.5312C73.1124 96.8032 74.3705 97.0483 75.6409 97.2187C76.0066 97.8106 76.3629 98.4115 76.7007 99.0243C77.5156 100.851 77.7387 102.818 78.1292 104.761C78.8047 107.634 78.9503 110.733 78.8295 113.717C78.5506 115.696 78.4359 117.711 77.841 119.636C77.0074 119.25 76.2297 118.754 75.5604 118.135C73.8282 116.321 72.9234 113.965 71.5383 111.923C70.1872 109.917 68.1483 108.348 65.8398 107.487C63.5902 106.77 59.7509 106.223 59.5712 109.43C59.5712 109.439 59.5712 109.445 59.5712 109.454C59.3822 110.751 60.0763 112.064 60.6991 113.191C61.356 114.434 62.5211 115.549 62.7938 116.975C62.9828 117.755 63.1099 118.548 63.3826 119.307C63.8845 120.589 64.5755 121.797 65.0806 123.079C65.4835 124.099 65.7283 125.169 65.908 126.242C66.2705 128.003 66.7136 129.752 67.2931 131.458C68.3404 134.747 70.0478 137.808 72.0031 140.669C73.6981 143.365 76.3474 145.813 76.3319 149.155C76.1522 150.725 75.6161 152.243 75.1172 153.741C74.0265 156.772 72.7499 159.752 71.2129 162.601C69.9332 164.987 68.6658 167.372 67.1134 169.605C63.4848 175.706 59.8841 181.948 57.9413 188.77C57.0613 191.852 56.33 194.973 56.0945 198.192C56.0356 198.862 55.8125 199.803 56.364 200.234C56.9652 201.513 59.472 203.098 60.3644 203.71C62.1772 204.655 64.1355 205.382 66.1156 205.926C68.2103 206.365 70.3515 206.625 72.4865 206.789C77.37 207.023 82.1791 206.242 86.4212 203.797C88.1937 202.524 90.2388 201.436 91.3264 199.621C91.5929 199.271 91.627 198.895 91.5155 198.587C91.5681 198.162 91.6208 197.735 91.6735 197.31C92.9501 188.085 94.6854 178.911 97.6446 170.03C98.4441 167.845 99.5131 165.755 100.387 163.594C101.078 161.86 102.073 160.105 102.841 158.365C103.885 155.833 104.849 153.146 105.856 150.581C106.488 148.925 107.216 147.311 107.678 145.598C107.712 145.484 107.753 145.374 107.787 145.26C107.87 145.072 107.938 144.866 107.997 144.665C108.462 143.473 108.992 142.307 109.513 141.138C110.139 139.577 110.696 137.984 111.223 136.391C112.016 133.049 112.63 129.671 112.977 126.254C113.098 124.583 113.389 122.939 113.392 121.262C113.374 119.504 113.197 117.746 113.302 115.989V115.98ZM70.4011 79.9703C71.1385 80.7207 71.845 81.4979 72.536 82.29C72.4958 82.3618 72.4524 82.4335 72.4028 82.4963C72.1022 82.9238 71.5817 83.13 71.0766 83.2466C70.5684 82.589 70.1439 81.9821 69.7906 81.2079C69.741 81.0734 69.6636 80.9389 69.6419 80.8014C69.8092 80.5891 70.0137 80.4068 70.1934 80.2065C70.2647 80.1318 70.3329 80.054 70.398 79.9733L70.4011 79.9703ZM68.3404 90.6153C68.3559 90.6452 68.3745 90.6751 68.3869 90.708C68.6131 91.2042 68.6968 91.7782 69.1523 92.1429C69.4869 92.4179 69.9487 92.4298 70.3608 92.5046C70.7729 92.5733 71.1881 92.6481 71.6064 92.666C71.9287 92.6959 72.2789 92.6899 72.6011 92.6122C73.2178 93.518 73.8375 94.4207 74.4448 95.3325C71.3152 94.8542 67.4511 94.062 68.3435 90.6153H68.3404ZM69.2019 90.3523C69.7503 90.3523 70.2864 90.3313 70.8845 90.3463C70.9526 90.3463 71.0239 90.3493 71.0952 90.3553C71.3988 90.8276 71.7087 91.2939 72.0217 91.7602C71.7397 91.7692 71.4422 91.7214 71.185 91.7124C70.7078 91.6377 70.212 91.6108 69.7503 91.4733C69.5148 91.3238 69.4808 91.0488 69.4033 90.8096C69.3475 90.6542 69.2762 90.5017 69.205 90.3523H69.2019ZM61.3994 110.626C61.6039 110.411 61.7867 110.127 61.9974 109.98C63.1718 110.396 63.993 111.376 64.5198 112.458C64.1975 112.928 63.7854 113.322 63.3888 113.726C62.6761 112.739 61.8766 111.726 61.3963 110.626H61.3994ZM111.316 117.827C111.397 119.029 111.397 120.341 111.455 121.561C111.403 122.975 111.214 124.365 111.115 125.779C110.808 128.559 110.513 131.363 109.767 134.068C109.55 135.363 109.169 136.612 108.657 137.829C108.332 138.746 108.035 139.67 107.622 140.555C107.009 141.975 106.281 143.374 105.98 144.895C105.98 144.91 105.98 144.922 105.977 144.937C105.68 145.652 105.419 146.381 105.137 147.099C104.425 148.704 103.681 150.539 103.061 152.219C102.023 154.841 101.149 157.531 99.854 160.045C99.259 161.271 98.785 162.353 98.2675 163.651C97.4463 165.579 96.5384 167.468 95.8133 169.432C94.4716 173.243 93.573 177.123 92.5628 181.048C91.5186 185.61 90.8307 190.235 90.2233 194.868C90.087 195.834 89.9599 196.799 89.8267 197.765C89.7895 197.989 89.7306 198.237 89.7058 198.479C89.4858 198.754 89.3247 199.011 89.0148 199.334C88.3734 199.983 87.5832 200.47 86.8334 200.993C85.4668 202.045 83.9981 202.829 82.3279 203.4C78.6466 204.858 74.5409 205.02 70.6118 204.565C70.1996 204.518 69.7875 204.467 69.3816 204.404C67.1753 204.213 65.062 203.576 63.0355 202.727C61.294 202.12 59.8098 201.017 58.3875 199.899C58.2666 199.803 58.1489 199.684 58.0311 199.564C58.059 199.442 58.0745 199.313 58.0652 199.188C58.121 198.44 58.1799 197.693 58.2604 196.949C58.9483 192.133 60.2901 187.368 62.3228 182.917C64.464 178.146 67.0607 173.509 69.896 169.076C71.2036 167.046 72.2417 164.867 73.4006 162.757C74.451 160.703 75.4147 158.614 76.2359 156.464C76.5209 156.213 76.6976 155.723 76.8835 155.439C77.6551 154.019 77.8565 152.512 78.1725 150.931C78.2748 150.318 78.343 149.762 78.343 149.128C78.3678 148.925 78.343 148.716 78.2686 148.548C78.2376 147.598 78.0641 146.653 77.6861 145.768C76.899 143.891 75.5666 142.304 74.4046 140.639C73.6485 139.509 72.8676 138.391 72.1642 137.231C70.6397 134.612 69.4157 131.901 68.6379 128.956C68.1855 127.402 67.9221 125.815 67.5658 124.242C67.1227 122.386 66.1528 120.712 65.4091 118.963C64.8296 117.468 64.9071 115.753 63.8783 114.428C63.869 114.416 63.8597 114.401 63.8505 114.389C64.3834 113.989 64.8668 113.286 65.093 112.862C65.217 112.671 65.2263 112.482 65.1829 112.297C65.0961 111.926 64.7739 111.573 64.591 111.251C64.0333 110.393 63.1966 109.756 62.2887 109.269C62.1865 109.191 62.078 109.149 61.9696 109.128C61.6876 109.074 61.3901 109.176 61.1298 109.34C61.2197 109.176 61.3157 109.015 61.4428 108.877C61.4893 108.838 61.5419 108.805 61.5946 108.778C61.9386 108.608 62.3941 108.671 62.7721 108.647C63.6428 108.689 64.5012 108.907 65.3161 109.197C67.4077 110.097 69.0996 111.699 70.2089 113.618C71.845 116.551 73.4935 120.186 76.9765 121.313C77.3018 121.492 77.6954 121.591 78.0393 121.683C79.254 121.794 79.6723 120.434 79.8613 119.51C80.0999 118.607 80.2765 117.687 80.3912 116.76C80.5368 115.388 80.8467 114.031 80.8405 112.647C80.7816 111.301 80.8839 109.956 80.7599 108.611C80.6577 107.101 80.3726 105.613 80.0782 104.13C79.7993 102.719 79.6134 101.29 79.1672 99.9121C78.6404 97.9691 77.3576 96.3339 76.3009 94.633C74.6215 92.2027 73.0752 89.7634 71.436 87.3002C70.4351 85.6919 67.0762 81.3604 69.0748 79.7641C69.2824 79.6325 69.5086 79.5518 69.7472 79.501C69.3289 79.8597 68.7278 80.1318 68.6131 80.6938C68.5945 81.2946 69.016 81.8297 69.2855 82.3498C69.6512 82.9029 70.0168 83.5097 70.4971 84.0029C71.0022 84.4125 72.2882 83.7847 72.7313 83.429C72.8831 83.2915 73.0132 83.139 73.1279 82.9746C74.9995 85.1658 76.8029 87.4227 78.9379 89.3957C82.0118 92.101 85.0857 94.8512 87.6235 98.0498C89.4022 100.232 90.7439 102.701 92.1724 105.102C92.4482 105.562 93.0462 105.43 93.2507 105.075C93.3282 104.937 93.353 104.77 93.2755 104.587C91.754 101.263 89.7833 98.2172 87.5863 95.2607C86.7528 94.1876 85.8356 93.1891 84.8719 92.2296C84.906 92.2385 84.937 92.2505 84.971 92.2595C86.1485 92.5165 87.3508 92.7587 88.519 93.0935C89.6346 93.4133 90.7191 93.8169 91.7169 94.4058C93.0152 95.2996 94.2051 96.3548 95.2803 97.4878C96.619 99.093 97.8399 100.794 99.0824 102.471C99.6092 103.162 100.771 102.516 100.424 101.736C99.2621 99.5235 97.8832 97.3742 96.1356 95.5507C96.4176 95.6075 96.6995 95.6703 97.0001 95.733C97.8646 95.9094 98.7849 95.9961 99.541 96.4774C100.818 97.3234 101.555 98.6865 102.327 99.942C103.427 101.604 104.121 103.505 105.37 105.078C105.853 105.688 106.857 105.123 106.563 104.423C106.333 103.891 106.073 103.371 105.816 102.851C105.506 102.22 105.19 101.589 104.858 100.967C105.382 101.048 105.906 101.084 106.247 101.162C107.114 101.293 107.418 102.283 107.935 102.869C108.942 104.277 110.036 105.628 111.019 107.051C111.601 107.831 111.899 108.758 111.933 109.714C112.308 112.449 111.006 115.089 111.313 117.833L111.316 117.827Z" fill="#283441"/>
<path d="M56.003 50.6324L56.0763 65.3381C56.0763 65.7662 56.3962 66.1177 56.7895 66.1241L71.2634 66.3764C71.6684 66.3828 72 66.0282 72 65.5873V49.8497C72 49.412 71.6713 49.0574 71.2693 49.0606L57.3559 49.1404C56.6017 49.1436 55.9942 49.8145 56 50.6324H56.003Z" fill="#EAF5EC"/>
</svg>
