<svg width="382" height="280" viewBox="0 0 382 280" fill="none" xmlns="http://www.w3.org/2000/svg">
<g clip-path="url(#clip0_228_537)">
<path d="M245.56 263.074C297.401 263.074 339.425 221.151 339.425 169.431C339.425 117.712 297.401 75.7886 245.56 75.7886C193.718 75.7886 151.694 117.712 151.694 169.431C151.694 221.151 193.718 263.074 245.56 263.074Z" fill="#FBF4D8"/>
<path d="M93.8652 193.68C145.706 193.68 187.73 151.757 187.73 100.038C187.73 48.3182 145.702 6.39502 93.8652 6.39502C42.0281 6.39502 0 48.3182 0 100.038C0 151.757 42.0239 193.68 93.8652 193.68Z" fill="#FBF4D8"/>
<path d="M89.4473 256H75.9473L72.4473 212L60.4473 256L48.4473 254.5L54.4473 165L44.4473 160.5L50.4473 145.5L45.4473 133.5V121.5L48.9473 112L55.4473 105L63.4473 101L66.9473 95.5L67.4473 82.5L83.9473 84L83.4473 94.5L79.4473 97.5L80.9473 100.5L93.9473 105L101.947 112.5L113.947 126.5L118.947 129.5L129.947 134.5L132.447 133.5L133.947 135L136.947 136L128.947 139L121.447 141L110.947 139.5L100.947 136.5L99.4473 163L94.9473 165L93.4473 209L91.4473 238.5L89.4473 256Z" fill="white"/>
<path d="M311.052 152.74C309.977 152.748 308.961 152.19 308.314 151.342C307.785 150.569 306.06 148.507 307.533 147.945C308.394 147.785 308.81 148.755 309.31 149.276C309.931 150.12 310.821 150.338 311.816 150.107C314.071 149.729 314.516 145.459 314.122 143.615C313.882 142.364 313.387 140.894 313.001 139.731C311.77 135.734 310.905 131.526 310.918 127.327C310.96 124.065 312.098 120.676 314.474 118.392C317.985 115.423 323.192 115.247 325.132 120.05C326.614 123.674 326.282 127.554 326.937 131.329C327.315 133.063 327.949 134.894 329.356 136.049C332.278 137.997 334.865 135.7 334.953 132.543C335.272 128.885 333.643 125.199 334.773 121.604C336.183 116.905 341.361 114.789 344.602 119.156C345.001 119.584 345.4 120.013 345.829 120.407C346.446 120.949 347.37 121.68 346.824 122.583C345.82 123.972 344.22 122.31 343.347 121.554C341.886 120.139 340.941 118.522 338.829 120.13C336.771 122.074 337.099 125.119 337.506 127.668C337.817 130.267 338.09 133 337.187 135.507C334.89 141.159 327.941 140.748 325.417 135.507C323.246 131.304 324.183 126.357 322.898 121.919C321.848 118.279 319.014 118.472 316.389 120.454C315.121 121.713 314.403 123.452 313.992 125.173C313.5 127.873 313.899 130.657 314.34 133.328C314.689 135.205 315.054 137.073 315.625 138.896C316.242 140.848 316.889 142.813 316.935 144.842C316.935 148.449 315.381 153.059 311.048 152.736L311.052 152.74Z" fill="#22A54A"/>
<path d="M268.331 145.501C267.752 142.221 270.292 139.189 273.093 137.854C275.255 136.662 277.766 136.267 279.862 134.953C281.55 133.903 282.902 132.106 282.931 130.052C282.797 127.718 281.352 125.744 279.996 123.943C278.988 122.822 277.825 121.839 276.876 120.663C275.927 119.404 275.163 117.854 275.23 116.242C275.369 114.797 275.717 113.424 276.347 112.131C277.158 110.523 278.619 109.36 280.252 108.671C282.306 107.512 284.77 107.588 286.857 108.625C288.067 109.12 289.272 109.847 289.881 111.064C290.116 111.354 290.12 111.833 289.771 112.093C289.482 112.316 289.049 112.265 288.814 111.988C287.727 111.32 286.576 110.779 285.325 110.51C284.208 110.25 283.045 110.271 282.028 110.854C281.025 111.341 279.971 111.871 279.307 112.807C278.598 113.89 278.275 115.217 278.161 116.502C278.249 117.451 278.762 118.333 279.345 119.063C282.213 122.007 285.316 125.32 285.753 129.607C286.03 133.894 282.57 137.434 278.762 138.761C275.831 139.874 271.98 140.806 271.098 144.291C270.943 145.236 271.543 146.017 271.699 146.907C271.812 147.776 270.926 148.503 270.099 148.251C269.028 147.911 268.579 146.487 268.323 145.492L268.331 145.501Z" fill="#FAD209"/>
<path d="M42.1538 269.486C42.1538 269.486 33.9153 267.835 38.6686 262.343C43.4135 256.851 89.8926 255.104 99.8905 261.344C109.888 267.588 95.998 267.957 95.998 267.957C95.998 267.957 71.3875 276.632 42.1622 269.486H42.1538Z" fill="white"/>
<path d="M49.9094 164.896C50.8416 165.236 51.7821 165.564 52.7269 165.878C52.6723 166.357 52.6639 166.848 52.622 167.319C52.5002 170.539 52.2986 173.764 52.4078 176.989C52.0635 185.778 51.3874 194.549 51.1691 203.346C50.9087 212.047 50.5098 220.735 49.9556 229.427C49.7624 235.897 48.805 242.301 48.15 248.734C47.9358 250.716 47.6965 252.694 47.4361 254.671C47.3648 255.196 47.5957 255.675 47.9652 255.981C48.2382 256.309 48.6539 256.515 49.1452 256.456C49.3593 256.456 49.5609 256.477 49.7666 256.498C49.6364 257.283 49.5399 258.072 49.5147 258.866C49.3341 259.509 49.3299 260.369 49.9304 260.768C51.3329 261.574 52.8991 262.125 54.4149 262.679C56.3213 263.493 58.2697 264.165 60.2642 264.732C60.9486 264.971 61.6667 265.11 62.3763 265.249C62.9096 265.358 63.4555 265.597 64.0097 265.484C65.0973 265.253 65.2736 263.762 64.396 263.158C63.1363 262.15 61.6835 261.377 60.4825 260.311C59.6931 259.588 59.1515 258.597 58.8197 257.585C58.8113 257.485 58.8071 257.371 58.8071 257.262C59.2942 257.275 59.7855 257.283 60.2726 257.27C60.9108 257.224 61.4525 256.8 61.5995 256.179V256.095C61.8892 255.419 61.9816 254.629 62.2419 253.957C63.4009 250.22 64.375 246.777 65.4836 243.132C66.6467 239.08 67.8434 235.242 68.8806 231.194C69.8422 227.134 70.9717 223.115 71.9963 219.072C72.0719 218.761 72.1391 218.45 72.2104 218.14C72.2104 218.186 72.2104 218.236 72.2104 218.282C72.2902 228.436 73.5247 238.53 74.1294 248.658C74.3184 250.98 74.4611 253.424 74.5703 255.725C74.5535 256.078 74.6795 256.372 74.8726 256.599C74.9734 256.863 75.1582 257.094 75.4479 257.224C75.9896 257.375 76.5522 257.405 77.1233 257.401C77.2199 258.366 77.2241 259.341 77.4089 260.302C77.7238 261.637 77.812 263.011 78.0177 264.354C78.1017 265.333 78.9331 265.748 79.8233 265.614C81.2174 265.643 82.6115 265.656 84.0055 265.648C85.6684 265.648 87.327 265.593 88.9856 265.505C90.787 265.517 92.6262 265.698 94.4065 265.429C95.6579 264.971 95.3597 263.187 94.2722 262.725C92.9915 262.271 91.589 262.322 90.3125 261.831C88.7252 261.306 88.0198 260.042 87.7049 258.492C87.5537 258.001 87.5159 257.514 87.4235 257.035C88.0282 257.023 88.6161 256.947 89.1577 256.662C89.1661 256.662 89.1703 256.653 89.1745 256.649C89.5902 256.569 89.9766 256.292 90.1823 255.78C92.286 245.815 93.3484 235.637 94.0874 225.488C94.5535 217.548 95.6663 209.641 95.6411 201.675C95.7796 192.568 96.3675 183.443 96.3591 174.348C96.3045 172.152 96.2583 169.918 96.2457 167.734C96.2205 167.268 96.3171 166.781 96.3129 166.307C97.2661 165.962 98.2151 165.601 99.1598 165.219C99.6847 165.034 100.029 164.623 100.126 164.19C100.588 163.43 100.31 162.385 100.474 161.528C100.634 159.685 100.806 157.842 100.886 155.99C101.327 150.086 101.339 144.148 101.801 138.253C103.38 138.992 105.093 139.362 106.739 139.937C109.124 140.521 111.266 141.096 113.668 141.365C115.943 141.671 118.249 141.621 120.533 141.797C122.914 141.814 125.37 142.095 127.684 141.381C128.612 141.083 129.611 140.676 130.124 139.802C130.14 139.756 130.149 139.71 130.166 139.664C132.244 139.37 134.335 138.807 136.141 137.72C136.951 137.224 138.039 136.716 138.173 135.671C138.068 133.861 135.75 134.831 134.6 134.44C135.112 133.785 134.789 132.782 133.924 132.66C133.243 132.593 132.605 132.929 131.938 133.008C131.438 133.08 130.938 133.134 130.438 133.168C130.359 133.013 130.258 132.87 130.124 132.756C129.481 132.261 128.263 132.299 127.596 132.055C125.387 131.488 123.254 130.686 121.213 129.658C120.088 128.927 118.912 128.28 117.783 127.55C116.325 126.391 114.801 125.362 113.42 124.119C111.765 122.418 110.115 120.701 108.742 118.786C105.992 115.347 103.321 111.921 100.306 108.721C99.0339 107.373 97.497 106.311 96.1197 105.076C92.7689 102.532 88.7336 100.987 84.711 99.8445C83.6108 99.5631 82.4729 99.1348 81.3265 99.1432C81.1124 98.9291 80.9444 98.6645 80.8437 98.3034C84.6648 96.4516 86.2646 91.4926 85.1393 87.4783C86.2814 86.7897 87.4487 85.0933 87.7343 84.3206C90.4301 78.6771 84.8495 71.6312 78.8155 74.5285C76.7286 71.8243 73.403 69.4267 69.838 69.8802C67.39 70.3588 64.9251 71.8201 63.7242 74.054C62.6828 76.1661 62.5065 78.6855 63.0943 80.9572C58.9583 81.8054 57.5264 85.8911 59.9703 89.2629C55.6873 91.2029 54.9734 98.7359 58.9793 101.281C58.5972 101.507 58.2235 101.734 57.8498 101.969C53.7683 104.749 50.2831 108.205 47.6167 112.349C46.1386 114.738 45.3996 117.527 44.7782 120.248C43.8082 125.391 43.5394 130.707 44.6228 135.843C45.3576 138.988 46.7727 141.801 48.2802 144.619C48.3473 144.749 48.4103 144.883 48.4775 145.009C48.0408 146.424 47.5453 147.818 47.1212 149.238C46.1051 152.786 44.8495 156.313 43.762 159.815C43.6192 160.113 43.573 160.399 43.5982 160.663C43.4135 161.092 43.4513 161.612 43.825 161.982C45.7145 163.208 47.8518 164.064 49.9346 164.913V164.9L49.9094 164.896ZM80.3482 84.6776H80.281C80.281 84.6776 80.3062 84.665 80.3188 84.6608C80.3314 84.6692 80.3398 84.6734 80.3482 84.6776ZM82.0068 111.236C81.8766 111.946 81.2342 112.416 80.7135 112.861C80.239 113.101 79.7057 112.903 79.269 112.668C77.5012 111.61 75.977 110.153 74.9104 108.39C73.0083 105.232 71.3664 101.709 68.4355 99.4036C68.5909 99.2902 68.7336 99.1684 68.8722 99.0424C72.9999 97.7491 75.1288 94.3941 76.2121 90.2161C76.3129 89.8844 76.3087 89.561 76.1072 89.2671C75.7544 88.9102 75.3933 88.6163 75.5907 88.0578C76.0526 87.8394 76.4515 88.3097 76.7832 88.5743C77.7658 89.2797 78.2277 88.1963 78.5426 87.4279C78.8407 86.9198 79.3236 86.4789 79.9241 86.4076C80.7177 86.3572 81.5449 86.5587 82.2545 86.9072C82.3007 86.9282 82.3469 86.9534 82.3889 86.9828C82.5485 87.2978 82.6786 87.6295 82.7794 87.9654C83.1909 89.3385 83.0859 90.7913 82.7794 92.135C82.3427 93.6719 81.4693 95.0366 80.2348 96.0317C79.7099 96.5272 79.0423 96.5818 78.6308 97.1529C78.1017 98.2404 79.1011 99.3574 79.5588 100.302C79.5882 100.34 79.6175 100.378 79.6511 100.416C79.6721 100.583 79.7225 100.751 79.7771 100.915C80.1802 102.326 81.0998 103.535 81.4903 104.963C82.095 106.966 82.4309 109.171 82.0152 111.236H82.0068ZM130.321 137.296C130.333 137.157 130.35 137.027 130.38 136.901C130.396 136.41 130.514 135.788 130.59 135.158C131.131 135.175 131.686 135.1 132.198 135.053C132.227 135.381 132.454 135.687 132.706 135.881C133.088 136.175 133.575 136.305 134.041 136.426C132.865 136.943 131.597 137.279 130.317 137.296H130.321ZM97.4844 163.225C95.5151 163.741 93.6003 164.56 91.6436 165.118C87.5957 166.273 83.4177 167.05 79.2186 167.231C76.5858 167.214 73.953 167.13 71.3245 166.92C63.7368 166.517 56.2499 164.774 49.2333 161.923C48.192 161.595 47.222 160.928 46.2268 160.432C46.525 159.735 46.6383 158.916 46.8987 158.219C47.2934 156.741 47.8477 155.314 48.2928 153.848C48.9394 151.845 49.5567 149.834 50.1529 147.814C51.0347 149.078 52.0215 150.25 53.13 151.417C54.881 153.5 57.1821 155.028 59.5882 156.263C63.1489 157.947 67.1632 158.232 71.0221 158.446C75.6914 158.396 80.5245 157.946 84.9671 156.54C86.6593 156.233 87.1044 155.704 87.1758 154.793C88.9352 154.382 90.3461 153.046 91.0893 151.409C91.6394 150.401 92.1853 147.449 90.7114 147.13C90.9129 146.534 91.0809 146.055 91.2951 145.446C91.8451 143.733 92.5212 141.999 92.7059 140.21C92.4414 138.833 89.7036 138.371 88.5111 138.278C86.8735 137.955 86.5669 138.803 86.0757 140.164C85.5214 141.671 85.1057 143.229 84.627 144.757C84.1693 146.181 83.72 147.604 83.2077 149.007C82.7458 148.906 82.2965 148.797 81.8808 148.696C80.6463 148.36 79.3908 148.087 78.1857 147.646C76.5397 146.97 74.923 146.101 73.5205 145.001C72.5422 144.266 71.4294 143.716 70.5224 142.889C69.5609 141.881 68.5825 140.869 67.6755 139.815C66.6551 138.501 65.8405 137.044 65.0805 135.566C63.8418 133.223 62.708 130.791 62.1538 128.184C61.9102 127.466 62.0362 126.16 60.9906 126.189C60.5539 126.231 60.2348 126.622 60.2684 127.054C60.6547 130.439 61.9606 133.638 63.4765 136.666C64.9293 139.912 67.2598 142.624 69.8926 144.967C71.1565 145.883 72.433 146.764 73.6717 147.713C76.9847 149.914 80.978 150.846 84.8789 151.283C84.8957 151.488 84.9083 151.69 84.9251 151.891C84.9881 152.698 85.0511 153.5 85.0805 154.31C81.6163 155.293 78.0765 155.969 74.4653 156.057C72.1685 156.275 69.7792 156.212 67.5159 155.86C65.7313 155.633 63.9258 155.381 62.2461 154.713C60.6211 154.096 59.1682 153.134 57.7322 152.173C56.0106 150.93 54.7005 149.238 53.3064 147.655C52.0173 146.072 51.0851 144.258 50.1613 142.448C49.12 140.424 48.108 138.408 47.4739 136.288C46.4662 132.467 46.2184 128.448 46.7139 124.543C46.9659 122.066 47.4068 119.614 48.2256 117.258C49.2837 113.336 52.0845 110.191 54.8894 107.382C56.8042 105.522 59.0339 103.985 61.3853 102.733C62.9348 101.776 64.6438 101.159 66.4242 100.806C70.4511 103.649 71.6436 109.225 75.091 112.517C76.8714 114.146 79.1221 116.275 81.6919 115.251C82.8466 114.671 83.8964 113.659 84.3918 112.458C84.8075 111.022 84.8621 109.553 84.7614 108.083C84.4842 106.143 84.0349 104.195 83.0692 102.477C82.9768 102.305 82.8802 102.133 82.7752 101.965C82.9642 102.032 83.1573 102.095 83.3547 102.158C86.5417 103.187 89.649 104.438 92.5716 106.08C99.0171 110.292 103.476 116.762 108.284 122.62C113.479 128.557 120.26 133.302 128.112 134.789C128.087 136.099 127.835 137.396 127.827 138.707C126.798 139.231 125.605 139.366 124.467 139.433C122.544 139.441 120.625 139.458 118.706 139.362C114.948 139.404 111.236 138.921 107.6 137.988C105.778 137.409 103.863 136.951 102.175 136.166C101.956 136.074 101.738 135.981 101.528 135.876C100.894 135.28 99.6343 135.553 99.3446 136.754C98.8701 139.32 98.8281 141.965 98.6602 144.568C98.4964 147.323 98.3158 150.082 98.2193 152.845C98.0345 155.633 97.9337 158.434 97.644 161.218C97.6608 161.856 97.4634 162.565 97.476 163.229V163.22L97.4844 163.225ZM86.8609 150.728C86.8609 150.707 86.8525 150.682 86.8525 150.657C86.8231 150.439 86.7895 150.216 86.7643 149.998C86.7475 149.855 86.7433 149.725 86.7643 149.586C86.7895 149.435 86.8357 149.292 86.8693 149.145C86.8819 149.108 86.8861 149.074 86.8945 149.036V149.019C86.9197 148.864 86.9239 148.662 87.054 148.549C87.0666 148.536 87.0708 148.532 87.0834 148.524C87.096 148.515 87.1002 148.507 87.1128 148.507C87.1254 148.499 87.1338 148.49 87.1464 148.486C87.1884 148.469 87.2346 148.452 87.2808 148.448C87.348 148.44 87.4152 148.448 87.4781 148.486C87.4949 148.494 87.5117 148.503 87.5285 148.52C87.5915 148.566 87.6377 148.637 87.6545 148.709C87.6713 148.751 87.6713 148.801 87.6755 148.843C87.7469 148.982 87.8267 149.112 87.9106 149.242C87.9568 149.309 88.0114 149.372 88.0618 149.435C88.0618 149.435 88.0618 149.435 88.0618 149.443C88.1038 149.485 88.1458 149.532 88.192 149.569C88.2214 149.59 88.2508 149.616 88.2802 149.637C88.3011 149.653 88.3263 149.662 88.3515 149.679H88.3683C88.3935 149.691 88.4229 149.704 88.4523 149.716C88.4691 149.716 88.4817 149.725 88.4985 149.729C88.9646 149.737 89.4391 149.586 89.8254 149.322C89.7624 149.595 89.6784 149.872 89.5777 150.14C89.5903 150.187 89.5903 150.229 89.5777 150.275C89.5609 150.346 89.5147 150.401 89.4559 150.43C88.9856 151.501 88.1878 152.446 87.1044 152.899C87.1044 152.849 87.096 152.794 87.096 152.744C87.0666 152.547 87.054 152.337 87.0498 152.122C86.9784 152.013 86.9701 151.875 86.9533 151.745C86.9449 151.635 86.9365 151.53 86.9281 151.417C86.9113 151.186 86.8819 150.959 86.8483 150.733H86.8609V150.728ZM80.0207 169.821C80.8227 169.775 81.6247 169.695 82.4225 169.59C82.3343 170.741 82.1874 171.891 82.074 173.042C81.3266 173.13 80.5707 173.084 79.8275 173.202C79.9241 172.08 79.9661 171.026 80.0123 169.926C80.0123 169.889 80.0207 169.855 80.0249 169.821H80.0207ZM76.9806 251.438C79.437 251.522 81.8724 251.526 84.3205 251.564C85.4542 251.61 86.5795 251.711 87.7133 251.719C87.8435 251.736 87.982 251.761 88.129 251.782C87.9568 252.71 87.7721 253.638 87.5873 254.566C85.5214 254.591 83.4471 254.604 81.3811 254.671C79.9745 254.738 78.572 254.869 77.1611 254.856C77.1317 253.714 77.0561 252.576 76.9806 251.442V251.438ZM80.4699 263.355C80.4532 261.314 79.9703 259.328 79.9493 257.296C81.6037 257.224 83.2623 257.153 84.9167 257.077C84.9167 257.518 84.9923 257.972 85.0217 258.371C85.345 260.353 86.2352 262.435 88.1206 263.351C85.4878 263.46 83.0691 263.393 80.4699 263.351V263.355ZM60.8605 249.628C60.0584 249.578 59.2522 249.54 58.4544 249.473C57.2703 249.305 56.1197 249.141 54.9398 249.12C54.9398 249.103 54.9524 249.095 54.9566 249.078C55.4437 244.657 55.977 240.248 56.5145 235.843C57.581 224.732 58.0681 213.584 58.5342 202.435C58.7399 196.502 59.2732 190.581 59.3824 184.64C59.332 180.852 59.2816 177.086 59.0255 173.311C60.7303 173.155 62.3427 172.152 63.1363 170.623C63.3085 170.308 63.7284 169.511 64.0265 168.738C68.8932 169.477 73.7389 169.8 78.6434 169.868C78.6434 170.124 78.6728 170.384 78.677 170.628C78.6938 171.001 78.6938 171.404 78.6896 171.631C78.7441 172.526 78.2235 174.344 79.6427 174.277C80.6673 174.247 81.6457 174.377 82.6451 174.293C83.2497 174.306 83.5688 173.726 83.4891 173.176C83.5814 171.921 83.657 170.665 83.6738 169.406C84.9545 169.208 86.231 168.969 87.5033 168.742C89.5525 168.343 91.5596 167.827 93.5289 167.218C93.3568 168.843 93.4996 170.867 93.4156 171.774C93.4954 179.366 92.9789 186.92 92.8319 194.507C92.5632 201.558 92.7605 208.44 91.9039 215.423C91.0347 225.962 90.4762 236.582 88.9058 247.042C88.7588 248.112 88.5867 249.179 88.4061 250.245C84.606 249.809 80.7303 249.989 76.8966 249.855C76.6362 243.93 76.2373 238.018 75.7208 232.11C75.091 226.076 74.9188 220.008 74.4527 213.962C74.3604 212.454 74.3016 210.943 74.1924 209.435C75.2757 204.514 76.3213 199.584 77.4089 194.659C78.4502 190.002 79.8905 185.446 80.8395 180.772C80.999 179.819 81.4231 178.891 81.4105 177.926C81.3224 177.329 80.6043 176.96 80.0626 177.233C79.6007 177.426 79.4118 177.955 79.248 178.392C78.7525 179.765 78.4712 180.978 78.1311 182.355C77.1989 185.874 76.3801 189.414 75.3639 192.908C74.1546 197.888 73.0545 202.897 71.7989 207.869C70.3797 213.995 69.0654 220.147 67.3816 226.206C65.4836 234.083 63.0608 241.835 60.8605 249.624V249.632V249.628ZM50.8458 250.518C52.1391 250.636 53.4324 250.817 54.7341 250.733C56.4851 250.833 58.2319 251.031 59.9829 251.131C60.1172 251.131 60.2516 251.144 60.3944 251.157C60.0794 252.177 59.7729 253.181 59.5126 254.121C59.5 254.163 59.4916 254.197 59.479 254.239C59.2438 254.226 59.0087 254.218 58.7735 254.239C56.3507 253.957 53.9069 254.079 51.4756 253.903C51.1523 253.873 50.8038 253.806 50.4469 253.743C50.5812 252.673 50.7114 251.598 50.8374 250.527L50.8458 250.518ZM52.5086 256.846C52.6388 256.859 52.7731 256.88 52.9033 256.884C54.1126 256.943 55.3261 257.056 56.5313 257.149C56.2877 258.828 57.3753 260.445 58.3872 261.692C56.3171 260.802 54.1756 260.059 52.1433 259.076C52.1769 258.341 52.3364 257.585 52.5044 256.846H52.5086ZM55.238 166.68C57.6944 167.428 60.176 168.058 62.7038 168.515C62.4519 169.028 62.1874 169.532 61.8598 169.998C61.0956 171.06 59.8821 171.787 58.5972 172.022C58.299 172.001 57.9841 172.093 57.7868 172.328C57.2913 173.176 57.5558 174.302 57.5012 175.242C57.5516 176.758 57.5726 178.198 57.5306 179.702C57.5138 184.006 57.4718 188.272 57.1863 192.568C57.0057 197.728 56.8 202.889 56.5355 208.045C56.1239 216.586 55.8678 225.135 55.0868 233.651C54.9314 235.587 54.6795 237.522 54.4611 239.446C54.142 241.944 54.0328 244.442 53.5625 246.882C53.466 247.579 53.2938 248.268 53.1888 248.965C53.1888 248.994 53.2014 249.011 53.2014 249.036C52.601 248.977 52.0005 248.889 51.4042 248.797C51.2951 248.772 51.1817 248.751 51.0599 248.738C51.5218 244.929 51.9753 241.113 52.4036 237.296C53.3652 224.325 53.8397 211.32 54.3016 198.32C54.6165 189.519 55.3513 180.73 55.1708 171.917C55.2128 170.418 55.2128 168.868 55.2254 167.424C55.2044 167.189 55.217 166.932 55.238 166.676H55.2464L55.238 166.68ZM80.4741 263.359C80.4573 261.318 79.9745 259.332 79.9535 257.3C81.6079 257.228 83.2665 257.157 84.9167 257.081C84.9167 257.522 84.9923 257.976 85.0217 258.375C85.345 260.357 86.2352 262.439 88.1206 263.355C85.4878 263.464 83.0691 263.397 80.4699 263.355L80.4741 263.359Z" fill="#293541"/>
<path d="M79.651 87.3694C80.2977 87.4156 80.9401 87.5584 81.5658 87.7305C82.1788 88.0917 81.8639 88.9651 81.9143 89.5529C81.8387 90.6993 81.9437 91.9044 81.6749 93.0171C81.4692 93.3867 80.8687 93.3531 80.6924 92.9793C80.5622 92.7148 80.642 92.3957 80.6588 92.1143C80.7302 90.9554 80.8016 89.7965 80.8435 88.6375C80.3816 88.4738 79.8736 88.3982 79.4327 88.2092C79.0632 87.9909 79.2017 87.3694 79.6552 87.3778V87.3652L79.651 87.3694Z" fill="#293541"/>
<path d="M79.7056 88.646C80.3018 88.5999 80.2683 89.6244 79.6888 89.5992C78.9917 89.5782 79.1177 88.7468 79.7056 88.646Z" fill="#293541"/>
<path d="M77.4677 92.4879C77.5055 92.3325 77.6146 92.2066 77.7658 92.152C78.0303 92.068 78.2151 92.1856 78.4419 92.3409C78.7988 92.5803 79.1851 92.7944 79.4832 93.101C79.7394 93.3739 79.6008 93.819 79.2397 93.9156C79.0549 94.0709 78.8114 94.2053 78.5636 94.2389C77.6104 94.4152 77.0394 93.2605 77.4677 92.4879V92.4879Z" fill="#293541"/>
<path d="M79.494 93.1066H79.4848C79.4848 93.1066 79.4848 93.0974 79.4756 93.0928C79.4756 93.0928 79.4848 93.1066 79.494 93.1112V93.1066Z" fill="#293541"/>
<path d="M54.7642 153.063C56.2129 154.34 57.8757 155.373 59.5889 156.259C63.1497 157.942 67.1639 158.228 71.0228 158.442C75.6922 158.392 80.5253 157.942 84.9678 156.536C86.66 156.229 87.1051 155.7 87.1765 154.789C88.9359 154.377 90.3468 153.042 91.09 151.404C91.6401 150.397 92.186 147.445 90.7121 147.126C90.9137 146.529 91.0816 146.051 91.2958 145.442C91.8459 143.729 92.5219 141.994 92.7067 140.206C92.4421 138.828 89.7043 138.366 88.5118 138.274C86.8742 137.951 86.5677 138.799 86.0764 140.159C85.5221 141.667 85.1064 143.225 84.6277 144.753C84.17 146.177 83.7207 147.6 83.2084 149.003C82.7465 148.902 82.2973 148.788 81.8815 148.692C80.647 148.356 79.3915 148.083 78.1864 147.642C76.5404 146.966 74.9237 146.097 73.5213 144.997C72.5429 144.262 71.4301 143.712 70.5232 142.885C69.5616 141.877 68.5832 140.865 67.6762 139.811C66.6558 138.497 65.8412 137.04 65.0812 135.561C63.8425 133.218 62.7088 130.787 62.1545 128.184C61.9151 127.466 62.0369 126.16 60.9914 126.189C60.5547 126.231 60.2355 126.622 60.2691 127.054C60.6554 130.439 61.9613 133.638 63.4772 136.666C64.93 139.912 67.2605 142.624 69.8933 144.967C71.1572 145.883 72.4337 146.765 73.6724 147.714C76.9855 149.914 80.9788 150.846 84.8797 151.283C84.8965 151.488 84.909 151.69 84.9258 151.892C84.9888 152.698 85.056 153.5 85.0812 154.31C81.617 155.293 78.0772 155.965 74.4661 156.057C72.1692 156.275 69.7799 156.212 67.5166 155.86C65.7321 155.633 63.9265 155.381 62.2469 154.709C60.6218 154.092 59.169 153.13 57.7329 152.169C56.8973 151.564 56.1625 150.859 55.4696 150.111C55.625 147.907 55.562 143.901 53.643 140.55C50.8381 135.637 50.8381 128.856 55.751 120.201C58.4173 115.507 63.3596 107.919 70.6827 105.996C72.0264 108.31 73.2315 110.745 75.0875 112.521C76.8679 114.151 79.1186 116.28 81.6884 115.255C82.8431 114.671 83.8929 113.664 84.3884 112.463C84.6907 111.413 84.7999 110.35 84.7999 109.28C87.7728 111.304 90.9599 114.239 94.3653 118.329C105.367 131.518 118.207 135.654 127.979 136.59C127.907 137.296 127.827 138.005 127.823 138.715C126.794 139.24 125.602 139.374 124.464 139.437C122.545 139.446 120.622 139.462 118.703 139.366C114.945 139.412 111.233 138.925 107.596 137.993C105.774 137.413 103.859 136.956 102.171 136.17C101.953 136.078 101.735 135.986 101.525 135.881C100.891 135.284 99.6309 135.557 99.3411 136.758C98.8666 139.324 98.8246 141.969 98.6567 144.573C98.4929 147.327 98.3124 150.086 98.2158 152.849C98.031 155.637 97.9303 158.438 97.6405 161.222C97.6573 161.856 97.46 162.57 97.4726 163.233C95.5032 163.75 93.5885 164.568 91.6317 165.127C87.5838 166.282 83.4058 167.058 79.2068 167.239C76.574 167.222 73.9412 167.138 71.3126 166.928C64.3128 166.555 57.397 165.03 50.8633 162.557L54.7558 153.071V153.063H54.7642Z" fill="#B6B5DB"/>
<path d="M52.1436 259.081C54.1759 260.059 56.3132 260.802 58.3875 261.697C57.3798 260.445 56.288 258.829 56.5315 257.149C55.3222 257.057 54.1129 256.943 52.9036 256.884C52.7692 256.884 52.639 256.859 52.5089 256.847C52.3409 257.586 52.1771 258.342 52.1478 259.076L52.1436 259.081Z" fill="#293541"/>
<path d="M217.783 123.158C217.359 124.732 217.548 126.437 217.493 128.066C217.543 128.797 217.321 129.628 217.762 130.267C218.497 131.258 220.088 130.628 220 129.414C219.861 127.445 219.941 125.337 219.903 123.33C219.689 122.314 218.161 122.196 217.779 123.158H217.783Z" fill="#FAD209"/>
<path d="M229.461 126.777C228.86 126.513 228.276 126.912 227.785 127.227C227 127.735 226.257 128.293 225.513 128.856C224.905 129.343 224.249 129.767 223.649 130.258C223.38 130.544 223.288 130.897 223.368 131.258C223.233 131.762 223.54 132.236 224.01 132.404C225.253 132.656 226.677 130.993 227.613 130.292C228.449 129.427 231.35 128.008 229.456 126.786L229.461 126.777Z" fill="#FAD209"/>
<path d="M323.708 174.785C328.008 176.582 330.422 181.705 329.15 186.156C328.016 190.208 323.717 193.16 319.513 192.526C317.813 192.265 316.389 191.379 315.046 190.388C312.417 193.458 306.673 191.69 304.514 188.839C302.671 186.567 302.973 180.432 298.644 182.566C294.714 185.106 290.149 185.177 288.646 180.008C287.928 177.632 289.07 175.158 288.398 172.799C287.857 170.686 284.838 169.926 283.234 171.291C282.948 171.505 282.734 171.774 282.545 172.068C283.654 173.261 284.493 174.73 285.035 176.187C285.619 177.816 285.799 179.37 285.997 180.97C286.034 181.117 286.068 181.26 286.102 181.407C286.715 184.388 286.505 185.308 283.225 185.551C282.213 185.522 281.189 185.48 280.29 184.942C279.308 184.35 278.485 183.254 278.317 182.116C278.333 181.31 279.774 180.281 278.749 179.609C278.258 179.374 277.767 179.706 277.292 179.815C276.393 179.945 276.079 179.089 275.953 178.367C275.793 177.85 275.402 177.426 274.966 177.124C273.71 175.965 272.039 177.25 270.624 176.691C270.322 176.578 270.082 176.397 269.91 176.175C269.616 176.019 269.419 175.566 269.511 175.112C269.877 170.951 276.297 168.394 279.811 170.052C279.971 169.578 280.164 169.141 280.311 168.822C281.327 166.5 283.435 164.585 286.009 164.262C290.099 163.38 291.476 166.853 293.337 169.607C294.903 171.417 296.49 170.115 297.473 168.541C298.829 166.433 300.727 164.548 303.242 163.976C306.664 163.103 310.691 164.543 312.484 167.646C313.639 169.826 313.525 172.521 314.844 174.617C315.961 176.17 317.918 175.032 319.375 174.713C320.79 174.382 322.327 174.247 323.708 174.793V174.785Z" fill="white"/>
<path d="M329.78 236.414C329.767 236.179 329.738 235.944 329.679 235.721C329.267 233.181 329.053 230.615 328.427 228.112C327.252 222.964 325.438 217.993 323.2 213.218C322.053 210.653 320.815 208.247 319.156 205.908C317.157 202.767 314.881 199.899 311.85 197.627C309.838 196.166 307.84 194.688 305.555 193.655C302.566 192.404 299.517 191.174 296.376 190.3C294.621 189.889 292.824 189.41 291.01 189.284C290.896 189.162 290.741 189.036 290.544 188.91C289.893 188.532 289.133 188.356 288.516 187.923C287.252 186.983 286.735 185.433 286.278 183.981C285.156 180.34 285.543 176.187 283.103 173.029C280.059 169.305 273.685 169.548 270.762 173.298C269.103 175.855 267.873 178.803 267.995 181.894C267.953 184.233 268.579 187.004 270.111 188.864C270.052 188.864 269.989 188.864 269.931 188.864C268.234 188.814 266.538 188.625 264.846 188.503C259.064 188.15 253.353 186.949 247.928 184.925C247.361 184.589 246.744 184.556 246.278 184.745C246.093 184.745 245.921 184.799 245.769 184.875C245.19 184.497 244.531 184.224 243.93 183.905C242.788 183.326 241.608 182.658 240.407 182.074C237.409 180.277 234.411 178.207 232.48 175.234C230.069 170.632 229.25 165.543 228.709 160.39C228.528 158.639 228.364 156.897 228.352 155.133C228.259 153.059 228.05 150.653 228.243 148.499C228.184 146.387 228.776 144.325 228.738 142.221C228.717 141.314 227.646 140.798 226.874 141.247C226.429 141.495 226.059 141.856 225.597 142.083C225.631 140.693 225.375 139.072 225.509 137.64C225.538 137.027 225.093 136.452 224.48 136.347C222.755 136.154 221.39 139.366 220.621 140.672C218.971 143.855 218.144 147.466 217.695 151.01C217.695 151.01 217.695 150.968 217.703 150.951C216.813 156.678 216.733 162.364 217.317 168.175C217.728 172.773 218.522 177.313 219.853 181.738C221.974 187.961 225.194 194.067 229.439 199.143C231.354 201.335 233.294 203.523 235.717 205.173C235.226 206.462 234.793 207.764 234.621 209.124C234.659 209.851 235.192 210.401 235.818 210.699C237.044 211.501 238.262 212.311 239.559 212.996C241.516 214.155 243.405 215.41 245.266 216.716C246.341 224.002 245.761 231.425 246.143 238.761C246.273 243.901 246.584 249.028 246.786 254.159C246.895 256.8 246.933 259.441 246.962 262.087C247 262.628 246.895 263.204 246.945 263.745C246.937 264.333 246.861 264.951 247.075 265.505C247.298 266.672 248.478 266.828 249.481 266.874C250.888 266.987 252.291 267.058 253.701 267.121C257.98 267.508 262.259 267.562 266.55 267.445C264.102 267.873 261.617 268.1 259.152 268.423C256.867 268.759 254.277 268.654 251.938 268.704C249.893 268.566 247.764 268.599 245.832 267.81C245.018 267.478 244.22 266.979 243.317 266.928C240.122 267.012 240.286 269.46 241.919 271.472C240.084 271.795 238.031 271.165 236.359 272.265C234.789 273.416 236.359 275.582 237.72 276.154C240.869 277.124 243.997 278.245 247.252 278.875C251.409 279.744 255.662 280.075 259.903 279.979C265.471 280.033 270.959 279.462 276.485 278.736C283.065 277.963 289.742 276.468 296.137 274.642C302.339 272.811 308.532 270.695 313.949 267.067C318.547 264.174 322.729 260.34 324.871 255.221C326.483 251.64 327.793 247.781 327.68 243.804C327.743 242.234 327.575 240.617 327.096 239.105C327.756 238.841 328.406 238.568 328.986 238.249C329.767 238.01 330.191 237.073 329.788 236.397L329.771 236.414H329.78ZM324.493 240.856C324.963 243.351 324.841 246.269 324.081 248.738C322.805 253.563 320.554 258.425 316.586 261.629C312.895 264.703 308.612 267.268 304.136 269.091C298.56 271.283 292.878 272.786 287.042 274.209C271.035 277.342 253.819 280.285 238.211 274.079C240.13 273.647 242.855 274.1 244.01 272.097C244.119 271.812 244.052 271.472 243.88 271.232C243.506 270.674 243.208 270.069 242.906 269.469C243.762 269.569 244.472 270.157 245.299 270.397C247.063 271.001 248.936 271.148 250.779 271.27C252.559 271.396 254.335 271.232 256.116 271.27C259.177 271.186 262.2 270.598 265.249 270.304C270.804 269.255 276.385 268.07 281.621 265.887C281.915 265.786 282.196 265.677 282.486 265.572C287.499 264.216 292.24 262.024 296.301 258.656C298.434 257.153 300.235 255.41 302.045 253.445C303.305 251.946 303.922 250.01 304.384 248.133C310.817 245.223 317.447 243.221 323.934 240.361C324.065 240.302 324.212 240.248 324.35 240.193C324.405 240.42 324.455 240.642 324.48 240.865L324.489 240.856H324.493Z" fill="white"/>
<path d="M271.845 185.392C272.924 185.438 272.744 184.086 272.853 183.359C272.975 182.163 273.197 180.97 273.277 179.769C273.781 179.786 274.285 179.853 274.793 179.87C275.519 179.845 275.628 178.787 274.923 178.619C274.125 178.476 273.248 178.321 272.454 178.535C272.021 178.736 272.034 179.207 271.921 179.622C271.631 180.995 271.329 182.36 271.177 183.754C271.093 184.363 271.043 185.295 271.849 185.396L271.845 185.392Z" fill="white"/>
<path d="M274.432 181.364C275.28 182.271 276.477 180.625 275.243 180.205C274.604 180.05 273.962 180.814 274.432 181.364Z" fill="white"/>
<path d="M274.155 185.555C273.789 185.774 274.029 186.194 274.197 186.475C274.436 186.966 274.843 187.365 275.414 187.437C276.015 187.571 276.598 187.067 276.779 186.513C276.989 185.837 276.754 185.026 276.309 184.472C276.149 184.346 275.918 184.388 275.767 184.514C275.238 184.871 274.692 185.224 274.146 185.56L274.155 185.555Z" fill="white"/>
<path d="M257.766 210.51C253.004 208.47 242.918 202.763 240.504 201.386C239.496 203.708 238.602 206.072 237.9 208.503C240.416 210.254 243.12 211.556 245.597 213.315C248.15 214.89 248.402 215.348 248.7 218.333C249.187 222.864 249.103 227.584 249.133 232.055C249.133 237.422 249.347 242.553 249.574 247.882C249.733 251.951 249.914 256.024 249.931 260.097C249.952 261.096 249.994 262.091 250.002 263.091C250.015 263.452 250.023 263.834 249.926 264.178C253.966 264.346 257.984 264.779 262.024 264.938C262.024 264.938 263.2 212.824 257.77 210.498V210.506L257.766 210.51Z" fill="#F3FAFB"/>
<path d="M274.973 177.107C275.414 177.405 275.796 177.833 275.96 178.35C276.086 179.072 276.405 179.929 277.3 179.799C277.77 179.685 278.265 179.358 278.757 179.593C279.781 180.265 278.341 181.293 278.324 182.1C278.492 183.242 279.311 184.333 280.298 184.926C281.192 185.463 282.217 185.505 283.233 185.534C283.632 185.505 283.989 185.463 284.299 185.413C283.926 184.329 283.665 183.204 283.46 182.179C283.161 180.605 283.136 178.98 282.679 177.434C282.12 176.137 281.553 174.672 280.323 173.87C278.408 172.496 275.607 172.509 273.642 173.769C272.571 174.436 271.937 175.658 271.421 176.817C272.639 176.842 273.949 176.15 274.977 177.103L274.973 177.107Z" fill="#293541"/>
<path d="M288.655 180.004C290.154 185.173 294.722 185.102 298.653 182.561C302.982 180.424 302.675 186.563 304.523 188.835C306.681 191.69 312.425 193.454 315.054 190.384C316.398 191.384 317.821 192.265 319.522 192.521C323.721 193.151 328.021 190.204 329.154 186.152C330.427 181.705 328.008 176.582 323.712 174.781C322.331 174.235 320.794 174.369 319.379 174.701C317.922 175.024 315.965 176.162 314.848 174.604C313.53 172.513 313.643 169.813 312.488 167.634C310.7 164.531 306.664 163.086 303.246 163.964C300.727 164.535 298.833 166.42 297.477 168.528C296.494 170.103 294.907 171.405 293.341 169.595C291.485 166.836 290.107 163.363 286.013 164.249C283.439 164.577 281.331 166.483 280.315 168.81C280.168 169.124 279.979 169.561 279.816 170.04C276.301 168.385 269.881 170.938 269.515 175.1C269.49 175.23 269.494 175.364 269.515 175.49C269.889 174.734 270.305 174.004 270.758 173.298C273.677 169.544 280.051 169.305 283.095 173.03C285.539 176.191 285.153 180.344 286.27 183.981C286.278 184.006 286.286 184.031 286.295 184.056C286.45 183.435 286.345 182.578 286.102 181.39C286.064 181.247 286.03 181.1 285.997 180.953C285.799 179.353 285.619 177.795 285.035 176.17C284.498 174.713 283.654 173.244 282.545 172.051C282.73 171.757 282.948 171.493 283.234 171.274C284.842 169.91 287.857 170.666 288.398 172.782C289.07 175.146 287.928 177.615 288.646 179.992L288.655 180.004Z" fill="#293541"/>
<path d="M287.05 274.209C292.886 272.786 298.563 271.278 304.14 269.091C308.616 267.268 312.899 264.703 316.59 261.629C320.558 258.429 322.809 253.567 324.085 248.738C324.841 246.273 324.959 243.351 324.497 240.856C324.471 240.634 324.417 240.411 324.367 240.185C324.232 240.239 324.081 240.294 323.955 240.353C322.175 241.134 320.386 241.852 318.593 242.544C316.527 252.677 314.776 255.163 298.19 266.479C281.23 278.056 238.228 274.075 238.228 274.075C253.84 280.285 271.056 277.338 287.058 274.205L287.05 274.209Z" fill="#F3FAFB"/>
<path d="M329.779 236.414C329.767 236.179 329.737 235.944 329.678 235.721C329.267 233.185 329.053 230.615 328.427 228.113C327.251 222.965 325.437 217.993 323.199 213.219C322.053 210.653 320.814 208.247 319.156 205.908C317.157 202.767 314.881 199.899 311.849 197.628C309.838 196.166 307.839 194.688 305.555 193.655C302.565 192.404 299.517 191.174 296.372 190.3C294.617 189.889 292.819 189.41 291.01 189.284C290.896 189.162 290.741 189.036 290.543 188.91C289.893 188.533 289.133 188.356 288.515 187.924C287.277 187 286.756 185.488 286.298 184.056C286.29 184.031 286.281 184.006 286.273 183.981C285.152 180.34 285.538 176.187 283.099 173.03C280.054 169.305 273.68 169.549 270.762 173.298C270.308 174 269.888 174.734 269.519 175.49C268.536 177.485 267.911 179.652 267.995 181.898C267.953 184.237 268.578 187.008 270.111 188.868C270.052 188.868 269.989 188.868 269.93 188.868C268.234 188.818 266.538 188.629 264.845 188.507C259.063 188.155 253.353 186.954 247.927 184.93C247.361 184.594 246.743 184.56 246.277 184.749C246.092 184.749 245.92 184.804 245.769 184.879C245.19 184.501 244.53 184.229 243.93 183.909C242.788 183.33 241.612 182.662 240.407 182.079C237.409 180.281 234.411 178.211 232.479 175.238C230.069 170.636 229.25 165.547 228.708 160.395C228.528 158.644 228.364 156.901 228.352 155.138C228.259 153.063 228.049 150.657 228.242 148.503C228.184 146.391 228.776 144.329 228.742 142.226C228.721 141.319 227.65 140.802 226.878 141.251C226.437 141.499 226.063 141.86 225.601 142.087C225.635 140.697 225.379 139.076 225.513 137.644C225.542 137.031 225.097 136.456 224.484 136.351C222.758 136.158 221.394 139.37 220.625 140.676C218.975 143.859 218.148 147.47 217.699 151.014C217.699 151.014 217.699 150.972 217.707 150.955C216.817 156.683 216.737 162.368 217.321 168.18C217.736 172.778 218.526 177.317 219.857 181.743C221.977 187.966 225.198 194.071 229.443 199.148C231.358 201.34 233.298 203.527 235.717 205.177C235.225 206.467 234.793 207.768 234.621 209.129C234.659 209.855 235.192 210.405 235.817 210.703C237.044 211.505 238.261 212.316 239.559 213C241.516 214.159 243.405 215.415 245.265 216.721C246.34 224.006 245.761 231.43 246.143 238.766C246.273 243.905 246.584 249.032 246.785 254.163C246.894 256.805 246.932 259.446 246.962 262.091C246.999 262.633 246.894 263.208 246.949 263.75C246.941 264.338 246.865 264.955 247.079 265.509C247.302 266.677 248.482 266.832 249.481 266.878C250.888 266.991 252.29 267.063 253.701 267.126C257.98 267.512 262.259 267.567 266.55 267.449C264.102 267.877 261.616 268.104 259.151 268.428C256.867 268.763 254.276 268.658 251.938 268.709C249.893 268.57 247.764 268.604 245.836 267.814C245.022 267.483 244.224 266.983 243.321 266.933C240.126 267.017 240.289 269.465 241.923 271.476C240.088 271.799 238.035 271.169 236.363 272.27C234.793 273.42 236.363 275.587 237.724 276.158C240.873 277.128 244.001 278.249 247.256 278.879C251.413 279.748 255.666 280.08 259.911 279.983C265.479 280.038 270.968 279.467 276.493 278.74C283.073 277.968 289.75 276.473 296.145 274.646C302.347 272.816 308.541 270.699 313.957 267.071C318.555 264.178 322.737 260.344 324.879 255.226C326.491 251.644 327.801 247.785 327.688 243.809C327.751 242.238 327.583 240.622 327.104 239.11C327.764 238.845 328.415 238.572 328.994 238.253C329.775 238.014 330.199 237.078 329.796 236.402L329.783 236.418L329.779 236.414ZM271.014 177.741C271.144 177.447 271.278 177.136 271.417 176.821C271.933 175.662 272.567 174.441 273.638 173.773C275.603 172.509 278.408 172.492 280.319 173.874C281.549 174.68 282.116 176.141 282.674 177.439C283.128 178.984 283.157 180.609 283.455 182.184C283.661 183.208 283.926 184.333 284.295 185.417C284.955 187.332 285.967 189.116 287.688 189.956C285.962 190.863 284.514 192.295 283.38 193.874C281.961 196.103 279.055 198.808 276.288 197.254C275.162 196.41 274.68 194.978 274.125 193.727C273.819 192.849 273.647 192.026 273.542 191.077C273.533 191.018 273.525 190.964 273.516 190.905C274.449 191.002 275.578 190.918 276.233 190.179C276.804 189.498 276.099 188.394 275.242 188.65C272.719 189.481 270.993 186.412 270.602 184.308C270.262 182.112 270.14 179.87 271.014 177.749V177.741ZM236.682 202.658C235.805 202.087 235.041 201.369 234.297 200.622C231.665 197.951 229.313 195.02 227.411 191.778C225.433 188.297 223.812 184.598 222.498 180.806C219.865 171.657 218.954 161.911 220.277 152.442C220.684 148.327 221.343 144.136 223.455 140.517C223.523 141.776 223.439 142.091 223.544 143.208C223.703 144.636 225.374 144.657 226.399 144.14C225.551 150.011 226.051 155.952 226.546 161.856C226.962 166.672 227.902 171.396 230.073 175.78C232.101 179.379 235.431 182.121 238.984 184.14C240.793 184.993 242.62 185.883 244.535 186.475C244.493 186.563 244.442 186.651 244.4 186.727C243.157 188.999 241.881 191.245 240.831 193.613C239.487 196.347 238.005 199.026 236.968 201.902C236.88 202.154 236.787 202.406 236.695 202.654V202.662L236.682 202.658ZM244.01 272.097C244.119 271.812 244.056 271.472 243.88 271.232C243.506 270.674 243.208 270.069 242.905 269.469C243.762 269.57 244.472 270.158 245.299 270.397C247.062 271.002 248.935 271.149 250.779 271.27C252.559 271.396 254.335 271.233 256.116 271.27C259.177 271.186 262.2 270.598 265.248 270.304C270.804 269.255 276.384 268.071 281.621 265.887C281.914 265.786 282.196 265.673 282.486 265.572C287.499 264.216 292.24 262.024 296.305 258.656C298.438 257.153 300.239 255.411 302.049 253.445C303.309 251.946 303.926 250.011 304.388 248.134C309.057 246.021 313.827 244.384 318.576 242.553C320.369 241.86 322.158 241.146 323.938 240.361C324.069 240.302 324.216 240.248 324.35 240.193C324.404 240.42 324.455 240.643 324.48 240.865C324.95 243.359 324.829 246.278 324.069 248.747C322.792 253.571 320.541 258.434 316.573 261.638C312.882 264.711 308.599 267.277 304.123 269.099C298.547 271.291 292.866 272.795 287.033 274.218C271.026 277.35 253.81 280.294 238.203 274.088C240.121 273.655 242.847 274.109 244.001 272.106L244.01 272.097V272.097ZM327.159 236.276C327.109 236.297 327.058 236.318 327.008 236.339C323.989 237.346 321.058 238.572 318.085 239.694C314.306 241.008 310.548 242.364 306.815 243.8C305.353 244.325 303.93 244.921 302.561 245.652C302.301 245.765 302.003 245.971 301.805 246.286C301.167 247.651 301.138 249.263 300.31 250.565C298.274 253.487 295.343 255.696 292.546 257.888C285.639 262.738 277.09 264.329 268.784 264.728C266.525 264.804 264.266 264.884 262.007 264.951C257.967 264.791 253.949 264.359 249.909 264.191C250.01 263.842 249.998 263.464 249.985 263.099C249.977 262.1 249.935 261.104 249.914 260.105C249.897 256.032 249.716 251.959 249.557 247.89C249.326 242.561 249.116 237.422 249.116 232.064C249.086 227.592 249.17 222.872 248.683 218.341C248.385 215.356 248.133 214.898 245.58 213.324C243.103 211.56 240.399 210.263 237.883 208.512C238.585 206.08 239.483 203.712 240.487 201.394C241.444 199.185 242.502 197.015 243.594 194.869C244.619 192.362 246.055 190.044 247.113 187.563C247.587 187.777 248.091 187.949 248.549 188.142C255.339 190.821 262.897 191.72 270.216 191.921C270.556 191.904 270.905 191.913 271.249 191.904C271.32 194 272.147 196.078 273.239 197.838C274.449 199.815 276.96 200.567 279.147 199.983C281.238 199.379 283.082 198.064 284.4 196.339C285.148 195.373 285.811 194.218 286.752 193.395C288.696 191.673 289.141 191.547 291.635 192.047C294.071 192.568 296.468 193.248 298.786 194.172C305.337 196.385 311.732 200.059 315.759 205.82C320.583 212.211 323.586 219.845 325.45 227.596C326.118 229.914 326.588 232.282 326.92 234.676C326.983 235.167 327.096 235.654 327.151 236.145V236.284H327.167L327.159 236.276Z" fill="#293541"/>
<path d="M274.919 178.619C274.121 178.476 273.244 178.321 272.45 178.535C272.018 178.736 272.03 179.207 271.917 179.622C271.627 180.995 271.325 182.36 271.173 183.754C271.089 184.363 271.039 185.295 271.845 185.396C272.924 185.442 272.744 184.09 272.853 183.364C272.975 182.167 273.197 180.974 273.277 179.773C273.781 179.79 274.285 179.857 274.793 179.874C275.519 179.849 275.629 178.791 274.919 178.623V178.619Z" fill="#293541"/>
<path d="M274.432 181.364C275.28 182.271 276.477 180.625 275.243 180.205C274.604 180.05 273.962 180.814 274.432 181.364Z" fill="#293541"/>
<path d="M275.771 184.51C275.242 184.867 274.697 185.219 274.151 185.555C273.785 185.774 274.025 186.194 274.193 186.475C274.432 186.966 274.839 187.365 275.41 187.437C276.011 187.571 276.594 187.067 276.775 186.513C276.985 185.837 276.75 185.026 276.305 184.472C276.145 184.346 275.914 184.388 275.763 184.514L275.771 184.51Z" fill="#293541"/>
<path d="M339.589 266.454C338.346 266.462 337.157 265.82 336.41 264.841C335.797 263.951 333.794 261.575 335.503 260.924C336.502 260.739 336.981 261.856 337.569 262.461C338.291 263.439 339.324 263.687 340.475 263.418C343.095 262.981 343.607 258.056 343.149 255.935C342.868 254.491 342.297 252.799 341.848 251.459C340.42 246.853 339.412 242.003 339.429 237.166C339.475 233.408 340.802 229.498 343.557 226.865C347.638 223.443 353.672 223.242 355.923 228.776C357.644 232.954 357.258 237.426 358.018 241.78C358.459 243.779 359.194 245.887 360.823 247.227C364.212 249.473 367.218 246.823 367.323 243.187C367.693 238.975 365.799 234.722 367.109 230.577C368.743 225.161 374.756 222.721 378.518 227.76C378.98 228.255 379.442 228.747 379.941 229.2C380.655 229.822 381.73 230.666 381.1 231.707C379.933 233.307 378.077 231.392 377.069 230.523C375.373 228.894 374.277 227.025 371.82 228.877C369.435 231.119 369.813 234.629 370.288 237.565C370.649 240.554 370.964 243.712 369.918 246.605C367.252 253.118 359.181 252.647 356.255 246.605C353.735 241.759 354.823 236.061 353.332 230.943C352.119 226.744 348.822 226.966 345.782 229.255C344.313 230.708 343.477 232.71 342.998 234.697C342.431 237.808 342.893 241.012 343.41 244.094C343.813 246.257 344.241 248.411 344.905 250.51C345.623 252.765 346.374 255.028 346.429 257.363C346.429 261.52 344.627 266.84 339.597 266.467V266.454H339.589Z" fill="#7EBED0"/>
<path d="M335.436 207.852C336.834 204.279 341.168 202.847 344.733 203.225C347.588 203.359 350.301 204.493 353.169 204.472C355.465 204.464 357.88 203.519 359.148 201.52C360.416 199.152 360.173 196.338 359.921 193.752C359.593 192.043 359.035 190.376 358.808 188.646C358.623 186.836 358.799 184.854 359.837 183.313C360.844 181.978 362.012 180.84 363.41 179.958C365.178 178.87 367.323 178.614 369.347 178.925C372.068 179.026 374.466 180.596 375.902 182.881C376.796 184.102 377.557 185.543 377.426 187.105C377.481 187.533 377.2 188.003 376.7 188.05C376.284 188.092 375.881 187.781 375.818 187.365C375.146 186.055 374.336 184.825 373.257 183.808C372.308 182.876 371.145 182.196 369.792 182.154C368.508 182.024 367.151 181.906 365.934 182.423C364.581 183.057 363.465 184.161 362.587 185.354C362.104 186.341 362.083 187.516 362.217 188.587C363.284 193.206 364.363 198.333 362.217 202.809C359.916 207.189 354.369 208.562 349.805 207.562C346.24 206.882 341.873 205.467 338.909 208.352C338.186 209.183 338.312 210.317 337.93 211.279C337.519 212.198 336.209 212.375 335.541 211.631C334.689 210.653 335.1 208.982 335.44 207.848L335.436 207.852Z" fill="#DCEDF2"/>
<path d="M287.277 193C287.118 193.134 286.954 193.269 286.773 193.437C285.824 194.26 285.165 195.415 284.422 196.38C283.099 198.106 281.26 199.425 279.169 200.025C276.985 200.605 274.474 199.857 273.261 197.879C273.11 197.636 272.967 197.392 272.828 197.14C262.961 198.677 251.774 195.062 244.892 192.194C244.439 193.088 243.998 193.991 243.62 194.919C242.528 197.061 241.47 199.231 240.513 201.44C239.505 203.762 238.61 206.126 237.909 208.557C240.424 210.308 243.129 211.606 245.606 213.37C248.159 214.944 248.411 215.402 248.709 218.387C249.196 222.918 249.112 227.638 249.142 232.11C249.142 237.476 249.356 242.607 249.587 247.936C249.746 252.005 249.927 256.078 249.944 260.151C249.965 261.15 250.007 262.15 250.019 263.145C250.032 263.506 250.04 263.888 249.944 264.232C253.983 264.4 258.002 264.833 262.041 264.993C264.3 264.925 266.559 264.846 268.818 264.77C277.12 264.367 285.673 262.775 292.581 257.926C295.377 255.729 298.308 253.521 300.345 250.602C301.172 249.297 301.201 247.688 301.839 246.324C302.033 246.009 302.335 245.803 302.595 245.69C303.964 244.959 305.388 244.367 306.849 243.838C310.582 242.402 314.34 241.045 318.119 239.731C319.719 239.126 321.306 238.497 322.902 237.879C322.209 205.597 296.847 195.603 287.307 192.987L287.294 192.996L287.277 193Z" fill="#E98059"/>
<path fill-rule="evenodd" clip-rule="evenodd" d="M127.934 0.351869C128.751 0.590762 129.939 0.95913 131.429 1.47901L131.014 2.66843C129.546 2.15612 128.379 1.79425 127.581 1.56095C127.182 1.4443 126.875 1.35981 126.669 1.30473C126.567 1.27719 126.489 1.25701 126.437 1.24384C126.412 1.23726 126.392 1.23243 126.38 1.22931L126.366 1.22591L126.363 1.22516L126.363 1.22502C126.363 1.22503 126.363 1.22504 126.513 0.613237C126.662 0.00143581 126.662 0.00144958 126.662 0.001465L126.664 0.00194534L126.669 0.00308813L126.686 0.00728966C126.7 0.0109476 126.722 0.0163266 126.75 0.0234696C126.806 0.0377555 126.888 0.0590981 126.995 0.0878412C127.21 0.145327 127.526 0.232418 127.934 0.351869ZM140.651 5.23724C143.359 6.495 146.34 8.01503 149.482 9.83399L148.851 10.9242C145.745 9.12579 142.797 7.62303 140.12 6.37975L140.651 5.23724ZM157.875 15.2165C160.469 17.0525 163.1 19.0887 165.718 21.3424L164.896 22.297C162.311 20.0709 159.71 18.0591 157.148 16.2446L157.875 15.2165ZM172.938 28.206C175.162 30.5432 177.338 33.0589 179.43 35.7646L178.433 36.535C176.369 33.8648 174.222 31.3818 172.025 29.0746L172.938 28.206ZM185.105 43.9583C186.806 46.7123 188.413 49.6272 189.899 52.7111L188.764 53.258C187.297 50.2143 185.712 47.3378 184.033 44.6204L185.105 43.9583ZM193.754 61.8749C194.854 64.9062 195.839 68.0768 196.693 71.3926L195.473 71.7066C194.63 68.4299 193.656 65.2978 192.57 62.3045L193.754 61.8749ZM198.735 81.1311C199.256 84.3114 199.661 87.6093 199.937 91.0287L198.682 91.1301C198.408 87.7444 198.007 84.4808 197.491 81.335L198.735 81.1311ZM200.364 100.936C200.375 102.583 200.358 104.256 200.31 105.955C200.258 107.846 200.158 109.707 200.013 111.54L198.757 111.44C198.901 109.629 198.999 107.789 199.051 105.92C199.098 104.236 199.115 102.577 199.104 100.944L200.364 100.936ZM198.537 122.603C197.827 126.347 196.92 129.954 195.837 133.426L194.634 133.051C195.703 129.625 196.598 126.065 197.299 122.368L198.537 122.603ZM191.894 143.861C190.349 147.316 188.624 150.614 186.746 153.76L185.664 153.114C187.518 150.01 189.22 146.755 190.744 143.347L191.894 143.861ZM180.483 162.993C178.195 165.984 175.767 168.808 173.229 171.467L172.318 170.597C174.825 167.97 177.223 165.181 179.482 162.228L180.483 162.993ZM165.122 179.123C162.253 181.568 159.3 183.835 156.296 185.929L155.576 184.896C158.547 182.824 161.469 180.582 164.305 178.164L165.122 179.123ZM146.863 191.872C143.548 193.752 140.219 195.434 136.92 196.924L136.402 195.776C139.666 194.301 142.961 192.636 146.242 190.776L146.863 191.872ZM126.563 201.026C122.856 202.292 119.254 203.303 115.829 204.068L115.555 202.839C118.932 202.084 122.49 201.085 126.156 199.834L126.563 201.026ZM104.779 205.743C102.784 205.883 100.908 205.913 99.1729 205.832L99.2313 204.574C100.911 204.652 102.738 204.624 104.691 204.487L104.779 205.743Z" fill="#22A54A"/>
<path d="M130.808 87.8356C132.332 88.4193 133.323 86.9328 134.18 85.9292C135.679 84.0859 136.951 82.0661 138.337 80.1388C140.499 76.5234 142.519 72.7317 143.922 68.7384C145.45 64.0439 146.235 59.3368 146.617 54.3861C147.751 44.1363 140.231 35.839 129.754 37.1323C125.417 37.5186 121.545 40.017 118.765 43.2964C117.464 44.8375 117.401 46.9412 116.678 48.73C115.435 52.7443 115.658 57.1827 116.267 61.3019C117.048 66.0174 119.198 69.8637 121.461 74.1384C123.254 77.8293 125.433 81.2893 127.886 84.5814C128.851 85.6731 129.296 87.2687 130.817 87.8356H130.808ZM121.285 62.9479C121.243 62.7926 121.192 62.6372 121.155 62.4818C121.167 62.4818 121.176 62.4818 121.184 62.4818C121.23 62.6246 121.293 62.7632 121.339 62.9059C121.318 62.9185 121.301 62.9353 121.285 62.9479V62.9479ZM124.652 52.2152C124.883 51.1654 125.148 50.0527 125.601 49.0533C126.34 47.8692 127.352 46.8992 128.839 46.3701C129.385 46.0888 129.901 45.8579 130.405 45.6647C133.596 45.396 136.485 48.033 137.611 51.157C138.564 52.6813 138.358 54.8564 138.219 56.6242C137.888 60.5083 136.12 65.5429 131.64 65.9502C125.681 66.0384 123.619 56.8719 124.657 52.211L124.652 52.2152Z" fill="#22A54A"/>
</g>
<defs>
<clipPath id="clip0_228_537">
<rect width="381.289" height="280" fill="white"/>
</clipPath>
</defs>
</svg>
