<svg fill="none" height="208" viewBox="0 0 299 208" width="299" xmlns="http://www.w3.org/2000/svg"><path d="m55.3313 5.40033c.5603.48682.8972.83062 1.3674 1.39171.4436.53083.8438 1.08366 1.214 1.653.3702.56933.697 1.12767 1.0172 1.70246.0167.0275.1101.1981.0567.0991.04.0742.08.1485.1201.2227.08.1486.16.2971.2367.4456.1635.3108.3269.6244.487.9379.2234.4346.7704.7784 1.3707.6051.5103-.1485.9738-.6656.7337-1.1304-1.334-2.57717-2.7114-5.17906-5.086-7.23362-.3969-.34381-1.1773-.3273-1.5542.03025-.4068.38506-.3902.91589.0367 1.2817z" fill="#f4ca17"/><path d="m66.7631 10.8496 2.2094-9.72382c.2653-1.1721961-1.4702-1.606448-1.7356-.434251l-2.2094 9.726671c-.2653 1.1722 1.4702 1.6065 1.7356.4343z" fill="#f4ca17"/><path d="m71.3477 10.3215 5.2774-3.0998c.5253-.30867.488-.926-.0455-1.21898-.5832-.32436-1.369-.30082-1.9273.02878l-5.2774 3.09976c-.5253.30867-.488.92604.0455 1.21894.5832.3244 1.369.3009 1.9273-.0287z" fill="#f4ca17"/><path d="m85.7098 49.0638c-.8487.6644-1.7003 1.3191-2.6245 1.8532-.0232 1.9347-.0407 3.8661-.0639 5.8008-.0262.9738-.0233 1.9476-.0175 2.9247.1047-.0814.2064-.1596.2936-.2312.7324-.583 1.3863-1.2702 2.0751-1.9151.9126-.8273 1.7816-1.7165 2.6274-2.6317-1.1422-.8435-3.2261-2.8531-2.2873-5.804z" fill="#f3f9fb"/><path d="m83.96 36.5547c-.2309.1984-.464.3968-.6994.5862-.0297.0241-.0617.0481-.0937.0722-.0229 1.1874-.0526 2.3719-.0915 3.5594-.032 1.1604-.0548 2.3208-.0754 3.4782.5714-.7666 1.1131-1.5693 1.6686-2.3539.1074-.1533.2194-.3036.3314-.4509-.5646-.8568-1.4789-2.6636-1.0377-4.8912z" fill="#eaf5ec"/><path d="m56.003 32.2677.0733 13.8888c0 .4043.3199.7362.7132.7422l14.4739.2384c.405.006.7366-.3289.7366-.7453v-14.8633c0-.4134-.3287-.7483-.7307-.7453l-13.9134.0755c-.7542.003-1.3617.6366-1.3559 1.409z" fill="#c3e3c8"/><path d="m161 161.614c-.332-.32-.668-.641-1-.962.228.544.592.923 1 .962z" fill="#c3e3c8"/><path d="m223.538 71.1124c1.103.3605 1.772-.6718 2.353-1.3744 1.022-1.2881 1.878-2.6872 2.816-4.0308 1.451-2.5053 2.792-5.1309 3.694-7.8766.97-3.2234 1.412-6.4406 1.561-9.8119.553-6.9891-5.01-12.4436-12.444-11.3157-3.08.3636-5.776 2.154-7.676 4.4468-.889 1.0754-.879 2.5084-1.351 3.741-.786 2.7581-.514 5.7658.019 8.5454.676 3.1833 2.301 5.7441 4.021 8.5946 1.37 2.4623 3.006 4.7642 4.835 6.9368.715.718 1.073 1.7904 2.169 2.1417zm-7.401-16.6747c-.033-.1048-.075-.2095-.104-.3143h.023c.035.0955.084.188.123.2866-.013.0092-.026.0185-.039.0277zm2.13-7.3681c.139-.7181.3-1.4792.598-2.1695.497-.8228 1.192-1.5038 2.24-1.8983.381-.2065.746-.3729 1.098-.5177 2.266-.2589 4.39 1.4638 5.269 3.5593.717 1.0138.624 2.493.572 3.6979-.139 2.6471-1.273 6.1078-4.457 6.4899-4.241.2003-5.941-5.9752-5.317-9.1647z" fill="#22a54a"/><path d="m226.847 74.1275c-.477-1.3564-3.282-1.3534-3.755 0-.195.7798-.016 1.5948-.04 2.3892h.008c.012.6797.68 1.3006 1.673 1.3977 2.867.1589 2.26-2.4422 2.11-3.7869z" fill="#22a54a"/><path d="m227 82.236c-.101-.7839-.062-1.6069-.229-2.3713-.352-1.1124-2.617-1.3564-3.339-.322-.268.322-.277.6993-.29 1.0702-.013.6082-.185 1.2165-.132 1.8248.352 1.7988 3.99 1.6101 3.99-.2017z" fill="#22a54a"/><path d="m83 16.3535h-36v64.4539h36z" fill="#fff"/><path d="m85.9794 64.2146c-.3301-.2799-.7087-.5126-1.1025-.6835-.7784-.3536-1.5144-.7926-2.3534-1.0018.0242 1.2758-.0031 2.5575-.1303 3.8244-.0606.5333-.1272 1.0578-.3847 1.541-.527.8986-1.0146 1.7737-1.4599 2.6606-.2847.5686-.5603 1.1874-.5482 1.8297.0999.7189.6118 1.6028 1.4145 1.6883.3846-.0648.7481-.2092 1.0964-.3919-.0303-.0913-.0636-.1827-.1029-.2593-.2666-.4714-.624-.8898-.9723-1.3052-.1818-.1768-.3393-.3889-.3059-.6512.0151-.1885.1696-.327.2968-.4567.3029-.3123.5785-.6511.8572-.987.3241-.3241.4997-.9075 1.0449-.8633.1787.0236.3665.0589.5513.1061.839-1.1197 2.2959-3.3442 2.102-5.0502z" fill="#f3f9fb"/><path d="m82.1743 79.7116c.0345.4399.0157.9596-.0314 1.4297-.0376.2117.0032.5499.3044.6186.6716.044 1.4122-.0577 2.0242-.3079.5586-.3602.4551-1.0998.5272-1.6524.0283-.9046-.4142-2.2023-1.7354-1.8036-.3138.0714-.6183.1869-.907.3189-.1224.066-.1946.1815-.1946.3024-.1412.0743-.2008.2337-.1349.3685.1318.2172.113.4839.1475.7258zm1.6507-1.1163c.6214.4592.4802 1.2895.4739 1.9301-.0251.132 0 .3794-.1161.5114-.4111.165-.8568.1815-1.3338.2117.0659-.5939.044-1.196-.0408-1.7871-.0282-.1787-.0627-.3547-.1161-.5279.3672-.1347.7281-.3272 1.1361-.3382z" fill="#283441"/><path d="m69.389 80.6126c.3275.0931.6813.1113 1.0176.162.1846.006.3956.0384.5934.0323-.222-.3158-.4418-.6316-.6571-.9515-.0506-.004-.1011-.0081-.1495-.0061-.4264-.0101-.8044.0041-1.1934.0041.0527.1012.1033.2025.1407.3098.0571.1619.0791.3482.2461.4494z" fill="#eaf5ec"/><path d="m179.5 207.791c43.355 0 78.5-33.594 78.5-75.036 0-41.4422-35.145-75.036-78.5-75.036s-78.5 33.5938-78.5 75.036c0 41.442 35.145 75.036 78.5 75.036z" fill="#efeffa"/><path d="m66 154.881c36.451 0 66-28.857 66-64.4524 0-35.595-29.546-64.4555-66-64.4555s-66 28.8575-66 64.4524c0 35.5955 29.5491 64.4525 66 64.4525z" fill="#b3dcbe"/><path clip-rule="evenodd" d="m92.6173 22.4069c.6772.1927 1.6592.4906 2.8846.9127l-.3199.8536c-1.2073-.4159-2.1723-.7085-2.8338-.8967-.3307-.0941-.5856-.1622-.7569-.2064-.0856-.0222-.1504-.0384-.1933-.049-.0215-.0053-.0375-.0091-.0479-.0116l-.0114-.0028-.003-.0007s0 0 .1124-.4405c.1125-.4405.1125-.4405.1126-.4405l.0016.0004.0038.0009.0141.0034c.0121.0029.0299.0072.0532.0129.0464.0115.1148.0286.2042.0517.1786.0462.4411.1162.7797.2126zm10.4897 4.0212c2.233 1.0536 4.675 2.3327 7.219 3.8709l-.504.7673c-2.514-1.5197-4.927-2.7835-7.132-3.8244zm13.963 8.4509c2.072 1.5768 4.151 3.3309 6.183 5.2788l-.668.6416c-2.006-1.9218-4.057-3.6532-6.103-5.2099zm11.671 11.1998c1.651 2.0117 3.231 4.1802 4.707 6.5159l-.809.47c-1.455-2.303-3.013-4.4412-4.641-6.4251zm8.553 13.5331c1.096 2.3303 2.087 4.7963 2.95 7.4049l-.901.2744c-.852-2.5749-1.83-5.008-2.911-7.3065zm5.016 15.0883c.524 2.4945.937 5.1005 1.223 7.8224l-.941.091c-.283-2.6928-.691-5.2694-1.209-7.7342zm1.682 15.7225c.017 1.3044.007 2.6325-.032 3.9845-.038 1.2898-.109 2.5597-.212 3.8099l-.943-.0716c.102-1.2346.172-2.489.209-3.7635.039-1.34.049-2.6558.032-3.9479zm-1.294 15.3423c-.505 2.554-1.151 5.015-1.921 7.384l-.903-.27c.759-2.336 1.396-4.763 1.895-7.283zm-4.727 14.503c-1.099 2.357-2.326 4.608-3.663 6.754l-.812-.465c1.318-2.116 2.528-4.335 3.612-6.659zm-8.119 13.053c-1.628 2.041-3.355 3.967-5.161 5.781l-.684-.626c1.783-1.791 3.488-3.693 5.094-5.706zm-10.929 11.004c-2.041 1.668-4.142 3.215-6.279 4.644l-.541-.744c2.113-1.413 4.19-2.942 6.206-4.59zm-12.99 8.697c-2.359 1.283-4.727 2.431-7.0741 3.447l-.3893-.827c2.3214-1.005 4.6634-2.14 6.9964-3.409zm-14.4426 6.246c-2.6378.863-5.2006 1.553-7.6372 2.075l-.2062-.885c2.4015-.515 4.9311-1.196 7.5379-2.049zm-15.5004 3.218c-1.4193.096-2.7549.116-3.99.061l.0438-.906c1.1937.053 2.4922.034 3.88-.06z" fill="#22a54a" fill-rule="evenodd"/><path d="m288.989 131.802c-2.035 1.534-4.072 3.044-6.131 4.59-5.086 3.934-10.108 7.722-15.006 11.779-1.776 1.441-3.469 2.972-5.154 4.509-.832.63-1.765 2.116-2.841 1.857-.248.105-.503.193-.747.292-2.035.748-4.113 1.375-6.191 2.001-2.979.974-5.986 1.857-9.013 2.686-3.55 1.04-7.129 1.998-10.61 3.246-1.193.38-2.38.778-3.57 1.167-.511.135-1.01.397-1.525.551-3.422 3.123-7.126 5.89-10.626 8.861-3.78 3.246-7.899 6.294-11.773 9.386-1.823 1.441-3.676 2.884-5.434 4.322-.571.461-1.117.925-1.635 1.338-.279.202-.455.398-.716.543-.577.621-1.767.805-2.524.392l.063.021c-2.565-1.016-5.057-2.363-7.484-3.602-3.908-1.98-7.678-4.189-11.48-6.347-4.797-2.445-9.411-5.037-14.117-7.611-3.161-1.754-6.244-3.641-9.427-5.356-1.196-.594-2.361-1.193-3.522-1.853-2.195-1.185-4.326-2.481-6.549-3.62-1.708-.905-3.447-1.773-5.114-2.743-1.199-.781-2.411-1.549-3.657-2.264l-4.724 3.319c-.691.485-.628 1.492.119 1.896l68.532 37.009 33.075-27.615 34.513-11.046 31.279-24.163-8.008-3.554z" fill="#b6b5db"/><path d="m140 150.557 30.169-25.982 33.35-10.221 31.962-25.8511 63.519 33.4491-33.269 27.156-32.623 10.752-30.584 24.93-.962.875z" fill="#fff"/><path d="m227.678 126.678c.884-.72-.204-1.893-1.429-1.561-.428.115-.736.388-1.048.621-2.024 1.358-4.076 2.726-6.201 3.998.816.364 1.628.731 2.444 1.095.276-.188.555-.372.841-.549 1.842-1.162 3.67-2.348 5.396-3.604z" fill="#eaf5ec"/><path d="m280.023 126.953c-3.463-1.899-7.009-3.699-10.545-5.506 1.565-1.322 3.131-2.641 4.718-3.933-.586-.287-1.172-.574-1.758-.864-.162-.078-.327-.17-.488-.254-.2.194-.4.38-.602.52-1.347 1.143-2.703 2.27-4.047 3.416-.494-.255-.988-.506-1.479-.76-5.675-3.054-11.258-6.227-16.929-9.292-1.876-1.005-3.812-2.025-5.716-3-2.532-1.379-4.962-2.919-7.475-4.331-1.271-.691-2.351-1.307-3.729-1.92-.168-.06-.339-.131-.51-.2.212-.168.427-.332.64-.5 1.397-1.0345 2.712-2.1681 3.919-3.3973-.589-.2422-1.179-.4845-1.765-.7327-.849.64-1.708 1.2741-2.547 1.929-8.077 5.847-15.345 12.666-23.729 18.136-1.591 1.197-3.118 2.471-4.661 3.721-.098.087-.209.17-.32.254.646.359 1.29.724 1.936 1.086.041-.033.079-.072.12-.099 1.043-.9 2.174-1.848 3.27-2.74.688-.592 1.277-.972 2.107-1.465 2.488-1.738 4.886-3.595 7.262-5.464 4.034-3.224 8.15-6.35 12.225-9.526 4.835 2.59 9.483 5.533 14.385 8.024 6.992 3.715 13.849 7.723 20.81 11.5.159.081.317.161.472.242-2.081 1.843-4.268 3.571-6.34 5.425-.402.368-.805.733-1.204 1.104-.409-.254-.865-.499-1.305-.371-1.518-.721-3.074-1.364-4.585-2.09-.181-.075-.422-.189-.618-.12-.215.072-.187.347.01.41h-.007c.209.063.39.553.628.347 1.514 1.029 2.975 2.126 4.467 3.185-.462.517-.729 1.361.209 1.525.457.027.843-.296 1.169-.577.21.141.412.287.625.425 2.1 1.453 4.318 2.748 6.454 4.154.168.108.336.212.5.32-.678.568-1.356 1.139-2.04 1.702-.431.329-.789.738-1.223 1.055-.703.332-1.027 1.218-.459 1.801 1.166 1.086 2.328-.577 3.222-1.211.849-.691 1.708-1.37 2.57-2.046 1.302.804 2.62 1.588 3.963 2.33.701.374 1.413.726 2.126 1.079.045.021.086.045.13.066.615-.469 1.233-.936 1.848-1.402-.441-.506-1.208-.673-1.775-1.044.041.021.079.042.121.066-1.54-.799-3.058-1.66-4.563-2.54.52-.403 1.039-.807 1.559-1.211 1.923-1.528 3.754-3.152 5.694-4.663.456-.4.975-.744 1.419-1.16 1.483.793 2.963 1.591 4.436 2.399.776.418 1.562.813 2.367 1.22.672-.491 1.343-.981 2.015-1.469-.073-.033-.149-.065-.219-.104-2.354-1.074-4.455-2.196-6.768-3.434zm-6.229 1.917c-1.664 1.487-3.422 2.869-5.212 4.217-.422.326-.834.658-1.246.993-1.403-.846-2.801-1.701-4.188-2.551-1.176-.709-2.275-1.528-3.441-2.246.5-.38 1.004-.754 1.505-1.13 2.246-1.678 4.41-3.455 6.555-5.255 2.722 1.388 5.434 2.796 8.134 4.226-.732.547-1.41 1.16-2.101 1.749z" fill="#eaf5ec"/><path d="m204.684 136.523c.21.092.453.11.666.026h.003c1.872-.39 3.709-.948 5.506-1.54 2.428-.778 4.854-1.558 7.257-2.393.634-.217 1.278-.436 1.884-.714v-.005c-.803-.451-1.606-.905-2.412-1.356-2.254.83-4.644 1.621-6.891 2.425-1.441.503-2.681 1.028-4.175 1.534-.128.067-.516.2-1.013.373-1.612-1.052-3.384-1.904-5.043-2.901-2.622-1.708-5.732-3.274-8.528-4.863-.472-.272-.944-.547-1.422-.812 2.959-.804 5.931-1.561 8.85-2.488 1.015-.307 2.028-.627 3.025-.986.256-.101.547-.176.815-.28-.315-.176-.628-.347-.947-.529-.497-.237-.965-.514-1.431-.803-3.172 1.046-6.434 2.046-9.687 2.826-2.528.688-5.007 1.511-7.554 2.141-2.746.601-5.428 1.416-8.159 2.084-1.509.314-3.222.771-4.731 1.213-.188.058-.441.127-.697.211.716.341 1.422.699 2.119 1.075 2.647-.41 5.231-1.026 7.856-1.685 2.534-.661 5.091-1.254 7.616-1.941.156.075.312.15.456.237 1.734.829 3.384 1.808 5.044 2.765 1.518.953 3.14 1.748 4.721 2.606 1.729 1.064 3.46 2.121 5.263 3.075l1.603.708z" fill="#eaf5ec"/><path d="m236.3 155.738c.553-.244 1.255-.286 1.792-.562.779-.119 1.252-1.073.602-1.712-1.695-1.154-3.702-2.108-5.562-3.038-1.655-.705-3.18-1.486-4.746-2.274.171-.06.339-.119.507-.187.552-.283.543-1.115-.087-1.293-.382-.069-.777.056-1.159.101-.5.083-1 .178-1.497.279-.022-.009-.04-.021-.062-.03-.351-.163-.702-.327-1.059-.478-.385-.167-.854-.443-1.286-.262-.366.152-.571.529-.472.886.053.199.183.342.342.464-2.218.553-4.414 1.204-6.612 1.789-2.473.621-4.932 1.302-7.389 1.977-.534.14-1.068.291-1.612.395.832.467 1.668.931 2.503 1.391.261-.074.522-.151.786-.226 4.342-1.162 8.637-2.482 12.967-3.685.481-.161.978-.289 1.475-.411 2.224 1.338 4.503 2.595 6.92 3.582-.031-.015-.063-.03-.094-.044.028.011.053.026.081.038 0 0 .016.006.031.015.923.44 1.823.93 2.718 1.43-.146.041-.292.08-.438.122-1.569.416-3.128.868-4.687 1.319-2.901.839-5.811 1.641-8.733 2.411-.615.166-1.23.333-1.851.485.922.502 1.854.995 2.779 1.471.181-.054.364-.107.563-.164 4.416-1.307 8.885-2.437 13.289-3.783z" fill="#eaf5ec"/><path d="m194.56 183.475c2.175-2 4.282-4.069 6.435-6.086 1.744-1.679 3.644-3.189 5.48-4.765 3.66-3.128 7.085-6.516 10.554-9.846.483-.487.988-.953 1.503-1.407.185-.121.345-.281.468-.459-.69-.366-1.38-.751-2.067-1.141-.579.539-1.146 1.095-1.713 1.646-2.827 2.683-5.674 5.475-8.582 8.092-2.794 2.416-5.615 4.8-8.329 7.299-1.198-.775-2.492-1.419-3.7-2.184-1.759-1.098-3.517-2.196-5.283-3.288.74-.675 1.451-1.386 2.191-2.057 2.097-2 4.303-3.887 6.333-5.954 2.806-2.834 5.446-5.823 8.339-8.581.191-.176.394-.342.56-.536-.696-.39-1.392-.783-2.085-1.18-.401.415-.798.829-1.208 1.238-2.489 2.45-4.894 5.048-7.343 7.541-2.72 2.716-5.795 5.378-8.471 8.176-.062.061-.13.131-.198.197-1.589-.974-3.182-1.942-4.79-2.892-3.462-2.008-6.897-4.065-10.325-6.134 1.94-1.743 3.897-3.47 5.72-5.334.579-.617 1.309-1.149 1.731-1.884.345-.678-.505-1.437-1.158-1.047v-.006c-.006 0-.009.006-.015.009-1.313-.677-2.631-1.385-3.928-2.102-3.17-1.9-6.225-3.681-9.364-5.772-1.993-1.213-3.845-2.644-5.89-3.778.73-.678 1.463-1.349 2.187-2.006 2.658-2.477 5.591-4.731 7.929-7.514-.625-.29-1.254-.574-1.867-.889-1.774 1.691-3.601 3.452-5.449 5.1-2.215 2.042-4.485 4.029-6.737 6.029-3.591 3.352-7.119 6.767-10.695 10.134-1.087 1.034-2.172 2.123-3.274 3.23-.499.521-1.017 1.032-1.519 1.552.447.251.89.502 1.34.747.234.121.462.251.696.375.986-1.04 2.015-2.041 3.028-3.058 1.71-1.624 3.45-3.288 5.188-4.958.326.257.665.502 1.004.747 2.153 1.516 4.503 2.726 6.712 4.157 3.592 2.235 7.205 4.431 10.828 6.618-1.956 1.837-3.826 3.754-5.662 5.73-.53.571-1.109 1.137-1.679 1.688.628.345 1.26.683 1.888 1.022.407-.414.823-.817 1.223-1.237 1.402-1.386 2.8-2.862 4.223-4.29.62-.605 1.254-1.188 1.889-1.775 2.446 1.473 4.894 2.943 7.343 4.41-.018.018-.04.034-.058.052-2.344 2.042-4.806 3.962-6.965 6.204-.163.224-.391.414-.622.605.613.348 1.232.693 1.848 1.041.339-.339.681-.681 1.023-.99 2.138-1.981 4.402-3.826 6.435-5.91 1.799 1.079 3.598 2.159 5.394 3.245.366.221.726.451 1.093.678-.003.184.043.369.148.523.243.366.758.478 1.149.282 3.031 1.896 6.037 3.838 9.133 5.629-.305.293-.619.578-.921.874-1.546 1.443-3.055 2.916-4.583 4.377-.308.33-.7.624-.977.987.65.35 1.303.689 1.965 1.016.164-.151.324-.303.49-.43.678-.562 1.34-1.143 1.966-1.763zm-24.11-23.456c-4.957-2.998-9.904-6.01-14.897-8.951-1.257-.696-2.486-1.452-3.758-2.111-.089-.046-.191-.1-.299-.154.576-.557 1.155-1.111 1.728-1.667 1.51-1.458 3.084-2.959 4.67-4.45l.022.012c1.752 1.062 3.496 2.151 5.23 3.246 4.507 2.855 9.149 5.478 13.751 8.189-1.87 1.512-3.475 3.342-5.32 4.888-.385.327-.751.665-1.127 1.001z" fill="#eaf5ec"/><path d="m294.972 125.25c-.116-.618-.72-.914-1.27-1.129-2.091-1.06-4.286-1.896-6.411-2.889-2.66-1.332-5.393-2.513-8.059-3.827-3.421-1.753-6.952-3.309-10.231-5.307-4.628-2.571-9.389-5.056-14.086-7.642.012.006.022.012.034.018-.019-.009-.037-.021-.056-.03-.029-.015-.057-.03-.085-.046.019.013.031.019.047.028-4.553-2.404-8.86-5.2139-13.388-7.6633-2.126-1.2413-4.314-2.3858-6.656-3.2093.11.0424.113.0424.113.0424l.031.0121c-1.311-.4784-2.515-1.1657-3.773-1.753-.566-.2634-1.182-.5904-1.823-.4178-.022 0-.038-.0091-.06-.0122-.462-.0363-.818.2725-1.167.5178-.456.3239-.915.6358-1.364.9658-1.129.8659-2.116 1.6349-3.289 2.5039-4.364 3.2578-8.65 6.7066-12.696 10.3306-4.248 3.654-8.685 7.1-12.97 10.715-.349.424-.815.548-1.343.672-.239.072-.431.224-.569.412-1.308.233-2.591.641-3.899.862-2.377.509-4.763.991-7.106 1.635-4.333 1.148-8.577 2.559-12.891 3.785-2.418.721-4.823 1.49-7.181 2.374-.736.302-1.563.508-2.189 1.002-.104.1-.179.215-.239.336-.05.03-.1.06-.151.097-2.798 2.149-5.216 4.702-7.882 6.994-2.641 2.331-5.496 4.323-8.182 6.621-3.093 2.592-6.084 5.293-9.178 7.887-1.38 1.211-2.729 2.459-4.052 3.727-.469.364-.893.845-.893 1.342-.026.069-.054.142-.057.221-.025.493.415.799.808 1.029.179.1.349.209.525.312 1.245.72 2.459 1.489 3.663 2.274.425.248.855.49 1.289.726.029.015.054.031.082.046 1.242.678 2.503 1.32 3.754 1.983 2.226 1.144 4.361 2.446 6.559 3.636 1.16.66 2.33 1.266 3.528 1.862 2.509 1.356 4.952 2.816 7.423 4.236.261.151.526.296.786.445.412.233.821.469 1.233.699 4.713 2.586 9.335 5.19 14.14 7.645 3.807 2.165 7.583 4.387 11.498 6.376 2.43 1.245 4.927 2.598 7.496 3.618l-.063-.021c.758.415 1.949.227 2.528-.393.258-.146.434-.343.717-.545.519-.415 1.069-.881 1.638-1.345 1.761-1.444 3.616-2.894 5.443-4.341 3.879-3.107 8.005-6.168 11.79-9.429 3.506-2.985 7.216-5.764 10.643-8.901.516-.154 1.016-.418 1.529-.554 1.191-.39 2.38-.79 3.575-1.172 3.486-1.253 7.071-2.219 10.627-3.26 3.031-.833 6.043-1.72 9.027-2.698 2.082-.63 4.163-1.26 6.2-2.01.246-.1.5-.191.749-.294 1.078.26 2.012-1.232 2.845-1.865 1.689-1.544 3.38-3.085 5.163-4.53 4.908-4.075 9.939-7.884 15.029-11.832 2.063-1.553 4.104-3.07 6.141-4.611 1.207-.914 2.415-1.835 3.625-2.782.733-.578 1.437-1.19 2.167-1.771.295-.24.622-.482.736-.857.034-.091.044-.185.047-.279.056-.178.081-.372.034-.572zm-70.754 39.323c-4.085 3.016-7.993 6.143-11.885 9.404-5.308 4.136-10.744 8.29-15.954 12.641l.05-.04c.025-.018.047-.039.073-.057-.139.112-.277.221-.416.333-.128.073-.238.175-.333.288-.798-.361-1.647-.639-2.443-1.021-.566-.239-1.119-.496-1.669-.763-.673-.327-1.343-.666-2.006-1.017-1.176-.624-2.343-1.272-3.522-1.889-2.603-1.296-5.188-2.65-7.763-4.021-1.135-.654-2.273-1.296-3.446-1.883-.283-.137-.563-.285-.846-.424-.896-.491-1.789-.987-2.682-1.484-.629-.348-1.261-.693-1.886-1.041-1.676-.936-3.346-1.874-5.012-2.819-.727-.378-1.447-.769-2.17-1.154-.641-.342-1.286-.681-1.927-1.023-1.598-.857-3.198-1.714-4.805-2.555-.289-.161-.578-.327-.867-.485-2.421-1.289-4.846-2.573-7.242-3.911-2.285-1.363-4.568-2.753-6.911-3.979-.235-.124-.471-.254-.71-.375-.459-.245-.915-.497-1.368-.748-.695-.388-1.39-.778-2.072-1.184-.626-.321-1.214-.754-1.833-1.108.428-.439.871-.869 1.327-1.278 2.053-1.913 4.223-3.702 6.367-5.522 2.503-2.132 4.996-4.266 7.565-6.322 2.707-2.071 5.408-4.199 7.901-6.515 1.909-1.874 3.943-3.631 5.855-5.496.047-.006.091-.009.138-.018v.009c.095-.039.192-.075.286-.112.849.47 1.708.93 2.553 1.408.051.027.104.049.154.073.626.312 1.268.599 1.906.89.786.357 1.569.724 2.305 1.175 2.157 1.317 4.26 2.716 6.445 3.99 3.236 1.868 6.493 3.706 9.596 5.777 2.145 1.335 4.361 2.555 6.518 3.869 2.044 1.227 4.012 2.571 6.078 3.767 1.632.917 3.264 1.838 4.899 2.749.707.396 1.418.79 2.128 1.181 2.066 1.135 4.148 2.243 6.264 3.294 1.377.711 2.748 1.504 4.128 2.274.701.39 1.402.775 2.11 1.141.094.048.185.1.28.148 1.99.978 3.921 2.005 5.879 3.061-.349.258-.691.53-1.037.784zm12.803-5.991c-2.855.853-5.634 1.919-8.483 2.794-.663.215-1.314.466-1.981.675-.11.024-.214.067-.311.115-.909-.451-1.814-.893-2.755-1.389-.71-.346-1.43-.709-2.153-1.081-.937-.485-1.881-.987-2.814-1.499-.959-.524-1.909-1.054-2.83-1.583-2.163-1.163-4.311-2.347-6.455-3.543-.846-.472-1.692-.944-2.535-1.417-1.971-1.108-3.942-2.222-5.911-3.336-3.675-2.198-7.313-4.445-11.077-6.504-3.223-1.883-6.373-3.884-9.64-5.701-2.185-1.271-4.389-2.51-6.54-3.833-.688-.466-1.399-.887-2.119-1.293-.698-.393-1.409-.769-2.132-1.126-.695-.345-1.396-.684-2.103-1.014-.384-.188-.777-.397-1.173-.606 3.396-1.232 6.889-2.21 10.354-3.248 2.657-.781 5.273-1.681 7.974-2.32 3.499-1.029 7.099-1.707 10.627-2.64.72-.209 1.49-.387 2.144-.751.073-.006.142-.012.214-.021.013.003.022.012.038.018 1.059.43 1.987 1.09 2.943 1.705.468.3.94.593 1.44.842.321.19.635.372.953.554 1.521.881 3.015 1.701 4.584 2.61 1.783 1.008 3.471 2.155 5.266 3.142 1.551.848 3.085 1.738 4.616 2.631.808.473 1.616.948 2.428 1.42.726.424 1.452.845 2.182 1.26 2.197 1.223 4.442 2.368 6.593 3.678 1.997 1.242 3.905 2.214 6.037 3.334 2.116 1.111 4.219 2.38 6.339 3.512 5.537 2.991 11.357 5.813 17.044 8.626-6.86 1.98-13.85 4.033-20.755 5.995zm52.791-31.194c-1.314.95-2.619 1.904-3.924 2.867-.666.49-1.333.99-1.999 1.486-1.032.766-2.06 1.532-3.088 2.31-2.031 1.566-4.072 3.134-6.103 4.708-.61.473-1.223.945-1.833 1.42-2.729 2.132-5.43 4.294-8.068 6.519-1.622 1.338-3.166 2.764-4.716 4.178-.082.088-.179.179-.28.27-1.745-.812-3.478-1.653-5.191-2.531-6.625-3.104-13.024-6.583-19.403-10.137-4.144-2.168-8.09-4.657-12.281-6.743-.516-.299-1.032-.602-1.551-.905-.707-.412-1.411-.824-2.119-1.238-4.927-2.883-9.854-5.777-14.809-8.617-.641-.366-1.28-.736-1.921-1.099-.355-.203-.708-.406-1.063-.609-.487-.254-1.176-.732-1.89-1.129 1.573-1.317 3.16-2.616 4.767-3.897 4.789-3.808 9.367-7.847 14.086-11.735 3.619-3.088 7.606-5.7736 11.118-8.9708.924.439 1.811.9537 2.72 1.42.421.2059.846.3966 1.276.5843.582.2544 1.167.4966 1.752.7418 1.069.4511 2.131.9174 3.135 1.4987 5.052 2.679 9.806 5.84 14.843 8.541 3.981 2.141 7.977 4.402 12.03 6.482 1.789.954 3.751 2.201 5.644 3.185.16.085.324.179.484.258.582.293 1.164.581 1.745.875 4.025 2.016 8.068 3.987 12.165 5.867 2.148 1.057 4.377 1.947 6.543 2.964-.688.479-1.383.954-2.069 1.442z" fill="#283441"/><g fill="#22a54a"><path d="m189.538 108.631c1.103.36 1.772-.672 2.353-1.375 1.022-1.288 1.878-2.687 2.816-4.03 1.451-2.506 2.792-5.1314 3.694-7.8771.97-3.2234 1.412-6.4406 1.561-9.8119.553-6.9891-5.01-12.4436-12.444-11.3157-3.08.3636-5.776 2.154-7.676 4.4468-.889 1.0755-.879 2.5084-1.351 3.7411-.786 2.758-.514 5.7657.019 8.5453.676 3.1833 2.301 5.7441 4.021 8.5946 1.37 2.4619 3.006 4.7639 4.835 6.9369.715.718 1.073 1.79 2.169 2.142zm-7.401-16.675c-.033-.1047-.075-.2095-.104-.3143h.023c.035.0955.084.188.123.2866-.013.0092-.026.0185-.039.0277zm2.13-7.3681c.139-.7181.3-1.4792.598-2.1695.497-.8228 1.192-1.5038 2.239-1.8983.382-.2064.747-.3729 1.099-.5177 2.266-.2588 4.39 1.4638 5.269 3.5593.717 1.0138.624 2.493.572 3.6979-.139 2.6471-1.273 6.1078-4.457 6.4899-4.241.2003-5.941-5.9752-5.317-9.1647z"/><path d="m191.885 111.645c-.357-1.356-2.461-1.353-2.816 0-.146.78-.012 1.595-.03 2.389h.006c.009.68.51 1.301 1.255 1.398 2.15.159 1.695-2.442 1.582-3.787z"/><path d="m192 120.044c-.076-.627-.046-1.286-.172-1.897-.264-.89-1.963-1.085-2.504-.258-.201.258-.208.56-.217.856-.01.487-.139.974-.099 1.46.263 1.439 2.992 1.288 2.992-.161z"/><path d="m190.53 128.907c1.905-.054 1.437-2.199 1.375-3.392.042-.62-.409-1.206-1.061-1.366-1.129-.301-2.078.752-1.793 1.744.029 1.119-.258 2.996 1.482 3.014z"/><path d="m191.893 133.641c.167-.823.109-1.682.026-2.518h-.007c-.086-.993-1.291-1.586-2.115-1.055-1.096.757-.798 2.419-.628 3.573.324 1.384 2.4 1.384 2.724 0z"/><path d="m225.04 101.009c2.54-.054 1.916-2.1985 1.833-3.3924.057-.6195-.546-1.206-1.414-1.3654-1.505-.3007-2.771.7519-2.391 1.7443.039 1.1188-.345 2.9955 1.977 3.0135z"/><path d="m226.857 105.743c.223-.823.146-1.681.035-2.517h-.009c-.115-.994-1.722-1.587-2.82-1.056-1.461.757-1.064 2.419-.837 3.573.431 1.384 3.2 1.384 3.631 0z"/></g><path d="m194.976 135.393c5.496 2.317 10.822 4.879 16.237 7.308 2.13 1.04 4.317 2.008 6.441 3.06.108.061.218.118.332.173.183.088.408.106.604.042.158-.051.328-.084.505-.1.895-.172 1.789-.333 2.678-.518 3.059-.622 6.074-1.389 9.172-1.902 2.31-.4 4.333-.797 6.546-1.116h.006c.272-.03.499-.191.556-.403.035-.136.105-.267.215-.391.247-.258.655-.513.911-.734 3.843-2.86 7.87-5.562 11.628-8.488 1.334-.973 2.645-2.001 4.03-2.947.348-.237.303-.671-.086-.865-3.116-1.537-6.182-3.141-9.314-4.661-1.906-.87-3.746-1.822-5.604-2.747-.019-.009-.041-.018-.063-.027-.357-.137-.73-.322-.844-.64-.139-.322-.038-.698.3-.94 1.207-.807 3.559.94 4.735 1.407.016.006.028.012.044.018 2.484 1.213 4.956 2.435 7.434 3.66 1.799.949 3.676 1.777 5.547 2.626.022.009.041.019.06.031.487.291 1.198.467 1.6.837.335.273.483.688.218 1.07-.421.579-1.198 1.098-1.742 1.559-4.087 3.129-8.341 6.113-12.51 9.173-1.056.761-2.102 1.538-3.132 2.32-.519.394-.866.831-1.391 1.031-.016.027-.025.055-.044.082-.572.619-1.698.667-2.551.934-.013.003-.028.009-.041.012-2.472.576-4.937 1.155-7.459 1.58-3.095.625-6.142 1.389-9.242 2.001-.844.188-1.821.489-2.497.167-.209.006-.421-.018-.626-.103-3.761-1.54-7.289-3.418-10.949-5.085-4.311-1.953-8.575-4.034-13.013-5.783 0 0-1.283-.495-.29-1.465.66-.646 1.605-.179 1.605-.179z" fill="#fad209"/><path d="m244.881 115.064c-.202-.369-.615-.492-.95-.705-.591-.322-1.155-.676-1.707-1.057-3.816-2.397-7.7-4.685-11.579-6.979-.483-.24-1.011-.643-1.575-.456-.072.027-.132.072-.19.117-.096.051-.187.114-.265.186-.44.426-.902.829-1.354 1.24-1.783 1.619-3.499 3.213-5.297 4.862-.344.327-.805.699-.899 1.135-.371.931.935 1.402 1.49 1.937 1.68 1.279 3.427 2.366 5.164 3.597 2.383 1.793 5.088 3.282 7.655 4.823.269.168.552.333.863.333.057 0 .117-.006.181-.018.015-.003.03-.006.045-.012.109-.105.22-.21.335-.313.069-.063.139-.123.208-.186.003-.009.006-.021.009-.033.109-.093.208-.195.305-.297.518-.432.88-.796 1.387-1.285 1.861-1.64 3.62-3.306 5.357-5.111.187-.189.392-.39.549-.616.338-.27.519-.738.274-1.168zm-2.316.907c-1.952 1.805-3.936 3.58-5.9 5.369-.054.051-.127.12-.184.177-.184.205-.419.373-.63.556-.365-.21-.73-.414-1.086-.643-1.659-1.021-3.36-1.976-4.977-3.063-2.087-1.417-4.21-2.987-6.373-4.354-.127-.057-.262-.147-.404-.249.021-.021.042-.045.06-.066.51-.526 1.023-1.003 1.556-1.525l-.045.042c.935-.904 1.879-1.796 2.805-2.721.54-.532 1.125-1.072 1.635-1.64.106-.126.223-.252.341-.381.093.057.187.114.274.18.908.604 1.849 1.165 2.793 1.712 3.46 2.114 7.052 4.087 10.364 6.411-.072.069-.148.135-.229.192z" fill="#2c3a48"/><path d="m53.1204 141.486-5.6192 6.661-12.7356-.412-7.7656-1.926.7704-39.252 1.1617-18.0541 42.0679 7.0125-10.7259 9.1466-8.3309 9.72z" fill="#fff"/><path d="m53.1727 141.413v-28.379l5.8273-8.177 11.5051-8.5957 17.3323-16.7724v-5.8972l-6.2016-3.848 14.3642-13.2111-2.5534-4.2449-12.9466 7.355 3.5844-7.9104 5.4156-4.5956-2-3.848-5.8642 2.405-.6358-19.2393s-31.541-.1324-32.5-.0003-2.7745 30.1505-2.7745 30.1505l-9.4579 10.1801-7.2222 27.9042-1.0454 9.0391" fill="#fff"/><path d="m43.6796 148.147c2.6002-.657 4.9826-1.886 7.1608-3.323.8305-.648 1.5962-1.384 2.0897-2.277.1157-.165.1974-.354.2791-.541-.0681-.654-.1259-1.305-.1702-1.956 0-.006-.0034-.012-.0034-.018-.211-1.428-.4152-2.858-.5752-4.294-.1599-1.419-.2995-2.837-.4628-4.255-.1055-.914-.211-1.825-.3199-2.739-.0579-.479-.1124-.956-.1498-1.436-.0408-.498-.0681-1-.0919-1.348-.0102-.104-.017-.211-.0238-.318 0-.021 0-.043-.0034-.064-.0579-.743-.1191-1.486-.1566-2.228-.0374-.728-.0476-1.458-.051-2.189-.0034-.697.0204-1.393.0544-2.087.0409-.746.1021-1.492.2213-2.231.1157-.728.2688-1.452.4526-2.17.1702-.673.3404-1.355.5752-2.012.2621-.742.6092-1.455.9393-2.173.3029-.66.6433-1.305 1.0585-1.913.4254-.627.9257-1.192 1.4533-1.751.0136-.016.0306-.028.0442-.043-2.5219.736-5.2004 1.045-7.8585 1.027-1.7357-.071-3.4851-.162-5.2208-.333-4.2679 7.98-.2349 34.553.7657 40.663z" fill="#f0eff8"/><path d="m55.6133 102.123c-1.1135 3.023-5.8797 4.187-8.6133 4.609.1326.003.2681.012.4006.015 5.9003.369 11.4647-2.351 16.063-5.905 1.6702-1.3765 3.2432-2.8581 4.5364-4.5677-2.2004-.015-4.4038-.036-6.6043-.0749-.9603-.003-1.9206.012-2.878.027-1.1399.0179-2.2829.0359-3.4229.024.7306 1.1726 1.4994 3.2121.5214 5.8726z" fill="#f0eff8"/><path d="m94.1017 51.9386c-1.4554-.0723-2.6806.729-3.8997 1.3827-1.076.5844-2.1644 1.1477-3.2031 1.7984-1.2875.8224-2.5376 1.696-3.738 2.6358-.3017.226-.6375.4308-.9641.6477.0094-.6145.0218-1.2291.0311-1.8436.3452-.2922.6407-.729.905-1.0182.6157-.6597 1.2781-1.2742 1.8752-1.949 1.443-1.6026 3.2094-2.937 4.3724-4.7595 1.132-1.7261 1.3435-4.0366-.5318-5.353-1.0946-.8585-2.6246-.6206-3.8437-.1536-.1493.0723-.2923.1536-.4385.2349-.1803.0994-.3545.2049-.5255.3163-.5225.3374-1.017.72-1.4896 1.1206.0528-3.416.0186-6.8351-.0747-10.2541-.0155-.6477-.0404-1.2923-.0622-1.94 0-.491 0-.979.0031-1.47.0342-1.4911.2519-2.9793.196-4.4734.0466-1.0423-.6376-1.2833-1.4679-1.3044-.1399-.0361-.2799-.0662-.4198-.0873-1.1164-.1657-2.2546-.1717-3.3804-.235-3.0632-.1807-6.1294-.2621-9.1988-.2048-4.5031.1596-9.003.0723-13.506-.0091-1.9778-.012-3.9495.1476-5.9242.1567-.6655.0422-1.4336.0542-1.9312.5422-.2208.229-.3328.5091-.3825.8043-.0995.2802-.0404.6417-.0871.9278-.0964 2.1027-.1057 4.2023-.1057 6.3049.0715 3.6149.0466 7.2267.0186 10.8446.0249 3.892-.1959 7.7779-.3452 11.6669-.4447-.1837-.9298-.1958-1.3621.1296-1.5393 1.3947-2.7304 3.1238-4.1951 4.5968-1.1382 1.2381-2.2764 2.4702-3.4706 3.6782-.538.485-1.048 1.0031-1.4429 1.6086-.9392 1.5694-1.0822 3.4341-1.4772 5.1752-.5256 3.3046-1.5051 6.5188-2.6091 9.6788-.8148 2.5003-1.7322 4.9795-2.1551 7.5791-.2177 1.1026-.3483 2.2232-.3857 3.3408-.4851 2.4731-.8334 4.9794-1.0791 7.4616-.9516 9.1069-1.6762 18.3819-1.7477 27.5689-.1306 6.037-.1337 12.128.9703 18.087.0528.202.1679.361.311.482.4851.909 2.0587 1.855 2.7553 2.283 2.634 1.362 5.579 2.036 8.5582 2.082 3.993.277 8.0482-.54 11.4348-2.669.7277-.5 1.5021-.931 2.2297-1.431 1.2129-.922 2.2111-2.115 2.8051-3.498.0778-.192.1866-.397.2768-.605.3141-.337.4136-.883.2892-1.368.0124-.316-.0498-.638-.1835-.909.0373-.133.0467-.272.028-.413-.1866-1.371-.3732-2.741-.5162-4.118-.1462-1.416-.2737-2.835-.4292-4.251-.0777-.695-.1555-1.388-.2239-2.084-.0715-.696-.1555-1.386-.2115-2.082-.0279-.445-.0528-.888-.0839-1.331 0-.024-.0094-.151-.0187-.277 0-.003-.0093-.157-.0217-.308-.0311-.454-.0716-1.054-.1058-1.656-.0342-.558-.0404-1.118-.0466-1.675-.0125-1.085.0124-2.172.0839-3.254.0747-.924.2271-1.84.4136-2.753.1929-.892.4043-1.783.6998-2.648.1679-.449.3545-.891.5411-1.331.1803-.425.3452-.847.5504-1.259.2239-.422.4634-.835.7308-1.232.3639-.51.7401-1.013 1.16-1.486.8272-.903 1.6824-1.783 2.5967-2.605.0435-.036.087-.076.1306-.112.1741-.144.3545-.28.5349-.415 3.7411-1.983 7.2085-4.5521 9.6-8.0103.0435-.0784.0746-.1537.0964-.229 2.945.0151 5.89.0241 8.8381.0362h.5287.3949c.3857 0 .7713-.0091 1.1507-.0482.8023-.0784 1.3621-.955 1.0573-1.5454 0-.2892.0031-.5814-.0155-.8706.2114.0211.4229.0422.6281.0603 1.7509.3042 4.2481-1.6478 4.133-3.404-.1368-1.3526-.5567-2.7172-1.3652-3.8438-.8397-1.0152-2.152-1.0634-3.3835-.7772-.0062-.2109-.0187-.4338-.056-.6386 1.1102-.4127 2.2484-1.1598 2.8548-1.7803.9516-1.4912 1.8566-3.0365 2.6092-4.6361 1.1071-2.4219 1.4865-4.383-.6531-6.4163-1.4056-1.0423-3.0663-1.8557-4.8047-2.2352.3017-.244.5971-.5061.8832-.6477 2.4599-1.8797 4.7301-3.9854 6.9349-6.1392 1.3062-1.3616 2.7336-2.6057 3.9899-4.0155.7993-.8224 1.5239-1.8315 1.9468-2.913.9516-1.8496-.3608-4.2745-2.5749-4.2595zm-8.6391-6.9676c1.4554-.723 3.2-.6838 3.1814 1.2893-.1648.9007-.7246 1.696-1.3124 2.3918-.6406.8465-1.4585 1.5394-2.2204 2.2774-.1524.1476-.3047.2982-.4509.4518-.7557.7893-1.4927 1.5906-2.2702 2.3587.028-1.1627.0622-2.3255.1027-3.4853.0559-1.1869.0964-2.3767.1244-3.5666.0435-.0241.087-.0512.1275-.0723.3203-.1898.6375-.3886.9516-.5874.5815-.3645 1.163-.7321 1.7663-1.0604zm-22.6084-17.8634c2.0805.003 4.1641 0 6.2477.0151-.311.6055-.6033 1.22-.8863 1.8405-2.6496.0061-5.2992.0513-7.9425-.3012-.0871-.3494-.2923-.973-.5753-1.5514 1.0324.0091 2.068.003 3.1533-.003zm-17.3901 30.9944c.1462.0723.2954.2018.4416.3434-.0062.2048-.0124.4066-.0187.6115-.0093.5-.0124.9971-.0155 1.4971-.5411.8586-1.3963 1.5303-2.2609 2.1238-.398-.3555-.852-.6326-1.3278-.8766 1.0573-1.2351 2.0338-2.5365 3.1813-3.6992zm10.5205 48.599c-.482.551-.9391 1.108-1.3279 1.726-.3794.599-.6935 1.235-.9671 1.885-.3017.708-.6189 1.41-.8583 2.142-.2146.648-.3701 1.32-.5256 1.982-.1648.708-.3048 1.422-.4136 2.139-.1088.729-.1679 1.464-.2021 2.199-.0342.687-.0529 1.371-.0498 2.058 0 .717.0124 1.437.0467 2.157.0373.732.0901 1.464.143 2.196 0 .021 0 .042.0031.063.0062.105.0125.208.0218.313.0218.347.0466.838.084 1.329.0373.473.087.942.1368 1.415.1026.898.1959 1.799.2923 2.699.1524 1.395.2768 2.796.4229 4.194.1493 1.413.3359 2.822.5256 4.232 0 .006.0031.012.0031.018.0436.642.0933 1.283.1555 1.922-.0746.19-.1493.374-.255.536-.454.88-1.1506 1.606-1.9094 2.245-1.9903 1.415-4.1672 2.626-6.5431 3.274-.5038.139-1.0138.259-1.5363.34-2.6899.356-5.4608.284-8.1321-.186-2.1707-.482-4.2698-1.299-6.0455-2.606.0497-.521-.1742-1.079-.2208-1.594-.7215-4.777-.7961-9.654-.706-14.501.0747-7.935.678-15.824 1.2782-23.738.1866-2.136.3825-4.271.5846-6.4071.8739 2.2441 2.3386 4.2681 4.5715 5.4161 1.0729.735 2.2297 1.446 3.4488 1.949 1.9591.669 3.9961 1.03 6.0579 1.25 1.586.169 3.1813.259 4.7705.329 2.4287.015 4.8762-.287 7.1805-1.013-.0124.016-.0279.028-.0404.043zm7.8617-6.115c-4.8545 3.569-10.7289 6.301-16.9579 5.931-.1399 0-.2799-.009-.4229-.015-4.7239-.145-9.995-1.256-12.8374-5.233-4.8358-7.1149-1.9125-14.4018.6002-21.7129.6033-1.8556 1.1009-3.7384 1.5145-5.6422.227-1.2561.454-2.5725.6966-3.8377.2426-.973.3576-2.0153.9361-2.8678 1.3372-1.5604 2.8734-2.9582 4.1578-4.5638.0466-.0512.0933-.1054.1399-.1566.4727.259.9485.5151 1.3528.8766.3732.3464.7837.3193 1.16-.003.5753-.4157 1.1568-.8616 1.6668-1.3707-.0062 2.1629 0 4.3258-.0217 6.4857-.6313.6055-1.2315 1.2441-1.8535 1.8586-1.0822 1.0333-1.5518 1.4399-1.2564 2.9883.0653 1.6899.1493 3.401-.227 5.0638-.0715.7531-.5784 1.464-.3856 2.2262.9703 1.9369 2.8113 3.3286 4.0272 5.118.8024 1.3134 1.7104 2.5635 2.4257 3.9281.3701.8043.6873 1.6357.9671 2.4852-.0311.2169.0374.4429.196.6206.4509 1.4941.7805 3.0365 1.0107 4.5848.0466.3043.3451.5242.6561.482.2955-.0392.4883-.2801.5038-.5603.0249-.4458.0435-.8887.0467-1.3315.2923.0271.6095.0151.9111.0061.2861-.0091.5598-.0211.7899 0 .4541.015.9112.0241 1.3652.0271 1.2035.012 2.4102-.0061 3.6137-.0241 1.0138-.0151 2.0245-.0302 3.0383-.0271 2.323.0361 4.6491.0572 6.9722.0753-1.3621 1.72-3.0259 3.2081-4.7891 4.5883zm-18.1987-19.59v1.0604c-.5629-.6627-1.1289-1.3224-1.6762-1.9972.6873-2.4792.6779-5.0638.4447-7.6033.2457-.2801.8179-.8796 1.3963-1.5574-.0124.5423-.0218 1.0875-.0342 1.6297-.1151 2.8196-.1555 5.6422-.1306 8.4648zm17.4181 12.2453c.0404-.1024.0964-.1988.1617-.2861.0653-.0844.1368-.1627.2115-.238.1337-.1326.283-.2591.4571-.3404.1586-.0723.3266-.1145.4976-.1145.0466 0 .0902 0 .1368.0091.1026.015.199.0391.2986.0692.087.0272.199.0844.2736.1386.168.1295.3017.2862.3856.479.0902.2018.1431.4458.1213.6627-.0186.1717-.0653.3344-.1555.482-.0995.1566-.2239.3313-.3918.4247-.1524.0844-.3048.1265-.4789.1416-.0093 0-.0218.003-.0311.006-.0995.0241-.2021.0392-.3048.0392-.1928 0-.3856-.0452-.5628-.1205-.0778-.0331-.1555-.0723-.2271-.1175 0 0-.0031-.003-.0062-.006-.0684-.0452-.1275-.0994-.1835-.1597-.0186-.018-.0342-.0421-.0497-.0632-.0373-.0452-.0684-.0934-.0964-.1476-.056-.1025-.0964-.2109-.1151-.3254-.028-.1807-.0124-.3645.056-.5392zm16.6624-5.7657c-.8583 1.1146-1.2812 2.6479-.7868 3.9493-.0995.006-.2021.015-.3016.0241-.2208.0211-.4385.0391-.6313.0331-4.0459.1265-8.1011.1506-12.1501.1054-3.5763-.0361-7.1619-.265-10.7631-.3132-1.2843-.0422-2.5718-.0513-3.8499.0602-.51-1.7381-1.2906-3.401-2.3511-4.8981-.3141-.5513-.6592-1.0754-1.0262-1.5906.0031-.0421.0062-.0843.0031-.1295-.0218-1.1778 0-2.3557-.0062-3.5335-.0467-4.136.1461-8.269.2332-12.405.0684-4.148 0-8.2961.1928-12.4411.2924-5.594.3577-11.194.4945-16.791.0373-2.8256-.0093-5.6512-.0093-8.4798-.028-1.2502.0404-2.5154-.0747-3.7625 2.5687-.0663 5.1934-.1626 7.7777-.2621.5535.0211 1.0947.0362 1.6327.0452.2021.3706.3638.7622.5442 1.1447.1959.4338.2239.973.6064 1.3044.2332.2078.5318.244.8334.2771 1.841.2169 3.6945.2711 5.5448.226.8521.0512 1.7042 0 2.5563 0 .6282.0542.9485.0331 1.2533-.5724.3763-.6687.7028-1.3616 1.0791-2.0303.0528-.1025.1181-.2019.1803-.3013 1.3031.0151 2.6061.0392 3.906.0814 1.4118.0301 2.8206.0964 4.2324.1265.5038.0211 1.0356-.0362 1.5301.0904-.0031.1837 0 .3705-.0125.5422-.0217.985-.0342 1.9701-.0155 2.9551.0995 3.9071.1524 7.8111.1244 11.7212.0186 3.8769-.2395 7.7478-.3079 11.6247-.0684 6.2357-.2021 12.4773-.1213 18.7099.0031.0271.0125.0512.0187.0783-.0218 1.4339-.0342 2.8678-.0249 4.2987-.9796 1.6207-2.1582 3.4853-1.6669 5.2415.3297 1.1237 1.1911 2.175 2.3511 2.5515.0124.491-.0063.9881.0808 1.4701-.1306.1024-.2581.2048-.3887.3042-.2332.1627-.5007.3133-.6811.5332zm3.228-.1807c1.782-.3374 2.037-.1356 2.6434 1.4911.143.5694.4291 1.205.3016 1.7864-.4291.5874-1.048 1.1567-1.785 1.3284-.9827-.0452-2.9295-.009-3.4519-.9398-.482-.8465-.1928-1.8105.2177-2.6359.5006-.6386 1.2999-.8705 2.0742-1.0332zm1.0791-5.1632c-.1306.0873-.2643.1777-.398.2711-.2737-.6055-.7775-1.0664-1.2409-1.5785.0156.0181.0312.0332.0467.0482-.028-.0301-.056-.0632-.0871-.0934.4261-.4819.7526-.97 1.0822-1.5423 1.2129.1988 1.3342.9489 1.4648 1.5152-.2923.4579-.4727 1.0001-.8708 1.3797zm1.0107-9.48c.4043.1748.793.4127 1.132.6989.8707.732 1.3994 1.7833.9112 2.9311-.3981 1.1748-.9423 2.2924-1.5487 3.3768-.1057-.1777-.2115-.3313-.2892-.4338-.2955-.3735-.7557-.5904-1.2315-.7139-.1897-.0482-.3794-.0843-.566-.1084-.5598-.0422-.7401.5512-1.0729.8826-.283.3434-.566.6898-.8801 1.0091-.1306.1326-.2861.2742-.3047.467-.0342.2681.1275.485.3141.6657.3576.4247.7245.8525.9982 1.3345.0435.0813.0746.1717.1057.2651-.3576.1867-.7308.3343-1.1257.4006-.8241-.0873-1.3466-.9941-1.4523-1.7261-.0124-.6567.2737-1.2923.5629-1.8707.4571-.9067.9547-1.8014 1.4989-2.7201.2643-.4941.3328-1.0273.395-1.5755.1306-1.2983.1586-2.6057.1337-3.9101.8614.2109 1.6171.6597 2.4163 1.0242zm9.824-16.6343c-.8832 1.6026-2.3573 2.8166-3.6323 4.1209-1.2377 1.1839-2.4475 2.3979-3.7007 3.5667-.905.8434-1.8317 1.6658-2.8113 2.434-.7339.5964-1.4367 1.232-2.2204 1.7713-.0933.0662-.2021.1355-.3141.2138-.0062-.9037-.0093-1.8074.0187-2.7051.0248-1.7893.0435-3.5757.0684-5.365.9889-.494 1.9001-1.0995 2.8082-1.7141.6033-.4096 1.2034-.8223 1.8223-1.2139.9205-.5995 1.8783-1.1929 2.8859-1.7081 1.2004-.5663 2.3106-1.3525 3.5794-1.7622 1.841-.4549 2.379.9971 1.4959 2.3647z" fill="#283441"/><path d="m113.302 115.98c.155-1.752.769-3.462.691-5.235-.121-1.279-.207-2.624-.855-3.778-1.397-2.209-3.027-4.293-4.691-6.32-.719-.9262-1.98-.9471-3.068-1.0248-.329-.0299-.654-.0658-.979-.1226-.127-.0209-.267-.0568-.406-.0807-.034-.0568-.065-.1136-.099-.1674-.725-1.2077-1.407-2.4692-2.485-3.4258-1.014-.9805-2.4546-1.2824-3.8335-1.4169-.9482-.1046-1.9429-.4036-2.8942-.2182-.2665-.2242-.5361-.4455-.818-.6517-1.1094-.8759-2.4046-1.5096-3.7866-1.8743-1.2426-.4096-2.4976-.7773-3.7959-.9805-1.2891-.2123-2.5347-.7832-3.8517-.7653-.8738-.7981-1.7538-1.5873-2.6184-2.3944-2.0048-1.8385-3.5572-3.8324-5.4195-5.886-1.2054-1.2137-2.2683-2.6964-3.8641-3.4527-1.0504-.6248-2.5068-.0628-3.2133.84-.5702.6905-.7592 1.6262-.6972 2.4931.3036 2.6545 1.9676 4.9115 3.4023 7.1146v-.006c.0775.1375.1643.272.2479.4096-.3532-.0389-.6879-.0628-.9265-.1017-.533-.0598-1.0814-.1674-1.6175-.1046-.6042.1166-.849.7234-.9854 1.2376-.4524 1.3482-.1983 2.8518.6322 4.0176 1.0752 1.3691 2.7764 2.1225 4.4899 2.4453 1.2519.272 2.51.5171 3.7804.6875.3657.5919.722 1.1928 1.0598 1.8056.8149 1.8267 1.038 3.7937 1.4285 5.7367.6755 2.873.8211 5.972.7003 8.956-.2789 1.979-.3936 3.994-.9885 5.919-.8336-.386-1.6113-.882-2.2806-1.501-1.7322-1.814-2.637-4.17-4.0221-6.212-1.3511-2.006-3.39-3.575-5.6985-4.436-2.2496-.717-6.0889-1.264-6.2686 1.943v.024c-.189 1.297.5051 2.61 1.1279 3.737.6569 1.243 1.822 2.358 2.0947 3.784.189.78.3161 1.573.5888 2.332.5019 1.282 1.1929 2.49 1.698 3.772.4029 1.02.6477 2.09.8274 3.163.3625 1.761.8056 3.51 1.3851 5.216 1.0473 3.289 2.7547 6.35 4.71 9.211 1.695 2.696 4.3443 5.144 4.3288 8.486-.1797 1.57-.7158 3.088-1.2147 4.586-1.0907 3.031-2.3673 6.011-3.9043 8.86-1.2797 2.386-2.5471 4.771-4.0995 7.004-3.6286 6.101-7.2293 12.343-9.1721 19.165-.88 3.082-1.6113 6.203-1.8468 9.422-.0589.67-.282 1.611.2695 2.042.6012 1.279 3.108 2.864 4.0004 3.476 1.8128.945 3.7711 1.672 5.7512 2.216 2.0947.439 4.2359.699 6.3709.863 4.8835.234 9.6926-.547 13.9347-2.992 1.7725-1.273 3.8176-2.361 4.9052-4.176.2665-.35.3006-.726.1891-1.034.0526-.425.1053-.852.158-1.277 1.2766-9.225 3.0119-18.399 5.9711-27.28.7995-2.185 1.8685-4.275 2.7424-6.436.691-1.734 1.686-3.489 2.454-5.229 1.044-2.532 2.008-5.219 3.015-7.784.632-1.656 1.36-3.27 1.822-4.983.034-.114.075-.224.109-.338.083-.188.151-.394.21-.595.465-1.192.995-2.358 1.516-3.527.626-1.561 1.183-3.154 1.71-4.747.793-3.342 1.407-6.72 1.754-10.137.121-1.671.412-3.315.415-4.992-.018-1.758-.195-3.516-.09-5.273z" fill="#fff"/><path d="m84.9968 147.243c.0981-3.609-6.6835-10.829-10.9462-15.085-4.2626-4.257-3.9715-11.661-5.231-14.808-.5981-1.49-2.5854-3.773-4.5158-5.759.0443.187.0348.378-.0918.571-.231.433-.7278 1.14-1.269 1.545.0095.012.019.027.0285.039 1.0506 1.343.9715 3.075 1.5633 4.587.7595 1.768 1.75 3.461 2.2025 5.339.364 1.59.6361 3.198 1.095 4.767.7943 2.978 2.0443 5.72 3.6012 8.368.7216 1.176 1.5159 2.304 2.288 3.447 1.1836 1.687 2.5443 3.292 3.3513 5.188.3861.894.5633 1.85.5949 2.811.076.166.1013.381.076.587 0 .641-.0697 1.203-.1741 1.823-.3228 1.599-.5285 3.123-1.3164 4.559-.1899.287-.3735.783-.6614 1.037-.8386 2.173-1.8196 4.286-2.8956 6.363-1.1835 2.135-2.2437 4.339-3.5791 6.391-2.8956 4.487-5.5475 9.173-7.7342 13.998-2.0759 4.501-3.4462 9.32-4.1487 14.191-.0823.752-.1424 1.508-.1994 2.264.0095.13-.0063.257-.0348.381.1203.121.2405.242.3639.339 1.4494 1.133 2.9684 2.246 4.7469 2.859 2.0696.859 4.2278 1.503 6.481 1.696.4177.061.8354.115 1.2563.164.1139-2.718 2.4905-11.73 8.2722-22.862 6.3955-12.31 6.7816-31.19 6.8797-34.8z" fill="#f0eff8"/><path d="m61 110.33c.4613 1.13 1.2292 2.172 1.9137 3.185.3839-.418.7798-.823 1.0863-1.302-.506-1.109-1.2976-2.119-2.4226-2.546-.2054.15-.381.442-.5744.663z" fill="#eaf5ec"/><path d="m70.8152 91.9741c-.4699-.022-.9363-.1097-1.3992-.1975-.4629-.0951-.985-.1061-1.3575-.4426-.5081-.4499-.6056-1.1486-.8597-1.7558-.0139-.0365-.0348-.0768-.0522-.1134-1.0024 4.2211 3.338 5.1868 6.8534 5.772-.6822-1.1192-1.3783-2.2239-2.071-3.3285-.362.0951-.7518.1024-1.1173.0658z" fill="#f0eff8"/><path d="m94.9683 104.767c-.3088-2.281-3.8165-9.6314-3.8165-9.6314l-2.4424-2.8092c-1.1882-.3633-2.411-.6261-3.6085-.905-.0347-.0098-.0662-.0228-.1009-.0325.977 1.0413 1.913 2.1248 2.7608 3.2893 2.2344 3.2082 4.2388 6.5138 5.7862 10.1208.0788.198.0536.38-.0252.529.6523.483 1.6608 1.012 1.4497-.558z" fill="#f0eff8"/><path d="m113.302 115.98c.155-1.752.769-3.462.691-5.235-.121-1.279-.207-2.624-.855-3.778-1.397-2.209-3.027-4.293-4.691-6.32-.719-.9262-1.98-.9471-3.068-1.0248-.329-.0299-.654-.0658-.979-.1226-.127-.0209-.267-.0568-.406-.0807-.034-.0568-.065-.1136-.099-.1674-.725-1.2077-1.407-2.4692-2.485-3.4258-1.014-.9805-2.4546-1.2824-3.8335-1.4169-.9482-.1046-1.9429-.4036-2.8942-.2182-.2665-.2242-.5361-.4455-.818-.6517-1.1094-.8759-2.4046-1.5096-3.7866-1.8743-1.2426-.4096-2.4976-.7773-3.7959-.9805-1.2891-.2123-2.5347-.7832-3.8517-.7653-.8738-.7981-1.7538-1.5873-2.6184-2.3944-2.0048-1.8385-3.5572-3.8324-5.4195-5.886-1.2054-1.2137-2.2683-2.6964-3.8641-3.4527-1.0504-.6248-2.5068-.0628-3.2133.84-.5702.6905-.7592 1.6262-.6972 2.4931.3036 2.6515 1.9645 4.9055 3.3992 7.1086.0806.1375.1674.272.251.4096-.3532-.0389-.6879-.0628-.9265-.1017-.533-.0598-1.0814-.1674-1.6175-.1046-.6042.1166-.849.7234-.9854 1.2376-.4524 1.3482-.1983 2.8518.6322 4.0176 1.0752 1.3691 2.7764 2.1225 4.4899 2.4453 1.2519.272 2.51.5171 3.7804.6875.3657.5919.722 1.1928 1.0598 1.8056.8149 1.8267 1.038 3.7937 1.4285 5.7367.6755 2.873.8211 5.972.7003 8.956-.2789 1.979-.3936 3.994-.9885 5.919-.8336-.386-1.6113-.882-2.2806-1.501-1.7322-1.814-2.637-4.17-4.0221-6.212-1.3511-2.006-3.39-3.575-5.6985-4.436-2.2496-.717-6.0889-1.264-6.2686 1.943v.024c-.189 1.297.5051 2.61 1.1279 3.737.6569 1.243 1.822 2.358 2.0947 3.784.189.78.3161 1.573.5888 2.332.5019 1.282 1.1929 2.49 1.698 3.772.4029 1.02.6477 2.09.8274 3.163.3625 1.761.8056 3.51 1.3851 5.216 1.0473 3.289 2.7547 6.35 4.71 9.211 1.695 2.696 4.3443 5.144 4.3288 8.486-.1797 1.57-.7158 3.088-1.2147 4.586-1.0907 3.031-2.3673 6.011-3.9043 8.86-1.2797 2.386-2.5471 4.771-4.0995 7.004-3.6286 6.101-7.2293 12.343-9.1721 19.165-.88 3.082-1.6113 6.203-1.8468 9.422-.0589.67-.282 1.611.2695 2.042.6012 1.279 3.108 2.864 4.0004 3.476 1.8128.945 3.7711 1.672 5.7512 2.216 2.0947.439 4.2359.699 6.3709.863 4.8835.234 9.6926-.547 13.9347-2.992 1.7725-1.273 3.8176-2.361 4.9052-4.176.2665-.35.3006-.726.1891-1.034.0526-.425.1053-.852.158-1.277 1.2766-9.225 3.0119-18.399 5.9711-27.28.7995-2.185 1.8685-4.275 2.7424-6.436.691-1.734 1.686-3.489 2.454-5.229 1.044-2.532 2.008-5.219 3.015-7.784.632-1.656 1.36-3.27 1.822-4.983.034-.114.075-.224.109-.338.083-.188.151-.394.21-.595.465-1.192.995-2.358 1.516-3.527.626-1.561 1.183-3.154 1.71-4.747.793-3.342 1.407-6.72 1.754-10.137.121-1.671.412-3.315.415-4.992-.018-1.758-.195-3.516-.09-5.273zm-42.9009-36.0097c.7374.7504 1.4439 1.5276 2.1349 2.3197-.0402.0718-.0836.1435-.1332.2063-.3006.4275-.8211.6337-1.3262.7503-.5082-.6576-.9327-1.2645-1.286-2.0387-.0496-.1345-.127-.269-.1487-.4065.1673-.2123.3718-.3946.5515-.5949.0713-.0747.1395-.1525.2046-.2332zm-2.0607 10.645c.0155.0299.0341.0598.0465.0927.2262.4962.3099 1.0702.7654 1.4349.3346.275.7964.2869 1.2085.3617.4121.0687.8273.1435 1.2456.1614.3223.0299.6725.0239.9947-.0538.6167.9058 1.2364 1.8085 1.8437 2.7203-3.1296-.4783-6.9937-1.2705-6.1013-4.7172zm.8615-.263c.5484 0 1.0845-.021 1.6826-.006.0681 0 .1394.003.2107.009.3036.4723.6135.9386.9265 1.4049-.282.009-.5795-.0388-.8367-.0478-.4772-.0747-.973-.1016-1.4347-.2391-.2355-.1495-.2695-.4245-.347-.6637-.0558-.1554-.1271-.3079-.1983-.4573zm-7.8025 20.2737c.2045-.215.3873-.499.598-.646 1.1744.416 1.9956 1.396 2.5224 2.478-.3223.47-.7344.864-1.131 1.268-.7127-.987-1.5122-2-1.9925-3.1zm49.9166 7.201c.081 1.202.081 2.514.139 3.734-.052 1.414-.241 2.804-.34 4.218-.307 2.78-.602 5.584-1.348 8.289-.217 1.295-.598 2.544-1.11 3.761-.325.917-.622 1.841-1.035 2.726-.613 1.42-1.341 2.819-1.642 4.34 0 .015 0 .027-.003.042-.297.715-.558 1.444-.84 2.162-.712 1.605-1.456 3.44-2.076 5.12-1.038 2.622-1.912 5.312-3.207 7.826-.595 1.226-1.069 2.308-1.5865 3.606-.8212 1.928-1.7291 3.817-2.4542 5.781-1.3417 3.811-2.2403 7.691-3.2505 11.616-1.0442 4.562-1.7321 9.187-2.3395 13.82-.1363.966-.2634 1.931-.3966 2.897-.0372.224-.0961.472-.1209.714-.22.275-.3811.532-.691.855-.6414.649-1.4316 1.136-2.1814 1.659-1.3666 1.052-2.8353 1.836-4.5055 2.407-3.6813 1.458-7.787 1.62-11.7161 1.165-.4122-.047-.8243-.098-1.2302-.161-2.2063-.191-4.3196-.828-6.3461-1.677-1.7415-.607-3.2257-1.71-4.648-2.828-.1209-.096-.2386-.215-.3564-.335.0279-.122.0434-.251.0341-.376.0558-.748.1147-1.495.1952-2.239.6879-4.816 2.0297-9.581 4.0624-14.032 2.1412-4.771 4.7379-9.408 7.5732-13.841 1.3076-2.03 2.3457-4.209 3.5046-6.319 1.0504-2.054 2.0141-4.143 2.8353-6.293.285-.251.4617-.741.6476-1.025.7716-1.42.973-2.927 1.289-4.508.1023-.613.1705-1.169.1705-1.803.0248-.203 0-.412-.0744-.58-.031-.95-.2045-1.895-.5825-2.78-.7871-1.877-2.1195-3.464-3.2815-5.129-.7561-1.13-1.537-2.248-2.2404-3.408-1.5245-2.619-2.7485-5.33-3.5263-8.275-.4524-1.554-.7158-3.141-1.0721-4.714-.4431-1.856-1.413-3.53-2.1567-5.279-.5795-1.495-.502-3.21-1.5308-4.535-.0093-.012-.0186-.027-.0278-.039.5329-.4 1.0163-1.103 1.2425-1.527.124-.191.1333-.38.0899-.565-.0868-.371-.409-.724-.5919-1.046-.5577-.858-1.3944-1.495-2.3023-1.982-.1022-.078-.2107-.12-.3191-.141-.282-.054-.5795.048-.8398.212.0899-.164.1859-.325.313-.463.0465-.039.0991-.072.1518-.099.344-.17.7995-.107 1.1775-.131.8707.042 1.7291.26 2.544.55 2.0916.9 3.7835 2.502 4.8928 4.421 1.6361 2.933 3.2846 6.568 6.7676 7.695.3253.179.7189.278 1.0628.37 1.2147.111 1.633-1.249 1.822-2.173.2386-.903.4152-1.823.5299-2.75.1456-1.372.4555-2.729.4493-4.113-.0589-1.346.0434-2.691-.0806-4.036-.1022-1.51-.3873-2.998-.6817-4.481-.2789-1.411-.4648-2.84-.911-4.2179-.5268-1.943-1.8096-3.5782-2.8663-5.2791-1.6794-2.4303-3.2257-4.8696-4.8649-7.3328-1.0009-1.6083-4.3598-5.9398-2.3612-7.5361.2076-.1316.4338-.2123.6724-.2631-.4183.3587-1.0194.6308-1.1341 1.1928-.0186.6008.4029 1.1359.6724 1.656.3657.5531.7313 1.1599 1.2116 1.6531.5051.4096 1.7911-.2182 2.2342-.5739.1518-.1375.2819-.29.3966-.4544 1.8716 2.1912 3.675 4.4481 5.81 6.4211 3.0739 2.7053 6.1478 5.4555 8.6856 8.6541 1.7787 2.1822 3.1204 4.6512 4.5489 7.0522.2758.46.8738.328 1.0783-.027.0775-.138.1023-.305.0248-.488-1.5215-3.324-3.4922-6.3698-5.6892-9.3263-.8335-1.0731-1.7507-2.0716-2.7144-3.0311.0341.0089.0651.0209.0991.0299 1.1775.257 2.3798.4992 3.548.834 1.1156.3198 2.2001.7234 3.1979 1.3123 1.2983.8938 2.4882 1.949 3.5634 3.082 1.3387 1.6052 2.5596 3.3062 3.8021 4.9832.5268.691 1.6886.045 1.3416-.735-1.1619-2.2125-2.5408-4.3618-4.2884-6.1853.282.0568.5639.1196.8645.1823.8645.1764 1.7848.2631 2.5409.7444 1.277.846 2.014 2.2091 2.786 3.4646 1.1 1.662 1.794 3.563 3.043 5.136.483.61 1.487.045 1.193-.655-.23-.532-.49-1.052-.747-1.572-.31-.631-.626-1.262-.958-1.884.524.081 1.048.117 1.389.195.867.131 1.171 1.121 1.688 1.707 1.007 1.408 2.101 2.759 3.084 4.182.582.78.88 1.707.914 2.663.375 2.735-.927 5.375-.62 8.119z" fill="#283441"/><path d="m56.003 50.6324.0733 14.7057c0 .4281.3199.7796.7132.786l14.4739.2523c.405.0064.7366-.3482.7366-.7891v-15.7376c0-.4377-.3287-.7923-.7307-.7891l-13.9134.0798c-.7542.0032-1.3617.6741-1.3559 1.492z" fill="#eaf5ec"/></svg>