<svg fill="none" height="280" viewBox="0 0 382 280" width="382" xmlns="http://www.w3.org/2000/svg" xmlns:xlink="http://www.w3.org/1999/xlink"><clipPath id="a"><path d="m0 0h381.289v280h-381.289z"/></clipPath><g clip-path="url(#a)"><path d="m245.559 263.074c51.841 0 93.865-41.924 93.865-93.643 0-51.72-42.024-93.6427-93.865-93.6427-51.842 0-93.866 41.9227-93.866 93.6427 0 51.719 42.024 93.643 93.866 93.643z" fill="#f3fafb"/><path d="m93.8652 193.68c51.8408 0 93.8648-41.923 93.8648-93.642 0-51.7198-42.028-93.64298-93.8648-93.64298-51.8371 0-93.8652 41.92318-93.8652 93.64298 0 51.719 42.0239 93.642 93.8652 93.642z" fill="#ecf6ed"/><path d="m89.4473 256h-13.5l-3.5-44-12 44-12-1.5 6-89.5-10-4.5 6-15-5-12v-12l3.5-9.5 6.5-7 8-4 3.5-5.5.5-13 16.5 1.5-.5 10.5-4 3 1.5 3 13 4.5 7.9997 7.5 12 14 5 3 11 5 2.5-1 1.5 1.5 3 1-8 3-7.5 2-10.5-1.5-10-3-1.4997 26.5-4.5 2-1.5 44-2 29.5z" fill="#fff"/><path d="m311.052 152.74c-1.075.008-2.091-.55-2.738-1.398-.529-.773-2.254-2.835-.781-3.397.861-.16 1.277.81 1.777 1.331.621.844 1.511 1.062 2.506.831 2.255-.378 2.7-4.648 2.306-6.492-.24-1.251-.735-2.721-1.121-3.884-1.231-3.997-2.096-8.205-2.083-12.404.042-3.262 1.18-6.651 3.556-8.935 3.511-2.969 8.718-3.145 10.658 1.658 1.482 3.624 1.15 7.504 1.805 11.279.378 1.734 1.012 3.565 2.419 4.72 2.922 1.948 5.509-.349 5.597-3.506.319-3.658-1.31-7.344-.18-10.939 1.41-4.699 6.588-6.815 9.829-2.448.399.428.798.857 1.227 1.251.617.542 1.541 1.273.995 2.176-1.004 1.389-2.604-.273-3.477-1.029-1.461-1.415-2.406-3.032-4.518-1.424-2.058 1.944-1.73 4.989-1.323 7.538.311 2.599.584 5.332-.319 7.839-2.297 5.652-9.246 5.241-11.77 0-2.171-4.203-1.234-9.15-2.519-13.588-1.05-3.64-3.884-3.447-6.509-1.465-1.268 1.259-1.986 2.998-2.397 4.719-.492 2.7-.093 5.484.348 8.155.349 1.877.714 3.745 1.285 5.568.617 1.952 1.264 3.917 1.31 5.946 0 3.607-1.554 8.217-5.887 7.894z" fill="#22a54a"/><path d="m268.331 145.501c-.579-3.28 1.961-6.312 4.762-7.647 2.162-1.192 4.673-1.587 6.769-2.901 1.688-1.05 3.04-2.847 3.069-4.901-.134-2.334-1.579-4.308-2.935-6.109-1.008-1.121-2.171-2.104-3.12-3.28-.949-1.259-1.713-2.809-1.646-4.421.139-1.445.487-2.818 1.117-4.111.811-1.608 2.272-2.771 3.905-3.46 2.054-1.159 4.518-1.083 6.605-.046 1.21.495 2.415 1.222 3.024 2.439.235.29.239.769-.11 1.029-.289.223-.722.172-.957-.105-1.087-.668-2.238-1.209-3.489-1.478-1.117-.26-2.28-.239-3.297.344-1.003.487-2.057 1.017-2.721 1.953-.709 1.083-1.032 2.41-1.146 3.695.088.949.601 1.831 1.184 2.561 2.868 2.944 5.971 6.257 6.408 10.544.277 4.287-3.183 7.827-6.991 9.154-2.931 1.113-6.782 2.045-7.664 5.53-.155.945.445 1.726.601 2.616.113.869-.773 1.596-1.6 1.344-1.071-.34-1.52-1.764-1.776-2.759z" fill="#fad209"/><path d="m42.1538 269.486s-8.2385-1.651-3.4852-7.143c4.7449-5.492 51.224-7.239 61.2219-.999 9.9975 6.244-3.8925 6.613-3.8925 6.613s-24.6105 8.675-53.8358 1.529z" fill="#fff"/><path d="m49.9094 164.896c.9322.34 1.8727.668 2.8175.983-.0546.478-.063.97-.1049 1.44-.1218 3.221-.3234 6.446-.2142 9.67-.3443 8.789-1.0204 17.561-1.2387 26.358-.2604 8.7-.6593 17.388-1.2135 26.08-.1932 6.471-1.1506 12.874-1.8056 19.307-.2142 1.982-.4535 3.96-.7139 5.937-.0713.525.1596 1.004.5291 1.311.273.327.6887.533 1.18.474.2141 0 .4157.021.6214.042-.1302.785-.2267 1.575-.2519 2.368-.1806.643-.1848 1.504.4157 1.902 1.4025.807 2.9687 1.357 4.4845 1.911 1.9064.815 3.8548 1.487 5.8493 2.053.6844.24 1.4025.378 2.1121.517.5333.109 1.0792.348 1.6334.235 1.0876-.231 1.2639-1.722.3863-2.326-1.2597-1.008-2.7125-1.781-3.9135-2.847-.7894-.722-1.331-1.713-1.6628-2.725-.0084-.101-.0126-.215-.0126-.324.4871.013.9784.021 1.4655.009.6382-.046 1.1799-.471 1.3269-1.092v-.084c.2897-.676.3821-1.466.6424-2.137 1.159-3.737 2.1331-7.181 3.2417-10.825 1.1631-4.053 2.3598-7.89 3.397-11.938.9616-4.061 2.0911-8.079 3.1157-12.123.0756-.311.1428-.621.2141-.932v.143c.0798 10.153 1.3143 20.247 1.919 30.375.189 2.323.3317 4.766.4409 7.067-.0168.353.1092.647.3023.874.1008.264.2856.495.5753.626.5417.151 1.1043.18 1.6754.176.0966.966.1008 1.94.2856 2.901.3149 1.336.4031 2.709.6088 4.052.084.979.9154 1.395 1.8056 1.26 1.3941.03 2.7882.042 4.1822.034 1.6629 0 3.3215-.055 4.9801-.143 1.8014.013 3.6406.193 5.4209-.076 1.2514-.457.9532-2.242-.1343-2.704-1.2807-.453-2.6832-.403-3.9597-.894-1.5873-.525-2.2927-1.789-2.6076-3.338-.1512-.492-.189-.979-.2814-1.457.6047-.013 1.1926-.089 1.7342-.374.0084 0 .0126-.009.0168-.013.4157-.08.8021-.357 1.0078-.869 2.1037-9.964 3.1661-20.143 3.9051-30.292.4661-7.94 1.5789-15.847 1.5537-23.813.1385-9.107.7264-18.232.718-27.327-.0546-2.196-.1008-4.43-.1134-6.613-.0252-.466.0714-.953.0672-1.428.9532-.344 1.9022-.705 2.8469-1.088.5249-.184.8692-.596.9662-1.028.462-.76.184-1.806.348-2.662.16-1.844.332-3.687.412-5.539.441-5.904.453-11.841.915-17.737 1.579.739 3.292 1.109 4.938 1.684 2.385.584 4.527 1.159 6.929 1.428 2.275.306 4.581.256 6.865.432 2.381.017 4.837.298 7.151-.415.928-.299 1.927-.706 2.44-1.579.016-.046.025-.093.042-.139 2.078-.294 4.169-.856 5.975-1.944.81-.495 1.898-1.004 2.032-2.049-.105-1.81-2.423-.84-3.573-1.23.512-.655.189-1.659-.676-1.781-.681-.067-1.319.269-1.986.349-.5.071-1 .126-1.5.159-.079-.155-.18-.298-.314-.411-.643-.496-1.861-.458-2.528-.702-2.209-.566-4.342-1.368-6.383-2.397-1.125-.731-2.301-1.377-3.43-2.108-1.458-1.159-2.982-2.188-4.363-3.431-1.655-1.7-3.305-3.418-4.678-5.332-2.75-3.439-5.421-6.866-8.436-10.066-1.2721-1.347-2.809-2.41-4.1863-3.644-3.3508-2.545-7.3861-4.09-11.4087-5.2323-1.1002-.2813-2.2381-.7096-3.3845-.7012-.2141-.2142-.3821-.4787-.4828-.8398 3.8211-1.8518 5.4209-6.8109 4.2956-10.8251 1.1421-.6887 2.3094-2.3851 2.595-3.1577 2.6958-5.6435-2.8848-12.6895-8.9188-9.7922-2.0869-2.7041-5.4125-5.1018-8.9775-4.6483-2.448.4787-4.9129 1.94-6.1138 4.1738-1.0414 2.1122-1.2177 4.6316-.6299 6.9033-4.136.8482-5.5679 4.9338-3.124 8.3056-4.283 1.94-4.9969 9.4731-.991 12.0179-.3821.227-.7558.453-1.1295.688-4.0815 2.78-7.5667 6.236-10.2331 10.38-1.4781 2.39-2.2171 5.178-2.8385 7.899-.97 5.144-1.2388 10.46-.1554 15.595.7348 3.145 2.1499 5.958 3.6574 8.776.0671.13.1301.265.1973.391-.4367 1.415-.9322 2.809-1.3563 4.228-1.0161 3.548-2.2717 7.075-3.3592 10.577-.1428.298-.189.584-.1638.849-.1847.428-.1469.949.2268 1.318 1.8895 1.226 4.0268 2.083 6.1096 2.931v-.013zm30.4388-80.2182h-.0672s.0252-.0126.0378-.0168c.0126.0084.021.0126.0294.0168zm1.6586 26.5592c-.1302.709-.7726 1.18-1.2933 1.625-.4745.239-1.0078.042-1.4445-.193-1.7678-1.059-3.292-2.516-4.3586-4.279-1.9021-3.158-3.544-6.681-6.4749-8.9862.1554-.1134.2981-.2351.4367-.3611 4.1277-1.2933 6.2566-4.6483 7.3399-8.8264.1008-.3317.0966-.655-.1049-.949-.3528-.3569-.7139-.6508-.5165-1.2093.4619-.2183.8608.252 1.1925.5165.9826.7054 1.4445-.3779 1.7594-1.1463.2981-.5081.781-.949 1.3815-1.0204.7936-.0504 1.6208.1512 2.3304.4997.0462.021.0924.0462.1344.0756.1596.3149.2897.6466.3905.9825.4115 1.3731.3065 2.826 0 4.1697-.4367 1.5368-1.3101 2.9015-2.5446 3.8967-.5249.4955-1.1925.5501-1.604 1.1211-.5291 1.0876.4703 2.2045.928 3.1489.0294.038.0587.076.0923.114.021.168.0714.336.126.499.4031 1.411 1.3227 2.621 1.7132 4.048.6047 2.003.9406 4.208.5249 6.274zm48.3142 26.059c.012-.139.029-.269.059-.395.016-.491.134-1.113.21-1.742.541.016 1.096-.059 1.608-.105.029.327.256.634.508.827.382.294.869.424 1.335.546-1.176.516-2.444.852-3.724.869zm-32.8366 25.929c-1.9693.516-3.8841 1.335-5.8408 1.894-4.0479 1.154-8.2259 1.931-12.425 2.112-2.6328-.017-5.2656-.101-7.8941-.311-7.5877-.403-15.0746-2.146-22.0912-4.997-1.0413-.327-2.0113-.995-3.0065-1.49.2982-.697.4115-1.516.6719-2.213.3947-1.478.949-2.906 1.3941-4.372.6466-2.002 1.2639-4.014 1.8601-6.034.8818 1.264 1.8686 2.436 2.9771 3.603 1.751 2.083 4.0521 3.611 6.4582 4.846 3.5607 1.684 7.575 1.969 11.4339 2.183 4.6693-.05 9.5024-.499 13.945-1.906 1.6922-.306 2.1373-.836 2.2087-1.747 1.7594-.411 3.1703-1.747 3.9135-3.384.5501-1.008 1.096-3.96-.3779-4.279.2015-.596.3695-1.075.5837-1.684.55-1.713 1.2261-3.447 1.4108-5.236-.2645-1.377-3.0023-1.839-4.1948-1.932-1.6376-.323-1.9442.525-2.4354 1.886-.5543 1.507-.97 3.065-1.4487 4.594-.4577 1.423-.907 2.847-1.4193 4.249-.4619-.101-.9112-.21-1.3269-.311-1.2345-.336-2.49-.609-3.6951-1.049-1.646-.677-3.2627-1.546-4.6652-2.646-.9783-.735-2.0911-1.285-2.9981-2.112-.9615-1.008-1.9399-2.02-2.8469-3.074-1.0204-1.314-1.835-2.771-2.595-4.249-1.2387-2.343-2.3725-4.774-2.9267-7.382-.2436-.718-.1176-2.024-1.1632-1.995-.4367.042-.7558.433-.7222.865.3863 3.385 1.6922 6.585 3.2081 9.612 1.4528 3.246 3.7833 5.958 6.4161 8.302 1.2639.915 2.5404 1.797 3.7791 2.746 3.313 2.2 7.3063 3.132 11.2072 3.569.0168.206.0294.407.0462.609.063.806.126 1.608.1554 2.418-3.4642.983-7.004 1.659-10.6152 1.747-2.2968.219-4.6861.156-6.9494-.197-1.7846-.227-3.5901-.479-5.2698-1.147-1.625-.617-3.0779-1.578-4.5139-2.54-1.7216-1.243-3.0317-2.935-4.4258-4.518-1.2891-1.583-2.2213-3.397-3.1451-5.207-1.0413-2.024-2.0533-4.039-2.6874-6.16-1.0077-3.821-1.2555-7.839-.76-11.745.252-2.477.6929-4.929 1.5117-7.285 1.0581-3.922 3.8589-7.067 6.6638-9.876 1.9148-1.86 4.1445-3.397 6.4959-4.648 1.5495-.958 3.2585-1.575 5.0389-1.928 4.0269 2.843 5.2194 8.419 8.6668 11.711 1.7804 1.63 4.0311 3.759 6.6009 2.734 1.1547-.58 2.2045-1.591 2.6999-2.792.4157-1.436.4703-2.906.3696-4.376-.2772-1.94-.7265-3.888-1.6922-5.605-.0924-.173-.189-.345-.294-.513.189.067.3821.13.5795.193 3.187 1.029 6.2943 2.28 9.2169 3.922 6.4455 4.212 10.9044 10.683 15.7124 16.54 5.195 5.938 11.976 10.683 19.828 12.169-.025 1.31-.277 2.608-.285 3.918-1.029.525-2.222.659-3.36.726-1.923.009-3.842.025-5.761-.071-3.758.042-7.47-.441-11.106-1.373-1.822-.58-3.737-1.037-5.425-1.823-.219-.092-.437-.184-.647-.289-.634-.597-1.8937-.324-2.1834.877-.4745 2.566-.5165 5.211-.6844 7.815-.1638 2.754-.3444 5.513-.4409 8.276-.1848 2.788-.2856 5.589-.5753 8.373.0168.638-.1806 1.348-.168 2.011v-.008zm-10.6235-12.496c0-.021-.0084-.047-.0084-.072-.0294-.218-.063-.441-.0882-.659-.0168-.143-.021-.273 0-.412.0252-.151.0714-.293.105-.44.0126-.038.0168-.072.0252-.11v-.016c.0252-.156.0294-.357.1595-.471.0126-.012.0168-.016.0294-.025.0126-.008.0168-.017.0294-.017.0126-.008.021-.016.0336-.021.042-.016.0882-.033.1344-.037.0672-.009.1344 0 .1973.037.0168.009.0336.017.0504.034.063.046.1092.117.126.189.0168.042.0168.092.021.134.0714.139.1512.269.2351.399.0462.067.1008.13.1512.193v.009c.042.042.084.088.1302.126.0294.021.0588.046.0882.067.0209.017.0461.025.0713.042h.0168c.0252.012.0546.025.084.038.0168 0 .0294.008.0462.012.4661.009.9406-.143 1.3269-.407-.063.273-.147.55-.2477.819.0126.046.0126.088 0 .134-.0168.071-.063.126-.1218.155-.4703 1.071-1.2681 2.016-2.3515 2.47 0-.051-.0084-.105-.0084-.156-.0294-.197-.042-.407-.0462-.621-.0714-.109-.0797-.248-.0965-.378-.0084-.109-.0168-.214-.0252-.328-.0168-.231-.0462-.457-.0798-.684h.0126zm-6.8402 19.093c.802-.047 1.604-.126 2.4018-.231-.0882 1.15-.2351 2.301-.3485 3.451-.7474.088-1.5033.042-2.2465.16.0966-1.121.1386-2.175.1848-3.275 0-.038.0084-.072.0126-.105zm-3.0401 81.616c2.4564.084 4.8918.088 7.3399.126 1.1337.046 2.259.147 3.3928.156.1302.016.2687.042.4157.063-.1722.928-.3569 1.856-.5417 2.784-2.0659.025-4.1402.037-6.2062.104-1.4066.068-2.8091.198-4.22.185-.0294-1.142-.105-2.28-.1805-3.414zm3.4893 11.917c-.0167-2.041-.4996-4.027-.5206-6.059 1.6544-.071 3.313-.143 4.9674-.218 0 .44.0756.894.105 1.293.3233 1.982 1.2135 4.065 3.0989 4.98-2.6328.109-5.0515.042-7.6507 0zm-19.6094-13.727c-.8021-.05-1.6083-.088-2.4061-.155-1.1841-.168-2.3347-.332-3.5146-.353 0-.016.0126-.025.0168-.042.4871-4.421 1.0204-8.83 1.5579-13.235 1.0665-11.111 1.5536-22.259 2.0197-33.407.2057-5.934.739-11.854.8482-17.796-.0504-3.788-.1008-7.554-.3569-11.329 1.7048-.155 3.3172-1.159 4.1108-2.687.1722-.315.5921-1.113.8902-1.886 4.8667.739 9.7124 1.063 14.6169 1.13 0 .256.0294.516.0336.76.0168.374.0168.777.0126 1.003.0545.895-.4661 2.713.9531 2.646 1.0246-.03 2.003.101 3.0024.017.6046.012.9237-.567.844-1.117.0923-1.256.1679-2.511.1847-3.771 1.2807-.197 2.5572-.437 3.8295-.664 2.0492-.398 4.0563-.915 6.0256-1.524-.1721 1.625-.0293 3.649-.1133 4.556.0798 7.592-.4367 15.146-.5837 22.734-.2687 7.05-.0714 13.932-.928 20.915-.8692 10.54-1.4277 21.159-2.9981 31.619-.147 1.071-.3191 2.137-.4997 3.204-3.8001-.437-7.6758-.256-11.5095-.391-.2604-5.925-.6593-11.837-1.1758-17.745-.6298-6.034-.802-12.102-1.2681-18.148-.0923-1.508-.1511-3.019-.2603-4.527 1.0833-4.921 2.1289-9.851 3.2165-14.776 1.0413-4.657 2.4816-9.213 3.4306-13.886.1595-.953.5836-1.881.571-2.847-.0881-.597-.8062-.966-1.3479-.693-.4619.193-.6508.722-.8146 1.159-.4955 1.373-.7768 2.586-1.1169 3.964-.9322 3.519-1.751 7.058-2.7672 10.552-1.2093 4.98-2.3094 9.989-3.565 14.961-1.4192 6.126-2.7335 12.278-4.4173 18.337-1.898 7.878-4.3208 15.629-6.5211 23.418v.009zm-10.0147.891c1.2933.117 2.5866.298 3.8883.214 1.751.101 3.4978.298 5.2488.399.1343 0 .2687.012.4115.025-.315 1.02-.6215 2.024-.8818 2.964-.0126.042-.021.076-.0336.118-.2352-.013-.4703-.021-.7055 0-2.4228-.281-4.8666-.16-7.2979-.336-.3233-.029-.6718-.097-1.0287-.16.1343-1.07.2645-2.145.3905-3.216zm1.6628 6.328c.1302.012.2645.033.3947.037 1.2093.059 2.4228.173 3.628.265-.2436 1.68.844 3.296 1.8559 4.543-2.0701-.89-4.2116-1.633-6.2439-2.616.0336-.735.1931-1.49.3611-2.229zm2.7294-90.166c2.4564.747 4.938 1.377 7.4658 1.835-.2519.512-.5164 1.016-.844 1.482-.7642 1.062-1.9777 1.789-3.2626 2.024-.2982-.021-.6131.071-.8104.306-.4955.849-.231 1.974-.2856 2.915.0504 1.515.0714 2.956.0294 4.459-.0168 4.304-.0588 8.57-.3443 12.866-.1806 5.16-.3863 10.321-.6508 15.477-.4116 8.541-.6677 17.09-1.4487 25.606-.1554 1.936-.4073 3.872-.6257 5.795-.3191 2.498-.4283 4.997-.8986 7.436-.0965.697-.2687 1.386-.3737 2.083 0 .029.0126.046.0126.071-.6004-.058-1.2009-.147-1.7972-.239-.1091-.025-.2225-.046-.3443-.059.4619-3.808.9154-7.625 1.3437-11.442.9616-12.971 1.4361-25.975 1.898-38.976.3149-8.801 1.0497-17.589.8692-26.403.042-1.499.042-3.049.0546-4.493-.021-.235-.0084-.491.0126-.747h.0084zm25.2361 96.678c-.0168-2.04-.4996-4.027-.5206-6.059 1.6544-.071 3.313-.143 4.9632-.218 0 .441.0756.894.105 1.293.3233 1.982 1.2135 4.065 3.0989 4.98-2.6328.109-5.0515.042-7.6507 0z" fill="#293541"/><path d="m79.651 87.3692c.6467.0462 1.2891.1889 1.9148.3611.613.3611.2981 1.2345.3485 1.8224-.0756 1.1463.0294 2.3514-.2394 3.4642-.2057.3695-.8062.3359-.9825-.0378-.1302-.2645-.0504-.5837-.0336-.865.0714-1.1589.1428-2.3179.1847-3.4768-.4619-.1638-.9699-.2393-1.4108-.4283-.3695-.2183-.231-.8398.2225-.8314v-.0126z" fill="#293541"/><path d="m79.7066 88.6458c.5962-.0462.5626.9784-.0168.9532-.6971-.021-.5711-.8524.0168-.9532z" fill="#293541"/><path d="m77.4687 92.4879c.0377-.1554.1469-.2813.2981-.3359.2645-.084.4493.0336.676.1889.3569.2394.7433.4535 1.0414.7601.2561.2729.1176.718-.2435.8146-.1848.1553-.4284.2897-.6761.3233-.9532.1763-1.5242-.9784-1.0959-1.751z" fill="#293541"/><path d="m79.493 93.1063h-.0092s0-.0092-.0092-.0138c0 0 .0092.0138.0184.0184z" fill="#293541"/><path d="m54.7642 153.063c1.4487 1.277 3.1115 2.31 4.8247 3.196 3.5608 1.683 7.575 1.969 11.4339 2.183 4.6694-.05 9.5025-.5 13.945-1.906 1.6922-.307 2.1373-.836 2.2087-1.747 1.7594-.412 3.1703-1.747 3.9135-3.385.5501-1.007 1.096-3.959-.3779-4.278.2016-.597.3695-1.075.5837-1.684.5501-1.713 1.2261-3.448 1.4109-5.236-.2646-1.378-3.0024-1.84-4.1949-1.932-1.6376-.323-1.9441.525-2.4354 1.885-.5543 1.508-.97 3.066-1.4487 4.594-.4577 1.424-.907 2.847-1.4193 4.25-.4619-.101-.9111-.215-1.3269-.311-1.2345-.336-2.49-.609-3.6951-1.05-1.646-.676-3.2627-1.545-4.6651-2.645-.9784-.735-2.0912-1.285-2.9981-2.112-.9616-1.008-1.94-2.02-2.847-3.074-1.0204-1.314-1.835-2.771-2.595-4.25-1.2387-2.343-2.3724-4.774-2.9267-7.377-.2394-.718-.1176-2.024-1.1631-1.995-.4367.042-.7559.433-.7223.865.3863 3.385 1.6922 6.584 3.2081 9.612 1.4528 3.246 3.7833 5.958 6.4161 8.301 1.2639.916 2.5404 1.798 3.7791 2.747 3.3131 2.2 7.3064 3.132 11.2073 3.569.0168.205.0293.407.0461.609.063.806.1302 1.608.1554 2.418-3.4642.983-7.004 1.655-10.6151 1.747-2.2969.218-4.6862.155-6.9495-.197-1.7845-.227-3.5901-.479-5.2697-1.151-1.6251-.617-3.0779-1.579-4.514-2.54-.8356-.605-1.5704-1.31-2.2633-2.058.1554-2.204.0924-6.21-1.8266-9.561-2.8049-4.913-2.8049-11.694 2.108-20.349 2.6663-4.694 7.6086-12.282 14.9317-14.205 1.3437 2.314 2.5488 4.749 4.4048 6.525 1.7804 1.63 4.0311 3.759 6.6009 2.734 1.1547-.584 2.2045-1.591 2.7-2.792.3023-1.05.4115-2.113.4115-3.183 2.9729 2.024 6.16 4.959 9.5654 9.049 11.0017 13.189 23.8417 17.325 33.6137 18.261-.072.706-.152 1.415-.156 2.125-1.029.525-2.221.659-3.359.722-1.919.009-3.842.025-5.761-.071-3.758.046-7.47-.441-11.107-1.373-1.822-.58-3.737-1.037-5.425-1.823-.218-.092-.436-.184-.646-.289-.634-.597-1.8941-.324-2.1839.877-.4745 2.566-.5165 5.211-.6844 7.815-.1638 2.754-.3443 5.513-.4409 8.276-.1848 2.788-.2855 5.589-.5753 8.373.0168.634-.1805 1.348-.1679 2.011-1.9694.517-3.8841 1.335-5.8409 1.894-4.0479 1.155-8.2259 1.931-12.4249 2.112-2.6328-.017-5.2656-.101-7.8942-.311-6.9998-.373-13.9156-1.898-20.4493-4.371l3.8925-9.486v-.008z" fill="#b6b5db"/><path d="m52.1445 259.08c2.0324.979 4.1697 1.722 6.244 2.616-1.0078-1.251-2.0995-2.868-1.856-4.547-1.2093-.093-2.4186-.206-3.6279-.265-.1344 0-.2646-.025-.3948-.038-.1679.739-.3317 1.495-.3611 2.23z" fill="#293541"/><path d="m217.783 123.158c-.424 1.574-.235 3.279-.29 4.908.05.731-.172 1.562.269 2.201.735.991 2.326.361 2.238-.853-.139-1.969-.059-4.077-.097-6.084-.214-1.016-1.742-1.134-2.124-.172z" fill="#fad209"/><path d="m229.461 126.777c-.601-.264-1.185.135-1.676.45-.785.508-1.528 1.066-2.272 1.629-.608.487-1.264.911-1.864 1.402-.269.286-.361.639-.281 1-.135.504.172.978.642 1.146 1.243.252 2.667-1.411 3.603-2.112.836-.865 3.737-2.284 1.843-3.506z" fill="#fad209"/><g fill="#fff"><path d="m323.708 174.785c4.3 1.797 6.714 6.92 5.442 11.371-1.134 4.052-5.433 7.004-9.637 6.37-1.7-.261-3.124-1.147-4.467-2.138-2.629 3.07-8.373 1.302-10.532-1.549-1.843-2.272-1.541-8.407-5.87-6.273-3.93 2.54-8.495 2.611-9.998-2.558-.718-2.376.424-4.85-.248-7.209-.541-2.113-3.56-2.873-5.164-1.508-.286.214-.5.483-.689.777 1.109 1.193 1.948 2.662 2.49 4.119.584 1.629.764 3.183.962 4.783.037.147.071.29.105.437.613 2.981.403 3.901-2.877 4.144-1.012-.029-2.036-.071-2.935-.609-.982-.592-1.805-1.688-1.973-2.826.016-.806 1.457-1.835.432-2.507-.491-.235-.982.097-1.457.206-.899.13-1.213-.726-1.339-1.448-.16-.517-.551-.941-.987-1.243-1.256-1.159-2.927.126-4.342-.433-.302-.113-.542-.294-.714-.516-.294-.156-.491-.609-.399-1.063.366-4.161 6.786-6.718 10.3-5.06.16-.474.353-.911.5-1.23 1.016-2.322 3.124-4.237 5.698-4.56 4.09-.882 5.467 2.591 7.328 5.345 1.566 1.81 3.153.508 4.136-1.066 1.356-2.108 3.254-3.993 5.769-4.565 3.422-.873 7.449.567 9.242 3.67 1.155 2.18 1.041 4.875 2.36 6.971 1.117 1.553 3.074.415 4.531.096 1.415-.331 2.952-.466 4.333.08z"/><path d="m329.78 236.414c-.013-.235-.042-.47-.101-.693-.412-2.54-.626-5.106-1.252-7.609-1.175-5.148-2.989-10.119-5.227-14.894-1.147-2.565-2.385-4.971-4.044-7.31-1.999-3.141-4.275-6.009-7.306-8.281-2.012-1.461-4.01-2.939-6.295-3.972-2.989-1.251-6.038-2.481-9.179-3.355-1.755-.411-3.552-.89-5.366-1.016-.114-.122-.269-.248-.466-.374-.651-.378-1.411-.554-2.028-.987-1.264-.94-1.781-2.49-2.238-3.942-1.122-3.641-.735-7.794-3.175-10.952-3.044-3.724-9.418-3.481-12.341.269-1.659 2.557-2.889 5.505-2.767 8.596-.042 2.339.584 5.11 2.116 6.97-.059 0-.122 0-.18 0-1.697-.05-3.393-.239-5.085-.361-5.782-.353-11.493-1.554-16.918-3.578-.567-.336-1.184-.369-1.65-.18-.185 0-.357.054-.509.13-.579-.378-1.238-.651-1.839-.97-1.142-.579-2.322-1.247-3.523-1.831-2.998-1.797-5.996-3.867-7.927-6.84-2.411-4.602-3.23-9.691-3.771-14.844-.181-1.751-.345-3.493-.357-5.257-.093-2.074-.302-4.48-.109-6.634-.059-2.112.533-4.174.495-6.278-.021-.907-1.092-1.423-1.864-.974-.445.248-.815.609-1.277.836.034-1.39-.222-3.011-.088-4.443.029-.613-.416-1.188-1.029-1.293-1.725-.193-3.09 3.019-3.859 4.325-1.65 3.183-2.477 6.794-2.926 10.338 0 0 0-.042.008-.059-.89 5.727-.97 11.413-.386 17.224.411 4.598 1.205 9.138 2.536 13.563 2.121 6.223 5.341 12.329 9.586 17.405 1.915 2.192 3.855 4.38 6.278 6.03-.491 1.289-.924 2.591-1.096 3.951.038.727.571 1.277 1.197 1.575 1.226.802 2.444 1.612 3.741 2.297 1.957 1.159 3.846 2.414 5.707 3.72 1.075 7.286.495 14.709.877 22.045.13 5.14.441 10.267.643 15.398.109 2.641.147 5.282.176 7.928.038.541-.067 1.117-.017 1.658-.008.588-.084 1.206.13 1.76.223 1.167 1.403 1.323 2.406 1.369 1.407.113 2.81.184 4.22.247 4.279.387 8.558.441 12.849.324-2.448.428-4.933.655-7.398.978-2.285.336-4.875.231-7.214.281-2.045-.138-4.174-.105-6.106-.894-.814-.332-1.612-.831-2.515-.882-3.195.084-3.031 2.532-1.398 4.544-1.835.323-3.888-.307-5.56.793-1.57 1.151 0 3.317 1.361 3.889 3.149.97 6.277 2.091 9.532 2.721 4.157.869 8.41 1.2 12.651 1.104 5.568.054 11.056-.517 16.582-1.243 6.58-.773 13.257-2.268 19.652-4.094 6.202-1.831 12.395-3.947 17.812-7.575 4.598-2.893 8.78-6.727 10.922-11.846 1.612-3.581 2.922-7.44 2.809-11.417.063-1.57-.105-3.187-.584-4.699.66-.264 1.31-.537 1.89-.856.781-.239 1.205-1.176.802-1.852l-.017.017zm-5.287 4.442c.47 2.495.348 5.413-.412 7.882-1.276 4.825-3.527 9.687-7.495 12.891-3.691 3.074-7.974 5.639-12.45 7.462-5.576 2.192-11.258 3.695-17.094 5.118-16.007 3.133-33.223 6.076-48.831-.13 1.919-.432 4.644.021 5.799-1.982.109-.285.042-.625-.13-.865-.374-.558-.672-1.163-.974-1.763.856.1 1.566.688 2.393.928 1.764.604 3.637.751 5.48.873 1.78.126 3.556-.038 5.337 0 3.061-.084 6.084-.672 9.133-.966 5.555-1.049 11.136-2.234 16.372-4.417.294-.101.575-.21.865-.315 5.013-1.356 9.754-3.548 13.815-6.916 2.133-1.503 3.934-3.246 5.744-5.211 1.26-1.499 1.877-3.435 2.339-5.312 6.433-2.91 13.063-4.912 19.55-7.772.131-.059.278-.113.416-.168.055.227.105.449.13.672l.009-.009z"/><path d="m271.845 185.391c1.079.047.899-1.305 1.008-2.032.122-1.197.344-2.389.424-3.59.504.017 1.008.084 1.516.101.726-.025.835-1.084.13-1.252-.798-.142-1.675-.298-2.469-.084-.433.202-.42.672-.533 1.088-.29 1.373-.592 2.738-.744 4.132-.084.609-.134 1.541.672 1.642z"/><path d="m274.431 181.365c.849.907 2.045-.739.811-1.159-.639-.156-1.281.609-.811 1.159z"/><path d="m274.155 185.555c-.366.219-.126.638.042.92.239.491.646.89 1.217.961.601.135 1.184-.369 1.365-.923.21-.677-.025-1.487-.47-2.041-.16-.126-.391-.084-.542.042-.529.357-1.075.709-1.621 1.045z"/></g><path d="m257.766 210.51c-4.762-2.041-14.848-7.747-17.262-9.125-1.008 2.323-1.902 4.687-2.604 7.118 2.516 1.751 5.22 3.053 7.697 4.812 2.553 1.575 2.805 2.032 3.103 5.018.487 4.531.403 9.25.433 13.722 0 5.367.214 10.498.441 15.826.159 4.069.34 8.142.357 12.215.021 1 .063 1.995.071 2.994.013.361.021.744-.076 1.088 4.04.168 8.058.6 12.098.76 0 0 1.176-52.114-4.254-54.441v.009z" fill="#f3fafb"/><path d="m274.974 177.107c.441.298.823.726.987 1.243.126.722.445 1.578 1.34 1.448.47-.113.965-.441 1.457-.205 1.024.671-.416 1.7-.433 2.506.168 1.143.987 2.234 1.974 2.826.894.538 1.919.58 2.935.609.399-.029.756-.071 1.066-.122-.373-1.083-.634-2.208-.84-3.233-.298-1.574-.323-3.2-.781-4.745-.558-1.297-1.125-2.763-2.355-3.565-1.915-1.373-4.716-1.36-6.681-.101-1.071.668-1.705 1.89-2.221 3.049 1.218.025 2.528-.668 3.556.286z" fill="#293541"/><path d="m288.655 180.004c1.499 5.169 6.067 5.098 9.998 2.557 4.329-2.137 4.022 4.002 5.87 6.274 2.158 2.855 7.902 4.619 10.531 1.549 1.344 1 2.767 1.881 4.468 2.137 4.199.63 8.499-2.317 9.632-6.369 1.273-4.447-1.146-9.57-5.442-11.371-1.381-.546-2.918-.412-4.333-.08-1.457.323-3.414 1.461-4.531-.097-1.318-2.091-1.205-4.791-2.36-6.97-1.788-3.103-5.824-4.548-9.242-3.67-2.519.571-4.413 2.456-5.769 4.564-.983 1.575-2.57 2.877-4.136 1.067-1.856-2.759-3.234-6.232-7.328-5.346-2.574.328-4.682 2.234-5.698 4.561-.147.314-.336.751-.499 1.23-3.515-1.655-9.935.898-10.301 5.06-.025.13-.021.264 0 .39.374-.756.79-1.486 1.243-2.192 2.919-3.754 9.293-3.993 12.337-.268 2.444 3.161 2.058 7.314 3.175 10.951.008.025.016.05.025.075.155-.621.05-1.478-.193-2.666-.038-.143-.072-.29-.105-.437-.198-1.6-.378-3.158-.962-4.783-.537-1.457-1.381-2.926-2.49-4.119.185-.294.403-.558.689-.777 1.608-1.364 4.623-.608 5.164 1.508.672 2.364-.47 4.833.248 7.21z" fill="#293541"/><path d="m287.051 274.209c5.836-1.423 11.513-2.931 17.09-5.118 4.476-1.823 8.759-4.388 12.45-7.462 3.968-3.2 6.219-8.062 7.495-12.891.756-2.465.874-5.387.412-7.882-.026-.222-.08-.445-.131-.671-.134.054-.285.109-.411.168-1.78.781-3.569 1.499-5.362 2.191-2.066 10.133-3.817 12.619-20.403 23.935-16.96 11.577-59.962 7.596-59.962 7.596 15.612 6.21 32.828 3.263 48.83.13z" fill="#f3fafb"/><path d="m329.779 236.414c-.012-.235-.042-.47-.101-.693-.411-2.536-.625-5.106-1.251-7.609-1.176-5.148-2.99-10.119-5.228-14.894-1.146-2.565-2.385-4.971-4.043-7.31-1.999-3.141-4.275-6.009-7.307-8.281-2.011-1.461-4.01-2.939-6.294-3.972-2.99-1.251-6.038-2.482-9.183-3.355-1.755-.411-3.553-.89-5.362-1.016-.114-.122-.269-.248-.467-.374-.65-.378-1.41-.554-2.028-.987-1.238-.923-1.759-2.435-2.217-3.867-.008-.025-.017-.05-.025-.075-1.121-3.641-.735-7.794-3.174-10.952-3.045-3.724-9.419-3.481-12.337.269-.454.701-.874 1.436-1.243 2.192-.983 1.995-1.608 4.161-1.524 6.408-.042 2.339.583 5.11 2.116 6.97-.059 0-.122 0-.181 0-1.696-.05-3.392-.239-5.085-.361-5.782-.353-11.492-1.554-16.918-3.577-.566-.336-1.184-.37-1.65-.181-.185 0-.357.055-.508.13-.579-.378-1.239-.651-1.839-.97-1.142-.579-2.318-1.247-3.523-1.831-2.998-1.797-5.996-3.867-7.928-6.84-2.41-4.602-3.229-9.691-3.771-14.843-.18-1.751-.344-3.494-.356-5.258-.093-2.074-.303-4.48-.11-6.634-.058-2.112.534-4.174.5-6.278-.021-.907-1.092-1.423-1.864-.974-.441.248-.815.609-1.277.836.034-1.39-.222-3.011-.088-4.443.029-.613-.416-1.188-1.029-1.293-1.726-.193-3.09 3.019-3.859 4.325-1.65 3.183-2.477 6.794-2.926 10.338 0 0 0-.042.008-.059-.89 5.728-.97 11.413-.386 17.225.415 4.597 1.205 9.137 2.536 13.562 2.12 6.223 5.341 12.329 9.586 17.405 1.915 2.192 3.855 4.38 6.274 6.03-.492 1.289-.924 2.591-1.096 3.952.038.726.571 1.276 1.196 1.574 1.227.802 2.444 1.613 3.742 2.297 1.957 1.159 3.846 2.414 5.706 3.72 1.075 7.286.496 14.71.878 22.045.13 5.14.441 10.267.642 15.398.109 2.641.147 5.283.177 7.928.037.542-.068 1.117-.013 1.659-.008.587-.084 1.205.13 1.759.223 1.167 1.403 1.323 2.402 1.369 1.407.113 2.809.185 4.22.248 4.279.386 8.558.44 12.849.323-2.448.428-4.934.655-7.399.978-2.284.336-4.875.231-7.213.282-2.045-.139-4.174-.105-6.102-.895-.814-.331-1.612-.831-2.515-.882-3.195.084-3.032 2.532-1.398 4.544-1.835.323-3.888-.307-5.56.793-1.57 1.151 0 3.318 1.361 3.889 3.149.97 6.277 2.091 9.532 2.721 4.157.869 8.41 1.201 12.655 1.104 5.568.055 11.057-.516 16.582-1.243 6.58-.772 13.257-2.267 19.652-4.094 6.202-1.831 12.396-3.947 17.812-7.575 4.598-2.893 8.78-6.727 10.922-11.845 1.612-3.582 2.922-7.441 2.809-11.418.063-1.57-.105-3.187-.584-4.698.66-.265 1.311-.538 1.89-.857.781-.239 1.205-1.176.802-1.852l-.013.017zm-58.765-58.673c.13-.294.264-.605.403-.92.516-1.159 1.15-2.381 2.221-3.048 1.965-1.264 4.77-1.281 6.681.1 1.23.807 1.797 2.268 2.355 3.565.454 1.546.483 3.171.781 4.745.206 1.025.471 2.15.84 3.234.66 1.914 1.672 3.699 3.393 4.539-1.726.907-3.174 2.339-4.308 3.917-1.419 2.23-4.325 4.934-7.092 3.381-1.126-.844-1.608-2.276-2.163-3.528-.306-.877-.478-1.7-.583-2.649-.009-.059-.017-.113-.026-.172.933.096 2.062.012 2.717-.727.571-.68-.134-1.784-.991-1.528-2.523.831-4.249-2.238-4.64-4.342-.34-2.196-.462-4.438.412-6.559zm-34.332 24.917c-.877-.571-1.641-1.289-2.385-2.037-2.632-2.67-4.984-5.601-6.886-8.843-1.978-3.481-3.599-7.18-4.913-10.972-2.633-9.15-3.544-18.896-2.221-28.364.407-4.115 1.066-8.306 3.178-11.926.068 1.26-.016 1.575.089 2.692.159 1.428 1.83 1.449 2.855.932-.848 5.87-.348 11.812.147 17.716.416 4.816 1.356 9.54 3.527 13.924 2.028 3.598 5.358 6.34 8.911 8.36 1.809.852 3.636 1.743 5.551 2.335-.042.088-.093.176-.135.252-1.243 2.271-2.519 4.518-3.569 6.886-1.344 2.734-2.826 5.413-3.863 8.289-.088.252-.181.504-.273.752v.008zm7.328 69.439c.109-.285.046-.625-.13-.865-.374-.558-.672-1.163-.975-1.763.857.1 1.567.688 2.394.928 1.763.604 3.636.751 5.48.873 1.78.126 3.556-.038 5.337 0 3.061-.084 6.084-.672 9.132-.966 5.556-1.05 11.136-2.234 16.373-4.417.293-.101.575-.214.865-.315 5.013-1.356 9.754-3.548 13.819-6.916 2.133-1.503 3.934-3.246 5.744-5.211 1.26-1.499 1.877-3.435 2.339-5.312 4.669-2.112 9.439-3.749 14.188-5.58 1.793-.693 3.582-1.407 5.362-2.192.131-.059.278-.113.412-.168.054.227.105.449.13.672.47 2.494.349 5.412-.411 7.881-1.277 4.825-3.528 9.688-7.496 12.891-3.691 3.074-7.974 5.64-12.45 7.462-5.576 2.192-11.257 3.695-17.09 5.119-16.007 3.132-33.223 6.076-48.83-.13 1.918-.433 4.644.021 5.798-1.982zm83.149-35.822c-.05.021-.101.042-.151.063-3.019 1.008-5.95 2.234-8.923 3.355-3.779 1.315-7.537 2.671-11.27 4.107-1.462.525-2.885 1.121-4.254 1.852-.26.113-.558.319-.756.634-.638 1.364-.667 2.977-1.495 4.279-2.036 2.922-4.967 5.131-7.764 7.323-6.907 4.85-15.456 6.441-23.762 6.84-2.259.076-4.518.155-6.777.222-4.04-.159-8.058-.592-12.098-.76.101-.348.089-.726.076-1.091-.008-1-.05-1.995-.071-2.994-.017-4.073-.198-8.146-.357-12.215-.231-5.329-.441-10.468-.441-15.826-.03-4.472.054-9.192-.433-13.723-.298-2.985-.55-3.443-3.103-5.018-2.477-1.763-5.181-3.061-7.697-4.812.702-2.431 1.6-4.799 2.604-7.117.957-2.209 2.015-4.38 3.107-6.525 1.025-2.507 2.461-4.825 3.519-7.307.474.214.978.387 1.436.58 6.79 2.679 14.348 3.577 21.667 3.779.34-.017.689-.009 1.033-.017.071 2.095.898 4.174 1.99 5.933 1.21 1.978 3.721 2.73 5.908 2.146 2.091-.605 3.935-1.919 5.253-3.645.748-.966 1.411-2.12 2.352-2.943 1.944-1.722 2.389-1.848 4.883-1.348 2.436.521 4.833 1.201 7.151 2.125 6.551 2.212 12.946 5.887 16.973 11.648 4.824 6.391 7.827 14.024 9.691 21.776.668 2.318 1.138 4.686 1.47 7.079.063.492.176.979.231 1.47v.139h.016z" fill="#293541"/><path d="m274.919 178.618c-.798-.142-1.675-.298-2.469-.084-.432.202-.42.672-.533 1.088-.29 1.373-.592 2.738-.744 4.132-.084.609-.134 1.541.672 1.642 1.079.046.899-1.306 1.008-2.033.122-1.196.344-2.389.424-3.59.504.017 1.008.084 1.516.101.726-.025.836-1.083.126-1.251z" fill="#293541"/><path d="m274.431 181.365c.849.907 2.045-.739.811-1.159-.639-.156-1.281.609-.811 1.159z" fill="#293541"/><path d="m275.771 184.51c-.529.357-1.074.709-1.62 1.045-.366.219-.126.638.042.92.239.491.646.89 1.217.961.601.135 1.184-.369 1.365-.923.21-.677-.025-1.487-.47-2.041-.16-.126-.391-.084-.542.042z" fill="#293541"/><path d="m339.589 266.454c-1.243.008-2.432-.634-3.179-1.613-.613-.89-2.616-3.266-.907-3.917.999-.185 1.478.932 2.066 1.537.722.978 1.755 1.226 2.906.957 2.62-.437 3.132-5.362 2.674-7.483-.281-1.444-.852-3.136-1.301-4.476-1.428-4.606-2.436-9.456-2.419-14.293.046-3.758 1.373-7.668 4.128-10.301 4.081-3.422 10.115-3.623 12.366 1.911 1.721 4.178 1.335 8.65 2.095 13.004.441 1.999 1.176 4.107 2.805 5.447 3.389 2.246 6.395-.404 6.5-4.04.37-4.212-1.524-8.465-.214-12.61 1.634-5.416 7.647-7.856 11.409-2.817.462.495.924.987 1.423 1.44.714.622 1.789 1.466 1.159 2.507-1.167 1.6-3.023-.315-4.031-1.184-1.696-1.629-2.792-3.498-5.249-1.646-2.385 2.242-2.007 5.752-1.532 8.688.361 2.989.676 6.147-.37 9.04-2.666 6.513-10.737 6.042-13.663 0-2.52-4.846-1.432-10.544-2.923-15.662-1.213-4.199-4.51-3.977-7.55-1.688-1.469 1.453-2.305 3.455-2.784 5.442-.567 3.111-.105 6.315.412 9.397.403 2.163.831 4.317 1.495 6.416.718 2.255 1.469 4.518 1.524 6.853 0 4.157-1.802 9.477-6.832 9.104v-.013z" fill="#7ebed0"/><path d="m335.435 207.852c1.398-3.573 5.732-5.005 9.297-4.627 2.855.134 5.568 1.268 8.436 1.247 2.296-.008 4.711-.953 5.979-2.952 1.268-2.368 1.025-5.182.773-7.768-.328-1.709-.886-3.376-1.113-5.106-.185-1.81-.009-3.792 1.029-5.333 1.007-1.335 2.175-2.473 3.573-3.355 1.768-1.088 3.913-1.344 5.937-1.033 2.721.101 5.119 1.671 6.555 3.956.895 1.221 1.655 2.662 1.524 4.224.055.428-.226.898-.726.945-.416.042-.819-.269-.882-.685-.672-1.31-1.482-2.54-2.561-3.557-.949-.932-2.112-1.612-3.464-1.654-1.285-.13-2.642-.248-3.859.269-1.352.634-2.469 1.738-3.347 2.931-.483.987-.504 2.162-.37 3.233 1.067 4.619 2.146 9.746 0 14.222-2.301 4.38-7.848 5.753-12.412 4.753-3.565-.68-7.932-2.095-10.896.79-.723.831-.597 1.965-.979 2.927-.411.919-1.721 1.096-2.389.352-.852-.978-.441-2.649-.101-3.783z" fill="#dcedf2"/><path d="m287.276 193c-.159.134-.323.269-.504.437-.949.823-1.608 1.978-2.351 2.943-1.323 1.726-3.162 3.045-5.253 3.645-2.184.58-4.695-.168-5.908-2.146-.151-.243-.294-.487-.433-.739-9.867 1.537-21.054-2.078-27.936-4.946-.453.894-.894 1.797-1.272 2.725-1.092 2.142-2.15 4.312-3.107 6.521-1.008 2.322-1.903 4.686-2.604 7.117 2.515 1.751 5.22 3.049 7.697 4.813 2.553 1.574 2.805 2.032 3.103 5.017.487 4.531.403 9.251.433 13.723 0 5.366.214 10.497.445 15.826.159 4.069.34 8.142.357 12.215.021.999.063 1.999.075 2.994.013.361.021.743-.075 1.087 4.039.168 8.058.601 12.097.761 2.259-.068 4.518-.147 6.777-.223 8.302-.403 16.855-1.995 23.763-6.844 2.796-2.197 5.727-4.405 7.764-7.324.827-1.305.856-2.914 1.494-4.278.194-.315.496-.521.756-.634 1.369-.731 2.793-1.323 4.254-1.852 3.733-1.436 7.491-2.793 11.27-4.107 1.6-.605 3.187-1.234 4.783-1.852-.693-32.282-26.055-42.276-35.595-44.892l-.013.009z" fill="#e98059"/><path clip-rule="evenodd" d="m127.935.351625c.817.238893 2.005.607261 3.495 1.127135l-.415 1.18943c-1.468-.51231-2.635-.87418-3.433-1.10748-.399-.11665-.706-.20115-.912-.25622-.102-.02754-.18-.04772-.232-.06089-.025-.00658-.045-.01142-.057-.01454l-.014-.0034-.003-.00075v-.00013s0 .00001.15-.611787c.149-.61180133.149-.61178756.149-.61177214l.002.00048034.005.00114279.017.00420153c.014.00365788.036.00903688.064.01617988.056.014286.138.0356285.245.0643717.215.0574849.531.1445769.939.2640279zm12.717 4.885375c2.708 1.25776 5.689 2.77778 8.831 4.59675l-.631 1.09015c-3.106-1.79836-6.054-3.30111-8.731-4.54439zm17.224 9.9793c2.594 1.836 5.225 3.8722 7.843 6.1258l-.822.9546c-2.585-2.226-5.186-4.2378-7.748-6.0523zm15.063 12.9895c2.224 2.3371 4.4 4.8528 6.492 7.5586l-.997.7704c-2.064-2.6702-4.211-5.1532-6.408-7.4605zm12.167 15.7522c1.701 2.754 3.308 5.6689 4.794 8.7529l-1.135.5468c-1.467-3.0437-3.052-5.9201-4.731-8.6376zm8.649 17.9166c1.1 3.0313 2.085 6.202 2.939 9.5177l-1.22.314c-.844-3.2767-1.817-6.4087-2.903-9.402zm4.981 19.2562c.521 3.1803.926 6.4782 1.202 9.8976l-1.255.1014c-.274-3.3856-.675-6.6493-1.191-9.7951zm1.629 19.8042c.011 1.648-.006 3.321-.054 5.02-.052 1.89-.152 3.752-.297 5.584l-1.256-.099c.144-1.811.242-3.651.294-5.52.047-1.685.064-3.343.053-4.976zm-1.827 21.668c-.71 3.744-1.617 7.351-2.7 10.822l-1.203-.375c1.069-3.426 1.964-6.986 2.665-10.682zm-6.643 21.258c-1.545 3.454-3.27 6.753-5.148 9.898l-1.082-.645c1.854-3.104 3.556-6.359 5.08-9.767zm-11.411 19.132c-2.288 2.991-4.716 5.814-7.254 8.473l-.911-.869c2.507-2.628 4.905-5.416 7.164-8.37zm-15.361 16.13c-2.869 2.445-5.822 4.712-8.826 6.806l-.72-1.033c2.971-2.072 5.893-4.314 8.728-6.732zm-18.259 12.748c-3.315 1.88-6.644 3.563-9.943 5.052l-.518-1.148c3.264-1.474 6.559-3.139 9.84-4.999zm-20.3 9.155c-3.707 1.265-7.309 2.277-10.734 3.042l-.274-1.23c3.377-.754 6.935-1.753 10.601-3.004zm-21.784 4.717c-1.995.14-3.871.169-5.6062.089l.0584-1.259c1.6798.078 3.5068.051 5.4598-.086z" fill="#22a54a" fill-rule="evenodd"/><path d="m130.809 87.8354c1.524.5836 2.515-.9028 3.372-1.9064 1.499-1.8434 2.771-3.8631 4.157-5.7905 2.162-3.6153 4.182-7.4071 5.585-11.4003 1.528-4.6946 2.313-9.4017 2.695-14.3523 1.134-10.2499-6.386-18.5472-16.863-17.2539-4.337.3863-8.209 2.8848-10.989 6.1642-1.301 1.5411-1.364 3.6448-2.087 5.4336-1.243 4.0142-1.02 8.4526-.411 12.5719.781 4.7155 2.931 8.5618 5.194 12.8364 1.793 3.691 3.972 7.151 6.425 10.443.965 1.0918 1.41 2.6874 2.93 3.2543zm-9.523-24.8877c-.042-.1554-.093-.3107-.13-.4661h.029c.046.1428.109.2813.155.4241-.021.0126-.038.0294-.054.042zm3.367-10.7327c.231-1.0498.496-2.1625.949-3.1619.739-1.1841 1.751-2.1541 3.238-2.6832.546-.2813 1.062-.5123 1.566-.7054 3.191-.2688 6.08 2.3682 7.206 5.4923.953 1.5242.747 3.6993.608 5.4671-.331 3.8842-2.099 8.9188-6.58 9.3261-5.958.0882-8.02-9.0783-6.983-13.7392z" fill="#22a54a"/></g></svg>