<svg fill="none" height="194" viewBox="0 0 307 194" width="307" xmlns="http://www.w3.org/2000/svg" xmlns:xlink="http://www.w3.org/1999/xlink"><clipPath id="a"><path d="m0 0h307v194h-307z"/></clipPath><g clip-path="url(#a)"><path d="m209.905 194c53.622 0 97.091-43.428 97.091-97 0-53.5716-43.469-97-97.091-97s-97.091 43.4284-97.091 97c0 53.572 43.469 97 97.091 97z" fill="#fbe4dd"/><path d="m238.443 145.878-169.0094 1.648 66.2904-80.2081h102.719z" fill="#fff"/><path d="m282.468 157.194c-6.044-.616-23.034.136-23.034.136s-.031.019-.085.058c-2.197 2.404-5.213 3.87-9.188 3.587-.322.047-.648.07-.978.035-1.397.128-2.795.074-4.161-.209-.485.007-.974-.02-1.429-.163-.046-.016-.089-.035-.132-.058-.019 0-.038.004-.058.004-.046 0-.089 0-.136-.008-.873-.097-1.742-.183-2.6-.384-.412-.101-.831-.151-1.242-.252-.241-.058-.482-.128-.715-.21-.256-.085-.496-.209-.737-.325-.085-.035-.175-.062-.225-.074-.598-.175-1.18-.38-1.743-.632-.45-.206-.873-.485-1.262-.787-.376-.291-.729-.605-1.075-.935l-62.432-.198c-1.979 2.637-4.82 5.111-8.229 5.181-1.288.245-2.627.182-3.939.19-2.046-.05-4.041-.302-6.075-.368-1.114-.07-2.259-.023-3.35-.268-.043-.019-.078-.058-.116-.081-.21-.031-.423-.093-.637-.171 0 0-.008 0-.012-.004-1.797-.655-3.598-2.796-4.766-4.463l-37.753-.497c-1.44.846-3.047 1.42-4.689 1.68-.275.077-.524.135-.694.17-2.7331.663-5.5628.718-8.3614.621-2.8142.011-5.6517-.497-8.2446-1.598-.0543-.027-.1048-.058-.1552-.085l-10.9462-.256s-20.0174 4.82.0233 8.892c20.0408 4.072 203.1671 3.238 210.4721-.279 7.301-3.514 4.747-7.636-1.296-8.257z" fill="#f7f7f7"/><path d="m131.236 88.5149c4.887-.031 9.798.0078 14.669.3762 1.778.128 3.552.221 5.329.2908l22.902-21.263c-1.797.0621-3.595.1203-5.392.1552-4.029.0038-8.062 0-12.091.062l-19.365 15.5856-6.048 4.7932z" fill="#e0f1e5"/><path d="m125.706 90.6322c.031.0155.055.0427.086.0543 4.215.6438 8.547.3839 12.817.4964 4.821.0155 9.626.4886 14.443.5972 3.897.0892 7.744-.0465 11.645-.1163.582-.0194.951-.3413 1.11-.7407.039-.0233.082-.0388.117-.066 1.68-1.9196 2.965-4.1765 4.522-6.2008 1.696-2.2764 3.369-4.5683 4.953-6.9261 2.321-3.2924 4.421-6.74 6.944-9.885.407-.4925.365-1.2138.015-1.7218-.108-.3801-.392-.7097-.846-.826-12.949.2288-25.929.1318-38.882.5119-.077 0-.147.0116-.217.0232-.031 0-.062-.0077-.093-.0077-.819-.0117-1.142.8221-1.584 1.365-3.544 4.642-7.096 9.2762-10.515 14.0112-1.631 2.2414-3.304 4.448-4.907 6.7089-.473.5933-.923 1.3534-.469 2.0941.248.3723.551.5623.865.636zm4.173-4.4441c2.632-3.7268 5.291-7.4303 8.058-11.0562 1.425-1.8885 2.834-3.7849 4.224-5.6967.252-.3956.57-.7756.842-1.1751.19 0 .38 0 .555.0117 1.343.0155 2.69.0271 4.037.0426 2.166.0892 4.32-.0426 6.482-.1318.858-.0194 1.716-.0349 2.574-.0466 4.029-.0659 8.062-.0581 12.091-.062 1.797-.031 3.594-.0931 5.391-.1551 1.537-.0543 3.078-.1086 4.619-.1474-2.173 2.9007-4.203 5.9023-6.354 8.8185-2.375 3.3661-4.906 6.6159-7.231 10.013-.509.8415-1.196 1.5783-1.642 2.4431-.023.0621-.039.128-.054.1901-4.08.1279-8.16.1047-12.235-.0582-1.778-.0698-3.552-.1629-5.33-.2909-4.871-.3684-9.781-.4072-14.668-.3761-1.013-.0039-2.027.0194-3.036.0426.555-.795 1.118-1.5822 1.677-2.3694z" fill="#2c3a48"/><path d="m183.059 63.5718c-.054 0-.108 0-.166.0077.054 0 .108-.0038.163-.0077z" fill="#2c3a48"/><path d="m214.986 90.0234c3.412.0311 6.824.0543 10.236.0156 2.737-.0427 5.461-.287 8.206-.2793 1.215 0 2.437-.093 3.656-.0892-.411-1.842-.834-3.6802-1.455-5.464-1.254-3.1645-2.978-6.2746-5.706-8.392-2.884-2.1639-6.056-4.0408-9.514-5.1073-2.407-.6127-4.848-.9656-7.29-1.2487 1.312 6.612 1.7 13.2472 1.832 19.9134 0 .2056.02.4266.031.6515z" fill="#e0f1e5"/><path d="m180.464 86.9755c.023.1163.043.2327.058.3529 2.721.0853 5.45.1241 8.175.0814 3.039-.1706 4.638.3917 5.116 2.6564.178-.0116.353-.0155.52-.0232 1.366-.0737 2.736-.0737 4.103-.0737 2.546-.0349 5.096-.0311 7.643-.0194.003-.1862.015-.3684.015-.5468 0-1.1052-.019-2.2027-.035-3.3079-.046-3.4553-.194-6.9106-.287-10.3698-.078-1.873-.175-3.7461-.276-5.6153 0-.4266-.104-.8958-.155-1.3573-3.99-.252-7.984-.4343-11.971-.7174l-13.058 17.447c.024.5003.063 1.0006.148 1.4931z" fill="#e0f1e5"/><path d="m271.301 123.882c.202-2.536-.039-5.286 1.063-7.636.435-.674 1.138-1.109 1.918-1.322.765-.318 1.541-.578 2.364-.706.396-.081.873-.174 1.331-.182-.039-2.823-.202-5.642-.504-8.4-.765-4.405-2.799-8.7368-6.448-11.4592-1.727-1.078-3.699-1.683-5.632-2.2841-.532-.2055-1.056-.4343-1.576-.6786-11.233-1.6327-25.937.3373-25.937.3373l-42.593.1707-2.631-.2172v2.3501c-1.285.9307-6.7 1.462-8.61 1.2409-1.909-.221-3.415-2.6603-3.415-2.6603l-9.239-.1396-2.507 27.014c1.925.287 3.804.861 5.508 1.765 3.156 1.671 5.174 4.913 6.746 8.004 1.529 3.226 2.628 6.627 3.393 10.113.027.144.066.287.104.431.295.012.59.027.858.004 1.704.019 3.412.085 5.112.198 6.436.554 12.945.201 19.373.399 3.226.066 6.444-.198 9.662-.361 3.897-.209 7.813-.163 11.695-.562.272-.857.768-1.741.943-2.292.544-1.489 1.153-2.998 1.898-4.328 3.319-6.833 10.438-12.909 18.139-13.786 4.111-.558 6.277-.271 9.677 2.222-.039-.031-.082-.058-.12-.089 1.506.931 2.736 2.199 3.675 3.696.319.446.75.93.715 1.512l4.98-.357c.015-.667.031-1.334.054-1.997z" fill="#e97b65"/><g fill="#2c3a48"><path d="m280.609 132.879c.012-.279.012-.558.004-.822.046-1.605.116-3.215.132-4.828-.074-2.846.314-5.65.462-8.489.015-1.695.008-3.385.027-5.08-.14-3.021-.151-6.073-.672-9.059-.947-4.8631-3.256-9.7726-7.32-12.7703-2.667-2.3772-6.3-3.5793-9.603-4.8707-2.69-1.1091-5.376-2.2764-7.942-3.6647-6.063-4.3395-11.28-9.8191-17.386-14.1159-5.597-3.9943-12.561-5.4563-19.218-6.6585-3.831-.6747-7.732-.6747-11.598-1.0199-3.253-.3412-6.599-.411-9.882-.4808-4.212-.1203-8.412-.795-12.639-.5662-.765.0155-1.568.062-2.379.1318-1.052-.3684-2.465.1513-3.564.0427-4.266.19-8.485.4886-12.825.6864-3.932.1822-7.782.1318-11.722.5623-.241 0-.477 0-.718 0-.784 0-1.568 0-2.352-.0155-.75-.0155-1.499-.0194-2.248-.0117-.788.0078-1.572.0427-2.36.066-.807.0271-1.618.0504-2.426.0853-.858.0349-1.712.0814-2.569.1667-.4.0427-.796.0931-1.196.1358-.419.0504-.924.0698-1.296.2947-.948.0271-1.619 1.272-2.182 2.0282-1.782 2.3268-3.443 4.7505-5.151 7.1316-.318.4188-.633.8415-.959 1.2565-.609.7717-1.214 1.5434-1.812 2.3267-1.145 1.5008-2.29 3.0016-3.428 4.5063-1.079 1.4271-2.166 2.8503-3.206 4.3045-.722 1.0122-1.424 2.0398-2.174 3.0365-.089.1163-.147.2443-.198.3762-.101.1745-.178.349-.236.5196-2.737.9928-5.33 2.3733-7.993 3.5406-3.031 1.5124-5.973 3.1993-9.075 4.5683-2.895 1.2138-5.6475 2.7068-8.3491 4.2925-1.1257.664-2.2475 1.338-3.3615 2.017-1.0286.628-2.0572 1.26-3.0897 1.885-.2097.128-.4154.256-.625.38-.7996.492-1.6108.973-2.4182 1.454-2.3872 1.431-4.7511 2.901-6.7657 4.855-1.0402.95-2.0805 1.943-2.8529 3.122-1.1995 1.493-2.0146 3.506-2.6822 5.049-1.7972 4.374-2.6628 9.071-3.2645 13.74-.2484 1.675-.2794 3.37-.5395 5.041 0 .004-.0039.008-.0078.012-.1436.023-.2833.066-.4192.139-.5745.214-1.1722.411-1.6768.764-1.5527 1.102-.788 3.933-.9006 5.596.2174 1.327-.2096 2.699.3804 3.964.0699.131.1398.267.2213.403.0155.24.1009.496.295.756h-.0078c.3804.524 1.0442.52 1.6264.531.427.012.8579.008 1.2887.012.59.035 1.1878.039 1.7584.081.6327-.011 1.704.09 2.5463-.081.9471.008 1.8942.023 2.8375.023.5085.027 1.0169.035 1.5254.058.3338.943.9743 1.955 1.2577 2.416 1.1606 1.746 2.6395 3.409 4.5298 4.367.0543.027.1048.058.1553.085 2.5929 1.106 5.4303 1.61 8.2445 1.598 2.7986.093 5.6283.039 8.3608-.62.171-.035.416-.093.695-.171 1.646-.26 3.249-.834 4.689-1.679 1.386-.815 2.616-1.873 3.575-3.153.501-.651 1.339-1.792 1.591-2.812 1.557.008 3.113.028 4.67.063 6.661.321 13.388.399 20.079.399 1.596-.019 3.191-.027 4.79-.035.016.054.028.109.055.159.566 1.803 1.448 3.49 2.472 5.103.156.241.33.501.52.772 1.169 1.668 2.97 3.808 4.767 4.464 0 0 .008 0 .012.004.213.077.423.139.636.17.039.024.074.058.117.078 1.09.244 2.236.201 3.35.271 2.034.066 4.033.318 6.074.369 1.312-.004 2.651.054 3.94-.19 3.408-.07 6.249-2.548 8.229-5.181.02-.027.043-.055.066-.086 1.984-2.288 2.876-5.448 3.505-8.38.027-.128.051-.26.074-.388.229.365.609.586 1.215.473.136-.007.275-.019.415-.035.21.012.427.031.641.031.221.059.462.078.722.039 8.403-.252 16.811-.128 25.218-.073 8.963-.047 17.918.077 26.881.228.023.086.05.175.077.26.039.221.093.438.148.652.178.682.396 1.349.613 2.024.217.679.493 1.334.776 1.989.125.287.241.582.365.869.117.264.252.52.384.78.148.298.299.605.501.872.241.322.497.621.784.9.016.015.031.027.047.039.341.329.699.643 1.075.934.392.299.811.582 1.262.787.566.256 1.149.458 1.742.633.051.015.14.042.226.073.24.117.481.237.737.326.233.081.474.151.714.209.412.105.831.155 1.242.252.858.206 1.728.287 2.601.384.047.004.089.008.136.008.019 0 .039-.004.058-.004.043.02.086.043.132.058.454.144.943.175 1.429.163 1.366.283 2.763.342 4.161.21.33.038.656.011.978-.035 3.975.283 6.991-1.183 9.188-3.587 1.824-1.998 3.085-4.638 3.846-7.477.128.027.253.054.396.062.524.012 1.075-.031 1.541-.244.629-.047 1.269-.167 1.887-.163 2.612-.148 5.22-.373 7.833-.524 1.611-.112 3.214-.283 4.813-.477 1.405-.097 1.995-.729 2.41-2.02 1.165-2.99 1.374-6.263 1.58-9.435.055-2.68-.136-4.165-3.043-4.235zm-3.253.4c-1.048.151-2.111.197-3.175.221-.004-.183-.012-.365-.008-.543.024-1.311 0-2.618.02-3.929.027-1.338.004-2.691 0-4.041.92-.007 1.836-.042 2.756-.05.198-.012.411-.019.625-.031-.059 1.772-.074 3.564-.113 5.278.074.849-.19 2.086-.101 3.095zm-1.84-10.894c-.442-.05-.861-.221-1.296-.287.046-1.458.163-2.912.423-4.343 1.017-.605 2.178-.896 3.334-1.105-.019 1.458-.07 2.912-.163 4.351-.054.492-.085 1.004-.12 1.512-.726-.019-1.46-.035-2.182-.124zm-201.3579 7.38c.1358-1.252.3182-2.509.5473-3.758 1.1412-.093 2.4337.411 3.5439.477 3.4468.52 5.1004 4.154 6.3736 7.004.1552.314.2872.636.4075.962-2.9616.05-5.9272.101-8.8888.17-.8656.031-1.7312.039-2.5968.062.2329-1.636.3998-3.284.6133-4.921zm59.9549-1.059h.066c-.178 1.428-.372 2.855-.411 4.29.008.147 0 .302-.012.457-.077.008-.155.02-.229.031-2.503.109-5.011.198-7.515.275 1.083-1.597 1.829-3.606 2.225-5.029 1.952-.031 3.92-.07 5.872-.027zm-5.395-1.628c.361-1.233.796-2.416 1.778-3.215.147-.078.295-.155.446-.225 1.036-.462 2.185-.353 3.296-.314.155.147.205.419.24.946.027.896-.023 1.788-.105 2.68-.399-.004-.795-.016-1.195 0-1.483.135-2.977.031-4.46.132zm-3.299 2.051c-.602 1.745-1.51 3.638-3.055 4.727-3.257.082-6.514.156-9.774.218.209-.516.473-1.013.768-1.482 1.13-1.741 2.469-3.315 4.092-4.634 1.882-1.737 4.421-2.788 6.889-3.529 1.064-.364 2.155-.651 3.261-.865-.912 1.237-1.456 3.037-2.181 5.569zm-12.224-.752c-.741.88-3.035 3.699-3.571 5.751-1.991.035-3.982.074-5.974.112-5.0145-.023-10.0335-.147-15.0446.148-.1553 0-.3105.004-.4658.007-.0815-.426-.2484-.857-.4542-1.217-.9005-2.141-2.0494-4.154-3.4662-5.996-.0971-.124-.2019-.24-.3067-.36 2.7288-.186 5.4808-.423 8.2096-.5 4.033-.253 8.0119-.609 12.0679-.706 4.305-.159 8.629-.214 12.91-.733-1.428.989-2.732 2.168-3.901 3.49zm-6.459 15.33c-3.924.182-7.8599.263-11.7842.387-1.8088.031-3.6138 0-5.4226-.023-2.0184-.062-4.0407-.151-6.0708-.299-.1941-.011-.3998-.034-.6056-.046-.0077-.268-.0271-.527-.0465-.752-.101-1.482-.1553-2.955-.2989-4.425 2.2009-.144 4.4056-.151 6.6104-.272 5.8185.039 11.6952.008 17.4792-.605 0 1.21.046 2.42.085 3.626.047.803.035 1.61.062 2.412zm-33.5678-6.81c2.461.136 4.9297.232 7.3984.275-.0117.221.0077.446.0155.667 0 .221 0 .45.0039.679-.1397-.086-.3028-.144-.4969-.171-2.3483-.236-4.7278-.275-7.0917-.45.0699-.329.1126-.667.167-1zm25.0403 18.451c-2.9112-.624-5.7254-2.253-7.2664-4.836 1.6924-.007 3.3848-.023 5.0771-.042.4581.748 1.5333 1.477 2.1272 1.582 1.145.376 2.4146.353 3.4856-.233.672-.364 1.526-.779 1.956-1.442 1.673-.02 3.342-.031 5.012-.035-2.019 3.544-6.351 5.665-10.3915 5.006zm51.9865-12.545c-.109 1.291-.21 2.59-.299 3.882-.008.318-.008.64.05.946-2.422.454-4.941.225-7.398.287-7.752-.023-15.484.008-23.235-.206-4.635-.209-9.32-.135-13.97-.112-5.4732-.039-10.9501-.074-16.4232.023-4.7744.086-9.5488-.159-14.3231-.066-1.7157-.035-3.4314-.038-5.1509-.027-.0078 0-.0117 0-.0194 0-.2795-1.997-.5629-3.99-.7569-5.995.2445-.326.6055-.578.9393-.846 3.1131-.112 6.2339.031 9.3469-.003.3494.023.6987.042 1.048.081.1708.023.3921.054.6211.07v.054c.0427 1.202.0699 2.408.1824 3.603 0 .26.1087.508.2873.686.0427.101.1009.198.1979.279.1669.144.3727.221.59.272.0505.027.0932.062.1514.085.2679.02.5396.035.8113.051 1.0402.116 2.0805.193 3.1286.244 4.4793.26 8.9665.058 13.442.163 2.8993-.031 5.8693.104 8.7293-.353.043-.02.07-.051.109-.074.307-.07.586-.252.73-.558.217-.516.116-1.086.14-1.629-.032-1.008-.016-2.129-.02-3.226 1.106.003 2.217.058 3.323.104 5.29.233 10.488.341 15.798.477 4.114-.004 8.221-.357 12.34-.337 3.33.019 6.579-.213 9.913-.047-.112.722-.209 1.447-.283 2.176zm21.589 6.72c-.826 3.654-3.128 6.888-6.276 8.931-5.962 2.75-11.012-3.044-11.525-8.721-.376-2.071-.598-4.153-.469-6.29.011-.772.023-1.559.046-2.35.497-3.056 1.405-6.05 3.432-8.478 1.661-1.644 3.757-3.04 6.078-3.49.299-.031.598-.054.897-.05 1.176.074 2.395.198 3.47.698.831.62 1.805 1.28 2.453 2.141.481.647.726 1.431 1.056 2.16 0-.008-.008-.016-.008-.024-.012-.031-.027-.066-.039-.097 2.197 4.836 2.434 10.467.881 15.574zm86.001 5.577c-1.242 2.106-3.633 3.056-5.993 3.215-4.212.473-7.95-2.73-9.347-6.531-.97-3.028-1.029-6.251-.831-9.396.016-.465.047-.935.07-1.404.377-1.687.827-3.366 1.37-4.983.649-2.195 1.689-4.293 3.296-5.945 1.929-1.768 4.798-2.955 7.41-2.28.543.167 1.083.372 1.607.612 1.37.985 2.55 2.207 3.455 3.677.217.364.504.702.64 1.105.159.38.256.834.536 1.148.081.38.244.772.341 1.086.09.232.155.473.214.717.089.446.171.892.24 1.338.016.074.031.147.047.221.202 1.582.244 3.192.384 4.782-.031 4.359-.799 9.055-3.435 12.634zm7.426-20.883s-.008.031-.016.047c-.543-.97-1.211-1.873-2.034-2.68-2.247-3.777-6.381-6.81-10.876-6.949-3.478.236-7.037 1.807-9.11 4.68-2.713 3.556-3.602 8.156-4.328 12.476-.229 1.353-.221 2.738-.412 4.091-7.305-.392-14.626-.512-21.942-.508-6.102-.112-12.2-.155-18.302-.264-4.452-.011-8.901-.143-13.353-.054-2.03 0-4.06 0-6.094.047-.031 0-.066 0-.097.003-.043-1.993-.225-3.994-.602-5.948-.392-1.831-.776-3.7-1.684-5.356-1.25-2.338-2.997-4.452-5.054-6.123-.707-.485-1.549-.842-2.453-1.086-5.132-1.699-10.908.26-14.452 4.246-1.68 2.067-2.697 4.421-3.342 6.907-.101.004-.201.012-.298.016-1.479.038-2.958.081-4.437.069-3.393.07-6.785.09-10.178.121-4.809.159-9.385.341-14.237 0-3.579-.062-7.158-.175-10.737-.202-.586.07-1.393 0-2.143.05-.007-.329-.023-.682-.066-1.016.757-.019 1.514-.038 2.271-.054 7.115-.209 14.234-.124 21.341-.527.225.066.47.038.707.038 1.494.028 2.981-.17 4.471-.209 2.481-.035 4.969-.128 7.441-.314.027 0 .059 0 .086-.004.085-.008.174-.008.26-.016 0 0 .008-.007.015-.011.307-.039.61-.113.901-.175.609-.228.931-.837 1.273-1.353 1.176-2.218 2.379-4.355 4.254-6.089 1.662-1.911 3.641-3.618 5.935-4.746 4.825-2.323 10.306-2.804 15.166-.295 2.534 1.268 4.083 3.863 5.484 6.224 1.138 2.168 2.112 4.448 2.651 6.845.342 1.276.672 2.552.994 3.831.144.567.241 1.195.78 1.524.047.031.097.051.148.074 0 0 .004.004.008.008.376.271.865.221 1.308.279 8.823.59 17.611-.081 26.449.303 2.43.031 4.864-.047 7.29-.132 4.502-.086 9.009-.066 13.504-.392.334.027.601-.058.807-.202.454-.244.676-.942.854-1.497.423-1.004.897-1.985 1.265-3.017l-.007.02s-.012.027-.016.042c2.554-6.383 7.138-12.332 13.772-14.751 2.667-1.113 5.741-1.49 8.606-1.098 1.894.609 3.578 1.757 5.174 3.06.982.838 1.347 2.187 2.271 3.044.749.504 1.832-.07 1.847-.969.035-.586-.396-1.067-.714-1.513-.939-1.497-2.174-2.765-3.676-3.696.039.031.082.059.12.09-3.4-2.494-5.566-2.785-9.676-2.222-7.701.876-14.82 6.953-18.139 13.786-.745 1.334-1.351 2.838-1.898 4.328-.175.55-.672 1.434-.943 2.291-3.882.396-7.799.353-11.696.563-3.218.167-6.435.426-9.661.36-6.428-.197-12.937.156-19.373-.399-1.704-.112-3.408-.178-5.112-.198-.268.024-.563.004-.858-.004-.039-.143-.078-.29-.105-.43-.765-3.486-1.863-6.887-3.392-10.114-1.572-3.094-3.591-6.333-6.747-8.004-1.708-.904-3.582-1.478-5.508-1.765-2.534-.376-5.151-.232-7.588.462-3.82 1.039-7.515 2.862-10.205 5.817.031-.039.066-.074.101-.113-.741.842-1.568 1.614-2.275 2.482-1.436 1.656-2.325 3.661-3.175 5.658-.031-.011-.05-.035-.085-.046-2.337-.198-4.732.201-7.069.434-.853.093-1.707.144-2.565.194.05-.314.081-.636.136-.931.124-1.02.232-1.946.43-2.974.365-2.823 1.778-9.234-2.414-9.59-4.332-.334-8.664.5-12.743 1.935-.047.015-.093.039-.14.058-.198.015-.392.031-.59.047-4.048.314-8.089.705-12.149.798-1.774.132-3.544.229-5.326.194-2.923.097-6.0242.314-8.9742.442-4.0214.241-8.0815.423-12.1417.57-.2407-.023-.458 0-.6482.047-.92-.512-1.9331-.849-3.0122-.911-1.0635-.051-2.1736-.283-3.245-.202.3882-1.563.8695-3.102 1.4906-4.588.4269-1.012.7957-2.059 1.3702-3.005.6482-1.001 1.541-1.811 2.3949-2.633 2.4959-2.463 5.9738-4.347 8.9704-6.263 4.7899-2.944 9.5061-6.061 14.7272-8.206 4.444-1.9933 8.625-4.5024 13.065-6.5344 1.122-.5662 2.314-1.1479 3.435-1.7606.373-.19.722-.4072.998-.7213.365-.0853.702-.3025.916-.6399.023-.031.043-.062.066-.0931.074-.0659.147-.1357.21-.2171.535-.7136 1.044-1.4543 1.568-2.1795.811-1.1207 1.607-2.2569 2.437-3.3661 1.149-1.5279 2.294-3.0636 3.459-4.5837.555-.7252 1.118-1.4465 1.681-2.1678.617-.7911 1.261-1.5667 1.871-2.3617 1.18-1.5357 2.329-3.0946 3.454-4.6691.582-.8144 1.141-1.6443 1.704-2.4703.295-.4304.582-.8648.866-1.303.124-.1939.244-.3878.361-.5856.062-.1085.12-.2249.167-.3412.093-.0543.182-.1047.279-.159.221-.0078.447-.0233.66-.0349.551-.031 1.099-.0543 1.65-.0737 1.028-.0349 2.061-.0271 3.093-.0465 1.541-.0349 3.086-.1396 4.627-.1358.8 0 1.599 0 2.399-.0155.804-.0194 1.603-.0077 2.403-.0232 1.486-.0272 2.969-.097 4.456-.1668.427-.0194.854-.0388 1.281-.0582 3.482-.093 6.96-.1977 10.437-.3335 3.195-.0892 6.405-.19 9.592-.4227.594.0466 1.192.0659 1.789.0388h-.023c5.023-.3102 10.038.4072 15.057.5274 3.637-.0271 7.022.1823 10.682.5468 5.993.3258 11.998.9346 17.758 2.6952 2.543.7252 5.05 1.6055 7.395 2.8426 4.708 2.7999 8.687 6.6313 12.836 10.1603 3.168 2.8348 6.572 5.3904 10.135 7.7094 1.941 1.1479 4.014 2.0437 6.141 2.8038.248.1241.5.2404.753.3568.52.2443 1.04.4731 1.576.6786 1.933.5972 3.905 1.2022 5.632 2.2841 3.653 2.7224 5.686 7.0544 6.447 11.4594.303 2.757.462 5.581.505 8.4-.458.008-.936.101-1.331.182-.823.128-1.596.388-2.364.706-.781.213-1.483.647-1.918 1.322-1.106 2.35-.862 5.1-1.063 7.636-.024.667-.039 1.334-.055 1.997-.039 1.54-.066 3.079-.081 4.619-.012 1 0 1.993.011 2.994-1.246-.031-2.538-.043-3.757.027-.749.097-1.782-.07-2.213.698zm14.059 11.176c-3.606.485-7.251.555-10.869.904-.396.035-.792.074-1.184.112.024-.713.043-1.43.055-2.144.046-2.796-.256-5.736-1.293-8.353.089.015.179.027.284.027 1.308.035 2.62-.062 3.928-.035 3.497.05 6.987.337 10.484.38-.07 3.052-.221 6.259-1.401 9.109z"/><path d="m71.6239 150.311c-.0349 0-.0737-.004-.1087-.008-.0194 0-.0427 0-.0621 0z"/><path d="m166.354 133.1c-2.624-2.296-5.702-.353-7.464 2.009-2.954 4.037-3.195 16.16 1.789 18.738 2.686 1.439 5.054-.748 6.382-2.955 1.564-2.772 1.991-6.084 1.859-9.229-.279-2.982-.454-6.217-2.566-8.563zm-3.718 18.556c-2.209-.318-2.554-3.928-2.896-5.716-.268-1.888-.101-3.793.105-5.681.299-2.261 1.545-5.809 4.355-5.495.466.248.71.709.912 1.179.742 1.52.873 3.222 1.091 4.874.272 3.215-.26 9.335-3.567 10.839z"/><path d="m254.625 132.387c-.896-.706-2.115-.66-3.202-.706-3.28.306-5.062 3.68-5.749 6.561-.857 3.091-.729 6.36-.116 9.486.501 2.699 1.747 6.054 4.867 6.441 5.912.45 7.286-8.659 7.166-13.08-.058-2.885-.637-6.763-2.966-8.702zm-3.276 19.297c-3.167-.043-3.478-6.457-3.61-8.815-.031-2.684.676-8.113 3.936-8.586.92.128 1.949.423 2.236 1.404.454.888.846 1.939 1.013 2.943.447 3.033.089 12.193-3.571 13.054z"/><path d="m172.573 85.7111c-.939 1.272-1.879 2.8154-2.694 4.2192-.442.6089-.741 1.559.043 2.036.136.0698.264.1085.38.1357.318.1784.742.1745 1.095.1861 2.624 0 5.252.0504 7.872.2443.038.0039.073.0078.112.0117 1.242 1.9312 1.658 3.4708 4.802 3.878 2.62.1939 5.368.2753 7.895-.5391 1.428-.4072 1.774-1.8343 1.859-3.1605.245.0077.485.0116.718.0349 8.159.3063 16.33.3218 24.493.3567 5.163.0194 10.294.0117 15.453-.3645.276-.0233.551-.0388.827-.0543 1.238.0582 2.476.1164 3.714.1978.288.0271.443-.1202.482-.2947.194-.1202.365-.2831.477-.5119.396-1.0238-.155-2.0205-.38-3.1412-.245-.9889-.439-1.9894-.668-2.9822-2.313-8.8805-6.948-13.5186-15.258-17.1406-3.641-1.6831-7.834-1.8537-11.781-2.4315-6.944-.9152-13.978-.9967-20.972-1.2604-1.627.0543-3.323.0388-4.93.349h.004c-.377.1086-.625.4227-.718.7756-.062.0776-.124.1551-.183.2327-2.282 3.2459-4.312 6.6663-6.509 9.9703-2.054 3.0946-3.975 6.2319-6.149 9.2568zm18.523 7.6396c-1.599.508-3.296.4537-4.957.4809-4.809.3955-3.427-1.4543-6.358-4.1689 2.709.2056 5.427.2831 8.14.4344.66.1163 3.07-.2211 3.206.5041.101.9113.144 1.8382-.035 2.7495zm29.322-22.6474c3.462 1.0664 6.633 2.9395 9.513 5.1073 2.733 2.1174 4.453 5.2314 5.706 8.3919.618 1.78 1.041 3.6221 1.456 5.4641-1.219 0-2.442.0892-3.657.0892-2.744-.0077-5.473.2366-8.205.2792-3.412.0388-6.824.0155-10.236-.0155-.012-.2249-.027-.446-.031-.6515-.132-6.6662-.52-13.3053-1.832-19.9134 2.437.2831 4.879.636 7.289 1.2487zm-11.618-1.718c.551.0621 1.102.1203 1.657.1784.357 4.068.979 8.1632 1.235 12.2544.186 2.8465.33 5.7201.326 8.5781-1.013-.0116-2.026-.0155-3.043-.0232.019-1.4543-.125-2.9318-.105-4.3899-.124-5.3826-.28-10.7265-.974-16.0898-.012-.1706-.043-.3645-.082-.5739.33.0233.66.0427.99.0659zm-26.178 6.5538c1.274-2.1367 2.729-4.1533 4.076-6.2474.283-.5119.78-.9734 1.044-1.5085.253 0 .497-.0039.738.0116 1.277.0077 2.573.0543 3.85.1667.35.0272.703.0466 1.056.0737 3.986.2831 7.981.4654 11.971.7175.05.4614.151.9307.155 1.3572.097 1.8731.194 3.7462.276 5.6154.093 3.4591.24 6.9105.287 10.3697.016 1.1013.035 2.2027.035 3.3079 0 .1784-.012.3607-.016.5468-2.546-.0155-5.096-.0155-7.642.0194-1.367 0-2.737 0-4.103.0737-.167.0077-.342.0155-.52.0232-.478-2.2647-2.077-2.827-5.116-2.6564-2.725.0427-5.45.0078-8.175-.0814-.016-.1202-.039-.2404-.058-.3529-.086-.4925-.124-.9928-.148-1.493-.023-.5778-.023-1.1595-.023-1.7374.085-1.2642-.171-2.5013-.14-3.7694.846-1.4658 1.665-2.9472 2.465-4.4364z"/><path d="m211.645 97.5661c-.182-1.2565-1.463-1.1983-2.453-1.1634-1.382-.0155-2.767.0349-4.149.0621-.951.0077-1.906.0155-2.857-.0311-.369-.0543-.761.0388-1.052.2715-.679.5041-.699 1.6326 0 2.1251.765.5391 1.766.1319 2.639.2792 1.774.0776 3.56.0349 5.334.0156 1.18.0077 2.632.031 2.538-1.559z"/><path d="m263.529 110.185c4.918.822 6.945-6.189 5.803-9.939-.128-1.5243-1.086-3.0483-2.441-3.7735-.955-.2986-1.929-.5972-2.946-.3723-1.281.5778-2.446 1.6055-3.086 2.862-1.96 3.5638-2.046 9.9358 2.67 11.2228zm1.343-12.0062c1.347.4693 2.426 2.7142 2.508 4.0832-.051 1.963-.419 5.554-2.853 5.848-3.831-.45-3.098-9.2642.345-9.9312z"/><path d="m216.117 95.4993c-.221-.6825-1.149-.8997-1.607-.3374-.439.5934-.198 1.3651-.214 2.0476-.139 4.9875-.318 9.9855-.691 14.9615-.473 5.293-1.086 10.687-2.103 15.927-.295 1.516-.684 3.009-.998 4.521-.194 1.156-1.04 2.971.501 3.525 2.17.45 1.844-2.462 2.239-3.827.482-2.3.893-4.611 1.25-6.93 1.246-7.973 2.19-16.036 2.05-24.117-.07-1.9198.097-3.9054-.423-5.7707z"/></g><path d="m123.094 118.821c-.33-.651.066-1.275.524-1.741.439-.585.87-1.171 1.336-1.737 1.723-2.18 3.881-3.956 6.043-5.681.796-.648 1.611-1.276 2.434-1.885 1.304-1.09 2.628-2.017 3.924-2.691 4.208-2.692 8.672-4.976 13.252-6.9807 2.9-1.2798 5.757-2.9357 8.672-4.0874.396-.159.613-.2443.939-.3801.691-.2326 1.331-.7058 2.069-.7368.179.0117.334.0737.47.1629 1.874-1.2797 3.047-2.1445 3.047-2.1445l-44.146-.9463c-.272.3142-.625.5313-.997.7213-1.122.6128-2.314 1.1945-3.436 1.7607-4.444 2.0281-8.621 4.5372-13.065 6.5344-5.2208 2.1445-9.937 5.2585-14.7269 8.2055-2.9966 1.916-6.4745 3.801-8.9704 6.263-.85.822-1.7467 1.633-2.3949 2.633-.5745.943-.9433 1.994-1.3702 3.006-.6211 1.485-1.1024 3.025-1.4906 4.587 1.0714-.081 2.1776.152 3.2451.202 1.0752.062 2.0883.4 3.0121.911.1902-.05.4037-.069.6482-.046 4.0602-.147 8.1203-.33 12.1417-.57 2.95-.124 6.0479-.345 8.9739-.442 1.782.031 3.552-.062 5.326-.194 4.06-.093 8.105-.485 12.149-.799.555-.83 1.444-2.125 2.566-3.649-.07-.082-.132-.167-.175-.272z" fill="#e97b65"/><path d="m162.755 93.0638c-.136-.0892-.291-.1513-.469-.1629-.734.031-1.378.5041-2.069.7368-.33.1357-.544.221-.94.38-2.915 1.1518-5.772 2.8077-8.671 4.0874-4.58 2.0049-9.048 4.2889-13.252 6.9809-1.335.853-2.647 1.745-3.924 2.691-.823.609-1.638 1.233-2.434 1.885-2.162 1.725-4.32 3.501-6.044 5.681-.465.566-.896 1.155-1.335 1.737-.462.465-.854 1.09-.524 1.741.047.101.105.19.175.272.435.496 1.285.554 1.781.089.513-.504.92-1.097 1.378-1.652.687-.853 1.413-1.675 2.182-2.455 2.228-2.137 4.662-4.045 7.115-5.914 3.699-2.804 7.798-5.08 11.928-7.19 4.243-2.0859 8.45-4.2575 12.829-6.0375.912-.477 2.236-.7058 2.678-1.7335.14-.4382-.047-.8997-.404-1.1362z" fill="#2c3a48"/><path d="m125.419 129.125c-.602 1.745-1.51 3.638-3.055 4.727-3.257.082-6.514.156-9.774.218.209-.516.473-1.013.768-1.482 1.13-1.741 2.469-3.315 4.092-4.634 1.882-1.737 4.421-2.788 6.889-3.529 1.064-.364 2.155-.651 3.261-.865-.912 1.237-1.456 3.037-2.181 5.569z" fill="#f0eff8"/><path d="m74.1582 129.761c.1359-1.252.3183-2.509.5473-3.758 1.1412-.093 2.4338.411 3.5439.477 3.4469.52 5.1005 4.154 6.3736 7.004.1553.314.2873.636.4076.962-2.9617.05-5.9272.101-8.8889.17-.8656.031-1.7312.039-2.5968.062.2329-1.636.3998-3.284.6133-4.921z" fill="#f0eff8"/><path d="m4.04873 159.602s-6.69965 1.342-2.83746 5.809c3.8622 4.468 41.66903 5.891 49.79713.811 8.1319-5.076-3.1674-5.379-3.1674-5.379s-20.0213-7.054-43.79227-1.245z" fill="#ecf6ed"/><path d="m17.6695 79.5025c-5.5313-8.7371-5.147-20.0492-5.147-20.0492-1.7002-7.69 12.8403-17.8697 16.3493-20.1965-.7026-1.4969-1.0441-3.1334-1.4905-4.7195-.1941-.543-.4814-1.0936-.9704-1.4194-1.3702.3839-2.7094.9656-3.901 1.6598-5.6245 2.9705-10.8957 6.8834-14.4862 12.1652-5.32944 8.2136-7.305177 18.878-4.64628 28.3558.89277 2.7767 2.33285 5.2857 4.34352 7.3954.65211 1.0237.43086 2.3694.65211 3.5289.17855 1.7529.23289 3.2304.27559 4.9367.10092 3.0171.295 6.0303.34935 9.0513.18243 7.271.23289 14.62.70645 21.868.11645 2.009.25618 4.017.41536 6.022 1.5759.272 3.1635.493 4.7588.621 1.7118.19 3.4275.318 5.1431.423.3377-4.623 2.8297-41.4561-2.3522-49.6425z" fill="#c3e3c8"/><path d="m3.36523 75.2561s.00777.0233.01165.0349v-.0116s-.00776-.0155-.01165-.0233z" fill="#eaf5ec"/><path d="m56.4122 51.5926c-.5163-1.7567-1.3469-3.4165-2.3096-4.9716-1.0131-1.524-1.9408-3.1256-3.2372-4.4325-1.3004-1.2797-2.5269-2.6487-3.9282-3.8198-.6871-.5507-1.4246-1.0316-2.1155-1.5745-1.9214-1.621-4.1455-2.9395-6.5366-3.7267-.3726-.0853-.7608-.2327-1.1451-.19-.0504-.0272-.1009-.0543-.1514-.0854-.0737-.0387-.1552-.0814-.2406-.1318 2.0922-1.2138 3.474-4.258 3.3032-6.6352-.0271-.7756-.229-1.5008-.555-2.1562-.0389.0776-.0932.1512-.1631.221-.2135.2366-.5473.2909-.8462.2986-.2561 0-.5162.0078-.7763.0311.2989.5119.493 1.1052.5202 1.7528.1358 2.288-.9122 5.0181-3.3111 5.6696-.3105.1202-.7491.1241-1.0635.287-.4619.2482-.4076.9773.0737 1.1673.2485.0737.5046.093.7569.0775.1437.1125.3183.1978.4853.2599l.8733.4188c-.0349.7833-.1048 1.5706-.2445 2.3462-.2679 1.303-1.3974 4.3045-3.1208 3.7189-.6793-.2753-1.3702-.6941-1.673-1.3883-.5279-1.0742-.9044-2.2104-1.1917-3.3699-.3377-1.3806-.8073-2.9085-2.0495-3.7307.396-.4149.7376-.8686 1.0326-1.3495-.066-.0078-.1359-.0116-.2019-.0233-.2018.0427-1.7622-.2869-1.8515-.1279-.3765.5157-.6094.8376-1.2577 1.1478-.0349.0194-.0659.0388-.1009.0543-.0233.0078-.0427.0117-.066.0194-.3377.1435-.7802.2909-1.3818.4576-.0349.0117-.0699.0233-.1048.0388-.1436.0543-.2795.1047-.4153.1551-1.1102.4344-2.1854.954-3.2295 1.5357-.6095.3801-.8618.4964-1.2965.7601-.0621.0388-.1281.0814-.1902.1202-.559.4111-1.2382.8532-1.8709 1.2526-.6948.5313-1.3198.9191-1.6536 1.113-1.6963 1.1285-3.2722 2.4625-4.7161 3.9012-5.06942 4.8475-8.27175 11.4672-9.723468 18.277-1.443957 8.2833-1.25764 17.9977 4.754968 24.5166.67152.6243.40369 1.6598.59 2.4896.25619 2.1989.27171 4.4209.37652 6.6624.57059 12.0296.36875 24.0896 1.53711 36.0846.01553.058.03494.109.05435.159-.01553.283.11256.586.44638.826h-.00776c1.25764.458 2.5851.686 3.9243.857-.0039 1.237-.0854 2.47-.1824 3.704-.3144 4.649-.7414 9.307-1.3353 13.929-.4736 3.25-.9937 6.492-1.25765 9.765-.06987.159-.09316.353-.08927.512-.01941.396-.01165.838.3571 1.105 2.20092 1.218 4.86362 1.606 7.35172 1.687 1.0947-.008 2.1854-.155 3.2761-.236.59-.059 1.3702-.086 1.6536-.706.2096-.722.132-1.563-.1165-2.269-.4464-1.028-1.8243-.981-2.721-1.419-.9432-.341-1.735-.838-2.6317-1.381.1164-.574.3183-1.124.4386-1.694.4425-2.192 1.2654-4.278 1.7778-6.45.493-2.198.9743-4.401 1.5837-6.569.6016-2.144 1.18-4.293 1.7894-6.433.2174-.842.4425-1.687.6172-2.541.0078-.031.0116-.065.0194-.096 3.1324.147 6.2727.232 9.4051.407.3959.015.7919.027 1.1878.035-.2445 4.952-.3028 9.947-.6327 14.903-.2445 3.948-.3494 7.899-.3649 11.851 0 .628-.1125 1.388.4813 1.799.4309.307.9899.318 1.4983.353.9937.136 1.9991.016 2.9966.054.691.066 1.3897.043 2.0806.028 1.6613-.059 3.3343.065 4.9878-.14.6948-.167 1.5682-.155 2.0767-.71.3144-.438.3066-1.02.3338-1.535.0466-.555-.0854-1.179-.6133-1.462-.9937-.485-2.1931-.64-3.2644-1.024-.819-.349-1.6264-.927-1.9369-1.792-.3765-1.361-.2446-2.804-.1825-4.2.2756-3.191.8191-6.449 1.3237-9.625.4153-2.998.7414-6.018 1.3857-8.977.5822-.078 1.1606-.163 1.739-.26.59-.163 1.3042-.144 1.7816-.559.1669-.151.2601-.349.3028-.554.0621-.093.1125-.19.1436-.299.0738-.213.0543-.465.0621-.694.0543-2.664.1009-5.332.1436-7.996.1631-8.776.0971-17.556.5202-26.328.0504-2.9938.2988-5.9759.4114-8.9659.0427-2.7494.3067-5.4873.6172-8.2174.1591-1.3263.3144-2.6564.4735-3.9827.0466-.4653.0427-.9385.4464-1.2448 2.3212-2.672 4.8093-5.5688 6.0553-8.9659 1.4129-3.6802 1.4091-8.0313.0039-11.7697zm-41.343-14.5192s.0078.0155.0117.0194l-.0505-.0737c.0116.0194.0233.0311.0388.0543zm-11.70302 38.1827s.00388.0155.00776.0232v.0117s-.00388-.0233-.00776-.0349zm9.01312 76.7259c.0349-.221.066-.442.1048-.663 1.0829.163 2.1349.341 3.2372.341h.1359c-.0582.264-.1126.531-.1708.795-.0272 0-.0582.008-.0854.012-.4542-.02-.9083-.074-1.3624-.066-.6522.019-1.2189.073-1.8865-.055.0078-.12.0194-.24.0272-.364zm-.2096 1.373c.982-.027 1.9524-.217 2.9383-.179.0893 0 .2368.012.4115.016-.0466.213-.0932.423-.1398.636-.0582.345-.2406.814-.3493 1.276-.0893.011-.1824.019-.2717.023-.6288 0-1.2654-.019-1.8787-.159-.2872-.043-.59-.171-.8889-.291.0582-.442.1126-.88.1786-1.322zm8.4851 5.479c.0311.109.0272.218.0233.33-1.6186.093-3.179 0-4.817-.202-1.4634-.147-2.9112-.438-4.1999-1.179.0349-.461.0892-.919.1358-1.376 1.2887.516 2.7987.523 4.1456.322 1.3974 1.043 3.0043 1.752 4.7122 2.109zm-.2639-25.734c.0078-.023.0155-.043.0233-.066l.0078-.023c-.7997 2.567-1.5449 5.173-2.1427 7.791-.5395 2.47-1.0286 4.979-1.6225 7.445-.229.83-.4231 1.672-.6055 2.513-.3533-.031-.7104-.05-1.0636-.1-.7802-.031-1.5682-.264-2.3484-.326.101-.613.2019-1.226.2989-1.838.3338-2.277.5551-4.569.788-6.86.2018-2.32.4425-4.639.6133-6.958.1009-1.171.1902-2.342.1863-3.517.0078-.112.0078-.236.0078-.361.1552.02.3144.035.4696.055 1.9952.236 3.9981.391 6.0049.508-.2019.566-.4115 1.128-.6172 1.737zm14.5599 22.136c.8966.147 1.7933.023 2.69-.059.326-.027.7219 0 1.0674 0 .3028.012.5939-.077.8928-.1-.1902.205-.3921.407-.5978.597-1.2227 1.055-2.7715 1.834-4.4017 1.962.0155-.81.0349-1.621.0582-2.431.097.011.1902.019.2872.031zm-.2523-1.063c.0155-.411.031-.822.0466-1.237.1941-.012.392-.027.5667.019 1.3236.043 2.6589.031 3.9825 0 .035.458.1009.881.198 1.268-.0039 0-.0078 0-.0117 0-.7375.02-1.4789.062-2.2164.016-.7142-.066-1.4594-.023-2.1775-.004-.1204-.008-.2523-.035-.3882-.062zm10.7365 4.312c-.0116.14-.031.276-.0543.411-1.4479.369-2.9462.225-4.46.249-1.6652.023-3.3343.027-4.9917-.093 1.4478-.377 2.8141-1.075 3.932-2.067.2213-.214.4697-.45.6948-.706.9355.996 2.461 1.66 4.8792 2.206zm-3.9243-25.749c-.2212 1.314-.4347 2.625-.5822 3.951-.5046 4.309-1.1956 8.598-1.5837 12.918-.066.872-.0971 1.648-.0932 2.358-.4153.003-.8268.007-1.2421 0-.7375-.039-1.475.038-2.2125.023-.3183-.004-.6715-.097-1.0131-.113.2057-4.777.4891-9.551.5589-14.333-.0271-1.865.1243-3.738 0-5.599 2.1078.007 4.2116-.078 6.3076-.28-.0465.361-.0892.718-.1436 1.078zm7.1111-61.738c-.2639.3141-.5434.5391-.722 1.0471-.2057.8415-.229 1.7296-.361 2.5905-.3726 2.9899-.7297 5.9876-.8927 8.9969-.2911 6.9377-.6327 13.8715-.8268 20.8135-.0466 4.886-.0194 9.768-.097 14.651-.0233 2.796-.0893 5.592-.1243 8.388.0427.426-.0388.969-.0543 1.485-.2096.058-.4192.112-.6249.124-1.7157.252-3.4391.477-5.1703.562-4.033.252-8.0582.008-12.0874-.166-2.5502-.097-5.1004-.194-7.6428-.349-1.7157-.105-3.4314-.233-5.1432-.423-1.5953-.128-3.1829-.349-4.7588-.621-.15916-2.004-.29501-4.013-.41534-6.022-.47356-7.248-.52402-14.597-.70645-21.868-.05435-3.021-.24843-6.0303-.34935-9.0512-.0427-1.7063-.09704-3.1838-.27559-4.9367-.22125-1.1595 0-2.5052-.65211-3.529-2.01067-2.1096-3.45075-4.6225-4.34352-7.3953-2.658898-9.4778-.68316-20.1422 4.64628-28.3558 3.59048-5.2779 8.86168-9.1947 14.48618-12.1652 1.1916-.6942 2.5308-1.2759 3.901-1.6598.4929.3258.7763.8764.9704 1.4194.4464 1.586.7918 3.2226 1.4905 4.7195.1087.2326.2252.4614.3532.6825.462.8725 1.2849 1.4775 2.1505 1.908 4.0795 1.9932 6.5055-3.2925 6.6491-6.6353 1.4207.6166 2.6434 1.1828 3.9787 2.0709 1.3003 1.0276 2.6511 1.9894 3.9553 3.017 1.312 1.2449 2.5852 2.5401 3.8234 3.8586 2.8025 3.5057 5.081 7.7715 5.4847 12.3243.3843 6.1466-2.8025 10.1642-6.6492 14.5191z" fill="#2c3a48"/><path d="m27.7064 55.393c-1.3352.5546-2.391 1.6521-3.4041 2.6991-.5629.6011-1.1024 1.2216-1.607 1.8692-.2407.1396-.3921.3917-.4581.6515-.0465.1745-.0582.3413.0272.5817.1048.2947.3843.4421.5745.6748.6832.8415 1.2421 1.8575 2.1853 2.4315.951.3916 1.9059-.4499 2.5968-1.0238 1.1762-1.0083 1.4207-2.3384.9316-3.7655-.0349-.8842.524-1.6676.6599-2.5285.2639-1.0664-.3688-1.9545-1.5061-1.59zm-2.0495 7.0347c-.5434-.5894-.951-1.2952-1.5021-1.8731 1.0713-1.0936 2.0727-2.2414 3.3304-3.1838-1.8671 2.955 1.1256 3.2575-1.8283 5.0569z" fill="#2c3a48"/><path d="m32.9775 45.958c-.6948-.2404-1.4051-.4266-2.131-.539-.5938-.1202-1.3275-.3995-1.7855.1628-1.1373 1.9856-1.8981 4.134-2.7792 6.2552-1.3159 3.2653-2.6589 6.7361-3.148 10.2883-.264 1.0781.9005 1.5396 1.7428 1.7645 1.2305.4033 2.5153.6476 3.804.7834.6871.031 1.5798.0892 2.0611-.4887.33-.3218.4969-.7407.6366-1.175.0699-.221.1592-.4421.2058-.6709 2.2163.1164 3.6836-4.3239 3.7224-6.1233-.066-.5235-.4774-1.0161-.9743-1.1828.8501-2.2376 1.7157-4.5023 2.0612-6.8757-.0893-1.2332-2.4338-1.7761-3.4197-2.1949zm-1.3236 14.6355c-1.2072-.5274-.819-3.145-.0931-3.9555.6094.0465 1.2149.1978 1.8321.128-.3882 1.2176-.6094 3.0946-1.739 3.8275zm1.0403-5.6541s-.0078.0349-.0117.0504c-.3648-.0504-.7258-.1085-1.0907-.1085-1.5914-.0039-2.2086 1.8342-2.4997 3.1256-.167 1.144.0194 2.4742.7064 3.3622-.2135.5003-.3144 1.0354-.427 1.5667-1.4556-.0388-2.8879-.4653-4.2464-.9656.5046-3.3079 1.7739-6.4413 2.9616-9.5515.691-1.7063 1.3586-3.5095 2.2319-5.1577 1.4634.2482 2.8686.764 4.1961 1.4116-.4309 2.1406-1.4595 4.1107-1.8166 6.2746z" fill="#2c3a48"/><path d="m35.5098 26.0135c-.0039.2482.2251.3452.4309.4072.3648.159.7375.3064 1.0829.5041-.2872.7136-.5589 1.431-.8035 2.1562-.1164.2249-.1319.5507.1437.6631.3726.1551.555-.2637.6171-.5584.1708-.5623.3921-1.1052.6172-1.6443.0971-.3063.3532-.636.1825-.9617-.2252-.2598-.5706-.4072-.8773-.5546-.3493-.1396-.7064-.3645-1.0868-.3684-.1747.0349-.3067.1707-.3067.3529z" fill="#2c3a48"/><path d="m36.099 27.5646c-.264-.2676-.6949.1357-.4503.4188.2601.3258.7414-.1318.4503-.4188z" fill="#2c3a48"/><path d="m34.2626 29.3875c-.5667.062-.3182.985-.0077 1.2254.3843.318.8229-.256.427-.5584-.1553-.2211-.0311-.6632-.4193-.667z" fill="#2c3a48"/><path d="m18.7092 34.4211s.0233-.0155.0349-.0233c.0544-.0349.1048-.0659.1553-.0969.4386-.2637.687-.3801 1.2964-.7601.0699-.0427.1359-.0853.2174-.1357 1.215-.6709 1.9874-1.0083 3.0121-1.4.132-.0504.2717-.1008.4154-.1551.0271-.0116.0504-.0194.0776-.031.0078 0 .0155-.0039.0272-.0078.6016-.1667 1.0441-.3102 1.3818-.4576.0582-.0233.1126-.0504.1631-.0737.6521-.3102.885-.6321 1.2576-1.1479.0932-.1628 1.6497.1707 1.8515.128.066.0116.1359.0155.2019.0233 2.294.2714 4.5453-.764 4.9335-3.2343 0-.2055-.1009-.3955-.2601-.4963-.1708-.2482-.3183-.5662-.1708-.861.1863-.2753.6133-.1357.8501-.0038.2018.1551.3882.3916.6793.3335.5706-.1823.7918-.8222 1.3275-1.1324.4658-.2986 1.0053-.4227 1.5487-.4692.2601-.0233.5202-.0311.7764-.0311.3027-.0077.6327-.062.8462-.2986.0698-.0698.1203-.1473.163-.221.3416-.6399-.2756-1.4038-.6871-1.9118-1.2692-1.4737-3.4235-1.9739-5.2906-1.6094-1.6691.4111-3.0975 1.5318-4.1572 2.8852-1.6613-1.3495-4.2271-.1823-5.2557 1.4969-1.312-1.1052-3.2411-1.3185-4.7394-.4615-1.9796 1.1479-2.2281 3.7345-1.902 5.786-1.7506.2714-2.0107 1.7102-1.9369 3.2303-1.3508.733-1.4362 2.5285-.6056 3.6453 0 0 .101-.0542.2562-.1473.3338-.1939.9588-.5817 1.6536-1.113.6288-.3994 1.312-.8415 1.8709-1.2526z" fill="#2c3a48"/><path d="m15.0681 37.0736c-.0116-.0194-.0233-.031-.0388-.0543l.0505.0737s-.0078-.0155-.0117-.0194z" fill="#22a54a"/><path d="m20.6538 158.838c.0311.109.0272.217.0233.33-1.6186.093-3.179 0-4.817-.202-1.4634-.147-2.9113-.438-4.1999-1.179.0349-.461.0892-.919.1358-1.376 1.2887.515 2.7986.523 4.1456.322 1.3973 1.043 3.0043 1.752 4.7122 2.109z" fill="#2c3a48"/><path d="m31.9338 158.489c-.0117.14-.0311.276-.0544.411-1.4478.369-2.9461.225-4.4599.249-1.6652.023-3.3343.027-4.9918-.094 1.4479-.376 2.8142-1.074 3.9321-2.066.2213-.214.4697-.45.6948-.706.9355.996 2.4609 1.659 4.8792 2.206z" fill="#2c3a48"/><path d="m115.81 32.003c-.947-.256-1.871-.5817-2.834-.7795-.403-1.7916-.982-3.657-1.719-5.3671-.264-.9967-1.204-2.3036-2.275-1.3224-.563.7058-.714 1.652-.935 2.509-.28 1.1867-.656 2.2958-.963 3.5018-.741.4576-1.541.8105-2.321 1.1945-.637.3412-1.522.5196-1.724 1.3224-.275 1.0897.959 1.5822 1.701 2.0514.764.4964 1.436 1.1207 2.224 1.5861.438 1.5667.644 3.1916 1.071 4.766.148.9152.419 2.1601 1.584 2.1252 1.044-.0349 1.424-1.1944 1.816-1.9817.61-1.3728 1.11-2.7999 1.646-4.2076 1.401-1.1168 2.911-2.1057 4.305-3.2265.772-1.1711-.582-1.9273-1.568-2.1755zm-4.646 4.227c-.431 1.0315-.765 2.1018-1.227 3.1295-.342-1.2526-.532-2.5711-1.118-3.7423-.198-.3567-.485-.4808-.823-.6864-.656-.4033-1.226-.9229-1.859-1.3573 3.412-1.6016 3.206-1.5356 3.812-5.1693.415 1.0742.652 2.2764.97 3.4087.128.4421.303.9346.703 1.2061.857.4964 1.871.5817 2.829.8725-1.059.8105-2.294 1.462-3.291 2.3423z" fill="#fad209"/><path d="m119.328 13.6756c-.074-.2249-.132-.4499-.186-.6787.008.0272.015.0582.019.0892-.295-.9152-.291-2.7107-1.343-3.0597-.419-.10859-.904.128-1.079.5235-.256.1396-.349.446-.388.7175-.116.6515-.252 1.2991-.365 1.9467-.807.7329-3.404 1.4814-2.437 2.8891.547.4964 1.362.5196 1.983.923.182.8996.194 1.811.349 2.7223.043.4537.291.8764.726 1.0509 1.681.5585 2.061-2.5362 2.554-3.6181.575-.2521 1.165-.4693 1.739-.7175.256-.0116.493-.0969.687-.3024 1.091-1.5008-1.265-2.0437-2.263-2.4858z" fill="#fad209"/><path d="m130.31 34.0545c-.298-.6825-1.16-.6398-1.785-.5623-.148-.6554-.369-1.2875-.516-1.9467 0-.3141-.008-.6399-.225-.892-.295-.3645-.878-.3955-1.196-.0504-.446.6166-.458 1.4698-.644 2.195-.559.19-1.142.3606-1.65.6592-.706.4111-.668 1.462.128 1.7412.454.1513.936.2133 1.382.4033.144.9734-.45 2.7844.765 3.149 1.587.2559 1.207-1.9933 1.374-2.9783.698-.3219 1.583-.1939 2.193-.6903.264-.2753.318-.6748.174-1.0238z" fill="#fad209"/></g></svg>