<?xml version="1.0" encoding="UTF-8"?>
<svg xmlns="http://www.w3.org/2000/svg" width="64" height="64" viewBox="0 0 64 64" fill="none">
  <path d="M55.9963 23.3787V19.7574C55.9963 16.5761 53.4202 14 50.239 14H13.7603C10.5791 14 8.00293 16.5761 8.00293 19.7574V23.3787H55.9963Z" fill="#23A437"></path>
  <path d="M8.00293 28.2012V44.1806C8.00293 47.3619 10.5791 49.938 13.7603 49.938H50.239C53.4202 49.938 55.9963 47.3619 55.9963 44.1806V28.2012H8.00293ZM22.5247 42.9797H17.6933C16.8865 42.9797 16.2264 42.3287 16.2264 41.5128C16.2264 40.6969 16.8774 40.046 17.6933 40.046H22.5247C23.3315 40.046 23.9916 40.6969 23.9916 41.5128C23.9916 42.3287 23.3406 42.9797 22.5247 42.9797ZM38.5133 42.9797H28.0071C27.2003 42.9797 26.5402 42.3287 26.5402 41.5128C26.5402 40.6969 27.1911 40.046 28.0071 40.046H38.5133C39.3201 40.046 39.9802 40.6969 39.9802 41.5128C39.9802 42.3287 39.3293 42.9797 38.5133 42.9797Z" fill="#23A437"></path>
</svg>
