<?xml version="1.0" encoding="UTF-8"?>
<svg xmlns="http://www.w3.org/2000/svg" width="64" height="64" viewBox="0 0 64 64" fill="none">
  <path d="M6.19238 27.2364C6.71799 25.8998 7.72614 25.4224 9.09617 25.5179C9.82858 25.5699 10.5782 25.4831 11.3106 25.5439C11.8621 25.5873 12.0517 25.353 12.2671 24.8756C13.4734 22.237 14.697 19.6158 15.9894 17.0206C16.8856 15.2152 18.5227 14.4775 20.4184 14.2605C25.8382 13.6442 31.2753 13.6529 36.721 13.8178C39.0044 13.8873 41.2791 14.0522 43.5539 14.2605C45.6219 14.4514 47.2677 15.3801 48.1983 17.3417C49.4132 19.9109 50.6281 22.4887 51.8172 25.0752C51.9637 25.3877 52.0844 25.5439 52.4635 25.5352C53.4372 25.5005 54.4108 25.5265 55.3845 25.5265C56.7373 25.5265 57.7627 26.4292 57.8058 27.653C57.8575 29.007 56.9355 29.9705 55.5051 30.0573C55.4104 30.0573 55.307 30.0746 55.1863 30.092C55.4017 31.0815 55.6258 32.0536 55.824 33.017C56.2203 34.9786 56.4702 36.9488 56.3926 38.9538C56.3582 39.8912 56.2203 40.8026 55.7723 41.6445C55.6861 41.8094 55.6689 42.0351 55.6689 42.226C55.6689 44.0661 55.6689 45.9148 55.6689 47.7549C55.6689 49.8033 54.5142 50.9663 52.4807 50.9576C51.6104 50.9576 50.7315 51.001 49.8699 50.8969C48.4395 50.7146 47.4831 49.5602 47.4486 48.1021C47.44 47.6681 47.4486 47.2341 47.4486 46.7741H16.5581C16.5581 47.2168 16.5581 47.6421 16.5581 48.0587C16.5323 49.6036 15.5155 50.8014 13.9904 50.9316C12.9736 51.0184 11.9396 51.0271 10.9229 50.9316C9.34606 50.7927 8.35515 49.6123 8.34653 47.9632C8.3293 46.0711 8.34653 44.1702 8.33791 42.2781C8.33791 42.009 8.20867 41.74 8.14835 41.4622C7.9674 40.6811 7.68305 39.8999 7.63997 39.1101C7.47626 36.159 8.06218 33.2947 8.76013 30.4565C8.77736 30.3784 8.80321 30.2916 8.82044 30.2135C8.82044 30.1875 8.81183 30.1527 8.80321 30.118C8.44131 30.0573 8.0708 30.0226 7.72614 29.9184C6.94203 29.6841 6.52843 29.0591 6.20962 28.3474V27.2277L6.19238 27.2364ZM48.5171 25.5005C48.4826 25.3616 48.4654 25.2401 48.4223 25.136C47.4917 22.9661 46.5611 20.8049 45.6305 18.6437C45.2686 17.8104 44.6138 17.3678 43.7521 17.2115C43.2093 17.1161 42.6578 17.0119 42.1063 16.9859C39.4438 16.8643 36.7727 16.7081 34.1101 16.6647C29.7588 16.5953 25.416 16.6213 21.0819 17.064C19.7721 17.2029 18.7381 17.6368 18.1867 18.9561C17.4801 20.6486 16.7046 22.3151 15.9808 24.0076C15.774 24.485 15.6362 24.9797 15.4552 25.5005H48.5257H48.5171ZM32.0249 32.5917C29.8622 32.5917 27.6908 32.5917 25.528 32.5917C24.7698 32.5917 24.0201 32.583 23.2619 32.6091C22.8138 32.6264 22.4691 32.9736 22.4174 33.3989C22.3571 33.8676 22.5294 34.2408 22.9689 34.4231C23.1929 34.5186 23.46 34.5359 23.7099 34.5359C28.63 34.5359 33.5501 34.5359 38.4615 34.5359C39.1508 34.5359 39.8402 34.5446 40.5295 34.5359C41.1671 34.5186 41.5549 34.1627 41.5807 33.6072C41.6152 32.9823 41.2102 32.5917 40.4864 32.5917C37.6688 32.5917 34.8426 32.5917 32.0249 32.5917ZM31.9818 38.4244C34.7219 38.4244 37.4534 38.4244 40.1935 38.4244C40.3744 38.4244 40.564 38.4244 40.7449 38.407C41.2188 38.3463 41.5032 38.0685 41.5807 37.5998C41.6583 37.1224 41.417 36.7145 40.9689 36.5669C40.7708 36.4975 40.5381 36.4801 40.3313 36.4801C34.7736 36.4801 29.2159 36.4801 23.6668 36.4801C23.4342 36.4801 23.1843 36.4975 22.9775 36.5843C22.5381 36.7666 22.3571 37.1485 22.4347 37.6172C22.5036 38.0685 22.7879 38.3376 23.236 38.407C23.417 38.433 23.6065 38.4244 23.7875 38.4244C26.5275 38.4244 29.259 38.4244 31.9991 38.4244H31.9818ZM15.5931 38.4157C17.0062 38.4157 18.1264 37.3047 18.135 35.8899C18.135 34.4925 16.9976 33.3295 15.6103 33.3295C14.223 33.3295 13.0943 34.4838 13.1029 35.8986C13.1029 37.296 14.2058 38.407 15.5931 38.4157ZM49.1547 38.4157C50.5678 38.4244 51.6966 37.3134 51.7052 35.8986C51.7052 34.4925 50.5678 33.3295 49.1892 33.3295C47.8191 33.3295 46.699 34.4491 46.6731 35.8379C46.6559 37.2613 47.7502 38.3983 49.1547 38.407V38.4157Z" fill="#23A437"></path>
</svg>
