<?xml version="1.0" encoding="UTF-8"?>
<svg xmlns="http://www.w3.org/2000/svg" width="64" height="64" viewBox="0 0 64 64" fill="none">
  <g clip-path="url(#clip0_1343_4146)">
    <path d="M28.3285 43.3483L25.693 44.2135C25.4452 44.2809 25.1975 44.3258 24.9497 44.3258C24.0262 44.3258 23.2152 43.8202 22.7985 43.0112L21.5371 40.5393L20.501 40.4607L15.2526 51.573C14.8471 52.4157 15.5905 53.3596 16.5027 53.191L20.2757 52.4831C20.76 52.3933 21.2556 52.618 21.5033 53.0449L23.3504 56.4045C23.8009 57.2247 24.9947 57.1798 25.4002 56.3371L30.626 45.2697C30.5697 45.2247 30.5021 45.191 30.4458 45.1348L28.3397 43.3371L28.3285 43.3483Z" fill="#2E3946"></path>
    <path d="M43.5103 40.4719L42.4403 40.5506L41.1902 43.0225C40.7735 43.8315 39.9513 44.3371 39.039 44.3371C38.7913 44.3371 38.5322 44.2921 38.2957 44.2247L35.6715 43.3708L33.5767 45.1573C33.5204 45.2135 33.4528 45.2472 33.3965 45.2921L38.6223 56.3596C39.0165 57.2022 40.2104 57.2472 40.6609 56.427L42.5192 53.0674C42.767 52.6292 43.2513 52.4157 43.7468 52.5056L47.5198 53.2135C48.4433 53.382 49.1641 52.4494 48.7699 51.5955L43.5216 40.4831L43.5103 40.4719Z" fill="#2E3946"></path>
    <path d="M39.8244 22.8937L36.6884 26.2608C36.59 26.373 36.5338 26.5274 36.5619 26.6677L37.1244 31.2272C37.1666 31.62 36.7588 31.9147 36.4072 31.7463L32.2306 29.8102C32.09 29.7401 31.9353 29.7401 31.7946 29.8102L27.618 31.7463C27.2524 31.9147 26.8446 31.62 26.9008 31.2272L27.4633 26.6677C27.4774 26.5133 27.4352 26.373 27.3368 26.2608L24.2008 22.8937C23.9336 22.5991 24.0883 22.1221 24.4821 22.052L28.9962 21.1681C29.1509 21.1401 29.2774 21.0419 29.3477 20.9156L31.5837 16.9032C31.7806 16.5525 32.2868 16.5525 32.4837 16.9032L34.7197 20.9156C34.79 21.0419 34.9165 21.1401 35.0712 21.1681L39.5854 22.052C39.9791 22.1221 40.1338 22.6132 39.8666 22.8937H39.8244Z" fill="#2E3946"></path>
    <path d="M50.8537 25.3371C51.0452 25.1124 51.0452 24.7865 50.8537 24.5618L48.6012 21.9438C48.466 21.7865 48.421 21.573 48.4886 21.3708L49.5585 18.1124C49.6486 17.8315 49.5247 17.5281 49.2657 17.4045L46.2022 15.8539C46.022 15.764 45.8982 15.573 45.8756 15.3708L45.6053 11.9213C45.5828 11.6292 45.3463 11.4045 45.0647 11.382L41.6071 11.1124C41.4044 11.1011 41.2129 10.9775 41.1228 10.7865L39.5686 7.73034C39.4334 7.47191 39.1293 7.34831 38.859 7.4382L35.5929 8.50562C35.4014 8.57303 35.1762 8.52809 35.0185 8.39326L32.3943 6.14607C32.1691 5.95505 31.8424 5.95505 31.6172 6.14607L28.9817 8.39326C28.8241 8.52809 28.6101 8.57303 28.4073 8.50562L25.1299 7.4382C24.8484 7.34831 24.5443 7.47191 24.4204 7.73034L22.8549 10.7865C22.7648 10.9663 22.5733 11.0899 22.3706 11.1124L18.9355 11.382C18.6427 11.4045 18.4174 11.6404 18.3949 11.9213L18.1246 15.3595C18.1133 15.5618 17.9894 15.7528 17.798 15.8427L14.712 17.4045C14.453 17.5393 14.3291 17.8427 14.4192 18.1124L15.4891 21.3933C15.5567 21.5843 15.5117 21.809 15.3765 21.9663L13.1465 24.573C12.9551 24.7978 12.9551 25.1236 13.1465 25.3483L15.3878 27.9551C15.5229 28.1124 15.568 28.3258 15.5004 28.5281L14.4305 31.8202C14.3404 32.1011 14.4643 32.4045 14.7233 32.5281L17.8092 34.0899C17.9894 34.1798 18.1133 34.3708 18.1359 34.573L18.4062 37.9888C18.4287 38.2809 18.6652 38.5056 18.9468 38.5281L22.3706 38.7978C22.5733 38.809 22.7648 38.9326 22.8549 39.1236L24.4204 42.2022C24.5555 42.4607 24.8596 42.5843 25.1299 42.4944L28.4299 41.427C28.6213 41.3595 28.8466 41.4045 29.0043 41.5393L31.6172 43.7753C31.8424 43.9663 32.1691 43.9663 32.3943 43.7753L35.0072 41.5506C35.1649 41.4157 35.3789 41.3708 35.5816 41.4382L38.859 42.5056C39.1406 42.5955 39.4447 42.4719 39.5686 42.2135L41.1341 39.1348C41.2242 38.9551 41.4156 38.8315 41.6184 38.809L45.0647 38.5393C45.3576 38.5168 45.5828 38.2809 45.6053 38L45.8756 34.573C45.8869 34.3708 46.0108 34.1798 46.2022 34.0899L49.2657 32.5393C49.5247 32.4045 49.6486 32.1011 49.5585 31.8315L48.4886 28.5618C48.421 28.3708 48.466 28.1461 48.6012 27.9888L50.8537 25.3595V25.3371ZM32.0001 37.7191C24.9497 37.7191 19.2058 31.9888 19.2058 24.9551C19.2058 17.9213 24.9385 12.191 32.0001 12.191C39.0618 12.191 44.7944 17.9213 44.7944 24.9551C44.7944 31.9888 39.0618 37.7191 32.0001 37.7191Z" fill="#2E3946"></path>
  </g>
  <defs>
    <clipPath id="clip0_1343_4146">
      <rect width="38" height="51" fill="white" transform="translate(13 6)"></rect>
    </clipPath>
  </defs>
</svg>
