<?xml version="1.0" encoding="UTF-8"?>
<svg xmlns="http://www.w3.org/2000/svg" width="64" height="64" viewBox="0 0 64 64" fill="none">
  <g clip-path="url(#clip0_1343_4157)">
    <path d="M55.421 33.8203L37.4907 15.8899L29.1799 7.57913C28.8114 7.21059 28.315 7 27.7885 7C27.262 7 26.7656 7.20307 26.3971 7.57913L20.4855 13.4907C19.8913 14.0849 19.8688 15.0401 20.4404 15.6643C21.6663 17.0031 21.6137 19.0488 20.3351 20.3274C19.0565 21.606 17.0032 21.6586 15.672 20.4327C15.0477 19.8611 14.0925 19.8837 13.4984 20.4778L7.57927 26.3894C6.81212 27.1566 6.81212 28.4126 7.57927 29.1797L9.53476 31.1352H37.0319L33.7377 27.841C33.2714 27.3747 33.2714 26.6226 33.7377 26.1563C34.204 25.6899 34.9561 25.6899 35.4224 26.1563L40.6947 31.4285C40.9203 31.6542 41.0407 31.955 41.0407 32.2709C41.0407 32.5868 40.9128 32.8876 40.6947 33.1133L34.7004 39.1001C34.4672 39.3332 34.1664 39.446 33.858 39.446C33.5496 39.446 33.2488 39.3332 33.0156 39.1001C32.5493 38.6338 32.5493 37.8817 33.0156 37.4153L36.9191 33.5119H11.9114L14.3031 35.9036H27.6381C28.2924 35.9036 28.8264 36.4376 28.8264 37.0919C28.8264 37.7463 28.2924 38.2803 27.6381 38.2803H16.6873L19.1091 40.7021L33.8204 55.4134C34.1889 55.7819 34.6853 55.9925 35.2118 55.9925C35.7383 55.9925 36.2347 55.7894 36.6032 55.4134L42.5148 49.5018C43.109 48.9076 43.1315 47.9524 42.5599 47.3282C41.334 45.9894 41.3866 43.9437 42.6652 42.6651C43.9438 41.3865 45.9971 41.3338 47.3283 42.5598C47.9526 43.1314 48.9077 43.1088 49.5094 42.5147L55.421 36.6031C55.7971 36.2345 56.0001 35.7381 56.0001 35.2117C56.0001 34.6852 55.7971 34.1888 55.421 33.8203Z" fill="#2E3946"></path>
  </g>
  <defs>
    <clipPath id="clip0_1343_4157">
      <rect width="49" height="49" fill="white" transform="translate(7 7)"></rect>
    </clipPath>
  </defs>
</svg>
