<?xml version="1.0" encoding="UTF-8"?>
<svg xmlns="http://www.w3.org/2000/svg" width="64" height="64" viewBox="0 0 64 64" fill="none">
  <g clip-path="url(#clip0_1343_4152)">
    <path d="M55.7788 34.233C55.2579 34.1407 54.7293 34.256 54.2939 34.5635C53.8586 34.8633 53.5709 35.3168 53.4776 35.8395C52.5836 40.8896 49.9015 45.5016 45.929 48.8375C41.9097 52.212 36.7866 54.0644 31.5002 54.0644C26.2137 54.0644 21.0984 52.2043 17.0713 48.8375C14.1638 46.4009 11.9249 43.2263 10.5877 39.7135C10.8365 39.8211 11.1086 39.8749 11.3807 39.8749C12.1348 39.8749 12.8189 39.4599 13.1532 38.7988C13.3942 38.3299 13.433 37.7996 13.2698 37.2999C13.1065 36.8003 12.7489 36.3929 12.2747 36.1546L8.02225 34.0177L7.02716 33.7871C6.98051 33.7871 6.94164 33.7871 6.93387 33.7871L6.28084 33.9486C6.24197 33.9639 6.2031 33.987 6.18755 33.9947L5.79107 34.256L5.72887 34.3175L5.41013 34.6942C5.41013 34.6942 5.36349 34.7633 5.36349 34.771L3.1945 39.1678C2.96128 39.6443 2.93018 40.1747 3.10121 40.6744C3.27225 41.174 3.63763 41.5737 4.11185 41.8043C4.38395 41.935 4.67937 42.0041 4.98256 42.0041C5.73665 42.0041 6.4441 41.566 6.77061 40.8973C8.33321 45.1095 10.9997 48.9221 14.4826 51.843C19.2248 55.817 25.2575 58.0077 31.4846 58.0077C37.7117 58.0077 43.7444 55.817 48.4866 51.843C53.1745 47.9151 56.3308 42.473 57.388 36.5236C57.4813 36.0086 57.3647 35.4859 57.0537 35.0554C56.7506 34.625 56.2919 34.3406 55.771 34.2483L55.7788 34.233Z" fill="#2E3946"></path>
    <path d="M58.8807 22.2034C57.8934 21.7268 56.7039 22.1342 56.2219 23.1104C54.6593 18.8982 51.9928 15.0856 48.51 12.1647C43.76 8.19069 37.7195 6 31.5001 6C25.2808 6 19.2403 8.19069 14.4981 12.1647C9.8103 16.0925 6.654 21.5347 5.59671 27.4841C5.41013 28.5525 6.13313 29.5749 7.21373 29.7593C7.7346 29.8516 8.26324 29.7363 8.69859 29.4288C9.13395 29.129 9.42159 28.6755 9.51488 28.1605C10.4089 23.1104 13.091 18.4984 17.0636 15.1625C21.0828 11.788 26.206 9.93555 31.4924 9.93555C36.7788 9.93555 41.8942 11.7957 45.9212 15.1625C48.8287 17.5991 51.0754 20.7737 52.4048 24.2865C51.9539 24.0943 51.4564 24.0712 50.9899 24.2173C50.4846 24.3787 50.0726 24.7323 49.8316 25.1935C49.5906 25.6624 49.5517 26.1928 49.715 26.6924C49.8782 27.192 50.2358 27.5994 50.7101 27.8377L54.9625 29.9746L55.0558 30.0207C55.0558 30.0207 55.1024 30.0438 55.1102 30.0438L55.429 30.1514C55.4834 30.1667 55.53 30.1744 55.5689 30.1744L55.6777 30.1898C55.7477 30.1975 55.8254 30.2052 55.8954 30.2052H55.9887C56.0509 30.2052 56.1053 30.1975 56.1675 30.1821L56.2763 30.1591C56.3308 30.1514 56.3852 30.136 56.4085 30.1283L56.5407 30.0899C56.5873 30.0745 56.634 30.0591 56.6806 30.0361L56.7894 29.9823C56.8361 29.9592 56.875 29.9361 56.9216 29.9131L57.0304 29.8439C57.0771 29.8132 57.1159 29.7824 57.1393 29.767L57.2403 29.6748C57.2403 29.6748 57.3103 29.6056 57.3492 29.5672L57.4347 29.4673C57.4347 29.4673 57.4891 29.3981 57.5358 29.3366L59.7825 24.8169C60.2645 23.8407 59.8524 22.6569 58.8651 22.188L58.8807 22.2034Z" fill="#2E3946"></path>
    <path d="M31.5566 15.5C22.4228 15.5 15 22.9312 15 32.0566C15 41.182 22.4312 48.6132 31.5566 48.6132C40.682 48.6132 48.1132 41.182 48.1132 32.0566C48.1132 22.9312 40.682 15.5 31.5566 15.5ZM38.6859 41.2072H25.7022L25.1151 39.2781C25.9203 38.4897 26.5074 37.6929 26.8849 36.8793C27.2623 36.0658 27.4468 35.0509 27.4468 33.8431C27.4468 33.7173 27.43 33.516 27.3965 33.2308H24.4274V30.6643H26.65C26.2894 29.4481 26.1132 28.3494 26.1132 27.3681C26.1132 26.1519 26.3732 25.1035 26.9016 24.2228C27.43 23.3422 28.1681 22.6628 29.1075 22.2015C30.0553 21.7402 31.1456 21.5053 32.3702 21.5053C34.3496 21.5053 35.8677 22.0505 36.9077 23.1493C37.9478 24.248 38.5013 25.6487 38.5517 27.3681H35.0961C35.0793 26.5126 34.8528 25.8416 34.4251 25.3467C33.9973 24.8519 33.3263 24.6087 32.4205 24.6087C31.5818 24.6087 30.9192 24.8603 30.4243 25.3551C29.9295 25.8584 29.6862 26.6216 29.6862 27.6533C29.6862 28.1146 29.7366 28.5759 29.8372 29.0288C29.9379 29.4817 30.0804 30.0269 30.2817 30.6475H35.3141V33.2141H30.9527C30.9863 33.4992 31.003 33.7173 31.003 33.8599C31.003 34.6315 30.8521 35.3948 30.5585 36.1496C30.265 36.9045 29.812 37.5923 29.2082 38.1961H38.6859V41.1904V41.2072Z" fill="#2E3946"></path>
  </g>
  <defs>
    <clipPath id="clip0_1343_4152">
      <rect width="57" height="52" fill="white" transform="translate(3 6)"></rect>
    </clipPath>
  </defs>
</svg>
