<?xml version="1.0" encoding="UTF-8"?>
<svg xmlns="http://www.w3.org/2000/svg" width="127" height="88" viewBox="0 0 127 88" fill="none">
  <path fill-rule="evenodd" clip-rule="evenodd" d="M61.6522 21.6545C62.7124 21.3338 63.8437 21.3338 64.9038 21.6545L71.9959 23.8C73.0111 24.1071 73.7055 25.0426 73.7055 26.1032V34.6833C73.7055 37.9507 72.174 41.0292 69.568 43.0001L64.7296 46.6594C63.8708 47.3088 62.6852 47.3088 61.8265 46.6594L56.9881 43.0001C54.3821 41.0292 52.8506 37.9507 52.8506 34.6833V26.1032C52.8506 25.0426 53.545 24.1071 54.5601 23.8L61.6522 21.6545ZM62.9016 37.7088L70.4792 30.2665L68.793 28.5497L61.7775 35.44L57.762 31.4962L56.0759 33.213L60.6534 37.7088C61.2775 38.3217 62.2775 38.3217 62.9016 37.7088Z" fill="#23A437"></path>
  <path fill-rule="evenodd" clip-rule="evenodd" d="M58.0289 5.50019L57.9575 5.50019C57.0724 5.50013 56.2963 5.50009 55.6556 5.57272C54.9629 5.65125 54.2932 5.82611 53.6764 6.26554C53.0595 6.70497 52.6755 7.28076 52.3749 7.90985C52.0969 8.49165 51.8434 9.22519 51.5543 10.0617L51.531 10.1292L50.0101 14.5288C49.9656 14.6577 49.9422 14.7249 49.9237 14.7735L49.9213 14.7798L49.9146 14.78C49.8626 14.7816 49.7914 14.7818 49.655 14.7818L49.4811 14.7817C48.2522 14.7814 47.4143 14.7812 46.688 14.9395C44.06 15.5123 42.0074 17.5649 41.4346 20.1928C41.2763 20.9191 41.2766 21.757 41.2769 22.9859L41.2769 23.1599V25.7821L41.2769 25.8537C41.2769 27.2412 41.2769 28.3861 41.3709 29.3103C41.4688 30.2732 41.6801 31.1479 42.2039 31.9317C42.6052 32.5323 43.1208 33.0479 43.7214 33.4492C44.5052 33.973 45.3799 34.1843 46.3428 34.2822C46.8742 34.3363 47.4786 34.3592 48.1602 34.369C48.1522 34.0131 48.1522 33.5752 48.1522 33.0011C48.1522 32.4191 48.1522 31.977 48.1605 31.6185C47.5476 31.6095 47.048 31.5897 46.6212 31.5462C45.8756 31.4704 45.5059 31.3341 45.2492 31.1626C44.949 30.962 44.6911 30.7041 44.4905 30.4039C44.319 30.1472 44.1827 29.7775 44.1069 29.0319C44.0287 28.2634 44.027 27.2591 44.027 25.7821V23.1599C44.027 21.6908 44.035 21.1762 44.1216 20.7785C44.4653 19.2017 45.6969 17.9702 47.2737 17.6265C47.6713 17.5398 48.186 17.5319 49.655 17.5319L49.7097 17.5319C49.9063 17.5323 50.1503 17.5328 50.3856 17.4926C51.2126 17.3514 51.9299 16.8404 52.3335 16.1049C52.4484 15.8957 52.5276 15.6649 52.5915 15.479L52.5915 15.479L52.6093 15.4273L54.1302 11.0277C54.4495 10.1038 54.6536 9.51979 54.8563 9.09539C55.044 8.70266 55.1726 8.57621 55.272 8.5054C55.3714 8.43459 55.5329 8.35434 55.9654 8.30531C56.4328 8.25233 57.0513 8.25028 58.0289 8.25028H68.5264C69.504 8.25028 70.1226 8.25233 70.5899 8.30531C71.0224 8.35434 71.184 8.43459 71.2833 8.5054C71.3827 8.57621 71.5114 8.70266 71.699 9.09539C71.9018 9.51979 72.1058 10.1038 72.4252 11.0277L73.946 15.4273L73.9638 15.4789C74.0277 15.6649 74.107 15.8957 74.2218 16.1049C74.6255 16.8404 75.3428 17.3514 76.1697 17.4926C76.405 17.5328 76.649 17.5323 76.8457 17.5319L76.9003 17.5319C78.3694 17.5319 78.884 17.5398 79.2817 17.6265C80.8585 17.9702 82.09 19.2017 82.4337 20.7785C82.5204 21.1762 82.5283 21.6908 82.5283 23.1599V25.7821C82.5283 27.2591 82.5267 28.2634 82.4485 29.0319C82.3727 29.7775 82.2363 30.1472 82.0649 30.4039C81.8642 30.7041 81.6064 30.962 81.3061 31.1626C81.0495 31.3341 80.6797 31.4704 79.9342 31.5462C79.5073 31.5897 79.0077 31.6095 78.3948 31.6185C78.4032 31.977 78.4032 32.4191 78.4032 33.0011C78.4032 33.5752 78.4032 34.0131 78.3952 34.369C79.0767 34.3592 79.6811 34.3363 80.2125 34.2822C81.1755 34.1843 82.0502 33.973 82.834 33.4492C83.4345 33.0479 83.9502 32.5323 84.3515 31.9317C84.8752 31.1479 85.0865 30.2732 85.1845 29.3103C85.2785 28.3861 85.2785 27.2412 85.2784 25.8536V25.8536V25.7821V23.1599L85.2785 22.9859C85.2788 21.757 85.279 20.9191 85.1207 20.1928C84.5479 17.5649 82.4953 15.5123 79.8673 14.9395C79.141 14.7812 78.3032 14.7814 77.0743 14.7817L76.9003 14.7818C76.7639 14.7818 76.6927 14.7816 76.6408 14.78L76.6341 14.7797L76.6317 14.7735C76.6132 14.7249 76.5898 14.6577 76.5452 14.5288L75.0244 10.1292L75.001 10.0617C74.7119 9.22521 74.4584 8.49165 74.1804 7.90985C73.8799 7.28076 73.4958 6.70497 72.879 6.26554C72.2621 5.82611 71.5925 5.65125 70.8997 5.57272C70.259 5.50009 69.4829 5.50013 68.5978 5.50019L68.5264 5.50019H58.0289Z" fill="black"></path>
  <path d="M6.06405 65.2837C6.6076 64.2192 7.37763 63.3926 8.37413 62.8037C9.39328 62.2149 10.6276 61.9205 12.0771 61.9205V65.1138H11.2617C7.79661 65.1138 6.06405 66.9936 6.06405 70.7531V80.8767H2.97262V62.2602H6.06405V65.2837ZM32.6316 70.855C32.6316 71.4439 32.5976 72.0667 32.5296 72.7235H17.65C17.7632 74.558 18.3861 75.9961 19.5185 77.0379C20.6735 78.0571 22.0663 78.5666 23.697 78.5666C25.0332 78.5666 26.1429 78.2609 27.0262 77.6494C27.9321 77.0153 28.5663 76.1773 28.9286 75.1355H32.2579C31.7596 76.9247 30.7631 78.3854 29.2683 79.5178C27.7736 80.6276 25.9165 81.1825 23.697 81.1825C21.9305 81.1825 20.3451 80.7861 18.9409 79.9934C17.5594 79.2008 16.4723 78.0797 15.6796 76.6302C14.887 75.1581 14.4906 73.4595 14.4906 71.5345C14.4906 69.6094 14.8757 67.9221 15.6457 66.4727C16.4157 65.0232 17.4915 63.9135 18.873 63.1435C20.2772 62.3508 21.8852 61.9544 23.697 61.9544C25.4635 61.9544 27.0262 62.3395 28.3851 63.1095C29.744 63.8795 30.7858 64.944 31.5105 66.3028C32.2579 67.639 32.6316 69.1565 32.6316 70.855ZM29.4382 70.2096C29.4382 69.0319 29.1778 68.0241 28.6569 67.1861C28.136 66.3255 27.4226 65.68 26.5166 65.2497C25.6334 64.7967 24.6482 64.5703 23.5611 64.5703C21.9984 64.5703 20.6622 65.0685 19.5524 66.065C18.4653 67.0615 17.8425 68.443 17.684 70.2096H29.4382ZM43.3027 81.1825C41.8759 81.1825 40.5962 80.9447 39.4639 80.469C38.3315 79.9708 37.4369 79.2914 36.7801 78.4307C36.1233 77.5475 35.7609 76.5396 35.693 75.4073H38.8863C38.9769 76.3358 39.4072 77.0945 40.1773 77.6834C40.9699 78.2722 42.0004 78.5666 43.2687 78.5666C44.4464 78.5666 45.3749 78.3062 46.0544 77.7853C46.7338 77.2644 47.0735 76.6076 47.0735 75.8149C47.0735 74.9996 46.7112 74.3994 45.9864 74.0144C45.2617 73.6068 44.1406 73.2104 42.6232 72.8254C41.2417 72.463 40.1093 72.1007 39.2261 71.7383C38.3654 71.3533 37.6181 70.7984 36.9839 70.0737C36.3724 69.3263 36.0667 68.3525 36.0667 67.1521C36.0667 66.2009 36.3498 65.329 36.916 64.5363C37.4822 63.7436 38.2862 63.1208 39.328 62.6678C40.3698 62.1922 41.5588 61.9544 42.895 61.9544C44.956 61.9544 46.6206 62.4753 47.8889 63.5171C49.1571 64.5589 49.8366 65.9858 49.9272 67.7976H46.8357C46.7678 66.8237 46.3714 66.0424 45.6467 65.4535C44.9446 64.8647 43.9934 64.5703 42.7931 64.5703C41.6833 64.5703 40.8001 64.8081 40.1433 65.2837C39.4865 65.7593 39.1581 66.3821 39.1581 67.1521C39.1581 67.7636 39.3506 68.2732 39.7356 68.6808C40.1433 69.0659 40.6415 69.3829 41.2304 69.6321C41.8419 69.8585 42.6799 70.119 43.7443 70.4134C45.0805 70.7758 46.1676 71.1381 47.0056 71.5005C47.8436 71.8402 48.557 72.3611 49.1458 73.0632C49.7573 73.7653 50.0744 74.6825 50.097 75.8149C50.097 76.8341 49.8139 77.7513 49.2477 78.5666C48.6815 79.382 47.8775 80.0274 46.8357 80.503C45.8166 80.956 44.6389 81.1825 43.3027 81.1825ZM71.4469 70.855C71.4469 71.4439 71.413 72.0667 71.345 72.7235H56.4654C56.5786 74.558 57.2014 75.9961 58.3338 77.0379C59.4889 78.0571 60.8817 78.5666 62.5124 78.5666C63.8486 78.5666 64.9583 78.2609 65.8416 77.6494C66.7475 77.0153 67.3816 76.1773 67.744 75.1355H71.0732C70.575 76.9247 69.5785 78.3854 68.0837 79.5178C66.589 80.6276 64.7318 81.1825 62.5124 81.1825C60.7458 81.1825 59.1605 80.7861 57.7563 79.9934C56.3748 79.2008 55.2877 78.0797 54.495 76.6302C53.7024 75.1581 53.306 73.4595 53.306 71.5345C53.306 69.6094 53.691 67.9221 54.4611 66.4727C55.2311 65.0232 56.3069 63.9135 57.6884 63.1435C59.0925 62.3508 60.7005 61.9544 62.5124 61.9544C64.2789 61.9544 65.8416 62.3395 67.2005 63.1095C68.5593 63.8795 69.6011 64.944 70.3259 66.3028C71.0732 67.639 71.4469 69.1565 71.4469 70.855ZM68.2536 70.2096C68.2536 69.0319 67.9931 68.0241 67.4722 67.1861C66.9513 66.3255 66.2379 65.68 65.332 65.2497C64.4488 64.7967 63.4636 64.5703 62.3765 64.5703C60.8138 64.5703 59.4776 65.0685 58.3678 66.065C57.2807 67.0615 56.6579 68.443 56.4994 70.2096H68.2536ZM78.619 65.2837C79.1625 64.2192 79.9325 63.3926 80.929 62.8037C81.9482 62.2149 83.1825 61.9205 84.632 61.9205V65.1138H83.8166C80.3515 65.1138 78.619 66.9936 78.619 70.7531V80.8767H75.5275V62.2602H78.619V65.2837ZM95.1308 78.0231L100.906 62.2602H104.201L96.8973 80.8767H93.2963L85.9924 62.2602H89.3216L95.1308 78.0231ZM124.229 70.855C124.229 71.4439 124.195 72.0667 124.127 72.7235H109.248C109.361 74.558 109.984 75.9961 111.116 77.0379C112.271 78.0571 113.664 78.5666 115.295 78.5666C116.631 78.5666 117.741 78.2609 118.624 77.6494C119.53 77.0153 120.164 76.1773 120.526 75.1355H123.856C123.357 76.9247 122.361 78.3854 120.866 79.5178C119.371 80.6276 117.514 81.1825 115.295 81.1825C113.528 81.1825 111.943 80.7861 110.539 79.9934C109.157 79.2008 108.07 78.0797 107.277 76.6302C106.485 75.1581 106.088 73.4595 106.088 71.5345C106.088 69.6094 106.473 67.9221 107.243 66.4727C108.013 65.0232 109.089 63.9135 110.471 63.1435C111.875 62.3508 113.483 61.9544 115.295 61.9544C117.061 61.9544 118.624 62.3395 119.983 63.1095C121.342 63.8795 122.383 64.944 123.108 66.3028C123.856 67.639 124.229 69.1565 124.229 70.855ZM121.036 70.2096C121.036 69.0319 120.775 68.0241 120.255 67.1861C119.734 66.3255 119.02 65.68 118.114 65.2497C117.231 64.7967 116.246 64.5703 115.159 64.5703C113.596 64.5703 112.26 65.0685 111.15 66.065C110.063 67.0615 109.44 68.443 109.282 70.2096H121.036Z" fill="black"></path>
</svg>
