<?xml version="1.0" encoding="UTF-8"?>
<svg xmlns="http://www.w3.org/2000/svg" width="142" height="142" viewBox="0 0 142 142" fill="none">
  <circle cx="71" cy="71" r="71" fill="#23A437"></circle>
  <path d="M111.919 41.3074C111.578 40.9315 111.108 40.7082 110.591 40.6847L101.062 40.25C100.968 40.25 100.863 40.25 100.769 40.25C99.8287 40.3557 99.112 41.1194 99.0768 42.0594C99.0533 42.5646 99.2295 43.0581 99.5703 43.434C99.911 43.81 100.381 44.0332 100.898 44.0567L105.833 44.28L99.1238 50.4013L95.2583 46.1716C94.9176 45.7956 94.4476 45.5724 93.9306 45.5489C93.4254 45.5254 92.932 45.7016 92.556 46.0541L87.3394 50.836C85.2362 48.8387 82.8394 47.2173 80.1958 45.9954C77.0823 44.5737 73.769 43.763 70.3383 43.6103C68.9754 43.5515 67.589 43.5868 66.2496 43.7395C64.2287 43.9627 62.2313 44.421 60.3162 45.1024C56.9794 46.2891 53.9481 48.0985 51.3163 50.507C49.1427 52.4927 47.3216 54.8073 45.9235 57.3686C44.5723 59.8477 43.6324 62.5265 43.1271 65.311C42.6337 68.0721 42.5749 70.8801 42.9509 73.653C43.3386 76.4728 44.1728 79.1868 45.43 81.7364C45.6532 82.1946 46.0409 82.5354 46.5227 82.6998C46.7224 82.7703 46.9339 82.8056 47.1336 82.8056C47.4273 82.8056 47.7093 82.7351 47.9796 82.6058C48.9195 82.1359 49.3072 80.9962 48.849 80.0563C47.7798 77.8827 47.0631 75.5563 46.7341 73.1477C46.4052 70.7744 46.4522 68.3658 46.8869 66.0042C47.7798 61.0931 50.2002 56.7106 53.8894 53.3269C57.4612 50.0606 61.8789 48.0515 66.649 47.5345C67.8122 47.4053 68.9989 47.37 70.1738 47.4288C76.2129 47.699 81.782 50.3073 85.8707 54.772C86.2114 55.148 86.6814 55.3712 87.1984 55.3947C87.6801 55.4182 88.197 55.2302 88.573 54.9012L93.7427 50.1663L97.6081 54.396C98.3131 55.1715 99.5233 55.2302 100.299 54.5135L108.417 47.0998L108.194 52.0344C108.171 52.5397 108.347 53.0331 108.688 53.4091C109.028 53.7851 109.498 54.0083 110.004 54.0318C110.521 54.0553 111.002 53.8791 111.378 53.5383C111.754 53.1976 111.977 52.7276 112.001 52.2224L112.436 42.6821C112.459 42.1769 112.283 41.6834 111.942 41.3074H111.919Z" fill="white" stroke="white" stroke-width="0.8" stroke-linejoin="round"></path>
  <path d="M93.3661 60.3999C92.8962 59.46 91.7565 59.0722 90.8166 59.5305C89.8766 60.0004 89.4889 61.1401 89.9471 62.08C91.0163 64.2536 91.733 66.58 92.062 68.9886C92.391 71.3736 92.344 73.7705 91.9092 76.1321C91.0163 81.0432 88.596 85.4257 84.9067 88.8094C81.335 92.0757 76.9173 94.0731 72.1471 94.6018C70.9839 94.731 69.7973 94.7663 68.6223 94.7075C62.5833 94.4373 57.0141 91.829 52.9254 87.3643C52.5847 86.9883 52.103 86.7651 51.5978 86.7416C51.0925 86.7181 50.5991 86.9061 50.2231 87.2351L45.0535 91.97L41.188 87.7403C40.483 86.9648 39.2729 86.9061 38.5209 87.5875L38.4034 87.6815C38.4034 87.6815 38.3329 87.7168 38.3094 87.7403L31.1424 93.5444C30.273 94.2493 30.1437 95.5182 30.8487 96.3759C31.2482 96.8694 31.8239 97.1279 32.4113 97.1279C32.8578 97.1279 33.3043 96.9751 33.6802 96.6814L39.7311 91.7937L43.5261 95.953C43.8668 96.3289 44.3368 96.5522 44.8537 96.5757C45.3589 96.5992 45.8524 96.4229 46.2284 96.0704L51.445 91.2885C53.5481 93.2859 55.945 94.9073 58.5885 96.1292C61.7021 97.5508 65.0153 98.3615 68.4461 98.5143C68.8456 98.5378 69.2568 98.5378 69.6563 98.5378C70.6197 98.5378 71.5831 98.4908 72.5348 98.385C74.5557 98.1618 76.5531 97.7036 78.4682 97.0221C81.8049 95.8355 84.8362 94.0261 87.4681 91.6175C89.6417 89.6319 91.4628 87.3173 92.8609 84.756C94.2121 82.2769 95.152 79.5981 95.6572 76.8135C96.1507 74.0525 96.2094 71.2444 95.8335 68.4716C95.4458 65.6518 94.6116 62.9377 93.3544 60.3881L93.3661 60.3999Z" fill="white" stroke="white" stroke-width="0.8" stroke-linejoin="round"></path>
  <path d="M78.9033 83.9103H60.7156L59.8931 81.2079C61.021 80.1035 61.8435 78.9873 62.3722 77.8477C62.9009 76.708 63.1594 75.2863 63.1594 73.5945C63.1594 73.4182 63.1359 73.1362 63.0889 72.7368H58.9297V69.1415H62.0432C61.538 67.4379 61.2913 65.8987 61.2913 64.5241C61.2913 62.8205 61.6555 61.3518 62.3957 60.1181C63.1359 58.8845 64.1698 57.9328 65.4857 57.2866C66.8134 56.6404 68.3408 56.3114 70.0562 56.3114C72.829 56.3114 74.9556 57.0751 76.4125 58.6142C77.8694 60.1534 78.6448 62.1155 78.7153 64.5241H73.8747C73.8512 63.3257 73.5339 62.3857 72.9347 61.6925C72.3355 60.9993 71.3956 60.6586 70.1267 60.6586C68.9517 60.6586 68.0236 61.0111 67.3304 61.7043C66.6372 62.4092 66.2964 63.4784 66.2964 64.9236C66.2964 65.5698 66.3669 66.216 66.5079 66.8504C66.6489 67.4849 66.8486 68.2486 67.1306 69.118H74.1801V72.7133H68.0706C68.1176 73.1127 68.1411 73.4182 68.1411 73.618C68.1411 74.6989 67.9296 75.7681 67.5183 76.8255C67.1071 77.8829 66.4727 78.8464 65.6267 79.6923H78.9033V83.8868V83.9103Z" fill="white"></path>
</svg>
