<?xml version="1.0" encoding="UTF-8"?>
<svg xmlns="http://www.w3.org/2000/svg" width="142" height="142" viewBox="0 0 142 142" fill="none">
  <circle cx="71" cy="71" r="71" fill="#23A437"></circle>
  <path fill-rule="evenodd" clip-rule="evenodd" d="M45.7709 63.7191C44.8681 63.7191 44.0531 64.2595 43.7018 65.0911L38.7946 76.7057C38.7533 76.8035 38.7195 76.9025 38.6928 77.0023C38.3327 76.9826 37.9705 76.9905 37.6083 76.9985C37.2041 77.0073 36.7999 77.0162 36.3987 76.9867C34.6757 76.8804 33 77.4823 33 79.5711C33 80.5387 33.8261 81.471 34.8764 81.7897C35.1267 81.8679 35.3927 81.9046 35.657 81.9412C35.7913 81.9597 35.9252 81.9782 36.0565 82.0021C36.0565 82.0198 36.0624 82.0375 36.0683 82.0552C36.0742 82.0729 36.0801 82.0906 36.0801 82.1083C36.0725 82.1685 36.0554 82.224 36.0378 82.2807C36.0279 82.3129 36.0178 82.3455 36.0093 82.3797C35.2422 85.4598 34.6049 88.5752 34.7819 91.7733C34.8136 92.3513 34.9675 92.9188 35.1224 93.4898C35.1983 93.7698 35.2745 94.0507 35.3366 94.3341C35.3602 94.4324 35.3904 94.5308 35.4205 94.6291C35.4808 94.8258 35.5411 95.0225 35.549 95.2192C35.5625 96.3923 35.5606 97.5653 35.5586 98.7406C35.5572 99.6226 35.5558 100.506 35.5608 101.391C35.5726 103.173 36.6583 104.459 38.3812 104.613C39.4905 104.707 40.6116 104.707 41.7209 104.613C43.2905 104.483 44.506 103.161 44.5414 101.592V100.093H78.2804V101.533C78.3158 103.09 79.4959 104.412 81.0418 104.577C81.6831 104.644 82.3303 104.64 82.9792 104.636C83.2498 104.635 83.5206 104.633 83.7914 104.636C85.715 104.636 87.2609 103.079 87.2609 101.155V95.1602C87.2609 94.9477 87.2727 94.7117 87.3789 94.5229C87.8746 93.6024 88.0162 92.623 88.0634 91.6081C88.146 89.4367 87.8746 87.2889 87.4379 85.1647C87.2947 84.4567 87.1354 83.7486 86.9745 83.0333C86.8967 82.6876 86.8186 82.3402 86.7417 81.9903C86.7921 81.9857 86.839 81.9793 86.8837 81.9732C86.9541 81.9637 87.019 81.9549 87.0839 81.9549C88.6534 81.8605 89.6565 80.822 89.5975 79.3468L89.6211 79.3232C89.5739 77.9897 88.4528 77.0103 86.9777 77.0103C86.6241 77.0103 86.2692 77.0076 85.9139 77.005C85.2019 76.9998 84.4881 76.9945 83.7796 77.0103L83.5674 77.0085L78.9422 65.1491C78.6059 64.2868 77.7751 63.7191 76.8496 63.7191H45.7709ZM78.7324 76.9749L75.3146 68.2114H47.2603L43.5577 76.9749H78.7324ZM40.7768 88.2684C40.7886 89.7907 41.9923 91.0062 43.5029 91.0062H43.4911C45.037 91.018 46.2761 89.8025 46.2761 88.2684C46.2761 86.7461 45.0252 85.4834 43.5147 85.4834C42.0042 85.4834 40.7768 86.7343 40.7768 88.2684ZM70.536 91.0195C70.6864 91.0217 70.8369 91.0239 70.9874 91.0062L70.9992 90.9944C71.5184 90.9236 71.8252 90.6168 71.9078 90.1093C71.9905 89.5901 71.7308 89.1535 71.2352 88.9883C71.0228 88.9174 70.7749 88.8938 70.5389 88.8938H52.3182C52.0586 88.8938 51.7872 88.9174 51.5629 89.0119C51.0909 89.2125 50.8903 89.6255 50.9729 90.1329C51.0555 90.6286 51.3505 90.9236 51.8462 90.9944C52.0468 91.018 52.2474 91.018 52.448 91.018H61.4168H70.3855C70.4357 91.018 70.4858 91.0188 70.536 91.0195ZM69.2509 86.7985C69.7504 86.8038 70.2483 86.809 70.7513 86.7933H70.7749C71.4712 86.7815 71.9078 86.392 71.9314 85.7902C71.955 85.1175 71.5184 84.6927 70.7277 84.6927H61.4758H54.3716C54.1651 84.6927 53.9585 84.692 53.752 84.6912C53.1325 84.689 52.5129 84.6868 51.8934 84.7045C51.3977 84.7281 51.0201 85.1057 50.9611 85.566C50.8903 86.0734 51.0791 86.4746 51.5629 86.6753C51.799 86.7697 52.094 86.7933 52.3654 86.7933H68.4974C68.7495 86.7933 69.0004 86.7959 69.2509 86.7985ZM77.4661 88.1976C77.4425 89.7553 78.6462 90.9944 80.1803 90.9944C81.7263 90.9944 82.9654 89.7907 82.9654 88.2566C82.9772 86.7343 81.7263 85.4716 80.2157 85.4716C78.717 85.4716 77.4897 86.6871 77.4661 88.1976Z" fill="white"></path>
  <path fill-rule="evenodd" clip-rule="evenodd" d="M109.686 51.843C109.686 60.0406 103.041 66.686 94.843 66.686C86.6454 66.686 80 60.0406 80 51.843C80 43.6454 86.6454 37 94.843 37C103.041 37 109.686 43.6454 109.686 51.843ZM94.6847 58.2517L105.387 47.7407L102.499 44.8007L92.8549 54.2729L87.3325 48.8491L84.445 51.7892L91.025 58.2517C92.0409 59.2494 93.6688 59.2494 94.6847 58.2517Z" fill="white"></path>
</svg>
