<?xml version="1.0" encoding="UTF-8"?>
<svg xmlns="http://www.w3.org/2000/svg" width="142" height="142" viewBox="0 0 142 142" fill="none">
  <circle cx="71" cy="71" r="71" fill="#23A437"></circle>
  <path d="M104.669 98.3496H101.349V59.3315C101.349 58.046 100.298 57 99.0056 57H87.6159C86.3236 57 85.272 58.046 85.272 59.3315V98.3496H80.2296V73.9633C80.2296 72.6778 79.1781 71.6444 77.8858 71.6444H66.496C65.2038 71.6444 64.1522 72.6904 64.1522 73.9633V98.3496H58.451V87.7129C58.451 86.4274 57.3994 85.394 56.1072 85.394H44.7427C43.4505 85.394 42.4116 86.44 42.4116 87.7129V98.3496H37.3312C36.0389 98.3496 35 99.3956 35 100.681C35 101.967 36.0516 103 37.3312 103H104.669C105.961 103 107 101.954 107 100.681C107 99.4082 105.948 98.3496 104.669 98.3496ZM96.6745 61.663V98.3622H89.9597V61.663H96.6745ZM75.5673 76.2948V98.3622H68.8525V76.2948H75.5673ZM53.8013 90.0444V98.3622H47.0866V90.0444H53.8013Z" fill="white"></path>
  <path d="M43.359 78C43.9084 78 44.445 77.8086 44.8794 77.4514L83.2727 45.1633V48.276C83.2727 49.5772 84.3331 50.6361 85.6363 50.6361C86.9395 50.6361 88 49.5772 88 48.276V40.0987C88 39.9584 87.9744 39.8436 87.9361 39.665C87.9361 39.5757 87.9106 39.4481 87.8595 39.3078C87.7956 39.1419 87.7189 39.0144 87.6167 38.8613C87.5911 38.7975 87.54 38.6954 87.4634 38.5934L87.3484 38.4786C87.2462 38.3765 87.1312 38.3 86.9779 38.1852C86.9268 38.1341 86.8373 38.0576 86.7096 38.0066C86.4668 37.879 86.1985 37.828 86.0835 37.8152L77.025 37.0115C76.3862 36.9477 75.7857 37.1518 75.3002 37.5601C74.8147 37.9683 74.5336 38.5296 74.4697 39.1547C74.4186 39.7798 74.6102 40.3921 75.0191 40.8641C75.4279 41.3489 75.9901 41.6423 76.6289 41.6933L79.7336 41.9485L41.8386 73.8412C41.3531 74.2494 41.0592 74.8107 41.0081 75.4358C40.957 76.0609 41.1486 76.6733 41.5575 77.158C42.0047 77.6938 42.669 78 43.359 78Z" fill="white"></path>
</svg>
